<?xml version="1.0" encoding="utf-8"?>
<!-- Generator: Adobe Illustrator 28.0.0, SVG Export Plug-In . SVG Version: 6.00 Build 0)  -->
<svg version="1.1" id="Слой_1" xmlns="http://www.w3.org/2000/svg" xmlns:xlink="http://www.w3.org/1999/xlink" x="0px" y="0px"
	 viewBox="0 0 1024 1024" style="enable-background:new 0 0 1024 1024;" xml:space="preserve">
<style type="text/css">
	.st0{fill:#FFFFFF;}
	.st1{fill:#471C1D;}
	.st2{fill:#3B1413;}
	.st3{fill:#DDD2A2;}
	.st4{fill:#2C160F;}
	.st5{fill:#918E88;}
	.st6{fill:#F6F0E0;}
	.st7{fill:#4A473E;}
	.st8{fill:url(#SVGID_1_);}
	.st9{fill:#C9C1BE;}
	.st10{fill:#1E130E;}
	.st11{fill:url(#SVGID_00000183235876806909358970000004053178255560428673_);}
	.st12{fill:#EEEBCC;}
	.st13{fill:url(#SVGID_00000116940426338520018380000000037886605341970873_);}
	.st14{fill:url(#SVGID_00000108272464300097806470000013069199983038158492_);}
	.st15{fill:url(#SVGID_00000170969391952603712510000010441473215275226550_);}
	.st16{fill:#6F6656;}
	.st17{fill:url(#SVGID_00000001641822286833201800000014325472013406272389_);}
	.st18{fill:#4A2D1F;}
	.st19{fill:#946E62;}
	.st20{fill:url(#SVGID_00000097468210581085065050000012111371168693629625_);}
	.st21{fill:url(#SVGID_00000026881190347241846430000014983886938515889047_);}
	.st22{fill:url(#SVGID_00000162346835287644557330000015155362154419575727_);}
	.st23{fill:url(#SVGID_00000112626652907015520790000016673680069205416370_);}
	.st24{fill:url(#SVGID_00000018196406447264071980000008655354068536860298_);}
	.st25{fill:#AC877A;}
	.st26{fill:#C09E74;}
</style>
<path class="st0" d="M0,0h1024v1024H0V0z"/>
<path class="st1" d="M633.2,215.7c-2.4-8.5-4-13.2-7.4-21.4c-7.5-17.4-14.8-26.6-10.7-46c8.5-42.9,65-58.6,102.1-48.2
	c12.3,3.4,52.8,12.6,49.6,30.2c-0.8,4.2-13.9,9.9-18.2,12.3c4.1,7.2,6.9,13.3,9.2,21.2c-5.8,18.7-7.4,20,2.7,37.2
	c1.7,2.9,3.6,8.2,2.3,11.5c-1.5,3.9-4.6,3.2-8.5,4.9c1.1,13.2,0.9,7-6.4,14.9c-4.8,5.3-9.2,27-16.2,30.3
	c-11.6,5.5-24.6-5.6-35.2-8.6l-0.7-0.2c-4.1,1.1-16.3,6.9-16.8,11.2c3.1,2.8,5.2,9.3,8,13.7c14.2,22.2-0.3,40.6-11.6,59.8l1,0.6
	c3-1.1,4-1.5,7.2,0c0.9,0.4,1.9,1.5,2,2.5c0.4,4.7-7.8,10.9-9.1,14.6c-1.5,4.3-1.5,11.1-1.6,15.5c15.1-1.1,24.9-1.8,31.4,13.7
	c1.8,2.3,3.3,2.6,3.7,5.8c0.2,1.9-1,5.2-0.8,6.5c1,6,0,12.9,1.3,18.6c-2.2,7.2-6.2,9.3-12.7,12.8c-14.4,7.8-22.2,9.6-38.2,7.3
	c-1.9,11.5-11.3,10.4-20.6,11c-1.5,2.4-4.1,6.9-5.8,8.9c2.6,5.1,6.3,9.6,9.4,14.4c3.3,5.2,6.1,10.8,8.6,16.5
	c14.1,0.1,22.9,6.4,30.8,17.4l0.7-1.1c3.5,0.4,6.6,5,6.8,8.3c-0.8,0.8-0.3,0.5-1.3,0.9l-0.2,0.9c2.4,5.1,2.3,10.7-3.3,13.6
	c-3.2,6.6-6.9,11.5-14.9,10.9l-1.9,1.3c-5.4,5.4-8.3,6.7-16.1,7.1c-6.8-4.2-2.7-6-8.5-10.3l-1.2-1.4c-3.4-6.2-8.2-7.3-13.9-11.2
	c-9.6,4.3-2.4,6.6-9.6,11.4c43.6,36.6,86.6,83.9,112.9,134.7c11.1,21.4,15.7,47.6,23.5,70.2c11.9,34.5,25.9,67.5,40.5,100.9
	c-3.1,10-8,16-14.9,23.7c6.6,6.8,5.1,11.4,11.9,15.7c13.5-8.7,10.5,5.5,18.4,2.5c4.5-2.7,7.9-2,12.8-1.3c0.7-0.2,5.7-0.5,6.8-0.5
	c8-0.1,13.6-1.4,21.1-4.1c11.4-3.8,20-14.8,31.7-17.3c6.5-1.4,16.4,1.4,16.7,9.1c0.5,11-7.3,26-13.8,34.3
	c-18.2,23.5-40.2,33.4-68.6,37.9c1.6,2.2,5,6.6,2.1,9.1c-8.3,7.8-27.1,16.6-38.1,18.5c-8.7,1.5-23.7-28-25.6-35
	c-1.8-4.6-1.9-11.2-3.6-15.7c-3-8.2-12.3-18.8,3.7-18.8c-4.8-6-6.9-10.3-10.5-17.1l-0.9,0.1c-9.2,1.4-19,0.9-26.7-4.7
	c-1.4-3.2-2.3-6.3-3.4-9.7c-6.9-21.3-13.5-43.3-23.5-63.3c-3.9-7.8-9-15.2-13-23c-9.9-19-14.2-40.6-15.8-61.7
	c-6.6-3.7-8.2-5.7-10.6-12.6c0.4-1.4,1.8-6.3,1.8-7.5c0-7-1.2-11.5-0.9-18.8c-28.4-12.6-57.7-30-82.9-48.3
	c-14.4-10.5-27.6-22-41.7-32.9c-5.6,12.8-12.2,25.3-18.5,37.8c-18,35.4-37.3,70.9-61.6,102.5c-5,6.5-10.1,13.4-16.5,18.6
	c-9.9,8.1-25.2,12.4-37.3,16.3c-16.1,5.1-32.6,10-49.1,13.8c-27.4,6.4-55.3,11.2-82.6,18c-5.5,1.4-40.5,12.5-43.1,11.8
	c-7.5-2-11.7-23.6-14.6-29.9l-0.3,0.3l-0.6,4.7c-4.1,0.6-16.4,2.6-19.4,4.8c1.4,3.7,2.9,7.5,0.3,11c-3.3,4.4-12,8.1-17.2,8.9
	c-4.7,6.8-12.8,13.6-15.8,21.7c-5.2,14.2-1.3,32.5-10.9,44.9c-5.2,6.7-13.9,2.1-18.7-2.8c-10.9-11.1-13.9-29.1-14.1-44
	c-0.2-14.4,4.2-30.8,11.8-43c2.5-3.9,6.7-8.1,10-11.5c-2.4-2.2-6.9-6-7.2-9.6c-0.9-11,5.5-31.9,11.2-40.9c7.6-12,46,2.4,54,9.1
	c6.1,0.9,10.9,1.5,17.1,1.3c5.2-14.9,2.4-15.2,20-15.5c37.2-0.6,72.7-12,108.6-20.4c9.4-2.2,18.9-4.8,28.5-6.4
	c-1-7.7,9.1-4.3,11.4-3.9c4.7,0.8,2.5-9.7,10.7-9.1c0.2-0.8,0.2-0.5,0.2-1.2c-0.9-20.4,4-39.5,8.3-59.4c6-28.2,14.8-56.7,18.6-85.4
	c-11.1-1.8-18.4-3.2-28.3-8.5c2.5-6.2,6.1-14.8,10.9-19.3c-10.5-5.2-16.9-20.6-19.4-31.4c2.6-4.4,9.5-11.9,13-16
	c11.7-14.2,25.7-27.3,37.2-41.5c-30.7,8.1-71.6-7.1-91.7-31c-8.7-10.4-9-21.3-8.9-34c-14.6-16.6,3.7-47.4,11.9-64.1
	c1.9-4.6,7.1-10,7.6-14.9c1.4-12.4,18.7-15.8,29.6-15.6c4.7-10.7,8-11.3,14.5-20.1c-6.1-0.2-19-1-19.1-10.2
	c-0.1-7.9,10.4-11.4,15.8-15.9c15.7-13,30.2-28.1,47.4-39.2c17.8-11,43.3-18.2,64.1-16.2c30.6,2.9,60.6,25.3,80,48.1
	c15.5-2.4,21.4-0.2,34.3,8.6C613.6,206.5,623.7,207.8,633.2,215.7z"/>
<path class="st2" d="M667.9,361.1l-0.8-0.4c4.4-9.9,1.7-30,3.7-41.2c0.4-2.4,0.1-5.9,0.7-8.4c1.4-5.4,7-5.8,10.7-8.2
	c2.3-7.3,1.8-19.5,1.5-27.3c-0.1-1.8-3.9-8.4-4.6-10.6c3.1,2.8,5.2,9.3,8,13.7c14.2,22.2-0.3,40.6-11.6,59.8
	c-0.9,1.6-3.1,6.1-4.3,6.7c-0.4-1.1-0.3-0.7-0.3-2l-0.5-0.2C670.5,349.1,670.1,355.3,667.9,361.1z"/>
<path class="st3" d="M684.5,279c11.2,20.4-2,35.2-10.4,53.5c-2,4.3-1.9,6.7-3.2,10.6l-0.5-0.2c-0.1-10.1,1.1-20.5,1.4-30.7
	c5-7.5,3.4-5.2,9.7-7.8C685.3,303,684.5,283.3,684.5,279z"/>
<path class="st2" d="M659,495.9c3-1.2,3.6-1,6.5,0.3c-0.7,0.7-2.8,3-3.2,3.6c1.5,1.4,0.8,1.6,1.7,3.1c-0.6,1.6-0.7,1.6-0.4,3.4
	c1,0.8,0.5,0.7,1.6,0.6c1.6-1.7,1-1.6,2.8-1.9c3.1,1,5,3.3,7.8,5.4l-2.4,2.5c-1.3-1.5-2-2.7-3.8-3.2c-3.1,1.9,0.5,6.6,3.9,7l1.1,4.9
	c-1.8,1.4-1.6,1.6-1.6,4l-1.2,1.4c-4.6,0.9-3.8,1.7-7.4,3.4c-4.2-0.4-6.8-1.3-9.4-4.8l1-0.1c1.9,1.7,7.4,5.3,9.5,2.7
	c-1.9-1.9-5.5-0.5-7.7-3.7c-0.2-2-0.4-1.1,0.5-2.9c1.4-3.4,1.5-3.9,5.2-5l-0.6-0.8c-2.2-0.9-2.9-0.4-5.6,0.1
	c1.2-1.7,1.7-1.7,3.8-2.4c-1.9,0.2-2.2,0-3.7-0.9c-1.1,0.8-1.6,0.8-2.9,1.2l-0.7-0.4l0.9-0.6c2.8-4.8-6.3-9.6,3.8-17.6L659,495.9z"
	/>
<path class="st0" d="M659,495.9c3-1.2,3.6-1,6.5,0.3c-0.7,0.7-2.8,3-3.2,3.6c1.5,1.4,0.8,1.6,1.7,3.1c-0.6,1.6-0.7,1.6-0.4,3.4
	c1,0.8,0.5,0.7,1.6,0.6c-0.4,2.1,0,2.1-1.2,3.2c-1.7,0.1-5.8-1.4-7.4-2.2C653.6,502.3,655.6,500.3,659,495.9z"/>
<path class="st4" d="M662.2,499.8c1.5,1.4,0.8,1.6,1.7,3.1c-0.6,1.6-0.7,1.6-0.4,3.4c1,0.8,0.5,0.7,1.6,0.6c-0.4,2.1,0,2.1-1.2,3.2
	c-1.7,0.1-5.8-1.4-7.4-2.2c0.3-0.8,0.5-1.7,0.8-2.5c1.3,0.6,1,0.5,2,1.8l0.3,0.4C660.8,506.9,660.5,502.5,662.2,499.8z"/>
<path class="st0" d="M658.2,521.5c1.4-3.4,1.5-3.9,5.2-5c0.7,0.9,0.8,1.4,1.7,2c0.8,3.2,1.1,4.3,0.8,7.6
	C661.6,526.9,659.2,525.9,658.2,521.5z"/>
<path class="st0" d="M661.1,513.4c4.8,1.4,13.6,8.9,6.2,13l-1.3-0.3c0.3-3.4,0-4.5-0.8-7.6c-0.8-0.7-1-1.1-1.7-2l-0.6-0.8
	c-2.2-0.9-2.9-0.4-5.6,0.1C658.5,514.2,659,514.2,661.1,513.4z"/>
<path class="st5" d="M665.1,518.5c2.2,3,2.1,4.1,2.2,7.9l-1.3-0.3C666.2,522.8,665.9,521.7,665.1,518.5z"/>
<path class="st6" d="M651,492.4c3,0.5,4.8,0.7,7.7,1.8l-0.1,0.9c-10.1,8-1,12.8-3.8,17.6c-2.6-3.6-5-10.1-6.6-11.2l-0.6,0.7
	c-0.4,3,0.1,6.1,0.5,9.1c-2.4,4.3-5.5,10.1-6.4,15c-2.9-2.3-6.7-4.8-9.8-7C635.4,509.7,642.4,498.4,651,492.4z"/>
<path class="st3" d="M841.6,886.8c6.8-0.9,10.1-3,16.3-5.5c-1.2,4.4-2.3,8.5-2.7,13c-9.3,1.4-18,2.6-27.4,3.4l-1.5-0.4
	c0-3.2,0.4-6.4,0.7-9.6c1.2-0.4,1.2-0.5,2.4-0.5l-0.2,0.8C832.2,888.7,838.6,887.4,841.6,886.8z"/>
<path class="st4" d="M827.1,887.8c1.2-0.4,1.2-0.5,2.4-0.5l-0.2,0.8c-0.2,3-0.8,6.7-1.5,9.6l-1.5-0.4
	C826.3,894.2,826.7,891,827.1,887.8z"/>
<path class="st0" d="M667.2,497.4c4.3-1.5,12.2,10,14.2,13.1c2.1,3.4,5.8,7.3,2.6,11l0.2,0.6l1,0.3c0.6,1.5,0.3,2.8-0.3,4.2
	l-1.4-0.8l-1.4-0.4c-1.2-2.8-4.8-3.5-7.5-4l-1.1-4.9c-3.4-0.4-7-5.1-3.9-7c1.8,0.4,2.6,1.7,3.8,3.2l2.4-2.5
	c-2.8-2.1-4.7-4.4-7.8-5.4c-1.9,0.4-1.3,0.2-2.8,1.9c-1.2,0.1-0.6,0.2-1.6-0.6c-0.3-1.7-0.2-1.8,0.4-3.4
	C666.7,501.1,667.1,500.8,667.2,497.4z"/>
<path class="st2" d="M673.5,516.6c4.5,2.8,5.2,3.3,10.4,4l0.2,0.9l0.2,0.6l1,0.3c0.6,1.5,0.3,2.8-0.3,4.2l-1.4-0.8l-1.4-0.4
	c-1.2-2.8-4.8-3.5-7.5-4L673.5,516.6z"/>
<path class="st2" d="M674.6,521.4c2.7,0.4,6.2,1.1,7.5,4l1.4,0.4l1.4,0.8l-0.1,0.5c-3.2,6.6-6.9,11.5-14.9,10.9l-1.9,1.3l-0.2-0.5
	c1.6-2.1,1.8-2.7,1.2-5.4c-1.4-1.3-0.6-0.8-2.6-1.2l-0.5,0.4c0.4,1.6,0.9,2.6,0.6,4.3c-1.3,1.4-2.5,1.4-4.6,1.6l0.6-0.4
	c1.4-0.7,2.2-0.9,3.1-2.2c0-2-0.3-1.9-1.4-3.9l0.5-0.9l-0.6-0.1l0.3-0.7c3.5-1.7,2.8-2.5,7.4-3.4l1.2-1.4
	C672.9,523,672.8,522.9,674.6,521.4z"/>
<path class="st0" d="M674.6,521.4c2.7,0.4,6.2,1.1,7.5,4c-1.3,1.6-2.3,2.8-4.3,3.1c-2.1-0.4-3.1-1.6-4.8-3.1
	C672.9,523,672.8,522.9,674.6,521.4z"/>
<path class="st0" d="M671.8,526.9c1.3,2.2,2.8,3.8,2.7,6.2l-0.6,0.6c-6-0.4-5.2-2.9-9.1-2.7l-0.6-0.1l0.3-0.7
	C667.9,528.6,667.2,527.7,671.8,526.9z"/>
<path class="st6" d="M662.5,538c-7.4-3.2-11.7-7.4-9.8-15.7c0.8,1.1,1.5,2.1,2.2,3.2c2.6,3.4,5.2,4.3,9.4,4.8l-0.3,0.7l0.6,0.1
	l-0.5,0.9c1.1,2,1.5,2,1.4,3.9C664.7,537.1,664,537.3,662.5,538z"/>
<path class="st3" d="M664.2,531.9c-1.9,0-5.7,0.4-7.2-0.6l0,0.3l-0.6-0.2c1.9-0.7,5.5-0.5,7.6-0.5l0.6,0.1L664.2,531.9z"/>
<path class="st6" d="M823.5,887.4l3.6,0.4c-0.3,3.1-0.8,6.4-0.7,9.6c-2.1,0.5-5.4,0.2-7.7,0.1C820,892.7,818.7,889.5,823.5,887.4z"
	/>
<path class="st6" d="M675.6,338.5l1,0.6c-3.4,4.4-4.9,9-5,14.5l0.7,0.2c-0.5,3.7-4.1,13-5.3,17.6l-1.1-0.2l-0.4-0.1
	c-0.4-1.4,1.8-8.1,2.4-10c2.2-5.8,2.6-12,2.5-18.1l0.5,0.2c0,1.2,0,0.8,0.3,2C672.5,344.6,674.7,340,675.6,338.5z"/>
<path class="st7" d="M671.5,353.6l0.7,0.2c-0.5,3.7-4.1,13-5.3,17.6l-1.1-0.2C667.8,365.4,670,359.4,671.5,353.6z"/>
<path class="st2" d="M811.1,882.6c4.5-2.7,7.9-2,12.8-1.3l-0.5,3.1c-0.1,0.8-0.1,0.5-0.1,1.5l0.5-0.1l0.4,0.8l-0.9,0.7
	c-1.4-0.7-2.6-0.6-4.1-0.7c-3.7-0.5-3.8-1.2-6.4-3.9L811.1,882.6z"/>
<path class="st2" d="M819.3,886.5c1.5,0.1,2.7,0,4.1,0.7l0.1,0.2c-4.8,2-3.4,5.2-4.8,10c-1-0.1-2.4,0-3.4,0.1
	c0.6-2.3,1.2-6.6,1.5-9.1C817.4,887.6,818.3,887.2,819.3,886.5z"/>
<path class="st3" d="M673.2,352.6c0.2-3.2,2.3-11.1,6.3-10.9c1.4,2.9-3.5,9.3-5.5,11.4L673.2,352.6z"/>
<linearGradient id="SVGID_1_" gradientUnits="userSpaceOnUse" x1="687.9201" y1="514.457" x2="685.0343" y2="513.2429" gradientTransform="matrix(1 0 0 -1 0 1021.89)">
	<stop  offset="0" style="stop-color:#D4D4C2"/>
	<stop  offset="1" style="stop-color:#F8F9F3"/>
</linearGradient>
<path class="st8" d="M682.2,504.5l0.7-1.1c3.5,0.4,6.6,5,6.8,8.3c-0.8,0.8-0.3,0.5-1.3,0.9l-0.2,0.9
	C687.2,512.4,683.2,506.1,682.2,504.5z"/>
<path class="st0" d="M815.3,897.5l-1.4-0.5c-1.6-2.2-1.1-7.5,1.3-9l1.6,0.4C816.4,890.9,815.9,895.3,815.3,897.5z"/>
<path class="st9" d="M672.3,353.8l0.9-1.1l0.8,0.5c-1.7,3-4.4,17.3-5.7,18c-0.2,0.1-1,0.2-1.3,0.2
	C668.2,366.7,671.8,357.4,672.3,353.8z"/>
<path class="st2" d="M827.1,887.8l0.3-0.8c2.1-1,11.3-1.1,14.2-0.2c-3,0.6-9.4,1.9-12.3,1.3l0.2-0.8
	C828.3,887.4,828.3,887.5,827.1,887.8z"/>
<path class="st10" d="M665.5,496.2l0.3,1l-0.3,0.4c-0.7,1.1-1.2,1.6-1.3,3c1.5-0.6,1.9-1.8,3.1-3.2c-0.1,3.4-0.5,3.6-3.3,5.5
	c-0.8-1.4-0.2-1.6-1.7-3.1C662.7,499.2,664.8,496.9,665.5,496.2z"/>
<path class="st3" d="M417.6,541.4c11.7-0.3,23.4,1.4,34.4,5.6c-11,43.5-27.9,99.5-44.4,141.2l1.6,0.5c8.1-15.6,14.3-33.7,20.3-50.2
	c10.8-29.6,18.9-59.2,27-89.7c16.1,6.7,38.6,30.1,50.6,43.4c1.7-1.5,3.1-2.9,5-4.2c3.8,2.7,7,5.1,10.6,8
	c-10,28.4-74.6,150.5-99.1,162.1c-14.8,7-31,11.9-46.7,16.4c-20.1,5.7-40.5,10.6-61,14.9c-32.2,6.9-64.2,13-95.4,24.2
	c-7-13.8-15.1-39-13.5-54.9c0.6-6.4,4.5-19.7,7.5-25.4l0.8-0.1c7.4-1.2,16.4-1,23.4-1.7c11.3-1.1,39-4.2,48.2-7.6
	c10.7-3.9,69.9-15.8,75.8-20.4c-0.8,10.4,7.5,20.5,13,28.5c-46.9,14.7-112.4,39.1-161.5,31.3c26.6,11,82.8-3,109.3-10.8
	c18.4-5.4,38.8-13.7,57.4-18.8c-3.3-6.5-9.9-12.2-11.2-19.9c-0.5-2.7-1.4-12.3,0.1-14.4c2,1.5,6.9,14,13.8,18.3
	c8.7,5.4,14,6.1,24,4.6c-10-2.6-30.7-11.9-25.9-25.2c1.2-2.2,2.3-4.5,3.5-6.7l1.6,4.9c1.6,2.4,6.2,7.8,9.3,7.1
	c-0.4-1.7-2.6-3.1-3.7-4.6c-2.6-3.5-1.9-10.6-1.8-14.8c1-32.3,11-63.8,18.2-95.1C411.8,573.5,416.3,555.6,417.6,541.4z"/>
<linearGradient id="SVGID_00000039115083138545617380000007448933290552744331_" gradientUnits="userSpaceOnUse" x1="386.1618" y1="318.7032" x2="390.1464" y2="320.8201" gradientTransform="matrix(1 0 0 -1 0 1021.89)">
	<stop  offset="0" style="stop-color:#310504"/>
	<stop  offset="1" style="stop-color:#1F140C"/>
</linearGradient>
<path style="fill:url(#SVGID_00000039115083138545617380000007448933290552744331_);" d="M385.6,695.3l0.2,0.7
	c1.5,4.8,2.7,6.8,7,9.5l2.1,1.3c-5.7,2.5-10.8-4.1-11.7-9.5C383.8,696.7,384.8,695.9,385.6,695.3z"/>
<path class="st12" d="M385,690.2l1.6,4.9l-1,0.2c-0.8,0.6-1.7,1.3-2.4,2l-1.6-0.4C382.8,694.7,383.9,692.5,385,690.2z"/>
<path class="st10" d="M407.5,688.1l1.6,0.5l-3,5.9l-1.2,0.3L407.5,688.1z"/>
<path class="st7" d="M404.9,694.8l1.2-0.3c-0.8,1.6-1.3,3-2.7,4.1C403.5,697,404,696.5,404.9,694.8z"/>
<path class="st3" d="M583.6,521.5c7.8,2.7,17.6,6.6,24,11.8c47.2,37.8,91.3,84.1,119.8,137.8c2.6,4.9,4.5,10.9,6.6,16.1
	c7.9,22.5,13,45.8,19.9,68.6c8.9,29.5,20.5,57.7,32.5,86.1c-2.9,19-35.2,39.8-54.3,34.3c-2.9-0.8-15.3-32.9-16.9-37.6
	c7.9,9.3,14.4,20.4,25.8,26.3c-21.1-17.6-56.5-89.3-65.2-116.3c-4.3-14.9-4.5-20.1-5.7-35.2l0.3,0.1c2.5,0.9,9.7,2.8,11.8,1.1
	c-8.8-3.4-11.3-5.9-15.7-14.5c-1.8-3.5-5.5-8.3-5.1-12.3c2.5-3.4,11.8-0.4,17-1.3c7.9-1.4,22.4-8.6,24.1-17l-0.5-0.5
	c-2.1,0.8-3.6,2.4-5.3,3.8c-5.9,5-13.8,11.4-22,10.6c-14.5-1.5-61.3-28.4-75.3-37.4c-14-9-27.3-19.2-40.5-29.4
	c-6.6-5.1-14.6-10.6-20-17c1.4-1.9,7.9-0.3,10.1,0.2c26.7,6.1,76.8,19.6,103.1,14c-27.8-4.4-60.1-9.7-87-17.4
	c16.5-1.1,29.2-6.6,39.7-19.6c-19.4,11.1-38.5,12.4-60.3,9.2c3.3-7.5,8.7-16.1,12.9-23.1C565.9,548.9,574.8,535.2,583.6,521.5z"/>
<linearGradient id="SVGID_00000137104995406361813730000011945012794279161240_" gradientUnits="userSpaceOnUse" x1="716.0226" y1="254.7496" x2="708.6252" y2="251.7311" gradientTransform="matrix(1 0 0 -1 0 1021.89)">
	<stop  offset="0" style="stop-color:#2F1A0E"/>
	<stop  offset="1" style="stop-color:#3C1417"/>
</linearGradient>
<path style="fill:url(#SVGID_00000137104995406361813730000011945012794279161240_);" d="M691.7,708.4c0.3,0.4,9.5,32.5,10.8,36.3
	c7.3,20.8,16.3,39,25.8,58.8c2.6,5.4,11.3,17.9,12.4,22.2l-8.1-11.3c-13-18.2-24.2-41.8-32.1-62.8
	C696.6,741.5,689.9,718.9,691.7,708.4z"/>
<path class="st2" d="M667.8,691.5c8.9-1.1,21.9,6.1,31.7,5.5c2.5-0.1,8.8-1.3,10.1-1.2c0,1.3-0.5,1.5-1.4,2.8
	c-4.9,3-7.8,3.4-13.6,3.6C687.6,702.4,672.3,696.2,667.8,691.5z"/>
<path class="st2" d="M623.1,634.9c2.9,0.4,60.5,32.4,64.7,35.1c-7.3-0.1-38.6-17.3-46.1-22.2C637.2,645,627.8,638.3,623.1,634.9z"/>
<path class="st2" d="M700.2,681.5c1.4,0.1,1.8,0.5,3.1,1.1c0,5.2-17.7,8.5-21.8,9c-1.9-0.3-2.1-0.1-3.1-1.4l0.3-1.1
	C681.8,686.5,695.4,682.9,700.2,681.5z"/>
<path class="st3" d="M567.9,252.6c28.3-3,45.6,27.4,51.1,50.9c4.8,20.4,11.2,59.2,6.8,79.7c-1.3,1.6-2.8,3.4-4.2,5
	c-6.7-0.1-13.9-1-20.5-1.9c7.5-13.9,12.5-23.3,14.5-39.3c-6.7,16.3-11.2,23.9-20,39.1c-9.3-0.8-23.3-3-32.1-5.6
	c3.5-5.1,8.3-9.9,12-15.5c6.1-9.2,12-18.2,15.2-28.9c1.1-3.7,1.5-9.2,2.6-12.3c4.6-14.7,8-23.2,5.2-38.8c-0.6,8.7-1,15.1-3.9,23.5
	c-6.9,20.1-22.6,39.2-40.2,50.9c-7.2,4.7-18.2,9.6-26.2,13.5c22.6-3.8,31.6-10.8,48.4-24.3c-18.4,26.7-45.8,45.8-75.9,57
	c10.8-1.3,16-2.2,26.1-6.4c8.9-4.1,13.7-7.5,21.9-13c-3.9,4-7.9,9-11.7,13.2c-8.2,9-14.9,14.6-25,21.2c25-8.8,28.6-20,45.4-34.9
	c3.9,7.2,3.3,9.3,3.5,17.2l0.5,0c3.6-5.3,3.1-10.1,1.5-16c26.2,6.5,46.3,5.3,71.9,8c10.1,15.3,6.9,42.6-5,56.8
	c-2.3,2.8-11.4,1.7-15.2,1.5c4.1-4.3,11.7-12.9,10.6-19.4c-1.3-0.3-2.4,3.7-3.7,5.6c-2.9,4.4-6.6,8.1-11.1,10.7l-0.6,0.3
	c-5.4,0.3-12.3-0.8-17.8-1.2c-20.7-1.7-41.4-5.9-61.7-10.3c-18.7-4.1-44.8-8.8-60.6-20.2c-0.5-33.7,26.9-75.5,43.7-103.8
	C525.3,294.5,542.9,258,567.9,252.6z"/>
<linearGradient id="SVGID_00000157994307101458569240000006539002770194605483_" gradientUnits="userSpaceOnUse" x1="534.5885" y1="712.2692" x2="528.3333" y2="715.097" gradientTransform="matrix(1 0 0 -1 0 1021.89)">
	<stop  offset="0" style="stop-color:#2C180C"/>
	<stop  offset="1" style="stop-color:#441714"/>
</linearGradient>
<path style="fill:url(#SVGID_00000157994307101458569240000006539002770194605483_);" d="M554.4,267.5l0.4,0.4
	c-20.6,29-26,52.3-39.2,84.2l-0.2,0c-0.3-2.7,2.3-12.8,3.1-15.9C524.6,310.5,534.7,285.8,554.4,267.5z"/>
<path class="st10" d="M551,424.6l0.2,0.5c-6.7,6-11.9,8.8-20.5,11.7l-0.4-0.3C531.2,435.2,548.1,426.2,551,424.6z"/>
<path class="st10" d="M605.3,311.5c-0.5,3.2-7.8,11.3-10.4,13.8C594.2,321.1,602.3,314.5,605.3,311.5z"/>
<path class="st3" d="M460.7,391.9c1.2,5.2-11.4,23-4.8,30.2c5.8,6.4,18.9,12.5,27.1,14.5c30.9,7.7,62.6,12.9,94.1,16.9
	c9.3,1.2,18.7,1.8,27.9,3.1c-13,31.1-35,59.2-56.6,85c-10.8,12.9-25.5,25.6-37.7,37.4c-0.4-7.2-1.1-16.2-2.8-23.2
	c-0.7,4-1,8.8-1.3,12.9c-0.1,4.3-0.1,7.6,0.3,11.9c-24.6-25.1-65.1-64.5-102.6-62.3c4.7-7.5,11.7-20,15.7-28
	c-7,5.2-17.7,15.9-24.4,22.1c-7.1-8.1-11.6-17.9-14.8-28.1c3.2-5.5,11.4-14.3,15.9-19.3l28.4-31.1
	C438.7,419.4,448.4,407.3,460.7,391.9z"/>
<path class="st2" d="M487.6,441.8c0.9,0.1,1.6,0.2,2.2,0.9c10.5,11.5,22.3,21.6,34,32c4.8,4.3,10.8,8.3,16.1,12.1
	c-8.2,10.5-19.3,26.5-30.3,33.4c-19.3,8.5-50.8-14.8-50.8-36c0-8.4,11.7-17.8,17.8-23.1C474.5,451.9,480.7,446.7,487.6,441.8z"/>
<path class="st3" d="M477.6,465.4c1.3,0.7,5.4,6.2,7.1,7.7c13.9,12.2,26.5,20.8,45.1,19c-6,7.8-10.1,13.5-17.5,20.2
	c-9.6,6.8-19.3,4.8-29.1-0.6c-10.9-6-16.8-15.9-20-27.8C465.4,476.7,472.2,470.8,477.6,465.4z"/>
<path class="st3" d="M486.8,446.2c0.6,0.2,1.4,0.5,1.8,1c13.4,15,28.2,29.8,45.2,40.7l-7.6,0.2c-16.3-0.2-41.6-16-46.9-31.5
	C481,451.5,483,449.5,486.8,446.2z"/>
<path class="st2" d="M532.6,531.3c2.6-0.7,5.3,0,7.2,1.9c1.9,1.9,2.6,4.7,1.8,7.2c-0.7,2.6-2.8,4.5-5.4,5.1
	c-3.9,0.9-7.8-1.5-8.8-5.4C526.5,536.3,528.8,532.3,532.6,531.3z"/>
<path class="st2" d="M558.4,497.5c9.6-0.8,14.1,8.6,6.1,14C554.6,512.1,550.3,503.7,558.4,497.5z"/>
<path class="st2" d="M584.9,468.5c10,0.5,11.7,9.4,2.9,14.3C577.7,483.7,576.7,472.8,584.9,468.5z"/>
<path class="st3" d="M381,265.8c8-13,19.1-29.8,29.6-40.7c16.2-16.9,40.2-22.6,63.1-22.7c20.1-0.1,45.2,12.4,60.1,25.6
	c2.3,2,4.1,5,4.1,8.1l0.1,2c-1.6,0.6-2.6,0.1-4.1,0.3C508,249,487.7,288,477.6,312.7c-0.9,2.2-1.6,3.9-2.2,6.2
	c9.5-14.3,19.7-27.1,30.7-40.3l2.4,0.9c-6.7,13.3-17.3,27.3-24.8,40.6c-9.8,17.4-18.7,34.7-27.7,52.3c-9.6,18.8-24.9,39-45.9,45.2
	c-18,5.5-34.7-0.8-50.7-9.3c14,2.8,24.9,1.5,37.4-5.7c36.4-21.3,50.9-64.6,70.7-99.5c7.6-13.3,15.2-23.9,24.2-36.3l-1.2-0.5
	c-13.5,15.9-25.1,32.5-35.8,51.5c-18.5,33-38.9,84-83.3,86.3c-10.2,0.5-24.7-5-31.8-12.3c-7.2-7.3-8.6-17.6-8.5-27.5
	c10.6,7.9,31,20.7,41.7,5.5c3.9-5.5,6.2-16.3,8.5-23.1c6.8-20.3,16.9-36.1,31.7-51.6c4.7-0.1,14,2.1,16.4-0.7
	c7.7-9.4,4.6-14.7-5.8-18.4C409.3,271.1,396,267.6,381,265.8z"/>
<path class="st2" d="M533.9,238.4c-8.7-7-18.6-9.3-29.4-6.9l-0.6-0.4c0.4-1.1,0.5-1.9,1.5-2.5c10.6-5.4,25.9-1,32.6,7.6l0.1,2
	C536.5,238.7,535.4,238.2,533.9,238.4z"/>
<path class="st4" d="M490.5,266.3c1.5-1.9,6.5-8,8.4-9.1c-2.3,3.5-4.6,6.3-7.2,9.5L490.5,266.3z"/>
<linearGradient id="SVGID_00000053539306563523139630000004852392734994854795_" gradientUnits="userSpaceOnUse" x1="450.2861" y1="726.6631" x2="453.7376" y2="724.6985" gradientTransform="matrix(1 0 0 -1 0 1021.89)">
	<stop  offset="0" style="stop-color:#340F09"/>
	<stop  offset="1" style="stop-color:#311F13"/>
</linearGradient>
<path style="fill:url(#SVGID_00000053539306563523139630000004852392734994854795_);" d="M471.3,267c0,1.8-3.5,6.1-4.8,7.7
	c-12,16.3-20.1,35.4-30.8,52.4c-0.2-2.1,2.2-8.3,3.1-10.3C445.8,300.4,458.2,279.4,471.3,267z"/>
<path class="st4" d="M472.1,308.3l0.5,0.8c-4.3,8.3-33.2,69.1-36.4,70.8c2.9-7.6,6.8-15.5,10.2-23
	C454.1,339.5,461.7,324.2,472.1,308.3z"/>
<path class="st16" d="M472.1,308.3c0.8-1.5,0.9-2.2,2.1-3c-0.1,1.7-0.8,2.4-1.6,3.8L472.1,308.3z"/>
<path class="st6" d="M681.6,206.5c-5,0.1-8.6,0.5-13.3-3.9c-8.8-8.3-9.5-34.3,6.3-34.6c8.2-0.1,11.7,15.4,15.6,21.5
	c1.5-0.5,2.3-2.3,3-3.7c6.1-11.7,7.8-27.5,22.3-32c5.7-1.7,11.6-3.2,17.3-4.8c2.6-0.7,9.6-4.1,11.8-1.9c3.7,3.5,7.2,13,7.9,18.2
	c0.2,9.4-5.9,13.2-2.9,24.2c2,7.3,7.3,13,8.5,19.9c0.1,0.7-0.3,1-0.8,1.6c-4.7,2.1-10.6,0.3-13.3,1.6c0.6,1.1,2.9,1.5,4.1,1.9
	c10.2,19-18,11.6-19.7,8.2l-1.1,1.4l-1,0.1l0.6,0.4c7,4.1,14.2,3.4,16.9,5.6c-0.4,1.4-0.4,1.3-1.6,2.2c-3.1,0.6-5.9-0.2-9.1-0.7
	c2.5,1.3,5.4,2.6,7.4,4.5c0,3-4.1,6.2-5,8.8c-1.7,4.9-2.8,15.4-10.5,14.1c-15.7-2.5-31.8-14.9-43.8-24.7c-1.1,1.2-1.4,3.1-1.8,4.7
	c4.1,2.3,12.1,8,15.3,11.5c-3.6,1.7-6.7,3.3-10.1,5.4c-2.5,1.5-8.2,6.5-10.5,6.6c-0.6-0.4-1-0.5-1.5-1l-3.7,9.5
	c-6.9-13-17.7-24.7-26.8-36.3c-3-3.9-7-9.8-9.7-13l0.7-0.2l1-0.5c0.5-1.7,1.2-4.5,1.8-6c6.8-5.3,18.1-9.2,26.4-12.5
	C666.8,209,675.1,213.3,681.6,206.5z"/>
<path class="st2" d="M672.7,261.3c2.7-7.8,4.8-14.4,6.9-22.4c4.1,2.3,12.1,8,15.3,11.5c-3.6,1.7-6.7,3.3-10.1,5.4
	c-2.5,1.5-8.2,6.5-10.5,6.6C673.6,262,673.2,261.8,672.7,261.3z"/>
<path class="st2" d="M726.5,224.1c-1.1,1.3-1.1,1.8-2.6,1.9c-1.2-2.1,0-3.9,1.9-4.9c2.1,0.2,1.1-0.2,2.8,1.5l-1.1,1.4L726.5,224.1z"
	/>
<linearGradient id="SVGID_00000065782870960166719260000009608308844952957853_" gradientUnits="userSpaceOnUse" x1="681.5663" y1="833.0585" x2="666.4277" y2="838.5768" gradientTransform="matrix(1 0 0 -1 0 1021.89)">
	<stop  offset="0" style="stop-color:#250000"/>
	<stop  offset="1" style="stop-color:#3B170D"/>
</linearGradient>
<path style="fill:url(#SVGID_00000065782870960166719260000009608308844952957853_);" d="M666.8,189.8c-0.8-5.5-0.8-11.7,5.4-14.1
	c4.1-1.6,8.9,2.4,7.6,6.7c-0.7,2.3-3.1,4.7-2.7,7.3c0.4,2.8,2.9,3.2,3.5,5.8l-0.7,0.9c-7.2,2-7.9-7-6.4-12l-0.8-1.3
	c-3.6,1.2-3.9,8.2-4.5,11.6l-0.1-0.1l-0.4,0.2C667.5,194,667,190.6,666.8,189.8z"/>
<path class="st18" d="M667.8,187.6c1.6-1.1,2.3-10.6,7.6-6.7c-1,1.7-0.7,1.2-2.7,2.3c-3.6,1.2-3.9,8.2-4.5,11.6l-0.1-0.1l-0.4,0.2
	c-0.1-0.9-0.6-4.3-0.9-5L667.8,187.6z"/>
<path class="st6" d="M667.8,187.6c0.3-4.2,1.3-10.5,7.2-9.1c1.5,1.3,1,0.5,1.6,2.5c-0.7,2.2-0.9,1.8-3.1,3.5l-0.8-1.3
	c2-1.1,1.8-0.6,2.7-2.3C670.2,177,669.4,186.5,667.8,187.6z"/>
<path class="st2" d="M732.8,162.1c4.7-0.5,13.9,0.3,15.4,6.5c0.2,0.8-0.2,1-0.7,1.7c-2.8,1.4-8.9-0.5-12.5-1.1
	c-6.1-0.9-11.2,0-17,1.4C723.8,166.5,726.2,164.5,732.8,162.1z"/>
<path class="st2" d="M735.5,176c-0.1-0.7-0.4-1-0.8-1.6c0.1-1.3,0-0.7,0.4-1.7c1,0.9,1.2,1.5,1.9,2.7l5.6-0.5
	c1.5,1.8,2.5,2.6,3.1,4.9l-0.2,0.9c-1.4,0.7-1.9,0.7-3.5,0.9c-0.9,1.9-1.5,3.9-2.8,5.5c-0.9-1.1-0.9-1.2-1.4-2.6l-3,1.4l-0.8-1.3
	c-0.7,1.4-0.9,2.2-2.2,3.1c-1.1-3,1.7-7.6,1.7-10.3l-0.4-0.5L735.5,176z"/>
<path class="st4" d="M735.5,176c-0.1-0.7-0.4-1-0.8-1.6c0.1-1.3,0-0.7,0.4-1.7c1,0.9,1.2,1.5,1.9,2.7c0,1.2,0.1,2.3-0.3,3.5
	l-0.5,0.1c1.3,2.2,1.4,2.8,1.5,5.4l-3,1.4l-0.8-1.3c-0.7,1.4-0.9,2.2-2.2,3.1c-1.1-3,1.7-7.6,1.7-10.3l-0.4-0.5L735.5,176z"/>
<path class="st0" d="M736.2,178.9c1.3,2.2,1.4,2.8,1.5,5.4l-3,1.4l-0.8-1.3L736.2,178.9z"/>
<path class="st10" d="M741,205.5c2.1-0.1,8.2-0.1,9.5,1.7c-2.2,0.6-4.8,0-7.1-0.3l-2.6,0.4c-1.5,1.3-1.1,1.1-1.6,3.7
	c-0.9-1-0.8-1.3-1.1-2.7C738.6,206.8,739.6,206.4,741,205.5z"/>
<path class="st12" d="M734.7,185.7l3-1.4c0.5,1.4,0.5,1.5,1.4,2.6c-0.5,0.5-0.5,1-0.7,1.6c-1.4,0.5-0.7,0.4-2.3,0.2
	C735,187.5,735.1,187.3,734.7,185.7z"/>
<path class="st19" d="M738.7,172.7c2.3-0.5,5.9,0.4,8.1,1.1c-2.7,0.2-5.3,0.6-7.8-0.1L738.7,172.7z"/>
<path class="st16" d="M733.4,177.3c-2.1,0.2-2.9,0.2-5,0.1l0.1-0.4c2.7-0.9,4.1-0.8,6.9-1l-2.5,0.8L733.4,177.3z"/>
<path class="st3" d="M344.3,292.9c2,2.1,2.9,9.2,8.4,11.4c11.5,4.7,31.9-2.8,42.8-6.5c-13,12.6-27.2,35.8-33.2,52.6
	c-2.8,8.3-2.9,12.4-2.8,21.2c-9.1-2.6-31.6-11.6-33.8-21.6C322,333.6,336.6,307,344.3,292.9z"/>
<path class="st4" d="M332.3,345c3.3,1.1,9.6,6.7,13.3,8.3c1.7,0.7,5.3,2.5,6.1,4.1C346.7,356.9,333.1,350.3,332.3,345z"/>
<path class="st3" d="M485.4,168.7c34.6-1.9,63,22.2,85.7,45.3c-3.8,2.4-6.8,4.3-10.4,7.2c-7-7.9-30.1-21.6-40.1-27.4
	c-18.6-10.7-44.7-10.8-65.5-6.6c-19.1,5.6-34.2,13.1-49.2,26.3c-5,4.4-19.7,21.3-26.8,18.3l-0.3-1c1-2.7,13.8-12.5,16.9-15.3
	C422.5,191.4,448,171.4,485.4,168.7z"/>
<path class="st6" d="M651.9,394.2c9-8,7-15.4,16.5-19.7c1.8,0.4,4.5,1.1,6.2,0.9c1.1-0.5,0.5-0.4,1.7-0.1c7.3,0,17.4-0.7,23.3,4.4
	c2.6,2.2,1.1,5.3,0.2,7.9l0.4,0.8c1.9,0.1,4.1-0.1,5.6,1c2.9,5.1-4.5,8.3-4.9,10.5l0.6,0.1c2.2,0.3,2.6,0.2,4.3,1.4
	c3.9,5.8-2.5,7-2.9,10.9l2.6,0.4c3.1,5.4-3.3,9.8-7.6,11.8c-10.4,4.7-25.3,11.4-36.5,6C661.7,417.7,661.3,404.2,651.9,394.2z"/>
<path class="st2" d="M677.5,382.9c3.8-0.2,9.6-2.4,13.7-3.2c-4.5,4.3-13.9,9.4-19.6,4.7l-0.2-0.9c1.7-1,2.8-0.5,5-0.3L677.5,382.9z"
	/>
<path class="st4" d="M674.6,375.5c1.1-0.5,0.5-0.4,1.7-0.1c-0.4,1.9,0.7,5.7,1.2,7.6l-1.1,0.2C675.7,380.7,675.2,377.9,674.6,375.5z
	"/>
<path class="st3" d="M470.4,189.2c15-1.9,40.4,2.4,53.3,10c8.2,4.9,25,18.2,27.7,27.7c18.7-4.9,40.1,1.3,53.8,14.7
	c11,10.8,16.4,22.1,19.6,36.9c-8.4-17.2-21.6-33.2-39.8-40.2c-12.4-4.8-28.5-7.8-41-2.3c-1.1-3.1-1.6-4.3-3.2-7.2
	c-8.5-13.2-30-22.6-44.4-27.9c-13.4-5-30.2-3.8-44-1.5c-17.5,2.9-35.3,11.7-47.6,24.6c-4.8,5-9,11.2-13,16.9
	c-6.5-0.7-9.6-0.8-15.6-3.1c19.3-5.5,18.5-9,33.4-22.5C426.4,199.9,447.6,191.3,470.4,189.2z"/>
<path class="st3" d="M367.7,270.2c11.1-0.7,53.8,4.9,60.7,13.9c0.4,2.3-1.6,6.2-3.3,6.2c-8.8,0.3-14.9-0.9-23.8,0.8
	c-7.8,1.8-15.8,5.8-23.5,7.3c-11.6,2.3-26,8.4-28.8-8.2C346.7,276.1,356,272,367.7,270.2z"/>
<path class="st2" d="M359.5,285c9.3-0.4,9.4,7.4,2.1,11.5C351.9,297.2,353.1,289,359.5,285z"/>
<path class="st3" d="M360,287.3l2.2,0.4c1.4,1.2,1,0.5,1.3,2.2c-0.7,1.9-1.2,2.2-2.8,3.6l-1.9-0.3c-1.5-1.3-1.1-0.5-1.3-2.4
	C358,288.8,358.4,288.7,360,287.3z"/>
<path class="st3" d="M582.2,216.6c18.9-1.7,34.3,13.3,44.6,27.5c14.6,20.2,13.9,46.2,14.4,70c0.6,24.9,0.6,50.9-4,75.5
	c-1.7-0.1-4,0.1-5.4-0.6c1.9-6.5,1.7-25,1.9-32.4c0.5-29.1,1.4-59.7-6.2-88c-6.8-25.4-29.8-45.6-56-48
	C575.6,218.3,577.6,217.6,582.2,216.6z"/>
<path class="st0" d="M625.7,215.5c2.9,0.3,6,3.4,7.4,5.8l-0.7,0.2l-1.7-1.8l-0.8,0.1c-1.6,6.9,26.5,37.2,30.7,45.1
	c1.5,2.8,7.3,11.6,9.5,13.9c0.5-1,0.9-1.7,1.5-2.7c1.3-4.4,2.2-6,4.6-9.8c1.9,2.3,2.7,3.3,3.5,6.1l0.1-0.9c2,1.7,1,18.7,0.6,22.1
	c-0.4,4.2-2.3,8.7-6.2,10.9l-1-0.1c-1.1-2.3-1.7-19.4-5.5-21.9c-2.4,2.6,0.3,2.5-2.2,5.3c2,1.8,3.3,2.6,3.8,5.1l-0.3,0.9
	c-0.9,0-0.5,0.2-1.2-0.4l0.8-0.7c-0.5-1.3-0.1-0.8-1.3-1.6c-2.8,4.1-1.3,6.7-2.4,10.4c0.1,1.3,0.1,1.2-0.2,2.5
	c-1.5,1-0.6,0.6-2.7,0.5c-0.8-2.8,0.9-0.7,0.1-3.2L660,301c-0.8,0.7-0.3,0.5-1.5,0.5l-0.1-0.5c-1.6-2.2-1.4-2.7-0.9-5.2l-1-1.2
	l-0.1,0.3l-0.5,0l-11.3-13.2c-0.9-11.5-5-24.2-10.7-34.2c-5.5-9.6-14.1-19-9.8-30.8C624.7,216.3,625.2,215.9,625.7,215.5z"/>
<path class="st2" d="M676.3,266.3c1.9,2.3,2.7,3.3,3.5,6.1l0.1-0.9c2,1.7,1,18.7,0.6,22.1c-0.4,4.2-2.3,8.7-6.2,10.9l-1-0.1
	c-1.1-2.3-1.7-19.4-5.5-21.9c-2.4,2.6,0.3,2.5-2.2,5.3c2,1.8,3.3,2.6,3.8,5.1l-0.3,0.9c-0.9,0-0.5,0.2-1.2-0.4l0.8-0.7
	c-0.5-1.3-0.1-0.8-1.3-1.6c-2.8,4.1-1.3,6.7-2.4,10.4c0.1,1.3,0.1,1.2-0.2,2.5c-1.5,1-0.6,0.6-2.7,0.5c-0.8-2.8,0.9-0.7,0.1-3.2
	L660,301c-0.8,0.7-0.3,0.5-1.5,0.5l-0.1-0.5c-1.6-2.2-1.4-2.7-0.9-5.2l-1-1.2c2.3-7.7,4.6-12.1,9.3-18.7c1.1,2.6,2.8,5.7,4,8.5
	c3.1,7,3.5,12.4,4.3,19.9c1.6-1.8,2.9-3.6,4.3-5.6c-3.5-6.4-5.4-13.2-8.2-20c0.5-1,0.9-1.7,1.5-2.7C673,271.6,673.9,270,676.3,266.3
	z"/>
<path class="st0" d="M676.3,266.3c1.9,2.3,2.7,3.3,3.5,6.1c0.6,8.7,0.6,16.1-0.6,24.8c-1.9-5.8-4.4-11.5-6-17.4
	c-0.1-0.4,1.4-2.5,1.7-2.9l-0.1-0.7c-1-0.1-2-0.2-3-0.2C673,271.6,673.9,270,676.3,266.3z"/>
<path class="st0" d="M657.5,295.8c1-2.6,5.9-11.1,8.8-11.3c-0.1,1.6,0,0.9-1.3,2.5c-3.1,2.9-5.7,10-6.7,14
	C656.7,298.8,656.9,298.4,657.5,295.8z"/>
<path class="st9" d="M665,301.3c-0.8-2.9-0.7-8.1,1.3-10.5l1.2,0.1C664.6,295,666.1,297.6,665,301.3z"/>
<path class="st2" d="M644.4,285.2c3.1,4.4,8.9,13.4,12.2,17.1c2.7,0.2,3.4,2.4,4.5,4.6c2.4,0.8,6.5,0.7,9.2,0.8
	c0.4,1.3,0,1.3-0.2,2.5c-2.9,13.2-3.4,28.1-4.5,41.6c-0.2,2.3-1.4,5.6-1.9,8.2l-0.8-0.1c-4.9,11-10.2,20.8-14.9,31.8l-5.4-1.4
	c1-3.4,4.9-15.7,5.3-18.7c-1.2-4.6,7.5-23.9,9.1-28c1.2-3-7.2-22-9.5-25.8l-0.5,0c-0.3,0.9-0.3,2.5,0.2,3.3c2.9,4.5,4,9.9,5.4,15
	c2.4,8.6-0.4,15.2-3,23.2c-1.6,4.9-1.4,5.2-3.8,9.9c0.3-1,0.5-1.9,0.6-3c-0.3-1.8-0.1-8.3,0.1-10.5c1-11-1.1-23.5-0.3-34.1
	c0.2-1.2,0-3.6,0-4.9c-0.7-3.8-0.8-10.9-0.3-14.7c0.5-2.1-1.5-7.1,0-10.2L644.4,285.2z"/>
<path class="st0" d="M665.7,329.7l0.8,0.2c-1,9.9-1.2,20.6-3.7,30.1c-4.9,11-10.2,20.8-14.9,31.8l-5.4-1.4c1-3.4,4.9-15.7,5.3-18.7
	c2.7-7.3,4.5-16.3,8-23.4C659.5,340.6,663.1,338.1,665.7,329.7z"/>
<path class="st0" d="M649.2,312.6c4.6-1.9,6.4-4.4,8.6-8.9l3,4.1c-2.7,8.9-3.9,18.8-5.1,28.1c-2.1-8.3-3.5-12.7-8.4-19.7
	C647.7,313.6,647.4,314.5,649.2,312.6z"/>
<path class="st3" d="M646.1,321.5c10.5,20.3,5.8,25.1,0.1,44.7c-0.3-1.8-0.1-8.3,0.1-10.5C647.4,344.7,645.3,332.1,646.1,321.5z"/>
<path class="st0" d="M656.8,343.5c0.5-8.6,3.9-15,4.8-23.4c0.3-2.8-0.2-9.7,0.9-11.5l1.5,0c0.7,2.4,1.3,3.8,1.5,6.3l0.9-0.1
	c-0.2,2.9-0.6,5.9-0.3,8.8c0.6,0.6,0.3,0.5,0.7,0.6c0.1,2.4,0,3.1-0.4,5.5l-0.8-0.2l-0.6-0.6C664,332,658.7,339.7,656.8,343.5z"/>
<path class="st5" d="M666.4,315c-0.2,2.9-0.6,5.9-0.3,8.8c0.6,0.6,0.3,0.5,0.7,0.6c0.1,2.4,0,3.1-0.4,5.5l-0.8-0.2l-0.6-0.6
	l0.5-14.1L666.4,315z"/>
<path class="st0" d="M644.4,285.2c3.1,4.4,8.9,13.4,12.2,17.1l0.8,0.9c-2.1,0.8-4.8,2.7-6.7,4.1c-1.7-4.6-3.4-10.9-4.9-15.7
	L644.4,285.2z"/>
<path class="st6" d="M667,308.1l2,0.5c0.3,0.7-1.9,13.6-2.1,15.8c-0.4-0.1-0.1,0-0.7-0.6c-0.3-2.9,0-5.9,0.3-8.8l-0.9,0.1
	c-0.2-2.5-0.8-3.9-1.5-6.3C665.3,308.7,665.8,308.4,667,308.1z"/>
<path class="st7" d="M664,308.7c1.2,0,1.7-0.3,2.9-0.6c-0.3,2.6-0.4,4.3-0.5,6.9l-0.9,0.1C665.3,312.5,664.7,311.1,664,308.7z"/>
<path class="st6" d="M646.1,316.5c-0.7-3.8-0.8-10.9-0.3-14.7c0.8,4,1.4,7.2,3.4,10.8c-1.8,1.9-1.4,1.1-1.9,3.5L646.1,316.5z"/>
<path class="st3" d="M895.6,868.3c0.5,1.6,0.4,3.1,0.2,4.8c-2,16.2-17.8,34.7-30.3,44.3c-6.6,5.1-14.1,9.4-21.9,12.4
	c-12.4,4.8-25.7,6.7-38.5,10c-9.9,2.6-19.7,6.3-29.7,8.5c-2.2,0.5-4.2,0.6-6.5,0.3c-0.5-0.7-0.7-1.1-0.8-1.9
	c2.5-2.8,9.5-3.5,13.2-4.7c10.5-3.4,20.9-7.3,31.4-10.5c10.6-3.2,21.8-5.4,32-9.6C869.1,911.9,885.6,892,895.6,868.3z"/>
<path class="st0" d="M632.8,466.8c4.1,1.5,11.1,16.3,14.4,21.3c-6.3,6.4-13.9,17.1-17.9,25.1c-1.1,2.3-1.3,3.7-3.5,4.6l-1.2-0.5
	c-3.9-5.7-4.3-32.4-4.3-40.6C625,473.3,628.4,470.5,632.8,466.8z"/>
<path class="st3" d="M124.2,828.3c1.5,0.9,2.8,2.5,4.2,3.6c5.8,4.5,11.9,9.8,18.3,13.4c-2.3,9.5-1.9,19.3-4.4,28.8
	c-0.2,0.5-0.5,1.2-0.8,1.7c-0.6,1-1.3,1.6-2.5,1.7c-2.5,0.2-5.3-1.9-6.7-3.7C123.4,863.2,123.3,841.3,124.2,828.3z"/>
<path class="st3" d="M887,864.2c1.4-0.1,2.6-0.3,3.9,0.4c0.5,0.9,0.5,1.7,0.3,2.7c-0.5,2.9-2.4,5.8-3.8,8.4
	c-7.4,13.4-16.5,23.6-29,32.7l-3.4,2.3c1.3-6.8,3.4-13.3,5.1-19.9c1.1-4.4,1.9-8.8,3.2-13.2C870.9,871.7,877,865.5,887,864.2z"/>
<linearGradient id="SVGID_00000183249684438560767100000004879005316098478012_" gradientUnits="userSpaceOnUse" x1="754.9698" y1="135.3675" x2="785.6711" y2="138.5566" gradientTransform="matrix(1 0 0 -1 0 1021.89)">
	<stop  offset="0" style="stop-color:#EBE9CD"/>
	<stop  offset="1" style="stop-color:#FFFFFE"/>
</linearGradient>
<path style="fill:url(#SVGID_00000183249684438560767100000004879005316098478012_);" d="M778.2,867.7c1.2,2.3,1.9,2.8,1.6,4.9
	c0.5,1.4,0.5,2.3,1.5,3c0.8-1.1,0.5-1.8,0.4-3.5c3.6,6.5,5.9,13.7,11.7,18.6c2.8,2.4,2.8,5.6,0.3,8.2l-0.7,0.1l-0.4-0.5l2.8-3.3
	c-2-2.5-3.6-5.2-5.3-7.9l-2.1,0.2c-1.4,2.7-13.9,7.9-16.7,9.9c-10,6.9-14.6-8.4-18.2-17C764.2,877.1,769.3,875.2,778.2,867.7z"/>
<path class="st2" d="M779.8,872.6c0.5,1.4,0.5,2.3,1.5,3c0.8-1.1,0.5-1.8,0.4-3.5c3.6,6.5,5.9,13.7,11.7,18.6
	c2.8,2.4,2.8,5.6,0.3,8.2l-0.7,0.1l-0.4-0.5l2.8-3.3c-2-2.5-3.6-5.2-5.3-7.9l-2.1,0.2c-1.8-2.8-1.8-6.2-5.1-11.1
	c-5.6,5.6-13.6,12.6-22.6,10.5c-1.2-0.3-2.7-1.2-3.3-2.3l5.7-1C771.1,882.1,775,879.6,779.8,872.6z"/>
<path class="st3" d="M134.8,743.6c-0.8-0.9,1.9-8,3.2-9.1c3.7-3.1,10.1-2.6,14.7-2.3l-3.4,0.3c2.6,0.4,4,0.5,6.7,0.6
	c-2.5,5.6-18.4,43.1-22,44.5l0-0.9c-1.7-1.3-2.1-1.9-4.1-2C124.6,771.3,133,749,134.8,743.6z"/>
<path class="st3" d="M149.3,732.5c2.6,0.4,4,0.5,6.7,0.6c-2.5,5.6-18.4,43.1-22,44.5l0-0.9C136.2,762.2,142.6,745.6,149.3,732.5z"/>
<path class="st2" d="M134.8,743.6c-0.8-0.9,1.9-8,3.2-9.1c3.7-3.1,10.1-2.6,14.7-2.3l-3.4,0.3c-6.7,13.1-13,29.7-15.4,44.2
	c-1.7-1.3-2.1-1.9-4.1-2c2.5-3.4,8.8-26.8,11.5-32.5c0.8-1.7,3.6-7.3,4.2-8.7l-0.5-0.5C138.1,732.8,137.2,738,134.8,743.6z"/>
<linearGradient id="SVGID_00000154394381238015097170000016296372741442006663_" gradientUnits="userSpaceOnUse" x1="115.0312" y1="196.791" x2="143.652" y2="191.6285" gradientTransform="matrix(1 0 0 -1 0 1021.89)">
	<stop  offset="0" style="stop-color:#DDD0A0"/>
	<stop  offset="1" style="stop-color:#EEF1DD"/>
</linearGradient>
<path style="fill:url(#SVGID_00000154394381238015097170000016296372741442006663_);" d="M139.2,775.4c1.2,6.4-16.6,40.9-18.2,50.9
	c-2.6,15.9-1.5,30.3,4.8,45.8c2,4.8,6.6,7.1,10.8,9.9c-1.5,0.8-1.7,0.5-3.7,0.5c-24.9-11.4-22.6-63.8-9.4-83.2
	C129.2,790.8,135,784.8,139.2,775.4z"/>
<path class="st3" d="M570.9,241.2c17.5-2.2,37.2,18.8,45.4,32c7.6,12.4,10.9,21.2,11.9,35.8c0.4,5.3,1.7,10.6,1.5,15.9
	c-2.3-7.6-3.9-16.4-6.1-24.3c-5.7-19.1-17-41.6-36.1-49.9c-15.6-6.9-25.2-2.7-40.2,2.9C554.6,247.2,561.3,242.6,570.9,241.2z"/>
<path class="st0" d="M640,394.8c5.5,1.1,10.6,2.4,12.9,8.2c4.2,10.4,5.2,23.6,1.6,34.3c-0.9,2.6-2,3.3-4.3,4.3
	c-4,0.6-6.1,0.7-10.1,0.7C647.3,426.5,650.7,409.9,640,394.8z"/>
<path class="st0" d="M186.4,745.4c4.2,3.1,0,8.1-0.3,12.5c-0.6,11.3,5.3,22.7,11.6,31.7c-2.5,0.7-5.3,1.4-7.8,2l-5.8,1.2
	c-1.6-4.4-5.4-11.7-6.6-15.4C174.9,769.8,183,752.1,186.4,745.4z"/>
<path class="st3" d="M811.4,942.6c0.2,0,0.4-0.1,0.6-0.1c1.2,0.1,2.7,1.9,3.3,2.8c0.3,0.5,0.7,1.3,0.4,1.9
	c-2,4.4-24.3,13.5-29.1,14.9c-2.5,0.8-4.6,1.4-7,0.1c-2.5-2.9-4.8-5.9-7.1-8.9C785.7,950.5,798.4,946.1,811.4,942.6z"/>
<path class="st3" d="M404,296.4l0.6,0.2c-0.2,0.7-0.1,0.6-0.5,1c-10.2,10.1-16,21.7-22.4,34.1c-5.2,10.1-9.1,32.7-16.4,38.5
	c-0.3-0.1-0.7-0.5-1-0.7C361.3,351.7,387.5,305.3,404,296.4z"/>
<linearGradient id="SVGID_00000159453591516625655700000010603710385914408585_" gradientUnits="userSpaceOnUse" x1="164.1298" y1="249.4749" x2="179.2566" y2="248.8384" gradientTransform="matrix(1 0 0 -1 0 1021.89)">
	<stop  offset="0" style="stop-color:#D4CC97"/>
	<stop  offset="1" style="stop-color:#F0E9C6"/>
</linearGradient>
<path style="fill:url(#SVGID_00000159453591516625655700000010603710385914408585_);" d="M179.4,741.2c1.4,0.6,1.5,0.5,2.4,1.7
	c-1.9,10.3-10.9,18.9-10.3,33.3c0.2,4.9,4.5,28.7,4.5,28.6c-1.6-0.4-1.1-0.3-2.3-2c-2.3-3.8-10-18.4-10.3-22.3
	C162.3,768.1,172.9,750.6,179.4,741.2z"/>
<path class="st3" d="M776.4,899.1c4.7-3,11.2-6.6,13.6-11.7c1.7,2.7,3.3,5.4,5.3,7.9l-2.8,3.3c-6.4,5.1-16.1,10.1-24,12.2
	c-2.6,1.4-7.5,2.3-10.4,2.8c-2-3.8-2.8-5.7-4.3-9.8C763.1,902.9,768.1,903.3,776.4,899.1z"/>
<path class="st12" d="M776.4,899.1c4.7-3,11.2-6.6,13.6-11.7c1.7,2.7,3.3,5.4,5.3,7.9l-2.8,3.3c-6.4,5.1-16.1,10.1-24,12.2l-0.1-0.3
	c1.5-2,12.1-3.6,14.1-7.9l-0.4-1C779.7,899.6,779.4,899.6,776.4,899.1z"/>
<path class="st0" d="M800.9,896.9c2.2,1.4,4.6,2.2,6.9,3.1c-9.7,9.5-20.2,15.3-33.7,17.5c-2.3-0.5-4.5-1.1-6.8-1.9
	C780.8,911.9,791.4,907.4,800.9,896.9z"/>
<path class="st12" d="M146.3,822.8c1.1-1.1,2.2-2.3,3.2-3.4c4.5,3.2,7.5,4.2,5.3,10.1l0.3,0.8l-1.9,2.1l-0.3-0.5l0.2-0.5
	c-3.3,5.4-3.1,1.4-5.1,1.3c-0.7,2.6-0.9,4.6-1.2,7.2c-3.6-2.8-5-4-8-7.4c1.9-2.9,4.3-6.6,6.9-8.7L146.3,822.8z"/>
<path class="st6" d="M146.3,822.8c1.1-1.1,2.2-2.3,3.2-3.4c4.5,3.2,7.5,4.2,5.3,10.1l0.3,0.8l-1.9,2.1l-0.3-0.5l0.2-0.5
	c-2-3.4-4.1-5.6-7.5-7.6L146.3,822.8z"/>
<path class="st4" d="M145.6,823.9l0.7-1.1c3.8,2.2,4.7,3.3,7.7,6.6l0.8,0.1l0.3,0.8l-1.9,2.1l-0.3-0.5l0.2-0.5
	C151,828.1,148.9,825.8,145.6,823.9z"/>
<path class="st3" d="M193.4,747.9c3.3,0.4,6.8,0.7,10.1,1c-0.9,3.8-1.5,14.2-2.1,15.3c-4,0.4-6.5,0.2-10.4-0.2
	C191.1,757.5,191.7,754.2,193.4,747.9z"/>
<path class="st0" d="M697.3,109.7c11.4-1.5,27.8,2.7,37.7,8.5c-6-0.9-12.6-2.6-18.9-3.7c-17.9-2-23.4-1.4-41.1-0.4
	C682.5,111.7,689.5,110.4,697.3,109.7z"/>
<path class="st12" d="M485.2,335.6l0.5,1c-9.1,18.1-21,43.6-34.9,58.5C462.4,375,473.1,355.6,485.2,335.6z"/>
<path class="st0" d="M668,132c0.1,0.2,0.2,0.4,0.3,0.6c-2.2,1.8-7.2,6.4-8.9,8.2c-7.8,8.6-11.2,14.9-14.5,25.7c-0.4,0-0.1,0-0.6-0.5
	C644,148.4,652.6,139,668,132z"/>
<path class="st0" d="M702.5,116.7c18.4-0.3,29.3,3.9,45.4,11.5l-7.7-1.8c-17-4.3-29.8-7.9-47.5-8
	C696.3,117.6,698.7,117.1,702.5,116.7z"/>
<linearGradient id="SVGID_00000082369722602702787200000009845735166042977979_" gradientUnits="userSpaceOnUse" x1="648.2133" y1="867.9841" x2="637.0018" y2="871.0944" gradientTransform="matrix(1 0 0 -1 0 1021.89)">
	<stop  offset="0" style="stop-color:#E3F0E9"/>
	<stop  offset="1" style="stop-color:#FFFFFF"/>
</linearGradient>
<path style="fill:url(#SVGID_00000082369722602702787200000009845735166042977979_);" d="M654.6,130.4l0.6,0.3
	c-4.8,3.7-6.7,4.4-10.9,9.7c-6.9,8.3-6.1,19-3,28.6c0.8,2.6,2.9,6.5,3.1,9.1C631.8,159.7,633,140.7,654.6,130.4z"/>
<path class="st0" d="M629.9,459.3l0.5,0c1.3,0.9,2,3,2.7,4.5c-3.1,2.2-7.6,6.3-10.8,8.9c-0.7,0.4-0.6,0.3-1.5,0.6
	c-0.2-2.5,2.7-10.6,4.6-12.6C627,459.1,627.5,459.5,629.9,459.3z"/>
<path class="st12" d="M201.4,772.7c1.5,1.8,3.4,10.9,0.3,12.6c-1.7-0.4-1.9-0.8-3-2.1c-2.3-3-3.6-6-5-9.4
	C196.8,773.6,198.3,773.3,201.4,772.7z"/>
<path class="st18" d="M153.1,814.9c1.1-1.4,2-2.4,3-3.9c2.5,2.3,6,4.7,6.3,8c-0.5,1.6-0.6,1.5-1.8,2.7l-0.7,0.1
	c-0.8,0.9-0.5,0.8-1.5,1.3l-1-1.2c-1.8-0.4-5.3-3-5.7-4.8l1-0.7L153.1,814.9z"/>
<path class="st0" d="M153.1,814.9c1.1-1.4,2-2.4,3-3.9c2.5,2.3,6,4.7,6.3,8c-0.5,1.6-0.6,1.5-1.8,2.7
	C159,817.3,157.3,816.5,153.1,814.9z"/>
<path class="st0" d="M157.4,821.9c-1.8-0.4-5.3-3-5.7-4.8l1-0.7c1.8,0.6,3.5,1,4.6,2.5C157.5,820.4,157.6,820.4,157.4,821.9z"/>
<path class="st3" d="M793.5,886.6l-1-0.9l0.1-0.8c1.8-1.2,5-1.9,7.1-1.7c3,1.6,4,2.4,3.8,6.1l-0.6,0.8c-0.5,1.3-0.4,1.7-1.5,2.4
	C798.4,892.5,795.6,888.8,793.5,886.6z"/>
<path class="st3" d="M793.5,886.6c3.3,1,6,2.4,9.3,3.5c-0.5,1.3-0.4,1.7-1.5,2.4C798.4,892.5,795.6,888.8,793.5,886.6z"/>
<path class="st3" d="M799.7,883.2c3,1.6,4,2.4,3.8,6.1C800.3,888.4,799.1,886.7,799.7,883.2z"/>
<path class="st0" d="M633.3,175c-7-12.9-7.9-17.6-5.8-32.1c1.6,12.2,2.2,20.1,7.2,31.5L633.3,175z"/>
<path class="st12" d="M613.4,223.1c4.4-12.5,3.1-6.8,12.4-7.6c-0.6,0.5-1,0.9-1.7,1.2c-1.9,0.2-1.9,0.1-3.6,1.1
	c-2.4,3.2-1.6,7.2-1.6,11.4C617.3,227.1,615.2,225,613.4,223.1z"/>
<path class="st12" d="M174.4,780.8c3.2,4.9,6.3,13.7,7,19.6c-1.7,0-1.6,0-3.1-0.8C175.9,795.8,174.8,785.5,174.4,780.8z"/>
<path class="st12" d="M160.7,804.8c2.3,1.8,3.8,4.1,5,6.7c0.7,1.5,1.1,2.6,0.6,4.2l-1.1,0.5c-2.7-2.3-5.2-5-7.8-7.5L160.7,804.8z"/>
<path class="st12" d="M165.8,798.9c1.7,2.9,3.7,7.9,4.2,11.2c0.2,1.2,0.1,1.7-0.5,2.7l-0.9-0.2c-1.7-3.3-4.1-6.4-6.3-9.4
	C163.3,801.7,164.6,800.3,165.8,798.9z"/>
<path class="st0" d="M706.4,127.1c7.6,0.9,22.1,1.1,28.6,3.8C728.5,131.3,712.1,129.7,706.4,127.1z"/>
<linearGradient id="SVGID_00000147903189510620190790000008479330713510942101_" gradientUnits="userSpaceOnUse" x1="652.7632" y1="496.3088" x2="646.1716" y2="493.3137" gradientTransform="matrix(1 0 0 -1 0 1021.89)">
	<stop  offset="0" style="stop-color:#D6DADD"/>
	<stop  offset="1" style="stop-color:#FFFFF9"/>
</linearGradient>
<path style="fill:url(#SVGID_00000147903189510620190790000008479330713510942101_);" d="M650.1,518.3c1.3,2.1-2.1,4.2-2.3,7.6
	c-0.2,3.3,4,5.8,3.9,8.5C642.8,535.9,646.8,522.7,650.1,518.3z"/>
<path class="st12" d="M808.4,886.6c0.3,0.1,1.2,0.4,1.4,0.5c0.9,0.6,0.8,1,0.8,2c0.1,2.2-0.3,5.8-1.7,7.5c-1.2-0.3-1.7-0.3-2.7-1.2
	c-0.1-1.2-0.1-2,0.3-3.1C807.2,890.4,807.8,888.5,808.4,886.6z"/>
<path class="st0" d="M649.5,536.4c3.7,0.4,6.5,1.7,9.2,4.4C652.9,542.6,652.6,540.8,649.5,536.4z"/>
<path class="st12" d="M506.1,278.6c3.2-4.2,6.7-9.2,10-13.3c-2.2,3.9-5.8,10.2-7.6,14.2L506.1,278.6z"/>
<path class="st19" d="M485.2,335.6c1.5-3.6,6.3-12.2,8.4-15.7c-0.5,3-6.1,13.7-7.9,16.8L485.2,335.6z"/>
<path class="st0" d="M180.6,803.8c0.7,0.1,1,0.3,1.6,0.6l0,1.1c-1.1,1.7-2.3,2.6-4,3.7c-0.5,0.1-1,0-1.6-0.1l-0.2-1
	C177.5,806.5,179.1,805.2,180.6,803.8z"/>
<path class="st25" d="M167.6,795.9c1.9,1.5,4.4,7.8,4.8,10.2C170.4,804.6,168.3,798.4,167.6,795.9z"/>
<path class="st6" d="M659.3,706.4c2.3,0.7,5.9,3.2,8,4.6C663.8,710.5,660.4,709.9,659.3,706.4z"/>
<path class="st6" d="M633.3,175l1.4-0.6c1.8,3.3,3.2,6,4.9,9.4C637.1,181,635.3,178.1,633.3,175z"/>
<path class="st19" d="M355.2,833c1.5-0.2,2.5,0,3.9,0.3c6.7,1.7,13.3,4.5,19.9,6.6c14,4.4,28.2,8.4,42.6,11.4
	c24.5,5.2,68.3,11.2,92.8,9.2c-10.1,4.7-21.4,7.8-31.9,11.6l-61.3,22.1L283,944c-30.5,11-60.8,22.6-91.4,33.2
	c-26,9.1-52,18.4-77.7,28.3c-11.6-17.4-23.4-34.6-35.4-51.7c-6-8.6-12.3-17.1-18.2-25.9c11.6-5.1,24.3-8.5,36.3-12.4l63.3-20.3
	l109.2-35C297.8,851.1,326.7,842.6,355.2,833z"/>
<path class="st19" d="M370.2,484.7l0.6,0c0.6,7.8,10.1,25.9,15.4,31.7c-3.4,5.7-5.9,11.7-8.6,17.8c7.2,7.5,19.4,9.5,29.3,11.6
	c-1.8,10.3-3.7,18.6-6.3,28.7c-8,1.6-16.1,3.8-24.1,5.6c-59.5,13.9-117.5,33.2-175,53.5c-1.1,0.3-0.5,0.2-1.7-0.1
	c-2.1-2.1-5.1-7.2-6.7-10c-16.5-27.8-27.9-59.5-36.1-90.6c4.9-1.3,9.9-2.7,14.7-4.2C236.7,508.3,303,495.5,370.2,484.7z"/>
<path class="st19" d="M530.5,607.2c3.2,1.5,16.2,13,19.8,15.9c30.7,24.8,63.6,44.2,98.9,61.6c1.2,13.7-5.6,20.6,2,30.9
	c-13.8,5.9-41,13.3-55.8,18L469.6,773c-18.5,6.1-37.4,11.7-56.1,17.4c-6,1.8-11.4,3.6-17.3,5.8c-9.1-2.8-18.3-5.6-27.3-8.6
	c12.3-3.6,24.7-7.1,36.8-11.4c10.2-3.6,21.7-7.7,30.1-14.5C466.7,736.5,511.8,646.8,530.5,607.2z"/>
<path class="st19" d="M499.7,37.2c64.9-3.7,135.9,12.9,193.8,41.9c11.8,5.9,24.5,11.3,35.3,19c-14.6-4.8-27.2-5.8-42.4-5.5
	c-12.1-7.3-28.9-13.3-42.1-18.2c-102-38.4-223.4-26.5-318.3,26.1C163.4,190.6,84,385.2,140,563.1c17,54,55.3,121.1,97.7,159.3
	l-19.4,0.9l-1-0.8c-14.1-12.7-29.7-33.9-40.5-49.7c-49.7-72.7-73.3-153.2-69.7-241.2C116.1,217.5,283.8,47.1,499.7,37.2z"/>
<path class="st19" d="M651.3,557c52.3-0.1,104.6,2.1,156.7,6c19.2,1.4,39.8,2.6,58.9,4.6c-9.8,28.8-21.7,51.4-37.9,76.8
	c-2.5,3.9-5.6,8.3-8.3,12.2c-5.1,2.4-11,4.3-16.4,6.1c-20.4,6.8-40.7,13.8-61,21.2c-2.5-6.3-6.1-15.6-9.3-21.4
	C712.4,623,682.8,588.6,651.3,557z"/>
<path class="st19" d="M299.6,803.7c0,0,0.1,0,0.1,0c14.1,8.9,30.7,16.9,46,23.8c-14.5,3.7-28.9,8.9-43.2,13.5l-82.7,26.7
	c-54.6,17.7-109.7,34.2-163.9,53l-14.7-21.5c-5.4-8.4-11.8-16.1-16.9-24.7c26.9-8.6,54.1-17.8,81.4-25c0.4,4.6,1,9.1,2.3,13.6
	c2.4,8.5,7.9,20.5,16.1,24.8c4.6,2.5,10.9,4.3,16,2.5c15.6-5.5,11-37.6,18-51.7c1.8-3.7,4.9-8.5,8.5-10.7c6.2-3.9,15.9-5.2,23-7.4
	c7.2-2.2,14.3-4.6,21.4-7c2.6,4.6,4.3,7.2,9.4,9.2c10.3-0.7,26.3-7.2,36.9-10C271.1,809,285.4,806.2,299.6,803.7z"/>
<path class="st19" d="M394.2,599.1l0.4,0.1c0.4,1.7-3.4,15.7-4,18.1c-5.1,21.9-10.1,43.2-10.3,65.8c-4.5,3.5-4.6,4.3-6.8,9.7
	c-10.1-4.8-11,2.5-19.7,4.6c-28.4,7-56.9,14.8-85.6,20.5c-8.7-7.9-16.7-16.4-24.9-24.9c-10.8-11.8-18-21.1-27.9-33.8
	C272.3,635.1,334.6,615.1,394.2,599.1z"/>
<path class="st19" d="M655.1,722.5c1-0.1,0.7-0.1,1.8,0.1c1.5,2.4,1.9,7.3,2.2,10.2c1.9,16.6,6.9,32.3,13.2,47.7
	c-5.8,1.1-14.6,5.1-20.3,7.3c-70.4,26.1-143.5,31.1-217.2,17.7l-26.3-5.4L655.1,722.5z"/>
<path class="st19" d="M777.5,129.7c21.2,14.8,51.2,49.4,66.9,70.5c84.7,113.7,107.9,268.4,51.9,399.7
	c-27.6,64.7-70,122.7-126.2,164.6c-1.2-1.2-4.5-10.7-5.4-12.9c9.1-8.3,18.5-15.6,27.8-24.5c25-24,48-53,65.7-82.8
	c10-16.8,22-41,28.8-59.3c26.9-72.8,33.4-152.6,14.4-228.1c-17.3-68.7-50.8-132.4-99.5-184c-7.4-7.8-24.1-25.1-33.2-30.5
	C774.6,139.3,775.9,135.7,777.5,129.7z"/>
<path class="st19" d="M519.5,59.7c43.7,0.5,89.4,9,130.1,24.9c7.4,2.9,15.7,5.9,22.8,9.3c-5,1-8.8,2.2-13.6,3.7
	c-11.4-3.1-23.7-8.9-36-12.5c-29-8.4-61.9-15.7-92.4-16.5C466,67,398.1,82.1,341.1,112.3c-29.6,15.7-54.2,33.9-79.3,56
	c-5.1,4.5-10.6,10.7-15.3,15.6c-29.3,30.9-53.8,66-71.5,104.8c-17.6,38.5-28.5,78.4-32.5,120.5c-7.2,76.2,6.9,146.9,43.4,214.1
	c5.2,9.1,10.5,18.8,16.3,27.5c16.5,24.7,35.8,47.8,57.1,68.6l-11.5,2.1c-53.3-51.8-94.6-126-109.5-198.7
	c-25.3-123.3,13.1-254.6,100.6-344.9C316.1,98.3,409.8,61.6,519.5,59.7z"/>
<path class="st19" d="M669.2,485.1c6.9-0.2,20.4,1.8,27.7,2.5c38.9,4,77.4,13.1,115.3,22.7c21.1,5.3,46,11.6,66.5,18.4
	c-2,10.4-4.2,17.1-7.5,27.2c-3.3-0.3-6.6-0.7-9.9-1.1c-38.3-4.7-77.1-8-115.6-9.6c-23.1-0.9-47.1-0.4-70.1-1.1
	c19.3-8.5,25.9-25.5,11.7-42.3C681,494.3,677.6,490.2,669.2,485.1z"/>
<path class="st19" d="M762.7,151.5c-0.3-1.3-0.6-2.9,0.1-4c1.8,0.3,3.9,2.4,5.5,3.6c23.4,18.4,48.6,49,65.5,73.6
	c56.5,82,81.5,182.8,65.3,281.5c-14.5,88.4-60.1,170.8-128.1,229.4c-3,2.6-6.2,5.2-9.4,7.6c-1.1-2.9-2.2-6-3.4-8.9
	c12.3-10.8,23.8-21,34.9-33c53.6-57.9,88.3-130.2,98.5-208.5C905,390.7,873.1,287,808.9,207.1c-13.7-17-28.4-32.6-43.7-48.2
	C764.4,158.1,763,152.8,762.7,151.5z"/>
<path class="st25" d="M762.7,151.5c-0.3-1.3-0.6-2.9,0.1-4c1.8,0.3,3.9,2.4,5.5,3.6C766.8,151.3,763.8,151.2,762.7,151.5z"/>
<path class="st19" d="M329.9,797.2c1.5-0.2,2.4,0,3.8,0.6c6.5,2.5,12.8,6,19.1,8.8c8.6,3.9,17.6,7.2,26.5,10.4
	c90.5,31.9,194,29.1,283-6.6c7.2-2.9,14.6-5.7,21.6-9.1c2.4,3.9,4.8,7.8,6.9,11.9c-4.6,2.2-9.3,4.3-13.9,6.4
	c-29.4,13.6-62,22.7-93.8,28.1c-77.8,13.3-161.8,4.8-234.4-26.8c-12.6-5.5-26.5-11.4-37.8-19.3C317.2,799.9,323.4,798.4,329.9,797.2
	z"/>
<path class="st19" d="M674.7,786l0.3,0.1c1.4,1,4.1,5.9,5.2,7.6c-7.2,3.1-14.3,6.4-21.6,9.2c-98.5,38.4-208,36.4-304.8-5.5
	c-3.2-1.4-5.8-2.6-8.9-4.1c4.6-1.1,9.2-1.8,14-3c7.3,2.9,14.7,5.8,22.2,8.4c75.2,26,161.4,28.8,238.1,7.4
	C636.7,801.3,658.1,794,674.7,786z"/>
<path class="st3" d="M518.1,77.8c2.8,3.9,7.8,19.1,9.8,24.6c10.5-0.6,20.5-0.5,31.1-0.4c-10.4,6.9-15.4,11.1-24.4,19.8
	c3.4,8.6,6.5,18.5,9.5,27.3c-7.9-5.2-16-10.2-24-15.3l-0.7-0.3c-2.5,0.2-20.6,13.5-24.8,16.1c2.1-9.4,4.7-19.1,7-28.5
	c-6.7-6.1-15.6-12.9-22.8-18.9c10.2,0,20.5,0.3,30.8,0.2C512.1,94,514.8,86,518.1,77.8z"/>
<path class="st3" d="M823.2,301.3c1.4,1.3,8.4,22.5,10.1,26.4l31.2-0.2c-7.1,6.3-16.5,12.7-24.2,18.8c3.9,9.9,7.2,19.6,10.6,29.8
	c-3.1-2.7-23.4-17.3-26.2-17.8c-8.9,6.2-17.6,12.7-26.5,18.8c3.8-10.4,7.6-20.5,11.8-30.8c-7.5-6.1-17.9-11.8-26.1-18.3
	c10.4,0.2,21.3-0.1,31.7-0.5C818.5,319.4,820.9,309.7,823.2,301.3z"/>
<path class="st3" d="M843.8,396.9c1.8,2,7.9,23.4,9.2,27.6l30.6,0.1c-7.7,5.8-17.2,12.5-24.4,18.5c2.8,10.3,6.4,19.8,10.2,29.8
	c-7.9-5.7-15.8-11.5-23.8-17.1l-1.9-1c-1.4,0.4-21.4,14.7-24,16.5c2.7-9.3,5.8-18.5,8.7-27.8c-9.3-8.3-14.9-11.3-24-18.5
	c10.3-0.4,20.5-0.5,30.8-0.4C838.4,415.6,840.6,406,843.8,396.9z"/>
<path class="st3" d="M404.1,95.3c2,2,14.4,19.8,16.6,22.9c8.9-2.7,18.7-5.4,27.3-8.9c-3.8,6.6-11.3,17.7-15.6,24
	c5.3,8.8,9.2,15.7,15.5,23.7c-7.1-1.9-14-3.7-21.3-5.2l-5.8-1.6c-5.7,7.7-11.4,16-17.3,23.5c0.1-11-0.3-18.2-1.4-29.2
	c-6.7-3.8-17-6.1-25.9-11.1c7.2-2.8,18.9-6,26.9-8.8C402.7,113.5,403.1,106.3,404.1,95.3z"/>
<path class="st3" d="M782.2,207.4c0.7,0.9,9.2,24.8,10.5,28.1c9.4-0.9,19.5-1.6,28.9-2.2c-7.7,6.9-14,11.4-21.7,19.1
	c4.1,10.3,8.2,19.6,12.7,29.8c-8-5.4-15.5-10.7-23.2-16.5c-1.3-1.2-1.9-2-3.6-2.5c-3,1.5-23.6,18.2-27.1,21.1l9.5-30.9
	c-4.4-3.5-16.3-12.1-21-14.7c11.3-2.5,15.9-3.1,27.2-3.2C776.8,226.3,779.7,216.5,782.2,207.4z"/>
<path class="st3" d="M187,401.3c1.4,1.7,9.9,19.9,11.4,23.2c8.8-0.1,19.2,0.9,27.7,0c-6.7,6.5-13.6,12.3-20.3,18.9
	c2.4,8.6,4.6,16.5,6.7,25.1c-7.3-3.9-15.4-8.3-23-11.6c-7,5.6-14.1,11.1-21.2,16.5c2.3-9.7,3.9-17.8,5.4-27.6
	c-6.3-5.4-12.9-8.6-19.7-14.8c8.6-1.8,16.8-3.3,25.4-4.8C181.2,418.8,184.7,408.6,187,401.3z"/>
<path class="st3" d="M257.1,211.8c1.1,2.6,4.8,21.2,6.5,26.7c8.6,1.9,17,4.4,25.4,6.9c-7.7,4-15.7,9-23,13.6c1.2,8.6,2.1,18,3,26.7
	c-5.5-5.6-12-12.5-18.3-17.3c-1.5-1.1-2.2-0.6-3.8-0.2c-7.8,3.6-15.2,7-23.1,10.4c4.6-9,7.9-17,11.7-26.3l-18.9-20.3
	c9.1,0.6,18.6,1.9,28.1,2.5C248.9,228.2,252.8,218.4,257.1,211.8z"/>
<path class="st3" d="M209.1,300.8c1,1,8.9,22.5,10.5,26c8.6,0.6,17,2,25.6,2.3c-4.6,4.6-14.2,11.3-19.8,15.4
	c1.1,8.8,3.1,17.6,5.1,26.2c-3.6-2-19.5-13.6-21.7-13.7c-7.1,4.8-14.6,9-21.8,13.7c2.1-8.7,4-17.4,6-26.2
	c-6.8-6.2-14.6-10.5-21.3-17c9.6,0.1,18.5-1,28.1-1.1C203.2,318.2,206.2,309.3,209.1,300.8z"/>
<path class="st3" d="M302.1,145.7c8.1,6.5,14.7,11.2,23.4,16.8c8.4-5.2,15.6-9.7,23.6-15.5c-2.9,9.3-6,18.4-9.1,27.6
	c6.1,6.6,13.4,11.6,19.7,18.5l-25.6-0.1c-3.7,5-9.7,19.3-12.1,25.2c-2.6-7.2-6.1-18.6-8-25.9c-6.7-0.5-21.9-2.2-28.3-3.5
	c6.2-3.4,18-10.5,23.4-14.8C306.8,164.2,305.8,155.2,302.1,145.7z"/>
<path class="st3" d="M109.5,561.8c1.4,0.7,2.9,7.5,3.5,9.6c6.5,20.3,15.6,39.2,23.8,58.8c-8.6-3.1-14.7-4.8-23.5-6.9
	c-11.2-2.9-23.3-6.5-34.6-8.8c8.1-13.7,15.9-27.4,23.6-41.3C104.5,569.4,106.9,565.3,109.5,561.8z"/>
<path class="st3" d="M144.2,643.4c1.3,1.6,3.4,5.5,4.4,7.5c9.6,17.4,21.2,33.1,32.9,49.2c-7.1,0.1-14.7,0-21.9,0
	c-12.4,0-25.6-0.7-38-1.2c3.1-8.9,7.1-18.4,10.6-27.2C135.8,662.4,139.7,652.1,144.2,643.4z"/>
<path class="st3" d="M144.8,244.2l0.3,0.2c0,0.8-6.4,14-7.3,15.6c-8.5,14.9-13.4,30.7-20,46.4c-4-5.8-7.9-12.4-11.6-18.5
	c-6.2-10-13.1-20.7-18.3-31.1C105.8,251.9,126.6,247.8,144.8,244.2z"/>
<path class="st3" d="M891.1,641.3c2.1,3.1,5.9,14,7.4,17.9c4.9,12.8,9.6,25.6,14.1,38.6c-10.8,0.6-25.3,0.2-36.4,0.2
	c-7.4-0.3-13.8-0.2-21.2,0C867.8,682.8,881.6,658.8,891.1,641.3z"/>
<path class="st3" d="M887.4,245.3c4.7,0,16.9,2.9,22,4l36.6,7.8c-4.4,8.7-13,20-18.4,29.1c-4,6-8.6,13.2-12.1,19.4
	c-1.2-2.3-2.7-5.8-3.7-8.3C904.9,279.3,895.8,262.7,887.4,245.3z"/>
<path class="st3" d="M938.6,483.8c13.3,12.9,28.8,27,41.4,40.1c-5.4,3.6-17.9,9.4-24.2,12.6c-9.3,4.9-19.9,9.6-29.4,14.1
	C932,537.5,936.6,499.2,938.6,483.8z"/>
<path class="st3" d="M112.4,319.5l0.5,0.6c-0.4,2.7-1.6,6.4-2.5,9.1c-6,18.2-8,36.7-11.9,55.2c-3.7-2.5-15.6-15.5-19.4-19.5
	c-7.1-7.3-13.5-14.5-20.8-21.8C76.1,334.8,94,328,112.4,319.5z"/>
<path class="st3" d="M920.1,319.2c17.9,8.4,35.9,15.7,54,24.2c-6.3,7.6-12.9,14.4-19.7,21.6c-3.5,4.5-14.8,16.3-18.8,20.2
	C931.2,361,927,342.8,920.1,319.2z"/>
<path class="st3" d="M923.4,564.3c4.6,3.6,25.9,41.2,30.9,48.9c-5.6,0.6-23.4,6-30.6,7.7c-7.2,2.2-18.1,4.9-25.4,6.5
	C908.2,608.5,916.6,584.4,923.4,564.3z"/>
<path class="st3" d="M897.1,177.7c1.6-0.1,1.5-0.2,3,0.2c0.4,2.9-16.7,50.8-18.7,55.3c-4.3-5.9-9.1-14-13-20.3
	c-8.3-12.3-16.3-21.4-24.4-32.8C861.8,179.5,879.4,178.6,897.1,177.7z"/>
<path class="st19" d="M809.9,669.1c0.4,0.3,0.1,0.1,0.6,0.9c-2.3,3.5-6.7,8.7-9.5,12c-13.3,16.4-28.5,31.6-44.8,45.1l-2.1-7.9
	c-2.9-9.7-5.5-19.5-8.7-29.1c3.9-0.9,7.7-2.2,11.4-3.5C774.4,680.6,792,674.1,809.9,669.1z"/>
<path class="st3" d="M133,178.9c16.5,1,39.7,1.2,56.2,0.9c-7.9,10.1-14.4,18.9-21.7,29.4c-5.4,7.9-9.7,14.9-14.6,23.1
	C146.6,219,137.5,193.2,133,178.9z"/>
<path class="st3" d="M193.7,108.2c14.5,3.7,29,7,43.6,10.4c3.7,0.9,7.5,1.7,11.3,2.1c-7.1,6.8-15.1,13.5-22.5,20.5
	c-7.8,7.8-14.7,15.4-22.3,23.4C200.4,145.7,196.3,127.2,193.7,108.2z"/>
<path class="st3" d="M937.5,403.8c1.7,0.6,10.5,6.6,12.7,8.2c9.6,6.9,26,14.6,34.5,22.3c-6.4,4.8-12.7,9.2-18.9,14.2
	c-8.3,6.1-18.3,13.2-26.2,19.4C941.7,446.6,938.7,424.7,937.5,403.8z"/>
<path class="st3" d="M94.8,482.4c0.9,4,1.4,12.7,2.2,17.4c2.6,16.2,4.4,32.3,8.9,48.2c-8.6-4.1-17-8.1-25.5-12.5
	c-6.5-3.3-17.1-8.4-22.9-12.2c2-2.7,4.8-5.3,7-7.9C74.5,504.2,84.2,493,94.8,482.4z"/>
<path class="st3" d="M94.9,401.9c1.3,1,0,10.1-0.1,12.1c-1.3,17.3-0.9,34.6-0.8,52c-7.2-4.8-18.5-13.7-25.7-19
	c-5.9-4.7-12.9-10-19-14.3c5.4-3.8,11.2-7.1,16.6-10.8C75.6,415.2,85.2,408.5,94.9,401.9z"/>
<path class="st3" d="M838.2,108.5l1.5-0.1c0.8,1.7-6.2,50.9-6.9,56.3c-6.2-5.4-13.8-13.9-19.5-20.1c-7.4-7.4-15.8-14.5-23.6-21.6
	L838.2,108.5z"/>
<path class="st3" d="M633.8,97.4c0.4,0.4,1.8,8.5,2.3,10.3c-15.6,15.3-18.2,17.2-26.6,38.5c-9.6,3.4-15.8,6.2-24.9,10.4
	c3.9-4.4,7.3-9.4,10.5-14.3c2.7-4.3,5.3-8.7,7.8-13.1c-4.9-7.8-10-16.3-15.6-23.5c7.2,2.1,23.5,8.4,29.9,11.6
	C623.6,111.2,628.5,104.3,633.8,97.4z"/>
<path class="st3" d="M271.5,61.3c11.1,4.1,29.5,11.8,40.1,17c-4.9,2.1-11.8,6.7-16.5,9.6c-7.8,4.8-17.2,11-24.7,16.3
	C271.2,90.3,271.2,75.4,271.5,61.3z"/>
<path class="st26" d="M625.5,531.5l3-3.9c3.5,2.2,10,6.7,13.9,7.1l1.2,1.4c-4,1.5-3.5,6.6-3.5,10.1
	C634.3,542.4,628.7,537.8,625.5,531.5z"/>
</svg>
