<?xml version="1.0" encoding="UTF-8"?>
<svg id="_Слой_1" data-name="Слой_1" xmlns="http://www.w3.org/2000/svg" xmlns:xlink="http://www.w3.org/1999/xlink" viewBox="0 0 1228.8 1228.8">
  <defs>
    <style>
      .cls-1 {
        fill: none;
      }

      .cls-2 {
        fill: #f5f6f6;
      }

      .cls-3 {
        fill: #f41416;
      }

      .cls-4 {
        fill: #3c0505;
      }

      .cls-5 {
        fill: #b9b4b4;
      }

      .cls-6 {
        fill: #fafafa;
      }

      .cls-7 {
        clip-path: url(#clippath);
      }
    </style>
    <clipPath id="clippath">
      <circle class="cls-1" cx="611.12" cy="647.66" r="531.57"/>
    </clipPath>
  </defs>
  <g class="cls-7">
    <g>
      <path d="M1222.21,1.46c-404.12,0-808.24,0-1212.36.02C.16,1.48,1.52.16,1.51,9.57c-.02,403.6-.02,807.21-.03,1210.81,0,2.79-.18,5.57-.27,8.36h1227.59V1.5c-2.2-.01-4.39-.04-6.59-.04ZM1002.92,597.6c4.71-.65,9.45-1.45,14.18-1.47,4.18-.02,8.12-2.33,13.63-.65-17.36,2.94-33.56,5.54-49.84,7.77-13.94,1.91-27.79,4.53-41.71,6.67-9.8,1.51-19.65,2.71-29.47,4.12-3.73.54-7.43,1.29-11.14,1.92-.98.17-1.97.4-2.95.38-1.29-.02-3.18.48-3.17-1.61,0-1.29,1.43-1.89,2.67-1.89,5.63,0,10.99-1.67,16.49-2.46,13.74-1.97,27.49-3.89,41.25-5.77,9.82-1.34,19.67-2.54,29.49-3.91,6.87-.96,13.7-2.16,20.56-3.12ZM954.05,523.16c.73-.22,1.54-.15,3.17-.3-1.86,2.41-4.03,2.45-5.84,3.06-30.22,10.16-60.47,20.24-90.71,30.32-1.51.5-3.03,1.01-4.59,1.3-1.11.2-2.7.55-3.1-.88-.51-1.79,1.13-2.24,2.46-2.68,1.89-.63,3.78-1.28,5.68-1.88,21.47-6.75,42.93-13.52,64.41-20.23,9.49-2.97,19.02-5.84,28.54-8.71ZM826.7,532.34c-.7.37-1.36.84-2.1,1.09-.97.33-2.16.37-2.71-.56-.6-1.01.18-1.87,1.07-2.43.84-.53,1.73-.98,2.62-1.43,12.65-6.31,25.29-12.62,37.94-18.93,1.77-.88,3.52-1.83,5.6-1.62-4.39,4.49-10.37,6.41-15.62,9.46-8.76,5.09-17.84,9.63-26.79,14.41ZM870.41,507.22c.29-.48,1.03-1.01,1.11-.79.46,1.26-.67.58-1.11.79ZM775.88,483.8c-.18,3.38-2.71,4.95-4.27,7.17-2.61,3.71-5.83,7.01-8.88,10.4-.81.9-2.02,1.44-3.15.41-.9-.82-.67-1.95,0-2.68,5.07-5.47,10.36-10.72,16.3-15.29ZM460.78,501.81c-.93.71-1.85-.15-2.55-.86-5.04-5.03-10.15-10.01-13.46-16.46-.27-.28-.54-.56-.82-.83.28.27.56.54.83.82.75.23,1.72.24,2.22.73,4.58,4.44,9.1,8.95,13.58,13.49.88.89,1.4,2.19.2,3.12ZM443.56,483.28c-.17-.09-.47-.22-.46-.26.1-.4.28-.3.46.26ZM401.33,533.58c-.76,1.55-2.06.65-3.06.12-4.56-2.43-9.13-4.87-13.63-7.42-8.13-4.61-16.19-9.32-24.31-13.95-1.23-.7-2.45-1.3-3.05-2.68,3.51-.37,5.86,2.16,8.64,3.55,10.13,5.06,20.22,10.22,30.3,15.38,1.23.63,2.35,1.48,3.53,2.23,1.03.65,2.25,1.4,1.57,2.77ZM357.24,509.63c-.17-.08-.45-.19-.44-.24.09-.38.26-.29.44.24ZM277.84,525.76c16.36,4.95,32.76,9.8,49.08,14.88,14.06,4.37,28.04,8.99,42.05,13.52,1.15.37,2.49.87,2.14,2.35-.37,1.59-1.9,1.27-2.96.93-5.69-1.82-11.33-3.79-17.01-5.65-23.45-7.7-46.92-15.36-70.35-23.12-2.19-.72-4.73-.88-6.46-2.85,1.24-.83,2.36-.4,3.51-.06ZM210.94,596.37c11.8,1.34,23.54,3.19,35.36,4.51,8.86.99,17.65,2.57,26.48,3.88,9.81,1.45,19.61,2.95,29.43,4.33,9.23,1.3,18.48,2.48,27.72,3.72.39.05.8.11,1.16.27.93.4,1.82.91,1.6,2.15-.18,1-1.08,1.16-1.83,1.13-2.18-.07-4.39-.12-6.54-.46-13.91-2.21-27.8-4.51-41.71-6.73-9.98-1.6-19.94-3.48-29.97-4.58-14.59-1.6-28.97-4.55-43.52-6.42-4.46-.58-9.05-.98-13.41-2.99,5.08-.42,10.17.62,15.23,1.2ZM123.22,664.17c-1.29-.03-2.82.55-4.6-2.23,4.84,0,8.74,0,12.64,0,62.68-.04,125.35-.11,188.03-.1,7.77,0,15.44-1.81,23.24-1.1,1.37.13,2.85-.32,4.1.47,1.05.65,1.77,1.69,1.58,2.97-.19,1.29-1.39,1.23-2.35,1.28-1.39.07-2.79.04-4.19.04-45.51-.03-91.04.71-136.52-.39-27.32-.66-54.62-.36-81.92-.93ZM363.28,702.61c1.07.84,2.14,1.69,3.21,2.53,0,0,.42.09.42.09,2.84-.76,6.29,1.88,8.67-1.54-.46-1.23-.92-2.45-1.38-3.68-.97-.94-1.22-2.15-1.28-3.43-1.43-1.77-2.02-3.69-1.05-5.89-.24-1.38-.29-2.7.94-3.71.3-1.5.81-2.89,2.18-3.76.22-2.61,2.05-4.06,3.93-5.48l.22-.24c.33-.87.84-1.52,1.9-1.44l.07-.04c2.91-5.38,8.7-7.73,13.15-11.86-1.62,4.44-3.23,8.87-4.85,13.31-.23,1.11-.46,2.21-.69,3.32-.07,1.28-.15,2.55-.22,3.83.14,1.62.61,3.23.09,4.86l.33.45-.27.49c.85.15.92.73.78,1.43.41,1.59,1.51,3,1.29,4.76.74.62,1.37,1.3,1.29,2.36.42.8.84,1.6,1.26,2.4,1.22,1.95,2.45,3.9,3.67,5.85,0,0,.05.07.05.07.7.14,1.02.57.99,1.27,3.17,5.02,8.62,7.9,12.37,13.25-8.68-3.85-17.14-6.57-25.67-9.01-9.24-2.64-18.72-3.37-28.29-1.9-1.36.21-2.39.59-3.5,1.73-3.5,3.57-7.54,4.65-9.25,3-2.27-2.18-2.22-6.88.11-10.88.14-.33.28-.65.42-.98.04-1.66,1.2-2.63,2.25-3.66.03-.72.38-1.12,1.12-1.16l.08-.08c3.37-4.91,8.51-7.38,14.15-10.38v10.61c.51,1.17,1.02,2.34,1.52,3.5ZM402.98,670.28c0-1.57.79-2.72,1.97-3.66,1.02-2.57,2.69-4.58,5.06-6.01.04-.71.35-1.15,1.12-1.17,1.81-2.63,3.96-4.88,6.93-6.24.11-.98.33-1.89,1.5-2.13,1.97-2.1,3.98-4.13,6.71-5.26.2-.96.55-1.79,1.67-1.97,1.86-2.24,3.96-4.16,6.72-5.25.29-.9.73-1.65,1.81-1.73,2.08-2.03,4.19-4.01,6.9-5.2,1.07-1.33,2.39-2.32,3.94-3.03,1.96-1.33,3.93-2.67,5.89-4,1.43-1.37,3.04-2.48,4.84-3.32,3.05-1.96,6.05-4.02,9.58-5.05,1.01-1.02,1.98-2.11,3.55-2.25,3.12-1.92,6.25-3.83,9.82-4.83l.3-.36.41.19c.88-.35,1.76-.69,2.64-1.04,0,0-.02-.01-.04-.03.43-.38.81-.87,1.31-1.12,10.18-4.97,20.83-8.7,32.54-12.8-2.63,5.31-4.83,9.74-7.03,14.17l.1.56-.46.33c.28,2.19-.86,3.98-1.68,5.86.03.64-.11,1.17-.83,1.35.35,2.14-.23,4.09-1.22,5.96-.17.87-.33,1.74-.5,2.6-.26,1.52-.52,3.04-.78,4.55-.1.87-.19,1.73-.29,2.6.31,1.53-.06,2.98-.52,4.41.4.56.34.99-.35,1.24l-.04.11c-.02.45-.03.91-.05,1.36.42,1.56.31,3.12.06,4.68-.05.85-.1,1.69-.16,2.54.5,1.93.5,3.87.1,5.81,0,.45-.01.91-.02,1.36.64,1.85,1.01,3.74.75,5.72.4.84.69,1.69.45,2.64.17,1.57.35,3.14.52,4.71.76.7.75,1.6.63,2.52.23,1.04.46,2.09.69,3.13,1.15,1.14.79,2.58.78,3.95.98.99,1.19,2.25,1.26,3.55.18.27.4.52.52.82.04.1-.13.29-.21.45.67,2.9,2.88,5.23,3.03,8.32.11.39.22.77.34,1.16,1.44,1.22,2,2.92,2.51,4.65,1.22.98,1.66,2.4,2.16,3.79,1.13,1.02,1.76,2.37,2.35,3.73,1.17.92,1.71,2.24,2.27,3.55.87,1.18,1.75,2.35,2.62,3.53,1.39.76,1.9,2.14,2.48,3.48,1.95,1.28,3.34,3.09,4.69,4.93,1.08.24,1.42,1.07,1.61,2.02,2.63,1.73,5.03,3.7,6.76,6.37.76-.06,1.14.37,1.33,1.05,2.75,1.1,4.77,3.23,7.07,4.97,1.03.03,1.57.49,1.39,1.59,3.89,1.2,7.17,3.54,10.56,5.67,2.36,1.17,4.72,2.34,7.08,3.51,3.61,1.26,7.22,2.53,10.83,3.79,3.98,1.14,7.97,2.27,11.95,3.41,14.05,2.58,28.1,1.92,42.14-.04,3.98-1.15,7.96-2.3,11.94-3.46,3.55-1.29,7.1-2.59,10.64-3.88,2.07-1.06,4.14-2.12,6.2-3.19,2.35-1.32,4.7-2.63,7.05-3.95,1.64-1.1,3.28-2.2,4.92-3.3,2.51-1.95,4.8-4.19,7.8-5.44.26-.93.68-1.7,1.77-1.81,2.1-1.94,3.96-4.17,6.54-5.54l.11-.42.42-.1c1.27-2.67,3.32-4.65,5.58-6.46.18-1.24.8-2.19,1.84-2.87.94-1.48,1.75-3.07,3.3-4.04.54-1.37.93-2.84,2.32-3.67.45-.75.9-1.5,1.35-2.26.21-1.56,1.12-2.66,2.37-3.52.71-2.3,1.51-4.55,3.32-6.27-.22-.46-.09-.77.4-.93.21-2.24,1.07-4.21,2.5-5.94-.11-1.35.02-2.63,1.04-3.66.07-1.32.4-2.54,1.3-3.56,0-1.35-.23-2.75.94-3.81.13-.72.25-1.44.38-2.16-.25-.71-.13-1.25.69-1.47l.05-.05c-.29-.78-.17-1.49.32-2.15-.08-1.57-.03-3.13.75-4.56-.29-.98.18-1.81.54-2.66.1-2.06-.93-4.27.78-6.13-.17-.38-.11-.71.2-.99-.67-2.02-.48-4.02.1-6.01,0-.41.01-.82.02-1.23-.62-1.99-.82-4-.17-6.03-.33-.36-.33-.71.02-1.06-.84-.17-.87-.7-.59-1.36-.54-1.52-.63-3.07-.31-4.65-.34-.86-.66-1.72-.38-2.66-.25-1.11-.5-2.22-.75-3.34-.7-1.22-.44-2.57-.55-3.87-1.06-1.79-1.21-3.75-1.02-5.76-.79-.14-.79-.73-.75-1.34-.81-1.88-1.79-3.71-1.55-5.87l-.43-.36.17-.54-.04-.03c-.85-.12-1.03-.68-.95-1.42-.37-.82-.74-1.65-1.11-2.47-1.69-3.42-4.02-6.56-5.19-10.92,9.19,1.9,17.54,4.56,25.49,8.48l.18.04c1.38-.28,2.5.17,3.44,1.17,3.31.94,6.53,2.12,9.48,3.93,1.57.1,2.65,1.09,3.76,2.03,4.21,1.1,8.04,3.08,11.79,5.24,1.38.36,2.55,1.07,3.53,2.11,3.24.94,6.06,2.68,8.77,4.63,2.25.71,3.93,2.31,5.76,3.67,1.91.84,3.61,1.98,5.08,3.46,2,.65,3.38,2.11,4.75,3.59,2.4,1.1,4.4,2.72,6.05,4.78,1.47.38,2.12,1.72,3.11,2.65,1.98,1.28,3.87,2.65,5.16,4.69,1.12.22,1.44,1.07,1.62,2.04,2.79,1.09,4.56,3.42,6.61,5.42.99.32,1.27,1.15,1.43,2.05,2.56.97,4.26,2.93,5.79,5.08,1.26.85,1.71,2.16,2,3.56.63,1.5.74,3.06.48,4.66.39.77.43,1.55.09,2.35.7,1.63.41,3.24-.06,4.86.05,1.73.11,3.47-1.16,4.89-.04,1.61-.8,2.88-1.9,3.99l-.2.49c.03,2.5-1.22,4.42-2.78,6.21-.03.56,0,1.16-.78,1.25-.28,2.35-1.69,4.09-3.14,5.81-.48.97-.72,2.13-1.93,2.55-.71,1.99-2.02,3.54-3.64,4.85-.36,1.12-1,1.98-2.16,2.37-1.17,2.08-2.91,3.62-4.82,4.99-1.1,1.34-2.15,2.75-3.84,3.45-1.84,1.84-3.79,3.53-6.17,4.65-.64.91-1.37,1.72-2.48,2.08-6.4,4.64-12.78,9.3-20.11,12.42-1.91,1.39-3.84,2.74-6.18,3.33-2.7,1.43-5.35,2.96-8.32,3.79-2.34,1.31-4.62,2.75-7.28,3.37-3.18,1.27-6.35,2.53-9.53,3.8-3.02,1.6-6.13,3-9.53,3.59-3.88,1.57-7.86,2.83-11.97,3.65-4.02,1.15-8.04,2.3-12.06,3.46-7.47,2.31-15.08,3.96-22.86,4.82-.66.54-1.35.84-2.15.28-1.2.57-2.46.72-3.77.6-1.85,1.21-3.84,1.78-6.06,1.36-35.47,5.55-70.94,5.91-106.41,0-2.28.41-4.31-.25-6.18-1.52-.83-.17-1.66-.34-2.48-.5-.78.59-1.47.37-2.13-.21-8.19-.75-16.13-2.71-24.04-4.84-2.67-.02-5.06-.92-7.28-2.32-.78-.11-1.56-.21-2.34-.32-1.04.4-1.89.09-2.61-.69-4.86-.74-9.53-2.2-14.14-3.85-3.69-.81-7.28-1.92-10.69-3.56-3.6-1.25-7.2-2.5-10.81-3.75-2.99-.72-5.74-2.03-8.48-3.38-3.16-1.29-6.32-2.57-9.48-3.86-2.36-.52-4.17-2.09-6.16-3.3-3.49-1.02-6.65-2.72-9.6-4.81-1.94-.08-3.18-1.48-4.65-2.46-6.61-3.12-12.46-7.39-18.11-11.97-1.56-.81-2.61-2.15-3.59-3.55-1.7-1.24-3-2.79-3.74-4.78-1.25-.38-1.58-1.5-2.03-2.52-.48-.77-.97-1.54-1.45-2.32-1.55-1.23-1.81-3.08-2.29-4.82-.86-.95-1.36-2.05-1.47-3.33-1.32-1-1.05-2.44-1.04-3.8-1.13-.9-1.23-2.18-1.29-3.47-.55-.79-1.25-1.56-.23-2.5-1-2.32-1.34-4.71-.83-7.2-.29-.78-.51-1.56-.14-2.37-.32-1.23-.1-2.42.25-3.61ZM542.21,647.94c-3.58-1.34-7.75.07-11.53-1.56,4.44-2.39,9.48-.4,13.89-1.76.51-2.57-2.29-1.22-2.56-2.86,3.22-.97,6.84.53,11.09-1.53-5.33-1.81-10-2.35-14.83-5.13,5.81-1.89,10.35.22,14.82.94,4.11.66,8.39.12,12.37,1.71.73.29,1.69.06,2.12-.66.6-1-.05-1.93-.63-2.73-1.1-1.52-2.86-2.13-4.44-2.93-5.15-2.64-10.37-5.15-15.51-7.81-1.27-.66-3.14-.81-3.36-3.66,3.78,1.53,7.19,2.91,10.59,4.3,4.61,1.88,9.22,3.76,13.81,5.67,2.81,1.17,4.84.72,6.51-2.12,1.39-2.37,2.79-4.85,4.99-6.67,2.03-1.68,1.55-3.1-.05-4.99-5.26-6.22-10.26-12.66-15.46-18.94-1.21-1.47-2.01-2.93-1.78-4.85,4.59,2.72,7.03,7.46,10.35,11.33,2.33,2.72,4.75,5.33,7.28,7.82,3.07,3.02,4.62,3.07,8.38.98,9.5-5.29,19.44-7.01,30.3-4.99,5.36,1,10.34,2.55,15.08,5.01,2.61,1.35,5.31,2.91,5.13,6.57,1.79-.16,3.64-.06,2.71-2.95-1.11-3.43-1.34-6.97-.98-10.63,1.23-12.27,12.53-19.38,20.99-20.06,9.91-.8,19.67,5.55,23.08,15.46,3.39,9.86-.47,20.12-9.93,26.38-.66.44-1.34.86-2.01,1.3-.55.93-1.39,1.16-2.4,1.02h-.02q-4.32,2.83-2.98,7.5c.28.96.53,1.93.9,2.85.72,1.8,0,2.52-1.77,2.81-3.24.55-6.56.94-9.98,2.87,11,2.61,21.67,1.32,32.16,2.86-4.79,2.09-9.87.88-15.08,1.7,4.74,3.71,10.37.87,16,3.19-5.72,2.68-11.16.27-16.84,2.03,3.88,3.08,7.22,5.68,11.77,6.54,4.19.8,8.29,2.07,12.32,3.69-6.35,2.09-12.43-1.48-18.74-.57,4.7,4.15,11.45,3.4,17.03,7.3-7.26.97-13.02-2.74-19.24-3.01-1.01,3.51,3.79,3.02,3.32,6.24-2.27.09-4.48-.47-6.66-1.14-.86-.27-1.58-.23-1.97.63-.39.85,0,1.65.7,2.07,1.53.93,3.19,1.65,4.74,2.56,1.96,1.15,4.36,1.66,6.08,3.86-3.84.55-6.28-2.16-9.38-2.62-1.47-.22-3.01-1.95-4.35-.22-1.33,1.71,1.4,2.6,1.28,4.62-5.89.66-8.52-6.25-14.64-6.1,4.76,9.13,15.27,12.2,20.93,20.86-4.4.17-5.8-4.56-9.91-4.13.12,4.03,4.7,5,5.9,8.55-3.9,1.16-4.66-3.93-8.22-3.83-.25,3.85,4.5,4.71,4.97,8.88-7.71-3.79-12.61-10.43-19.24-15.86-.63,3.08.59,4.43,1.58,5.84.79,1.14,1.81,2.14,2.48,3.34,1.78,3.2,1.34,3.76-3.18,4.03.5,5.76,6.59,9.34,6.38,16.29-7.54-6.75-8.6-17.22-17.16-23.7.67,7.09,5.94,11.73,5.06,18.07-3.18-.45-2.18-3.92-4.32-4.73-3.03,2.12,1.11,4.83-.97,7.36-3.19-2.93-4.2-6.74-5.44-10.66-1.14-3.63-2.79-7.24-5.43-10.44-2.38,2.75,1.1,5.02-.54,7.23-1.78.57-1.7-2-4-1.79-1.35,8.05,3.04,15.99,1.79,24.61-1.71-.91-1.91-2.33-2.18-3.76-.83-4.28-1.72-8.55-2.57-12.83-.21-1.05-.69-2.05-1.73-2.2-1.29-.19-1.59.92-1.61,1.97-.06,3.12-2.84,4.85-3.35,8.45-2.82-3.78-3.33-7.45-3.67-10.79-.42-4.14-1.82-8.18-1.45-12.42.1-1.12.17-2.71-1.49-2.72-1.36,0-1.8,1.3-2.02,2.55-1.61,8.78-3.25,17.56-4.83,26.34-.21,1.16-.2,2.35-2.09,3.57-.92-8.28,2.61-15.77,1.72-24.32-2.86,3.91-2.27,8.35-4.63,11.55-.81.33-.88-.3-1.02-.82-.15-.55-.29-1.09-.54-2.08-3.68,4.72-3.83,10.59-7.26,16.49-.43-5.22,1.48-8.61,2.24-12.21.8-3.8,2.65-7.38,2.85-12.22-3.34,2.23-3.79,5.16-4.89,7.77-1.03,2.44-.98,5.54-4.15,7.37-.11-5.78,3.51-10.28,4.1-15.78-2.84.02-3.57,1.95-4.57,3.59-2.66,4.34-2.66,4.3-7.74,3.56-.7-.1-1.48.7-2.22-.2-.44-1.47.79-2.5,1.18-3.78.24-.79.43-1.62-.43-2.09-.73-.4-1.55-.29-2.25.21-1.16.82-2.16,1.77-2.59,3.18-1,3.26-3.47,5.23-6.12,7.05-.68-3.5,3.28-5.37,3.15-8.56-.44-.82-1.06-.77-1.63-.59-2.51.78-2.92-.36-2.12-2.39.61-1.56,2.74-2.34,2.53-4.64-6.26-.27-8.66,6.49-14.75,7.95,1.44-3.15,3.61-4.58,5.29-6.38,1.63-1.75,3.43-3.35,5.06-5.1,1.16-1.25,3.48-2.68,1.98-4.38-1.76-1.99-2.81,1-4.25,1.64-2.6,1.15-4.42,3.96-8.08,3.91.9-4,6.37-4.02,6.35-8.9-4.74,1.14-8.45,4.32-13.96,5.93,4.3-5.67,10.97-6.74,14.53-12.37-7.47-.85-13.17,3.38-19.72,4.21,3.57-3.71,8.23-5.35,13.24-7.13-2.44-4.26-6.06-2.21-9.31-1.61-.17-2.32,1.56-2.4,2.63-2.92,2.5-1.22,5.12-2.21,7.63-3.39,1.38-.65,2.85-1.11,2.59-3.39-.33-2.82,3.27-1.67,4.49-4.19-4.41-.75-7.93,1.98-11.81,2.26-3.86.27-7.59,1.89-12.95,1.95,4.96-3.7,9.73-4.19,14.15-4.98,2.34-.42,2.94-1.32,3.51-3.07,1.26-3.91.89-4.16-3.18-4.04-7.18.21-14.36.11-21.55.11-.59,0-1.13-.24-1.43-1.62,4.61-1.43,9.57-.41,14.27-1.47,4.52-1.02,9.4-.45,14.17-1.07-3.16-3.06-7.33-1.1-10.88-2.44ZM561.8,592.1c.08-.38.25-.3.45.24-.17-.08-.46-.19-.45-.24ZM562.26,714.6c-.09.17-.22.48-.27.47-.4-.1-.3-.28.27-.47ZM842.79,689.45c-.78,2.6-2.57,4.48-4.76,5.84-4.12,2.57-7.76,5.95-13.64,8.28,3.78-5.76,6.9-10.52,10.02-15.27,1.2-3.62,2.41-7.23,3.61-10.84v-10.72c4.16,2.21,8.38,3.92,8.35,9.5l.02.03c.24.25.51.48.71.76.04.06-.17.3-.27.46.49,4.61-.44,8.74-4.03,11.97ZM844.55,703.14c-4.74,3.27-8.16,7.9-12.71,11.23-1.7,1.62-3.41,3.23-5.11,4.85-.48.65-.85,1.45-1.86,1.39-.01,1.1-.84,1.66-1.54,2.31-.88,1.87-.24,4.35-2.31,5.75-1.21,2-2.57,3.86-4.59,5.13-.59,1-1.01,2.16-2.29,2.53-1.26,1.92-2.79,3.56-4.79,4.74-1.04,1.37-2.04,2.79-3.76,3.42-1.58,1.24-3.16,2.47-4.73,3.71-1.39,1.47-2.86,2.83-4.78,3.61-1.74,1.28-3.63,2.4-5.18,3.87-1.81,1.72-3.08.29-4.55-.37-1.14,1.25-2.27,2.5-3.41,3.75-1.79,3.04-4.92,3.99-7.94,5.1-.72,1.05-1.52,1.98-2.95,1.96-3.07,1.95-6.24,3.68-9.74,4.74-1.87,1.01-3.61,2.3-5.84,2.46-3.43,2.08-7.16,3.45-10.94,4.74-3.02,1.56-6.03,3.11-9.44,3.65-4.68,2.02-9.4,3.89-14.45,4.77-.25.45-.56.57-.97.18-.88.23-1.75.45-2.63.68-.78,1.44-2.05,1.76-3.56,1.53-5.86,2.16-11.87,3.74-18.02,4.82-4.32,1.51-8.73,2.69-13.27,3.37-7.49,1.62-14.94,3.46-22.64,3.86-2.75.83-5.52,1.44-8.42.9-.79.05-1.58.11-2.37.16-2.39.46-4.77.93-7.16,1.39-.87.67-1.73,1.34-2.6,2.01,4.92.26,9.83.52,15.92.84-6.25,2.41-11.65,1.97-17.03,1.69-20.83.89-41.6.67-62.14-3.57-5.68-.7-11.22-2.07-16.74-3.51-5.69-.77-11.2-2.36-16.74-3.8-3.81-.6-7.41-1.9-10.98-3.3-5.72-1.11-11.17-3.07-16.59-5.13-1.82-.29-3.48-.99-4.97-2.07-4.58-1.09-8.84-3.05-13.12-4.92-2.89-.89-5.69-2.01-8.31-3.55-4.17-1.78-8.53-3.17-12.14-6.06-1.39.36-2.43-.34-3.45-1.13-3.44-1.17-6.7-2.73-9.75-4.72-1.24.06-2.09-.4-2.3-1.73-2.37-.31-4.48-1.36-6.58-2.39-7-3.46-13.98-6.98-20.96-10.47-3.04-.59-5.32-3.03-8.43-3.44-.51-.18-1.1-.27-1.52-.58-.51-.37-1.76-.38-1.28-1.37.31-.65,1.25-.6,1.96-.16,3.38,1.35,6.83,2.37,10.53,2.1-7.28-5.69-15.75-9.21-23.97-13.17-1.9.03-3.42-.66-4.84-2.67,2.24-.58,3.88-.12,5.4,1.09,11.08,3.54,21.72,8.25,32.55,12.44,1.61.62,3.46.86,4.62,2.4,2.22.47,4.41,1.04,6.32,2.35,10.36,4.11,20.73,8.22,31.09,12.33,1.77.33,3.33,1.11,4.81,2.1,5.4,1.06,10.46,3.2,15.62,5.03,1.8.24,3.38.96,4.74,2.18,6.39,1.7,12.78,3.4,19.17,5.1,4.05,1.07,8.09,2.14,12.14,3.21,3.51.41,7.03.83,10.54,1.24.96-.26,2.17.01,2.7-1.21-1.97-.8-3.95-1.6-5.92-2.4-5.33-1.21-10.61-2.61-15.63-4.81-2.82-.77-5.65-1.54-8.47-2.31-2.05-.34-4.01-.87-5.89-2.65,2.67-1.49,4.47.14,6.4.54,4.86,1.58,10.11,1.38,14.88,3.33l.33.02c2.47-.42,4.79.09,7.05,1.06,9.7.77,19.32,2.3,29.08,2.62,26.89.88,53.66-.47,80.36-3.55,1.18-.14,2.38-.1,3.57-.15,1.44-.54,2.89-.99,4.45-.46.86-.15,1.72-.3,2.57-.46,1.37-1.37,3.04-1.6,4.85-1.3,9.57-1.7,19.14-3.39,28.71-5.09,2.31-1.07,4.75-1.7,7.26-2.06,6.3-1.95,12.59-3.89,19.07-5.15,3.08-1.48,6.31-2.54,9.64-3.31,3.96-1.31,7.91-2.62,11.87-3.93,2.28-1.43,4.66-2.64,7.29-3.29,3.16-1.3,6.32-2.61,9.47-3.91,2.25-1.47,4.63-2.67,7.2-3.47,3.18-1.76,6.33-3.6,9.79-4.8.95-1.09,2.02-1.98,3.5-2.23,3.26-2.09,6.44-4.33,10.21-5.47.38-.82.98-1.37,1.91-1.49,3.04-1.97,6.02-4.03,9.48-5.23.61-.76,1.34-1.28,2.38-1.18,1.77-2.56,4.68-3.41,7.23-4.81.5-.8,1.13-1.37,2.17-1.2l.13-.06c6.86-5.47,14.91-8.17,23.34-10.16ZM860.02,798.24c.7.36,1.39.76,1.16,2.37-3.13-1.21-6.24-2.22-9.18-3.58-9.17-4.26-17.95-9.34-27.34-13.15-.71-.29-1.37-.8-1.95-1.32-.73-.66-1.49-1.46-.75-2.52.54-.77,1.43-.58,2.18-.33.75.25,1.46.61,2.17.98,11.24,5.84,22.48,11.69,33.72,17.55ZM777.31,828.72c-.09.39-.27.29-.45-.26.17.09.46.21.45.26ZM776.51,828.12c-.29-.28-.58-.57-.88-.85-6.92-3.53-11.34-9.44-15.7-15.66.9-.46,1.4-.86,1.53-.77,5.96,4.39,10.75,9.82,14.19,16.4.28.29.57.58.85.87ZM459.85,813.93c-3.63,3.67-7.3,7.3-10.98,10.91-.71.69-1.56,1.29-2.79-.07,3.83-4.4,7.13-9.29,11.53-13.27.89-.8,2.06-1.64,3.12-.54,1.17,1.22-.1,2.17-.87,2.96ZM396.69,782.44c-.73.66-1.56,1.28-2.45,1.69-11.36,5.28-22.73,10.53-34.12,15.75-.27.12-.7-.1-1.1-.17.01-2.11,1.9-2.32,3.18-3,10.4-5.46,20.83-10.86,31.25-16.28.53-.28,1.07-.56,1.63-.75.76-.26,1.62-.46,2.22.24.9,1.05.11,1.86-.62,2.51ZM267.04,753.5c-3.82.71-7.65,1.92-11.76.94,6.66-1.67,13.31-3.4,19.99-4.99,22.79-5.42,45.59-10.79,68.38-16.18.19-.05.37-.15.57-.19,1.48-.37,3.53-1.26,3.99.77.46,2.07-1.78,2.12-3.3,2.46-17.62,3.93-35.24,7.9-52.87,11.82-8.32,1.85-16.62,3.81-25,5.38ZM340.49,767.87c5.33-2.25,10.99-3.43,16.36-5.59,5.21-2.1,10.47-4.53,16.35-4.08-3.5,3.7-41.55,15.84-48.62,16.09,5.21-3.31,10.81-4.26,15.9-6.41ZM884.62,771.76c-11.29-3.14-22.44-6.78-33.61-10.32-1.88-.6-5.31-.8-4.17-3.63.88-2.18,3.55-.06,5.25.49,14,4.52,27.94,9.22,41.59,14.71.65.26,1.53.17,1.88,1.38-3.97.19-7.42-1.65-10.94-2.63ZM946.24,751.17c-22-4.53-43.96-9.27-65.93-13.95-.97-.21-1.92-.53-2.87-.83-1.38-.43-3.82-.09-3.01-2.54.66-2.02,2.62-1.1,4.14-.74,21.88,5.16,43.75,10.33,65.64,15.47,4.6,1.08,9.24,2.02,14.09,3.98-4.51,1.03-8.28-.61-12.06-1.39ZM1093.24,664.18c-23.78.08-47.57-.54-71.32.29-41.72,1.45-83.44.68-125.15,1l-.04.02c-4.41,2.18-8.84,1.74-13.29.12-8.98-1.53-17.31-4.93-25.31-9.13-1.57-.82-3.92-1.09-4-3.67h-.02c-4.26-.17-6.86-3.36-10.05-5.49-.75-.09-1.18-.39-.83-1.22-4.95-1.98-8.19-6.19-12.14-9.45-3.95-3.27-7.47-7.05-11.18-10.6-1.56-.67-2.41-2.07-3.39-3.33-3.97-3.53-7.95-7.07-11.92-10.61-4.5-3.69-9.33-7-13.18-11.44-4.84-3.6-9.69-7.19-14.53-10.79-2.05-1.16-4.1-2.31-6.15-3.47-2.18-1.18-4.37-2.35-7.55-4.07,3.61-.96,5.26.39,6.97,1.53,2.52,1.84,5.81,2.36,8.01,4.74,6.61,3.59,13.42,6.88,18.96,12.14,4.42,1.75,8.18,4.4,11.08,8.2,3.23,1.12,5.54,3.56,8.12,5.63,1.67,1.34,3.46,2.53,5.19,3.78.92.67,1.91,1.63,2.95.34.98-1.22-.17-2.11-.78-3.03-.6.23-.93-.03-1.1-.6-2.72-1.79-5.22-3.82-7.28-6.36-.74.28-1.06-.16-1.27-.77l-4.69-3.79c-1.52-1.18-3.04-2.35-4.56-3.53-1.36-1.09-2.73-2.19-4.09-3.28-1.86-.88-3.33-2.27-4.8-3.66-5.5-3.71-11-7.42-16.5-11.13-1.51-.24-2.58-1.2-3.59-2.24-3.5-1.12-6.5-3.19-9.63-5.02-.73,0-1.17-.26-.94-1.09-.53-.26-1.06-.53-1.59-.79-.51.46-.78.21-.97-.31-4.28-1.02-8.16-3.02-12.12-4.82l-9.53-3.53c-4.81-1.23-9.62-2.45-14.43-3.68-6.01-1.16-12.02-2.31-18.02-3.47-17.54-1.68-35.09-3.36-52.63-5.04-3.42.53-6.61-.47-9.81-1.42-.8-.14-1.6-.27-2.4-.41-1.23.64-2.36.23-3.47-.34-10.08-.03-20.16-.05-30.25-.08-3.88.53-7.77.91-11.68.35-1.99.52-4.01.68-6.06.48-4.79,1.13-9.63,1.73-14.56,1.45-15.22,1.15-30.36,3.07-45.49,4.99-3.97.99-7.96,1.84-12.04,2.18-4.45.98-8.88,2.07-13.36,2.93-11.55,2.23-22.31,6.88-33.3,10.78-3.88,1.38-7.43,3.67-11.14,5.55-.56.57-1.14,1.08-2.03.87-.13.23-.33.31-.59.26-4.61,3.25-9.23,6.5-13.84,9.75-1.61,1.21-3.23,2.42-4.84,3.64-1.21,1.12-2.42,2.25-3.63,3.37-1.55,1.28-3.11,2.56-4.66,3.85-2.68,3.71-5.87,6.9-9.66,9.46-4.65,4.23-8.95,8.88-14.5,12.03-5.62,5.11-12.52,8.18-19.03,11.87-.85.43-1.7.87-2.55,1.3-.63.6-1.24,1.23-2.23,1.04l-.35.12c-11.04,5.75-22.64,9.66-35.3,10.28,7.5-4.58,15.75-7.62,23.66-11.35,2.42-1.22,4.83-2.44,7.25-3.66,5.91-3.61,11.82-7.21,17.73-10.82l.16-.11c.09-.71.5-1,1.2-.91,5.02-3.81,10.04-7.62,15.06-11.43,2.45-4.05,6.45-6.38,10.14-9.04,1.34-1.16,2.68-2.32,4.02-3.48,1.23-1.49,2.38-3.07,4.3-3.79,1.38-1.5,2.88-2.83,4.77-3.68,3.29-4.1,7.75-6.67,12.18-9.27,11.96-8.56,24.74-15.57,38.68-20.38,1.21-1.36,2.87-1.83,4.54-2.26,5.44-2.23,10.95-4.26,16.83-5.03.65-.49,1.32-.77,2.11-.31.88-.15,1.75-.31,2.63-.46.66-1.69,2.04-1.74,3.53-1.54,8.31-2.38,16.75-4.05,25.36-4.84,2.81-1.29,6.06-.77,9.67-2.01-4.64-1.32-8.56.08-12.39-.7-.75-.01-1.5-.02-2.26-.03-.7.04-1.4.07-2.1.11-14.67.79-28.6,5.26-42.48,9.37-8.1,2.4-16.02,5.91-23.57,9.99-2.44,1.32-5.03,2.37-7.56,3.54-5.2,4.16-11.03,7.33-16.67,10.83-1.69,1.16-3.38,2.32-5.07,3.48-4.4,4.01-9.11,7.64-14.03,11-.91.74-1.81,1.48-2.72,2.22-.12.54-.46.8-1.01.8-.06.23-.21.34-.45.33-11.36,10.18-23.97,18.45-37.85,24.83,11.28-8.05,21.62-17.21,32.33-25.9,1.37-1.5,2.8-2.91,4.71-3.73,4.03-4.91,9.33-8.27,14.42-11.89.48-.38.95-.76,1.43-1.14.38-.89,1-1.42,2.01-1.34l.14-.09c4.73-4.23,9.91-7.8,15.6-10.62,7.66-4.47,15.39-8.75,23.5-12.47,8.13-3.73,16.62-6.28,24.88-9.52,1.82-.72,3.59-1.66,5.63-1.68.43-.09.85-.17,1.28-.26.98-.95,2.17-1.24,3.49-1.06,1.5-.94,3.15-1.32,4.89-1.36,4.33-1.42,8.68-2.77,13.22-3.36,8.73-2.09,17.44-4.28,26.44-4.95,1.07-.57,2.15-1.1,3.4-.55,19.91-4.58,40.18-6.28,60.51-7.48,11.56-.68,23.1-1.81,34.7-1.46,20.98.62,41.83,2.37,62.32,7.22.55.13,1.24.07,1.4.86,1.85-.04,3.56.42,5.09,1.48,5.6.56,10.69,2.8,15.86,4.78,3,.66,5.74,1.94,8.39,3.44,3.04.72,5.67,2.32,8.33,3.86,2.25.67,4.13,2.01,6,3.36,3.02,1.3,5.81,2.95,8.29,5.12,1.4.32,2.33,1.36,3.37,2.23,9.33,5.44,17.11,12.84,25.05,20.02,1.31,1.18,2.45,2.56,3.66,3.84.96.4,1.57,1.16,2.03,2.05,1.64.82,2.28,2.47,3.19,3.88,1.65.86,2.54,2.42,3.54,3.88,1.3.74,2,1.94,2.52,3.28,1.56.88,2.6,2.25,3.57,3.7,1.53.81,2.15,2.4,3.1,3.69.98,1.14,1.96,2.29,2.94,3.43,1.55.83,2.45,2.25,3.34,3.68,1.52,1.38,3.06,2.75,3.78,4.77.75.03,1.09.46,1.17,1.16,2.08,1.12,3.56,2.87,4.97,4.69,1.16.3,1.43,1.18,1.46,2.22,8.01,7.23,16.12,14.36,23.46,22.29.73-.3,1.09.11,1.34.72,2.37,1.19,4.27,2.92,5.85,5.04,1.28.22,1.73,1.34,2.42,2.21,2.74,1.66,5.59,3.19,7.35,6.05l.44.12.11.44c4.72,2.1,8.44,5.59,12.32,8.86,67.86.4,135.74-.74,204.02,1.8-1.72,1.17-3.39.64-4.87.65Z"/>
      <path class="cls-5" d="M1228.8,1.5c-2.2-.01-4.39-.04-6.59-.04-404.12,0-808.24,0-1212.36.02C.16,1.48,1.52.16,1.51,9.57c-.02,403.6-.02,807.21-.03,1210.81,0,2.79-.18,5.57-.27,8.36-.37-.26-1.25.61-1.21-.6.05-1.6.01-3.19.01-4.79V.31h8.69c404.9,0,809.8,0,1214.7.07,1.75,0,4.06-1.38,5.39,1.12Z"/>
      <path class="cls-4" d="M562.26,714.6c-.68-3.51,3.28-5.37,3.15-8.56-.44-.82-1.06-.77-1.63-.59-2.51.78-2.92-.36-2.12-2.39.61-1.56,2.74-2.34,2.53-4.64-6.26-.27-8.66,6.49-14.75,7.95,1.44-3.15,3.61-4.58,5.29-6.38,1.63-1.75,3.43-3.35,5.06-5.1,1.16-1.25,3.48-2.68,1.98-4.38-1.76-1.99-2.81,1-4.25,1.64-2.6,1.15-4.42,3.96-8.08,3.91.9-4,6.37-4.02,6.35-8.9-4.74,1.14-8.45,4.32-13.96,5.93,4.3-5.67,10.97-6.74,14.53-12.37-7.47-.85-13.17,3.38-19.72,4.21,3.57-3.71,8.23-5.35,13.24-7.13-2.44-4.26-6.06-2.21-9.31-1.61-.17-2.32,1.56-2.4,2.63-2.92,2.5-1.22,5.12-2.21,7.63-3.39,1.38-.65,2.85-1.11,2.59-3.39-.33-2.82,3.27-1.67,4.49-4.19-4.41-.75-7.93,1.98-11.81,2.26-3.86.27-7.59,1.89-12.95,1.95,4.96-3.7,9.73-4.19,14.15-4.98,2.34-.42,2.94-1.32,3.51-3.07,1.26-3.91.89-4.16-3.18-4.04-7.18.21-14.36.11-21.55.11-.59,0-1.13-.24-1.43-1.62,4.61-1.43,9.57-.41,14.27-1.47,4.52-1.02,9.4-.45,14.17-1.07-3.16-3.06-7.33-1.1-10.88-2.44-3.58-1.34-7.75.07-11.53-1.56,4.44-2.39,9.48-.4,13.89-1.76.51-2.57-2.29-1.22-2.56-2.86,3.22-.97,6.84.53,11.09-1.53-5.33-1.81-10-2.35-14.83-5.13,5.81-1.89,10.35.22,14.82.94,4.11.66,8.39.12,12.37,1.71.73.29,1.69.06,2.12-.66.6-1-.05-1.93-.63-2.73-1.1-1.52-2.86-2.13-4.44-2.93-5.15-2.64-10.37-5.15-15.51-7.81-1.27-.66-3.14-.81-3.36-3.66,3.78,1.53,7.19,2.91,10.59,4.3,4.61,1.88,9.22,3.76,13.81,5.67,2.81,1.17,4.84.72,6.51-2.12,1.39-2.37,2.79-4.85,4.99-6.67,2.03-1.68,1.55-3.1-.05-4.99-5.26-6.22-10.26-12.66-15.46-18.94-1.22-1.47-2.02-2.94-1.78-4.86h-.01c4.59,2.73,7.04,7.47,10.36,11.34,2.33,2.72,4.75,5.33,7.28,7.82,3.07,3.02,4.62,3.07,8.38.98,9.5-5.29,19.44-7.01,30.3-4.99,5.36,1,10.34,2.55,15.08,5.01,2.61,1.35,5.31,2.91,5.13,6.57-2.93,1.63-5.54,3.59-6.94,6.79-1.54-.91-3.08-1.82-4.62-2.73-10.39-6.17-20.86-5.68-31.23-.08-8.79,4.74-15.67,17.63-12.26,31.68,2.67,10.98,12.58,20.35,23.63,21.66,16.3,1.94,28.97-6.8,32.38-22.33,1.13-5.15.28-10.24-.47-15.34,8.02-.66,9.63-2.08,12.46-11.11,5.92,2.87,12.14,3.16,18.5,1.98q-4.32,2.83-2.98,7.49c.28.96.53,1.93.9,2.85.72,1.8,0,2.52-1.77,2.81-3.24.55-6.56.94-9.98,2.87,11,2.61,21.67,1.32,32.16,2.86-4.79,2.09-9.87.88-15.08,1.7,4.74,3.71,10.37.87,16,3.19-5.72,2.68-11.16.27-16.84,2.03,3.88,3.08,7.22,5.68,11.77,6.54,4.19.8,8.29,2.07,12.32,3.69-6.35,2.09-12.43-1.48-18.74-.57,4.7,4.15,11.45,3.4,17.03,7.3-7.26.97-13.02-2.74-19.24-3.01-1.01,3.51,3.79,3.02,3.32,6.24-2.27.09-4.48-.47-6.66-1.14-.86-.27-1.58-.23-1.97.63-.39.85,0,1.65.7,2.07,1.53.93,3.19,1.65,4.74,2.56,1.96,1.15,4.36,1.66,6.08,3.86-3.84.55-6.28-2.16-9.38-2.62-1.47-.22-3.01-1.95-4.35-.22-1.33,1.71,1.4,2.6,1.28,4.62-5.89.66-8.52-6.25-14.64-6.1,4.76,9.13,15.27,12.2,20.93,20.86-4.4.17-5.8-4.56-9.91-4.13.12,4.03,4.7,5,5.9,8.55-3.9,1.16-4.66-3.93-8.22-3.83-.25,3.85,4.5,4.71,4.97,8.88-7.71-3.79-12.61-10.43-19.24-15.86-.63,3.08.59,4.43,1.58,5.84.79,1.14,1.81,2.14,2.48,3.34,1.78,3.2,1.34,3.76-3.18,4.03.5,5.76,6.59,9.34,6.38,16.29-7.54-6.75-8.6-17.22-17.16-23.7.67,7.09,5.94,11.73,5.06,18.07-3.18-.45-2.18-3.92-4.32-4.73-3.03,2.12,1.11,4.83-.97,7.36-3.19-2.93-4.2-6.74-5.44-10.66-1.14-3.63-2.79-7.24-5.43-10.44-2.38,2.75,1.1,5.02-.54,7.23-1.78.57-1.7-2-4-1.79-1.35,8.05,3.04,15.99,1.79,24.61-1.71-.91-1.91-2.33-2.18-3.76-.83-4.28-1.72-8.55-2.57-12.83-.21-1.05-.69-2.05-1.73-2.2-1.29-.19-1.59.92-1.61,1.97-.06,3.12-2.84,4.85-3.35,8.45-2.82-3.78-3.33-7.45-3.67-10.79-.42-4.14-1.82-8.18-1.45-12.42.1-1.12.17-2.71-1.49-2.72-1.36,0-1.8,1.3-2.02,2.55-1.61,8.78-3.25,17.56-4.83,26.34-.21,1.16-.2,2.35-2.09,3.57-.92-8.28,2.61-15.77,1.72-24.32-2.86,3.91-2.27,8.35-4.63,11.55-.81.33-.88-.3-1.02-.82-.15-.55-.29-1.09-.54-2.08-3.68,4.72-3.83,10.59-7.26,16.49-.43-5.22,1.48-8.61,2.24-12.21.8-3.8,2.65-7.38,2.85-12.22-3.34,2.23-3.79,5.16-4.89,7.77-1.03,2.44-.98,5.54-4.15,7.37-.11-5.78,3.51-10.28,4.1-15.78-2.84.02-3.57,1.95-4.57,3.59-2.66,4.34-2.66,4.3-7.74,3.56-.7-.1-1.48.7-2.22-.2-.44-1.47.79-2.5,1.18-3.78.24-.79.43-1.62-.43-2.09-.73-.4-1.55-.29-2.25.21-1.16.82-2.16,1.77-2.59,3.18-1,3.26-3.47,5.23-6.13,7.05h0ZM616.06,693.55c0-.62.02-1.22,0-1.81-.05-1.35.25-3.02-1.78-3.12-2.15-.1-2.61,1.36-2.52,3.17.03.59-.03,1.2.04,1.79.24,2.21-.48,5.73,2.5,5.6,2.52-.11,1.34-3.62,1.77-5.62Z"/>
      <path class="cls-2" d="M532.35,533.79c8.73-2.09,17.44-4.28,26.44-4.95,1.23.42,2.42.59,3.4-.55,19.91-4.58,40.18-6.28,60.51-7.48,11.56-.68,23.1-1.81,34.7-1.46,20.98.62,41.83,2.37,62.32,7.22.55.13,1.24.07,1.4.86-9.95.06-19.91.17-29.86.17-38.54.02-77.09-.03-115.63.04-3.01,0-6.09-.85-9.68.14,2.76,1.72,5.21,1.12,7.51,1.13,40.34.08,80.68.1,121.03.12,10.57,0,21.15-.08,31.72-.12,5.6.56,10.69,2.8,15.86,4.78-1.35,1.72-3.27,1.08-4.97,1.11-5.74.09-11.48.03-17.23.1-2.14.02-4.39-.39-6.29,1.09-.71-.1-1.42-.21-2.12-.31-.98-.84-2.1-.93-3.29-.56-1.93-.06-3.87-.12-5.8-.18-5.36-1.57-10.83-1.4-16.32-1.08-2.28.64-4.57,1.07-6.99,1.07-47.02-.05-94.05-.03-141.07-.06-1.91,0-4.03.64-5.66-1.06Z"/>
      <path class="cls-6" d="M670.23,629.59c-6.36,1.18-12.57.89-18.5-1.98-2.83,9.03-4.43,10.44-12.46,11.11-6.46-1.98-8.3-6.64-7.43-12.85,1.39-3.2,4-5.16,6.94-6.79,1.79-.16,3.64-.06,2.71-2.95-1.11-3.43-1.34-6.97-.98-10.63,1.23-12.27,12.53-19.38,20.99-20.06,9.91-.8,19.67,5.55,23.08,15.46,3.39,9.86-.47,20.12-9.93,26.38-.66.44-1.34.86-2.01,1.3-1.01-.14-1.71.41-2.39,1.02h-.02Z"/>
      <path class="cls-2" d="M403.7,683.46c-1-2.32-1.34-4.71-.83-7.2,35.14-.01,70.29-.02,105.43-.03.98.99,1.19,2.25,1.26,3.55-.07.16-.24.35-.19.46.12.29.33.54.51.8.67,2.9,2.88,5.23,3.03,8.32-35.9.02-71.79.04-107.69.07-1.13-.9-1.23-2.18-1.29-3.47.37-.87.41-1.72-.23-2.5ZM507.46,683.25c0-.26,0-.52,0-.79h-101.26c0,.26,0,.52,0,.79h101.26Z"/>
      <path class="cls-2" d="M438.94,726.52c-6.61-3.12-12.46-7.39-18.11-11.97,1.78-1.97,4.13-1.07,6.2-1.08,15.97-.09,31.94-.04,47.91-.07,17.56-.03,35.13-.1,52.69-.16,1.95,1.28,3.34,3.09,4.69,4.93-1.82,1.88-4.15,1.05-6.24,1.05-29.14.04-58.28,0-87.41.04-2.09,0-4.32-.58-6.39.7,1.51,1.21,3.17.75,4.71.75,30.53.01,61.07,0,91.6-.06,1.78,0,3.56-.3,5.34-.47,2.63,1.73,5.03,3.7,6.76,6.37-33.92-.02-67.84-.03-101.76-.05Z"/>
      <path class="cls-2" d="M640.26,550.38c-10.08-.03-20.16-.05-30.25-.08-3.91-.47-7.82-.75-11.68.35-1.99.52-4.01.68-6.06.48-1.73-1.53-3.82-.81-5.74-.82-20.76-.05-41.52-.01-62.27-.07-2.12,0-4.42.73-6.32-.93,8.31-2.38,16.75-4.05,25.36-4.84,3.98-.03,7.96-.08,11.94-.07,40.94.02,81.88.08,122.82.07,15.37,0,30.74-.14,46.11-.21,5.06.88,9.7,2.91,14.3,5.08-1.96,1.51-4.24.8-6.37.81-26.54.09-53.08.09-79.62.18-2.12,0-4.4-.73-6.36.79-.8-.14-1.6-.27-2.4-.41-1.08-.95-2.26-.83-3.47-.34Z"/>
      <path class="cls-2" d="M786.24,721.43c-6.4,4.64-12.78,9.3-20.11,12.42-28.48-.04-56.96-.06-85.44-.16-2.3,0-4.79.8-6.88-.95,2.51-1.95,4.8-4.19,7.8-5.44,1.17.2,2.34.56,3.51.57,28.72.04,57.44.05,86.17.03.75,0,1.84.37,2.17-1.43-2.06,0-4.02,0-5.98,0-25.93-.01-51.86,0-77.79-.07-2.11,0-4.41.77-6.31-.91,2.1-1.94,3.96-4.17,6.54-5.54,2.46,1.17,5.08.71,7.64.72,27.43.05,54.85.04,82.28.1,2.14,0,4.38-.57,6.41.66Z"/>
      <path class="cls-2" d="M829.42,603.16c1.53,1.38,3.07,2.75,3.78,4.77-4.89.05-9.8-.42-14.66.71,5.26,1.02,10.54.81,15.82.45,2.08,1.12,3.56,2.87,4.97,4.69-1.44,2-3.58,1.12-5.45,1.32-2.3.24-4.68-.43-7.77.9,5.47.7,10.07.93,14.68,0,8.01,7.23,16.12,14.36,23.46,22.29.16.78.67.9,1.34.72,2.37,1.19,4.27,2.92,5.85,5.04-1.77,1.24-3.8.71-5.71.74-5.88.08-11.76.02-17.64.1-1.45.02-3.24-.59-4.08,1.37l-.05.03-.29-.39-.45.18c-4.95-1.98-8.19-6.19-12.14-9.45-3.95-3.27-7.47-7.05-11.18-10.6,2.51-2.82,5.99-.7,8.85-1.72,6.12,4.07,12.3,8.04,18.31,12.27,1.67,1.17,3.28,2.19,5.24,2.66,3.64,4.6,5.83-.82,8.77-1.02-2.59-.81-5.13-.72-7.68-.23-3.56-.89-6.08-3.45-8.88-5.55-5.32-3.99-10.59-8.04-15.91-12.03-.75-.56-1.68-1.31-1.95.46-3.29,1.09-6.65,1.81-10.14,1.83-3.98-3.54-7.95-7.07-11.93-10.61-1.05-2.08-.7-3.21,1.92-2.92.55.06,1.13-.15,1.7-.23,3.23,1.12,5.54,3.56,8.12,5.63,1.67,1.34,3.46,2.53,5.19,3.78.92.67,1.91,1.63,2.95.34.98-1.22-.17-2.11-.78-3.03-.1-.68-.54-.75-1.1-.6-2.72-1.79-5.22-3.82-7.28-6.36-.12-.75-.63-.87-1.27-.77-1.56-1.26-3.13-2.53-4.69-3.79,1.2-1.39,2.85-.99,4.35-1,5.24-.03,10.48,0,15.72.02Z"/>
      <path class="cls-2" d="M532.28,793.73c-5.72-1.11-11.17-3.07-16.6-5.13,1.6-1.19,3.45-.76,5.22-.77,14.58-.02,29.16,0,43.74-.02,2.17,0,4.4.42,6.51-.53,3.94.06,7.85.56,11.77.91,5.8.51,11.49,2.55,17.42,1.42,2.04,1.37,2.58,1.43,2.67.62.11-1.07.37-1.37,1.26-1.29,5.21.47,10.3-.94,15.47-.96,29.89-.09,59.79-.12,89.68-.13,1.71,0,3.63-.61,5.05,1.01-5.86,2.16-11.87,3.74-18.02,4.82-4.19.02-8.37.05-12.56.05-50.54,0-101.08,0-151.61,0Z"/>
      <path class="cls-6" d="M517.89,756.5c-.78-.11-1.56-.21-2.34-.32-.65-1.07-1.58-1.07-2.61-.69-4.86-.74-9.53-2.2-14.14-3.85,1.78-1.95,4.12-1.07,6.19-1.07,28.64-.06,57.28-.03,85.92-.02,14.05,2.58,28.1,1.92,42.14-.04.39.08.78.22,1.17.22,28.92-.07,57.83-.16,86.75-.21,1.51,0,3.26-.53,4.32,1.21-3.88,1.57-7.86,2.83-11.97,3.65-4.38.03-8.76.09-13.14.1-58.46,0-116.92,0-175.38.06-2.3,0-4.81-.82-6.9.96Z"/>
      <path class="cls-2" d="M553.83,764.37c-.83-.17-1.66-.34-2.48-.5-.65-.7-1.36-.68-2.13-.21-8.19-.75-16.13-2.71-24.04-4.84,1.39-1.69,3.31-1.06,5.02-1.06,55.36-.03,110.72-.04,166.07-.01,1.7,0,3.64-.66,4.99,1.1-7.47,2.31-15.08,3.96-22.86,4.82-.78-.43-1.52-.46-2.15.28-1.2.57-2.46.72-3.77.6-1.68-1.62-3.79-.92-5.7-.93-35.93-.06-71.85-.07-107.78-.06-1.74,0-3.62-.53-5.16.82Z"/>
      <path class="cls-6" d="M509.47,539.83c.43-.09.85-.17,1.28-.26,1.29.05,2.62.26,3.49-1.06,1.5-.94,3.15-1.32,4.89-1.36,7.36-.02,14.72-.06,22.08-.06,46.62.02,93.24.06,139.86.03,2.7,0,5.63.77,7.98-1.41.69.15,1.39.3,2.08.45,1.75,1.25,3.66,1.28,5.64.73,6.12.46,11.93,2.26,17.72,4.14-1.85,1.78-4.17,1.04-6.28,1.04-47.33.04-94.67.3-142-.22-8.47-.09-17.01-1.28-25.56-1.04-.9-.01-1.74.12-2.32.91-.7.04-1.4.07-2.1.11-8.74.05-17.49.1-26.23.17-3.41.03-1.02-1.3-.54-2.18Z"/>
      <path class="cls-2" d="M720.66,786.66l-2.63.68c-1.89-1.71-4.19-.89-6.29-.89-37.28-.06-74.55-.05-111.83-.04-1.58,0-3.2-.23-4.69.57-1.44.28-2.86.29-4.25-.26-1.35-2.01-3.21-1.49-5.07-1.02-8.03-.46-15.87-2.01-23.62-4.07,1.28-1.86,3.24-1.19,4.93-1.19,22.68-.02,45.37,0,68.05.07,1.69,0,3.65-.68,4.91,1.22-4.82,1.75-10.24.79-15.99,3.52,4.51,0,7.9.02,11.29,0,18.39-.14,36.66-1.68,54.74-5.11,1.03.54,1.95.5,2.69-.5,1.2-.29,2.39-.59,3.59-.88,1.08,2.51,3.35,1.63,5.15,1.64,9.67.09,19.34-.01,29.01.07,1.84.02,4.01-.84,5.43,1.25-4.68,2.02-9.4,3.89-14.45,4.77-.4-.36-.73-.33-.97.18Z"/>
      <path class="cls-4" d="M118.62,661.94c4.84,0,8.74,0,12.64,0,62.68-.04,125.35-.11,188.03-.1,7.77,0,15.44-1.81,23.24-1.1,1.37.13,2.85-.32,4.1.47,1.05.65,1.77,1.69,1.58,2.97-.19,1.29-1.39,1.23-2.35,1.28-1.39.07-2.79.04-4.19.04-45.51-.03-91.04.71-136.52-.39-27.32-.66-54.62-.36-81.92-.93-1.29-.03-2.82.55-4.6-2.23Z"/>
      <path class="cls-2" d="M513.24,690.52c1.44,1.22,2,2.92,2.51,4.65-1.19,1.92-3.13,1.42-4.85,1.42-34.39.01-68.79,0-103.18-.02-.86-.95-1.36-2.05-1.47-3.33.87-3.52,3.74-2.33,5.9-2.34,29.91-.07,59.82-.04,89.74-.07,3.78,0,7.57-.2,11.35-.31Z"/>
      <path class="cls-2" d="M710.94,689.42c.21-2.24,1.07-4.21,2.5-5.94,33.66.03,67.32.07,100.98.08,1.19,0,2.37-.22,3.56-.34.03,2.5-1.22,4.42-2.78,6.21-34.75,0-69.5,0-104.26-.01Z"/>
      <path class="cls-2" d="M820.08,678.75c-.04,1.61-.8,2.88-1.9,3.99-2.29-1-4.71-.64-7.07-.64-29.85-.02-59.71,0-89.56,0-1.59,0-3.18-.05-4.77-.02-1.56.03-1.94-1.07-2.29-2.25.07-1.32.4-2.54,1.3-3.56,32.66,0,65.32.02,97.97.03,1.39,0,2.79.04,4.18.06,1.6.02,1.78,1.28,2.14,2.4Z"/>
      <path class="cls-2" d="M814.42,690.68c-.28,2.35-1.69,4.09-3.14,5.81-1.59.05-3.19.15-4.78.15-33.09,0-66.19-.02-99.28-.03.71-2.3,1.51-4.55,3.32-6.27,1.18.14,2.36.41,3.54.41,33.44,0,66.89-.04,100.33-.08Z"/>
      <path class="cls-2" d="M652.13,801.81c-.79.05-1.58.11-2.37.16-.96-.91-2.16-.87-3.35-.87-28.8-.09-57.6-.18-86.4-.27-5.69-.77-11.2-2.36-16.74-3.8,1.85-1.76,4.16-1.05,6.28-1.06,42.67-.05,85.34-.05,128.01-.03,1.92,0,4.04-.64,5.64,1.11-7.49,1.62-14.94,3.46-22.64,3.86-2.87-.26-5.76-.76-8.42.9Z"/>
      <path class="cls-2" d="M794.9,714.7c-1.84,1.84-3.79,3.53-6.17,4.65-2.58-.04-5.16-.13-7.74-.12-30.18.06-60.36.13-90.55.2,1.27-2.67,3.32-4.65,5.58-6.46,2.34.73,4.75.44,7.14.44,28.34.02,56.68-.02,85.02.05,2.25,0,4.82-1.01,6.71,1.24Z"/>
      <path class="cls-2" d="M542.04,727.61c2.75,1.1,4.77,3.23,7.07,4.97-2.01,1.98-4.54,1.07-6.81,1.08-29.7.1-59.41.1-89.11.13-3.49-1.02-6.65-2.72-9.6-4.81,1.88-1.71,4.19-.96,6.3-.97,28.33-.06,56.66-.05,84.99-.09,2.39,0,4.77-.2,7.16-.3Z"/>
      <path class="cls-2" d="M549.01,773.28c9.7.77,19.32,2.3,29.08,2.62,26.89.88,53.66-.47,80.36-3.55,1.18-.14,2.38-.1,3.57-.15,1.54.42,3.07.69,4.45-.46.86-.15,1.72-.3,2.57-.46,1.6,1.69,3.68.94,5.55.97,5.67.1,11.35.02,17.02.04,1.02,0,1.02.07.06,2.07-9.39,1.61-18.77,3.35-28.28,4.16-1.06-.57-2.05-.6-2.88.42-1.57.18-3.13.36-4.7.54-1.66-2.24-4.05-1.21-6.09-1.21-33.12-.11-66.25-.14-99.37-.18-5.33-1.21-10.61-2.61-15.63-4.81,1.99-2.39,4.74.06,6.92-1.09,0,0,.33.02.32.02,2.18,1.48,4.59,1.45,7.05,1.06Z"/>
      <path class="cls-2" d="M812.93,653.36c2.56.97,4.26,2.93,5.79,5.08-1.66,1.64-3.76.95-5.67.95-31.2.04-62.4.03-93.6.03.1-2.06-.93-4.27.78-6.13,1.58.13,3.17.38,4.75.38,28.13.03,56.26.03,84.39.02,1.19,0,2.37-.21,3.56-.33Z"/>
      <path class="cls-4" d="M894.09,661.73c67.86.4,135.74-.74,204.02,1.8-1.72,1.17-3.39.64-4.87.65-23.78.08-47.57-.54-71.32.29-41.72,1.45-83.44.68-125.15,1-.14-.98-.89-1.19-1.68-1.31-1.69-.26-1.79-1.16-1-2.43Z"/>
      <path class="cls-2" d="M411.14,659.45c1.81-2.63,3.96-4.88,6.93-6.24,1.18.15,2.35.45,3.53.44,27.63-.02,55.26-.06,82.89-.11.64,1.85,1.01,3.74.75,5.72-2.2.05-4.39.14-6.59.14-29.17.02-58.34.03-87.51.04Z"/>
      <path class="cls-2" d="M720.43,652.3c-.67-2.02-.48-4.02.1-6.01,26.74.04,53.48.08,80.22.09,1.38,0,2.75-.32,4.13-.49,2.79,1.09,4.56,3.42,6.61,5.42-2.15,1.57-4.62.83-6.94.84-28.04.09-56.08.11-84.12.15Z"/>
      <path class="cls-6" d="M417.24,711c-1.7-1.24-3-2.79-3.74-4.78,36.35,0,72.69.01,109.04.02.87,1.18,1.75,2.35,2.62,3.53-1.01,1.74-2.73,1.38-4.28,1.38-34.55-.04-69.09-.09-103.64-.14Z"/>
      <path class="cls-6" d="M411.47,703.7c-.48-.77-.97-1.54-1.45-2.32.24-3.04,2.52-2.48,4.44-2.48,34.48.01,68.97.04,103.45.06,1.13,1.02,1.76,2.37,2.35,3.73-.97,1.36-2.43,1.14-3.8,1.14-35-.04-70-.08-104.99-.13Z"/>
      <path class="cls-2" d="M504.4,646.38c.5,1.93.5,3.87.1,5.81-26.25,0-52.5.02-78.74-.04-2.07,0-4.41.86-6.2-1.07,1.97-2.1,3.98-4.13,6.71-5.26,2.31.89,4.72.54,7.09.54,23.68.03,47.36.01,71.04.01Z"/>
      <path class="cls-6" d="M703.5,702.39c.45-.75.9-1.5,1.35-2.26,1.58-.96,3.27-1.29,5.13-1.29,33.13.09,66.25.14,99.38.2-.71,1.99-2.02,3.54-3.64,4.85-31.87,0-63.74.01-95.61-.06-2.23,0-4.86,1.05-6.61-1.44Z"/>
      <path class="cls-6" d="M506.83,669.14c.23,1.04.46,2.09.69,3.13-1.13,1.87-3,1.69-4.79,1.69-33.33-.02-66.67-.05-100-.08-.32-1.23-.1-2.42.25-3.61,1.55-1.1,3.31-1.18,5.13-1.18,32.9.03,65.81.04,98.71.05Z"/>
      <path class="cls-6" d="M716.73,672.46c.13-.72.25-1.44.38-2.16.6-.31.93-.76.69-1.47,0,0,.05-.05.05-.05,1.19.1,2.38.28,3.57.28,33.29,0,66.58-.03,99.88-.05.7,1.63.41,3.24-.06,4.86-33.44.06-66.87.11-100.31.16-1.59,0-3.24.14-4.2-1.57Z"/>
      <path class="cls-2" d="M397.98,708.58c3.17,5.02,8.62,7.9,12.37,13.25-8.68-3.85-17.14-6.57-25.67-9.01-9.24-2.64-18.72-3.37-28.29-1.9-1.36.21-2.39.59-3.5,1.73-3.5,3.57-7.54,4.65-9.25,3-2.27-2.18-2.22-6.88.11-10.88,7.57,1.01,15.16.28,22.74.38,0,0,.42.09.42.09,1.99,1.79,4.42,1.16,6.71,1.15,5.68-.04,11.37-.15,17.05-.26,2.18-.04,4.31.02,6.28,1.12,0,0,.05.07.05.07-.05.72.34,1.1.99,1.27Z"/>
      <path class="cls-2" d="M449.62,579.31c11.96-8.56,24.74-15.57,38.68-20.38,8.7,0,17.4-.01,26.11.04,1.94.01,3.98-.47,5.77.79-4.45.98-8.88,2.07-13.36,2.93-11.55,2.23-22.31,6.88-33.3,10.78-3.88,1.38-7.43,3.67-11.14,5.55-.89-.2-1.66-.12-2.04.87-.13.23-.33.31-.59.26-3.35-.62-6.9,1.2-10.13-.82Z"/>
      <path class="cls-6" d="M718.17,666.63c-.08-1.57-.03-3.13.75-4.56,1.99-.12,3.97-.35,5.96-.35,28.16,0,56.32,0,84.48.04,3.79,0,7.58.15,11.37.24.63,1.5.74,3.06.48,4.66-34.35,0-68.69-.02-103.04-.02Z"/>
      <path class="cls-6" d="M697.87,710.1c.94-1.48,1.75-3.07,3.3-4.04,2.19.05,4.39.14,6.58.14,31.93.03,63.87.04,95.8.06-1.17,2.08-2.91,3.62-4.82,4.99-31.54-.03-63.08-.04-94.61-.12-2.1,0-4.43.85-6.25-1.03Z"/>
      <path class="cls-2" d="M404.96,666.62c1.02-2.57,2.69-4.58,5.06-6.01,7.67,1.35,15.43,1.12,23.16,1.11,8.95,0,17.89.12,26.84-.05,14.29-.28,28.6.86,42.87-.65.89-.09,1.85.57,2.78.89.17,1.57.35,3.14.52,4.71-33.75,0-67.5,0-101.24,0Z"/>
      <path class="cls-2" d="M720.55,645.06c-.62-1.99-.82-4-.16-6.03,25.91.05,51.82.09,77.73.14,1.98,1.28,3.87,2.65,5.16,4.69-2.07,1.8-4.58.99-6.88,1-25.28.12-50.56.15-75.84.21Z"/>
      <path class="cls-2" d="M550.49,734.17c3.89,1.2,7.17,3.54,10.56,5.67-1.6,1.77-3.73,1.05-5.63,1.05-28.87.05-57.73.05-86.6.05-3.16-1.29-6.32-2.57-9.48-3.86,1.83-1.86,4.16-1.01,6.26-1.02,26.15-.07,52.31-.04,78.46-.13,2.2,0,4.91,1.06,6.43-1.77Z"/>
      <path class="cls-5" d="M701.26,758.84c-1.35-1.76-3.29-1.1-4.99-1.1-55.36-.03-110.72-.02-166.07.01-1.71,0-3.63-.62-5.02,1.06-2.67-.02-5.06-.92-7.28-2.32,2.09-1.78,4.6-.96,6.9-.96,58.46-.06,116.92-.05,175.38-.06,4.38,0,8.76-.06,13.14-.1-4.02,1.15-8.04,2.3-12.06,3.46Z"/>
      <path class="cls-2" d="M666.42,765.89c-35.47,5.55-70.94,5.91-106.41,0,2.21-1.32,4.66-.78,7-.79,31.21-.05,62.41-.04,93.62-.03,1.95,0,4-.4,5.79.82Z"/>
      <path class="cls-2" d="M511.72,772.16c6.39,1.7,12.78,3.4,19.17,5.1-1.35,1.15-2.99.94-4.56.94-12.34-.04-24.69-.09-37.03-.14-4.17-1.78-8.53-3.17-12.14-6.06-.78-1.5-2.1-1.36-3.45-1.13-3.44-1.17-6.7-2.73-9.75-4.72,1.58-1.77,3.68-1.03,5.56-1.06,7.28-.12,14.56-.1,21.84-.13,5.4,1.06,10.46,3.2,15.62,5.03-1.94,1.55-4.23.86-6.36.89-6.73.09-13.47.03-20.21.03,10.39,3.35,20.87,1.17,31.3,1.26Z"/>
      <path class="cls-2" d="M708.58,557.58c-17.55-1.68-35.09-3.36-52.64-5.04,2.6-1.43,5.44-.86,8.18-.87,23.24-.02,46.49.06,69.73.05,2.54,0,5.18.53,7.6-.82,5.35,1.01,10.19,3.34,14.99,5.78-1.93,1.52-4.2.85-6.31.86-13.85.06-27.7.03-41.55.03Z"/>
      <path class="cls-6" d="M488.11,748.08c-3.6-1.25-7.2-2.5-10.81-3.76,1.05-1.23,2.49-1.04,3.86-1.04,28.99.02,57.98.04,86.96.06,3.61,1.26,7.22,2.53,10.83,3.79-1.24,1.4-2.92,1.03-4.46,1.03-28.8-.02-57.59-.05-86.39-.09Z"/>
      <path class="cls-2" d="M504.5,639.16c.42,1.56.31,3.12.06,4.68-1.98,1.24-4.2,1.04-6.38,1.04-21.52,0-43.04.03-64.56,0-1.91,0-4.03.66-5.67-1.02,1.86-2.24,3.96-4.16,6.72-5.25,2.1.92,4.32.56,6.49.56,21.12.02,42.23,0,63.35-.01Z"/>
      <path class="cls-2" d="M661.84,739.98c2.35-1.32,4.7-2.63,7.05-3.95,28.49,0,56.98-.02,85.47.02,1.89,0,4.04-.74,5.6,1.12-2.7,1.43-5.35,2.96-8.32,3.79-27.64.01-55.28.05-82.93,0-2.29,0-4.8.82-6.87-.99Z"/>
      <path class="cls-6" d="M744.35,744.34c-3.18,1.27-6.35,2.53-9.53,3.8-28.28.03-56.57.08-84.85.08-1.71,0-3.64.6-4.97-1.17,3.55-1.29,7.1-2.59,10.64-3.88,27.5.02,55.01.01,82.51.09,2.08,0,4.43-.88,6.21,1.09Z"/>
      <path class="cls-2" d="M509.47,539.83c-.48.89-2.87,2.21.54,2.18,8.74-.07,17.49-.12,26.23-.17-14.67.79-28.6,5.26-42.49,9.37-8.1,2.4-16.02,5.91-23.57,9.99-2.44,1.32-5.03,2.37-7.56,3.54-2.37-.52-5.12,1.22-7.16-1.23,7.66-4.47,15.39-8.75,23.5-12.47,8.13-3.73,16.62-6.28,24.88-9.52,1.82-.72,3.59-1.66,5.63-1.68Z"/>
      <path class="cls-2" d="M788.95,631.74c2.4,1.1,4.4,2.72,6.05,4.78-1.79,1.87-4.1,1.12-6.2,1.13-15.27.05-30.54-.01-45.81.03-7.53.02-15.06.19-22.59.29,0,0,0,.02.01.02.32-.69.1-1.14-.61-1.37-.54-1.52-.63-3.07-.31-4.65,2.59-.02,5.19-.06,7.78-.06,20.56-.06,41.11-.11,61.67-.16Z"/>
      <path class="cls-5" d="M540.65,540.82c8.55-.23,17.1.95,25.56,1.04,47.33.52,94.66.26,142,.22,2.11,0,4.43.74,6.28-1.04,3.39.56,6.55,1.84,9.68,3.21-15.37.08-30.74.21-46.11.21-40.94,0-81.88-.05-122.82-.07-3.98,0-7.96.05-11.94.07,2.81-1.29,6.06-.77,9.67-2.01-4.64-1.32-8.56.08-12.39-.7-.04-.32-.02-.63.07-.94Z"/>
      <path class="cls-5" d="M689.05,535.72c-2.35,2.18-5.29,1.41-7.99,1.41-46.62.03-93.24-.01-139.86-.03-7.36,0-14.72.04-22.08.06,4.33-1.42,8.68-2.77,13.22-3.36,1.63,1.7,3.74,1.06,5.66,1.06,47.02.04,94.05.02,141.07.06,2.42,0,4.7-.42,6.99-1.07.62,1.23,2.45.51,2.99,1.87Z"/>
      <path class="cls-2" d="M505.47,632.03c.31,1.53-.06,2.98-.52,4.41-.12.41-.24.83-.35,1.24,0,0-.04.11-.04.11-20.36-.04-40.72-.05-61.08-.14-2.34-.01-4.8.71-6.99-.78,2.08-2.03,4.19-4.01,6.9-5.2,2.38.06,4.77.17,7.15.18,18.31.07,36.62.12,54.93.18Z"/>
      <path class="cls-5" d="M683.19,797.05c-1.6-1.75-3.72-1.11-5.64-1.11-42.67-.02-85.34-.02-128.01.03-2.11,0-4.43-.7-6.28,1.06-3.81-.6-7.41-1.9-10.98-3.3,50.54,0,101.08,0,151.61,0,4.19,0,8.37-.03,12.56-.05-4.32,1.51-8.73,2.69-13.27,3.37Z"/>
      <path class="cls-4" d="M195.71,595.17c5.08-.42,10.17.62,15.23,1.2,11.8,1.34,23.54,3.19,35.36,4.51,8.86.99,17.65,2.57,26.48,3.88,9.81,1.45,19.61,2.95,29.43,4.33,9.23,1.3,18.48,2.48,27.72,3.72.39.05.8.11,1.16.27.93.4,1.82.91,1.6,2.15-.18,1-1.08,1.16-1.83,1.13-2.18-.07-4.39-.12-6.54-.46-13.91-2.21-27.8-4.51-41.71-6.73-9.98-1.6-19.94-3.48-29.97-4.58-14.59-1.6-28.97-4.55-43.52-6.42-4.46-.58-9.05-.98-13.41-2.99Z"/>
      <path class="cls-2" d="M461.66,764.41c-2.37-.31-4.48-1.36-6.58-2.39-7-3.46-13.98-6.98-20.96-10.47,1.14-1.54,2.82-1.09,4.33-1.1,5.67-.01,11.34.05,17.01.08,10.36,4.11,20.73,8.22,31.09,12.33-6.18,1.51-12.46.23-18.67.71-2.08.16-4.33-.75-6.21.85Z"/>
      <path class="cls-4" d="M1030.73,595.48c-17.36,2.94-33.56,5.54-49.84,7.77-13.94,1.91-27.79,4.53-41.71,6.67-9.8,1.51-19.65,2.71-29.47,4.12-3.73.54-7.43,1.29-11.14,1.92-.98.17-1.97.4-2.95.38-1.29-.02-3.18.48-3.17-1.61,0-1.29,1.43-1.89,2.67-1.89,5.63,0,10.99-1.67,16.49-2.46,13.74-1.97,27.49-3.89,41.25-5.77,9.82-1.34,19.67-2.54,29.49-3.91,6.87-.96,13.7-2.16,20.56-3.12,4.71-.65,9.45-1.45,14.18-1.47,4.18-.02,8.12-2.33,13.63-.65Z"/>
      <path class="cls-2" d="M492.85,556.67c5.44-2.23,10.95-4.26,16.83-5.03.78.41,1.5.44,2.11-.31.88-.15,1.75-.31,2.63-.46,1.72,1.51,3.8.81,5.71.82,16.68.03,33.36-.05,50.05-.02,2.53,0,5.18-.59,7.55.93-15.22,1.15-30.36,3.07-45.49,4.99-11.03,0-22.07.04-33.1-.02-2.1-.01-4.36.65-6.28-.89Z"/>
      <path class="cls-2" d="M776.46,551.71c9.34,5.44,17.11,12.84,25.06,20.02,1.31,1.18,2.45,2.56,3.66,3.84-2.9-1.15-5.59-.95-7.97,1.24-.93-.82-1.87-1.64-2.8-2.46-3.07-1.98-6.15-3.95-9.22-5.93-.9-1.69-2.59-2.37-4.13-3.24-7.38-4.15-14.77-8.3-22.15-12.45,1.03-1.32,2.5-.98,3.85-.99,4.57-.03,9.14-.01,13.71-.01Z"/>
      <path class="cls-2" d="M510.72,786.52c-4.58-1.09-8.84-3.05-13.13-4.92,1.74-2.01,4.09-1.11,6.15-1.12,13.09-.08,26.19-.03,39.28-.02,3.51.41,7.03.83,10.53,1.24,2.01,1,4.24.96,6.39,1.32,4.71.78,9.53,1.14,14.5,3.01-1.39.95-2.35.94-3.32.88-.97-.18-1.94-.52-2.91-.52-19.17.02-38.34.08-57.5.13Z"/>
      <path class="cls-2" d="M894.09,661.73c-.79,1.27-.7,2.16,1,2.43.79.12,1.54.33,1.68,1.31,0,0-.04.02-.04.02-4.43.04-8.86.08-13.29.12-8.98-1.53-17.31-4.93-25.31-9.13-1.57-.82-3.92-1.09-3.99-3.67,9.21,1.54,18.42,1.28,27.64.07,4.72,2.1,8.44,5.59,12.32,8.86Z"/>
      <path class="cls-2" d="M810.4,581.5c1.66.86,2.54,2.42,3.54,3.88-.8,2.82-3.14,1.85-4.94,1.9-5.58.16-11.17.18-16.76.25,0,.37.02.75.03,1.12h24.2c1.56.88,2.6,2.25,3.57,3.7-1.22,1.84-3.14,1.26-4.81,1.28-6.44.06-12.89.03-19.33.03-5.5-3.71-11-7.42-16.5-11.13,1.69-1.49,3.75-.88,5.65-.9,8.45-.1,16.9-.1,25.36-.14Z"/>
      <path class="cls-2" d="M717.82,622.09c-1.06-1.79-1.21-3.75-1.02-5.76,15.93.02,31.86.04,47.79.05,3.24.94,6.06,2.68,8.77,4.63-.65,1.29-1.87,1.34-3.06,1.34-17.5-.08-34.99-.17-52.49-.26Z"/>
      <path class="cls-4" d="M957.22,522.87c-1.86,2.41-4.03,2.45-5.84,3.06-30.22,10.16-60.47,20.24-90.71,30.32-1.51.5-3.03,1.01-4.59,1.3-1.11.2-2.7.55-3.1-.88-.51-1.79,1.13-2.24,2.46-2.68,1.89-.63,3.78-1.28,5.68-1.88,21.47-6.75,42.93-13.52,64.41-20.23,9.49-2.97,19.02-5.84,28.54-8.71.73-.22,1.54-.15,3.17-.3Z"/>
      <path class="cls-6" d="M779.13,624.69c1.91.84,3.61,1.98,5.08,3.46-1.16,2.01-3.13,1.37-4.82,1.39-5.17.07-10.35.04-15.52.01-14.92-.08-29.83-.17-44.75-.26-.25-1.11-.5-2.22-.75-3.34,1.42-1.39,3.2-1.39,5.03-1.38,18.58.05,37.15.07,55.73.11Z"/>
      <path class="cls-2" d="M458.04,621.33c3.05-1.96,6.05-4.02,9.58-5.05,13.54.38,27.09.45,40.63.03.35,2.14-.23,4.09-1.22,5.96-14.85.02-29.69.06-44.54.06-1.54,0-3.21.39-4.45-1Z"/>
      <path class="cls-4" d="M274.34,525.82c1.24-.83,2.36-.4,3.51-.06,16.36,4.95,32.76,9.8,49.08,14.88,14.06,4.37,28.04,8.99,42.05,13.52,1.15.37,2.49.87,2.14,2.35-.37,1.59-1.9,1.27-2.96.93-5.69-1.82-11.33-3.79-17.01-5.65-23.45-7.7-46.92-15.36-70.35-23.12-2.19-.72-4.73-.88-6.46-2.85Z"/>
      <path class="cls-6" d="M447.32,628.65c1.96-1.33,3.93-2.67,5.89-4,17.78.08,35.55.15,53.33.23-.26,1.52-.52,3.04-.78,4.56-18.36.04-36.72.08-55.07.12-1.2,0-2.41,0-3.36-.9Z"/>
      <path class="cls-5" d="M517.91,698.96c-34.48-.02-68.97-.05-103.45-.06-1.91,0-4.2-.56-4.44,2.48-1.55-1.23-1.81-3.08-2.29-4.82,34.39.01,68.79.03,103.18.02,1.72,0,3.66.5,4.85-1.42,1.22.98,1.66,2.4,2.16,3.79Z"/>
      <path class="cls-5" d="M417.24,711c34.55.05,69.09.11,103.64.14,1.55,0,3.27.36,4.28-1.38,1.39.76,1.9,2.14,2.48,3.48-17.56.05-35.13.12-52.69.16-15.97.03-31.94-.02-47.91.07-2.08.01-4.43-.9-6.2,1.08-1.56-.81-2.61-2.15-3.59-3.55Z"/>
      <path class="cls-5" d="M411.47,703.7c35,.05,70,.09,104.99.13,1.36,0,2.83.22,3.8-1.14,1.17.92,1.71,2.24,2.27,3.55-36.35,0-72.69-.01-109.04-.02-1.25-.38-1.58-1.5-2.03-2.52Z"/>
      <path class="cls-4" d="M255.28,754.44c6.66-1.67,13.31-3.4,19.99-4.99,22.79-5.42,45.59-10.79,68.38-16.18.19-.05.37-.15.57-.19,1.48-.37,3.53-1.26,3.99.77.46,2.07-1.78,2.12-3.3,2.46-17.62,3.93-35.24,7.9-52.87,11.82-8.32,1.85-16.62,3.81-25,5.38-3.82.71-7.65,1.92-11.76.94Z"/>
      <path class="cls-6" d="M796.07,751.81c-1.74,1.28-3.63,2.4-5.18,3.87-1.81,1.72-3.08.29-4.55-.37-5.62-.1-11.26.84-16.85-.59-1.77-.45-3.45.14-4.7,1.6-.77.15-1.54.3-2.31.45-1-1.74-2.72-1.26-4.21-1.28-4.9-.06-9.81,0-14.71-.06-1.71-.02-3.58.51-4.97-1.06,3.96-1.31,7.91-2.62,11.87-3.93,13.16.04,26.32.03,39.47.17,2.06.02,4.44-.89,6.15,1.19Z"/>
      <path class="cls-5" d="M550.35,778.1c33.12.05,66.25.07,99.37.18,2.05,0,4.44-1.03,6.09,1.21-5.07,1.72-10.29,2.45-15.64,2.22-1.26-1.9-3.22-1.22-4.91-1.22-22.68-.07-45.37-.09-68.05-.07-1.69,0-3.64-.67-4.93,1.19-2.17.51-3.89-1.43-6.03-1.12-1.97-.8-3.95-1.6-5.92-2.4Z"/>
      <path class="cls-5" d="M716.73,672.46c.96,1.7,2.61,1.57,4.2,1.57,33.44-.05,66.87-.11,100.31-.16.05,1.73.11,3.47-1.16,4.89-.35-1.12-.54-2.38-2.14-2.4-1.39-.01-2.79-.05-4.18-.06-32.66-.01-65.32-.02-97.97-.03,0-1.35-.23-2.75.94-3.81Z"/>
      <path class="cls-2" d="M716.05,615c-.81-1.88-1.79-3.71-1.55-5.87,11.6-.03,23.19-.06,34.78-.09,4.22,1.1,8.04,3.08,11.79,5.24-1.6,1.12-3.44.76-5.19.76-13.28.01-26.56-.02-39.83-.04Z"/>
      <path class="cls-5" d="M809.36,699.04c-33.13-.06-66.25-.11-99.38-.2-1.86,0-3.55.33-5.13,1.29.21-1.56,1.12-2.66,2.37-3.52,33.09.01,66.19.03,99.28.03,1.59,0,3.19-.1,4.78-.15-.48.97-.72,2.13-1.92,2.55Z"/>
      <path class="cls-5" d="M402.73,673.89c33.33.03,66.67.05,100,.08,1.79,0,3.65.18,4.79-1.69,1.15,1.14.79,2.58.78,3.95-35.14.01-70.29.02-105.43.03-.29-.78-.51-1.56-.14-2.37Z"/>
      <path class="cls-2" d="M638.89,807.9c-20.83.89-41.6.67-62.14-3.57,1.81-1.84,4.12-1.06,6.21-1.08,11.71-.08,23.41-.06,35.12-.03,4.82.01,9.75-.63,14.18,2.11,1.82.14,3.64.29,5.46.43.39.71.78,1.43,1.17,2.14Z"/>
      <path class="cls-2" d="M756.46,773.32c-3.43,2.08-7.16,3.45-10.94,4.74-12.26.06-24.53.16-36.79.15-2.09,0-4.4.73-6.2-1.09,7.54-1.74,15.08-3.47,22.62-5.21,8.54.72,17.1.13,25.64.38,1.92.06,4.02-.65,5.66,1.03Z"/>
      <path class="cls-5" d="M803.55,706.26c-31.93-.02-63.87-.03-95.8-.06-2.19,0-4.39-.09-6.58-.14.54-1.37.93-2.84,2.32-3.67,1.75,2.5,4.38,1.44,6.61,1.44,31.87.08,63.74.06,95.61.06-.36,1.12-1,1.98-2.16,2.37Z"/>
      <path class="cls-5" d="M404.96,666.62c33.75,0,67.5,0,101.24,0,.76.7.75,1.6.63,2.52-32.9-.01-65.81-.02-98.71-.05-1.82,0-3.58.08-5.13,1.18,0-1.57.79-2.72,1.97-3.66Z"/>
      <path class="cls-5" d="M718.17,666.63c34.35,0,68.69.02,103.04.02.39.77.43,1.55.09,2.35-33.29.02-66.58.05-99.88.05-1.19,0-2.38-.18-3.57-.28-.29-.78-.17-1.49.32-2.15Z"/>
      <path class="cls-5" d="M820.73,662c-3.79-.08-7.58-.23-11.37-.24-28.16-.03-56.32-.05-84.48-.04-1.99,0-3.97.23-5.96.35-.29-.98.18-1.81.54-2.66,31.2,0,62.4.01,93.6-.03,1.91,0,4.01.69,5.67-.95,1.26.85,1.72,2.16,2,3.56Z"/>
      <path class="cls-5" d="M697.87,710.1c1.82,1.88,4.15,1.03,6.25,1.03,31.54.08,63.08.09,94.61.12-1.1,1.34-2.15,2.75-3.84,3.45-1.89-2.25-4.46-1.23-6.71-1.24-28.34-.07-56.68-.04-85.02-.05-2.38,0-4.8.28-7.14-.44.18-1.24.8-2.19,1.84-2.87Z"/>
      <path class="cls-4" d="M958.3,752.56c-4.51,1.03-8.28-.61-12.06-1.39-22-4.53-43.96-9.27-65.93-13.95-.97-.21-1.92-.53-2.87-.83-1.38-.43-3.82-.09-3.01-2.54.66-2.02,2.62-1.1,4.14-.74,21.88,5.16,43.75,10.33,65.64,15.47,4.6,1.08,9.24,2.02,14.09,3.98Z"/>
      <path class="cls-2" d="M673.89,769.99c9.57-1.7,19.14-3.39,28.71-5.09,7.37.05,14.75.04,22.12.17,2.96.05,6-.61,8.87.7-1.33.31-2.67.59-3.99.92-7.26,1.84-14.49,3.83-21.99,4.48-.6-.39-1.11-.33-1.53.28-1.18.17-2.36.34-3.53.51-1.43-1.6-3.33-.93-5.04-.96-5.96-.09-11.91-.02-17.87-.1-1.94-.03-4,.42-5.75-.91Z"/>
      <path class="cls-5" d="M488.11,748.08c28.8.03,57.59.07,86.39.09,1.54,0,3.22.37,4.46-1.03,3.98,1.14,7.97,2.27,11.95,3.41-28.64,0-57.28-.03-85.92.02-2.07,0-4.41-.88-6.19,1.07-3.69-.81-7.28-1.92-10.69-3.56Z"/>
      <path class="cls-5" d="M644.99,747.05c1.33,1.77,3.27,1.17,4.97,1.17,28.28,0,56.57-.04,84.85-.08-3.03,1.6-6.13,3-9.54,3.59-1.06-1.74-2.81-1.22-4.32-1.21-28.92.05-57.83.14-86.75.21-.39,0-.78-.14-1.17-.22,3.98-1.15,7.96-2.3,11.95-3.46Z"/>
      <path class="cls-5" d="M568.13,743.35c-28.99-.02-57.98-.05-86.96-.06-1.37,0-2.81-.19-3.86,1.04-2.99-.72-5.74-2.03-8.47-3.38,28.87,0,57.73,0,86.6-.05,1.9,0,4.02.72,5.63-1.05,2.36,1.17,4.72,2.34,7.08,3.51Z"/>
      <path class="cls-2" d="M484.3,607.98c.43-.38.81-.88,1.31-1.13,10.18-4.97,20.83-8.7,32.54-12.8-2.63,5.31-4.83,9.74-7.03,14.17-8.89-.88-17.79-.48-26.7-.26l-.14-.02s0,.03,0,.03Z"/>
      <path class="cls-5" d="M550.49,734.17c-1.51,2.82-4.22,1.76-6.43,1.77-26.15.1-52.31.06-78.46.13-2.1,0-4.43-.84-6.26,1.02-2.36-.52-4.16-2.09-6.16-3.3,29.7-.03,59.41-.03,89.11-.13,2.27,0,4.8.9,6.81-1.08,1.03.03,1.57.49,1.39,1.59Z"/>
      <path class="cls-5" d="M759.95,737.18c-1.56-1.86-3.7-1.12-5.6-1.12-28.49-.04-56.98-.03-85.47-.02,1.64-1.1,3.28-2.2,4.92-3.3,2.09,1.75,4.58.94,6.88.95,28.48.1,56.96.12,85.44.16-1.91,1.39-3.84,2.74-6.18,3.33Z"/>
      <path class="cls-5" d="M744.35,744.34c-1.78-1.96-4.12-1.08-6.21-1.09-27.5-.07-55.01-.07-82.51-.09,2.07-1.06,4.14-2.12,6.2-3.19,2.07,1.81,4.57.99,6.87.99,27.64.05,55.28.01,82.93,0-2.34,1.31-4.62,2.75-7.28,3.37Z"/>
      <path class="cls-5" d="M632.26,805.33c-4.42-2.74-9.35-2.1-14.18-2.11-11.71-.02-23.41-.05-35.12.03-2.09.01-4.41-.76-6.21,1.08-5.68-.7-11.22-2.07-16.74-3.51,28.8.09,57.6.18,86.4.27,1.19,0,2.4-.04,3.35.87-2.39.46-4.77.93-7.16,1.39-3.54.16-7.34-1.04-10.34,1.97Z"/>
      <path class="cls-5" d="M505.68,661.91c-.93-.31-1.9-.98-2.78-.89-14.27,1.51-28.58.38-42.87.65-8.94.17-17.89.05-26.84.05-7.74,0-15.49.23-23.16-1.11.04-.71.35-1.15,1.12-1.17,29.17,0,58.34-.02,87.51-.04,2.2,0,4.39-.09,6.59-.14.4.84.69,1.69.45,2.64Z"/>
      <path class="cls-2" d="M481.7,609.04c.88-.35,1.76-.69,2.64-1.04,0,0-.05-.05-.05-.05,0,0,.14.02.14.02.76,1.71,2.33,1.25,3.63,1.25,7.57,0,15.13-.07,22.7-.11.28,2.19-.86,3.98-1.68,5.86-10.95.02-21.89.07-32.84.04-1.72,0-3.62.56-5.08-.98,3.12-1.92,6.25-3.83,9.82-4.83,0,0,.42.18.42.18l.29-.35Z"/>
      <path class="cls-2" d="M814.13,736.33c-1.26,1.92-2.79,3.56-4.79,4.74-9.83-.02-19.65,0-29.48-.09-1.85-.02-3.99.78-5.45-1.2,3.18-1.76,6.33-3.6,9.79-4.8,8.12.07,16.23.11,24.35.25,1.9.03,4.01-.7,5.58,1.11Z"/>
      <path class="cls-2" d="M709.86,762.83c6.3-1.95,12.59-3.89,19.07-5.15,7.7.02,15.4,0,23.1.1,1.88.03,3.99-.75,5.58,1.03-6.18,2.23-12.33,4.55-18.97,5.04-6.88-.13-13.76-.22-20.64-.42-2.72-.08-5.51.73-8.14-.6Z"/>
      <path class="cls-6" d="M805.58,744.49c-1.58,1.24-3.16,2.47-4.73,3.71-12.71.03-25.41.08-38.12.06-1.71,0-3.63.58-4.99-1.11,3.16-1.3,6.32-2.61,9.47-3.91,10.95,0,21.91-.04,32.86.03,1.87.01,4.05-.85,5.51,1.22Z"/>
      <path class="cls-2" d="M772.04,766.12c-3.07,1.95-6.24,3.68-9.74,4.74-8.58.02-17.15.07-25.73.04-2.57,0-5.2.45-7.68-.68,4.47-1.47,8.94-2.94,13.4-4.42,1.84-.39,3.68-.79,5.52-1.18,6.23.88,12.49.15,18.73.42,1.86.08,3.96-.73,5.5,1.09Z"/>
      <path class="cls-5" d="M726.22,528.91c-10.57.04-21.15.13-31.72.12-40.34-.01-80.68-.04-121.03-.12-2.31,0-4.76.6-7.51-1.13,3.59-.99,6.67-.14,9.68-.14,38.54-.07,77.09-.03,115.63-.04,9.95,0,19.91-.11,29.86-.17,1.85-.04,3.56.42,5.09,1.47Z"/>
      <path class="cls-2" d="M873.87,646.26c2.74,1.66,5.59,3.19,7.35,6.05-9.04.11-18.1-.83-27.11.49-4.26-.17-6.86-3.36-10.04-5.5.12-.35.09-.69-.1-1.02,0,0,.05-.03.05-.03,9.95,0,19.91,0,29.86,0Z"/>
      <path class="cls-2" d="M741.03,564.73c-4.81-1.23-9.62-2.45-14.43-3.68,1.55-1.9,3.7-1.1,5.59-1.13,10.17-.15,20.34-.19,30.51-.26,3.37.8,6.37,2.42,9.34,4.1-1.53,1.86-3.66,1.15-5.54,1.15-8.49,0-16.98-.11-25.48-.18Z"/>
      <path class="cls-5" d="M595.23,786.97c1.49-.79,3.11-.56,4.69-.57,37.28,0,74.55-.02,111.83.04,2.09,0,4.4-.82,6.29.89-.78,1.44-2.05,1.76-3.56,1.53-1.42-1.62-3.34-1.01-5.05-1.01-29.89.01-59.79.05-89.68.13-5.17.01-10.26,1.43-15.47.96-.89-.08-1.15.23-1.26,1.29-.09.81-.63.75-2.67-.62-1.51-.11-3.05-.09-4.53-.37-1.51-.28-1.85-1.14-.59-2.28Z"/>
      <path class="cls-2" d="M762.68,573.08c-4.28-1.02-8.16-3.02-12.12-4.82,1.62-1.77,3.74-.97,5.64-1.02,6.96-.19,13.93-.26,20.9-.37,2.67.31,4.6,2.41,7.16,2.96.73.69,1.47,1.38,2.2,2.07-1.45,1.45-3.31,1-5.03,1.02-3.94.05-7.87-.01-11.81.03-1.32.01-2.84-.3-3.52,1.4l-.05.03-.34-.39s-.48.19-.48.19c-.53-.26-1.06-.53-1.59-.79-.16-.61-.5-.66-.97-.31Z"/>
      <path class="cls-2" d="M423.11,610.2c-4.65,4.23-8.95,8.88-14.5,12.03-3.59-.53-7.48,1.51-10.83-1.22,0,0,.16-.11.16-.11.71.1,1.05-.28,1.2-.91,5.02-3.81,10.04-7.62,15.06-11.43,2.78,1.53,6.22-.45,8.9,1.64Z"/>
      <path class="cls-5" d="M422.66,593.39c-11.36,10.18-23.97,18.45-37.85,24.83,11.28-8.05,21.62-17.21,32.33-25.9,1.44,2.39,3.68.7,5.52,1.08Z"/>
      <path class="cls-2" d="M821.01,728.66c-1.21,2-2.57,3.86-4.59,5.13-7.7-.01-15.4.01-23.1-.07-1.9-.02-3.99.67-5.63-.98,3.26-2.09,6.44-4.33,10.21-5.47,7.65,1.39,15.46-.03,23.11,1.39Z"/>
      <path class="cls-5" d="M719.12,629.3c14.92.09,29.83.18,44.75.26,5.17.03,10.35.06,15.52-.01,1.69-.02,3.67.61,4.82-1.39,2,.65,3.38,2.11,4.74,3.59-20.56.05-41.11.1-61.67.16-2.59,0-5.19.04-7.78.06-.34-.86-.66-1.72-.38-2.66Z"/>
      <path class="cls-2" d="M713.24,606.78c-.37-.82-.74-1.65-1.11-2.47.33-2.48,2.2-2.25,3.96-2.27,5.45-.05,10.89-.11,16.34-.17,0,0,.18.04.18.04.93,1.02,2.03,1.56,3.44,1.17,3.31.94,6.53,2.12,9.48,3.93-2.01,1.25-4.25.63-6.39.71-8.3.32-16.62-.49-24.91.51,0,0-.04-.03-.04-.03.15-.78-.32-1.16-.95-1.42Z"/>
      <path class="cls-2" d="M750.48,537.13c3.04.72,5.67,2.32,8.33,3.86-1.79,1.91-4.12,1.05-6.21,1.1-4.57.1-9.08.46-13.49,1.72-6.18-1.85-12.36-3.69-18.54-5.54,1.54-1.86,3.67-1.12,5.56-1.13,8.12-.07,16.24-.01,24.35,0Z"/>
      <path class="cls-2" d="M435.39,748.09c-7.28-5.69-15.75-9.21-23.97-13.17-.27-.69.21-1.12.56-1.58,11.08,3.54,21.72,8.25,32.55,12.44,1.61.62,3.46.86,4.62,2.4-4.59-.03-9.17-.05-13.76-.08Z"/>
      <path class="cls-5" d="M384.45,636.57c-11.04,5.75-22.64,9.66-35.3,10.28,7.5-4.58,15.75-7.62,23.66-11.35.76,1.52,2.2,1.41,3.53,1.38,2.7-.05,5.41-.2,8.11-.31Z"/>
      <path class="cls-5" d="M397.79,621.02c3.35,2.73,7.23.69,10.83,1.22-5.62,5.11-12.52,8.18-19.03,11.87.34-1.03,1.11-2.26-.96-2.27-2.85,0-5.71,0-8.56,0,5.91-3.61,11.82-7.21,17.73-10.82Z"/>
      <path class="cls-5" d="M666.42,765.89c-1.79-1.23-3.84-.82-5.79-.82-31.21-.02-62.41-.02-93.62.03-2.34,0-4.79-.53-7,.79-2.28.41-4.31-.25-6.18-1.52,1.55-1.35,3.43-.82,5.16-.82,35.93-.01,71.85,0,107.78.06,1.91,0,4.02-.69,5.7.93-1.85,1.21-3.84,1.78-6.06,1.36Z"/>
      <path class="cls-5" d="M447.32,628.65c.96.91,2.16.9,3.36.9,18.36-.04,36.72-.08,55.07-.12-.1.87-.19,1.73-.29,2.6-18.31-.06-36.62-.11-54.93-.18-2.39,0-4.77-.12-7.15-.18,1.07-1.33,2.4-2.32,3.94-3.03Z"/>
      <path class="cls-5" d="M779.13,624.69c-18.58-.03-37.15-.05-55.73-.11-1.83,0-3.61,0-5.03,1.38-.7-1.22-.44-2.57-.55-3.87,17.5.09,34.99.18,52.49.26,1.2,0,2.41-.05,3.06-1.34,2.25.71,3.93,2.31,5.76,3.67Z"/>
      <path class="cls-4" d="M869.14,508.45c-4.39,4.51-10.38,6.43-15.65,9.49-8.76,5.09-17.84,9.63-26.79,14.41-.7.37-1.36.84-2.1,1.09-.97.33-2.16.37-2.71-.56-.6-1.01.18-1.87,1.07-2.43.84-.53,1.73-.98,2.62-1.43,12.65-6.31,25.29-12.62,37.94-18.93,1.78-.89,3.55-1.85,5.65-1.62l-.03-.03Z"/>
      <path class="cls-4" d="M895.56,774.39c-3.97.19-7.42-1.65-10.94-2.63-11.29-3.14-22.44-6.78-33.61-10.32-1.88-.6-5.31-.8-4.17-3.63.88-2.18,3.55-.06,5.25.49,14,4.52,27.94,9.22,41.59,14.71.65.26,1.53.17,1.88,1.38Z"/>
      <path class="cls-4" d="M373.2,758.19c-3.5,3.7-41.55,15.84-48.62,16.09,5.21-3.31,10.81-4.26,15.9-6.41,5.33-2.25,10.99-3.43,16.36-5.59,5.21-2.1,10.47-4.53,16.35-4.08Z"/>
      <path class="cls-2" d="M782.92,759.06c-1.79,3.04-4.92,3.99-7.94,5.1-7.87-1.29-15.81-.34-23.71-.7,4.64-2.39,9.4-4.49,14.42-5.98,4.13.08,8.27.13,12.4.27,1.69.06,3.62-.59,4.84,1.3Z"/>
      <path class="cls-2" d="M834.42,688.29c1.2-3.62,2.41-7.23,3.61-10.84,2.56-1.92,5.55-.94,8.35-1.22,0,0,.02.03.01.03-.23.54-.15.97.44,1.22.49,4.61-.44,8.74-4.03,11.97-2.75-.71-5.83,1.03-8.38-1.15Z"/>
      <path class="cls-2" d="M764.8,544.36c3.02,1.3,5.81,2.95,8.29,5.12-2.03,1.24-4.28.56-6.43.73-3.56.28-7.18-.46-10.69.67-4.85-1.19-9.23-3.6-13.82-5.46,1.66-1.53,3.72-.9,5.62-.94,5.68-.1,11.35-.09,17.03-.12Z"/>
      <path class="cls-4" d="M357.25,509.67c3.53-.39,5.88,2.15,8.67,3.54,10.13,5.06,20.22,10.22,30.3,15.38,1.23.63,2.35,1.48,3.53,2.23,1.03.65,2.25,1.4,1.57,2.77-.76,1.55-2.06.65-3.06.12-4.56-2.43-9.13-4.87-13.63-7.42-8.13-4.61-16.19-9.32-24.31-13.95-1.23-.7-2.47-1.31-3.05-2.7l-.02.02Z"/>
      <path class="cls-5" d="M513.24,690.52c-3.78.11-7.57.3-11.35.31-29.91.03-59.82,0-89.74.07-2.15,0-5.03-1.18-5.9,2.34-1.32-1-1.05-2.44-1.04-3.8,35.9-.02,71.79-.04,107.69-.07.11.39.22.77.34,1.16Z"/>
      <path class="cls-2" d="M775.8,580.3c-3.5-1.12-6.5-3.19-9.63-5.02.17-.33.13-.63-.13-.9,0,0,.05-.03.05-.03,8.03-.05,16.06-.1,24.09-.14.38,0,.72.13,1.01.36,1.7,1.7,3.5,3.23,6.05,3.44,0,.36,0,.72,0,1.08-7.12.79-14.37-.6-21.44,1.2Z"/>
      <path class="cls-4" d="M861.18,800.61c-3.13-1.21-6.24-2.22-9.18-3.58-9.17-4.26-17.95-9.34-27.34-13.15-.71-.29-1.37-.8-1.95-1.32-.73-.66-1.49-1.46-.75-2.52.54-.77,1.43-.58,2.18-.33.75.25,1.46.61,2.17.98,11.24,5.84,22.48,11.69,33.72,17.55.7.36,1.39.76,1.16,2.37Z"/>
      <path class="cls-5" d="M506.54,624.88c-17.78-.08-35.56-.15-53.33-.23,1.43-1.37,3.04-2.48,4.84-3.32,1.25,1.39,2.91,1,4.45,1,14.85,0,29.69-.03,44.54-.06-.17.87-.33,1.74-.5,2.61Z"/>
      <path class="cls-5" d="M714.48,679.82c.35,1.17.73,2.27,2.29,2.25,1.59-.03,3.18.02,4.77.02,29.85,0,59.71-.02,89.56,0,2.37,0,4.79-.36,7.07.64,0,0-.2.49-.2.49-1.19.12-2.37.34-3.56.34-33.66-.01-67.32-.05-100.98-.08-.11-1.35.02-2.63,1.04-3.66Z"/>
      <path class="cls-5" d="M542.04,727.61c-2.39.11-4.77.3-7.16.3-28.33.03-56.66.02-84.99.09-2.11,0-4.42-.74-6.3.97-1.94-.08-3.18-1.48-4.65-2.46,33.92.02,67.84.03,101.76.05.76-.06,1.14.37,1.33,1.05Z"/>
      <path class="cls-5" d="M814.42,690.68c-33.44.03-66.89.07-100.33.08-1.18,0-2.36-.27-3.54-.41-.22-.46-.09-.77.4-.93,34.75,0,69.5,0,104.26.01-.03.56,0,1.16-.78,1.25Z"/>
      <path class="cls-5" d="M741.45,550.91c-2.41,1.34-5.06.81-7.6.82-23.24.01-46.49-.06-69.73-.05-2.74,0-5.58-.56-8.18.87-3.42.53-6.61-.47-9.81-1.42,1.96-1.52,4.24-.79,6.36-.79,26.54-.09,53.08-.09,79.62-.18,2.12,0,4.41.7,6.37-.81,1.41-.27,2.22.6,2.98,1.57Z"/>
      <path class="cls-5" d="M762.7,559.66c-10.17.08-20.34.12-30.51.26-1.89.03-4.04-.78-5.59,1.13-6.01-1.16-12.02-2.31-18.02-3.47,13.85,0,27.7.02,41.55-.03,2.12,0,4.38.66,6.31-.86,2.09.99,4.17,1.98,6.26,2.97Z"/>
      <path class="cls-4" d="M595.23,786.97c-1.26,1.14-.92,1.99.59,2.28,1.48.28,3.02.26,4.53.37-5.93,1.13-11.62-.91-17.42-1.42-3.92-.35-7.83-.84-11.77-.91,0,0-.01-.37-.01-.37.97.06,1.93.07,3.32-.88-4.98-1.87-9.8-2.23-14.5-3.01-2.16-.36-4.38-.32-6.39-1.32.97-.26,2.17.01,2.71-1.21,2.14-.31,3.85,1.63,6.03,1.12,7.75,2.06,15.59,3.61,23.62,4.07,1.46,1.49,3.18,1.65,5.07,1.02,1.39.55,2.81.54,4.25.26Z"/>
      <path class="cls-5" d="M732.42,601.87c-5.45.06-10.89.12-16.34.17-1.76.01-3.63-.22-3.96,2.27-1.69-3.42-4.02-6.56-5.19-10.92,9.19,1.9,17.54,4.56,25.49,8.48Z"/>
      <path class="cls-5" d="M543.03,780.46c-13.09,0-26.19-.06-39.28.02-2.06.01-4.41-.88-6.15,1.12-2.89-.89-5.69-2.01-8.3-3.55,12.34.05,24.69.1,37.03.14,1.58,0,3.22.22,4.56-.94,4.05,1.07,8.09,2.14,12.14,3.21Z"/>
      <path class="cls-5" d="M533.94,720.19c-1.78.16-3.56.46-5.34.47-30.53.05-61.07.07-91.6.06-1.54,0-3.2.46-4.71-.75,2.07-1.27,4.3-.69,6.39-.7,29.14-.04,58.28,0,87.41-.04,2.1,0,4.43.83,6.24-1.05,1.08.24,1.42,1.07,1.61,2.02Z"/>
      <path class="cls-4" d="M359.03,799.71c.01-2.11,1.9-2.32,3.18-3,10.4-5.46,20.83-10.86,31.25-16.28.53-.28,1.07-.56,1.63-.75.76-.26,1.62-.46,2.22.24.9,1.05.11,1.86-.62,2.51-.73.66-1.56,1.28-2.45,1.69-11.36,5.28-22.73,10.53-34.12,15.75-.27.12-.7-.1-1.1-.17Z"/>
      <path class="cls-5" d="M757.74,747.15c1.37,1.69,3.28,1.11,4.99,1.11,12.71.01,25.41-.04,38.12-.06-1.39,1.47-2.86,2.83-4.78,3.61-1.71-2.09-4.09-1.17-6.15-1.19-13.16-.14-26.32-.13-39.47-.17,2.28-1.43,4.66-2.64,7.29-3.29Z"/>
      <path class="cls-5" d="M702.53,777.11c1.81,1.81,4.11,1.09,6.2,1.09,12.26,0,24.53-.09,36.79-.15-3.02,1.56-6.03,3.11-9.44,3.65-1.41-2.09-3.58-1.23-5.43-1.25-9.67-.08-19.34.02-29.01-.07-1.8-.02-4.07.87-5.15-1.64,1.89-.99,3.81-1.85,6.03-1.63Z"/>
      <path class="cls-5" d="M690.44,719.43c30.18-.07,60.36-.14,90.55-.2,2.58,0,5.16.08,7.74.12-.64.91-1.37,1.73-2.48,2.08-2.03-1.23-4.27-.66-6.42-.66-27.43-.05-54.85-.04-82.28-.1-2.55,0-5.18.45-7.64-.72,0,0,.11-.42.11-.42l.42-.1Z"/>
      <path class="cls-2" d="M824.86,720.61c-.01,1.1-.84,1.66-1.54,2.31-2.26.69-3.16,3.66-5.9,3.53-5.86-.28-11.78.81-17.6-.66,3.04-1.97,6.02-4.03,9.48-5.23,5.19.02,10.38.04,15.57.06Z"/>
      <path class="cls-5" d="M577.71,552.58c-2.36-1.52-5.02-.92-7.55-.93-16.68-.03-33.36.05-50.05.02-1.91,0-3.99.69-5.71-.82.66-1.69,2.04-1.74,3.53-1.54,1.9,1.67,4.2.93,6.31.93,20.76.06,41.52.02,62.27.07,1.92,0,4.01-.71,5.74.82-4.79,1.13-9.63,1.73-14.56,1.45Z"/>
      <path class="cls-5" d="M449.62,579.31c3.24,2.03,6.79.2,10.13.82-4.61,3.25-9.23,6.5-13.84,9.75-2.53-2.37-5.71-.47-8.48-1.31,3.29-4.1,7.75-6.67,12.18-9.27Z"/>
      <path class="cls-2" d="M823.14,596.05c.98,1.14,1.96,2.29,2.94,3.43-1.06,1.6-2.73,1.32-4.26,1.31-5.68-.03-11.36-.12-17.04-.18-1.36-1.09-2.73-2.19-4.09-3.28.98-1.74,2.7-1.33,4.2-1.33,6.08-.02,12.16.03,18.25.06Z"/>
      <path class="cls-5" d="M720.43,652.3c28.04-.04,56.08-.06,84.12-.15,2.32,0,4.79.74,6.94-.84.99.32,1.27,1.15,1.43,2.05-1.19.11-2.37.33-3.56.33-28.13.01-56.26,0-84.39-.02-1.58,0-3.17-.25-4.75-.38-.17-.38-.11-.71.2-.99Z"/>
      <path class="cls-5" d="M683.37,725.49c1.9,1.68,4.2.9,6.31.91,25.93.06,51.86.06,77.79.07,1.96,0,3.92,0,5.98,0-.33,1.8-1.42,1.43-2.17,1.43-28.72.02-57.44,0-86.17-.03-1.17,0-2.34-.37-3.51-.57.26-.93.68-1.7,1.77-1.81Z"/>
      <path class="cls-2" d="M372.91,696.59c-1.43-1.77-2.02-3.69-1.05-5.89,5.6.08,11.2.51,16.78-.26,0,0-.01,0-.02,0-.28.78.11,1.19.79,1.43.41,1.59,1.51,3,1.29,4.76-5.93-.01-11.87-.03-17.8-.04Z"/>
      <path class="cls-5" d="M455.46,563.51c2.04,2.45,4.79.71,7.16,1.23-5.2,4.16-11.03,7.33-16.67,10.83-1.57-2.42-4.1-.8-6.09-1.44,4.73-4.23,9.91-7.79,15.6-10.61Z"/>
      <path class="cls-5" d="M834.42,688.29c2.54,2.18,5.63.44,8.38,1.15-.78,2.6-2.57,4.48-4.76,5.84-4.12,2.57-7.76,5.95-13.64,8.28,3.78-5.76,6.9-10.52,10.02-15.27Z"/>
      <path class="cls-5" d="M821.21,713.3c6.86-5.47,14.91-8.17,23.34-10.16-4.74,3.27-8.16,7.9-12.71,11.23-3.38-2.03-7.13-.29-10.63-1.07Z"/>
      <path class="cls-5" d="M419.56,651.08c1.79,1.93,4.12,1.06,6.2,1.07,26.25.06,52.5.04,78.74.04,0,.45-.01.91-.02,1.36-27.63.04-55.26.09-82.89.11-1.18,0-2.35-.29-3.53-.44.11-.98.33-1.89,1.5-2.13Z"/>
      <path class="cls-5" d="M423.11,610.2c-2.68-2.09-6.12-.11-8.9-1.64,2.45-4.05,6.45-6.38,10.14-9.04,2.51,2.43,5.64.66,8.42,1.21-2.68,3.71-5.87,6.9-9.66,9.46Z"/>
      <path class="cls-5" d="M720.55,645.06c25.28-.06,50.56-.09,75.84-.21,2.3-.01,4.8.8,6.88-1,1.12.22,1.44,1.07,1.62,2.04-1.38.17-2.75.49-4.13.49-26.74,0-53.48-.05-80.22-.09,0-.41.01-.82.02-1.23Z"/>
      <path class="cls-5" d="M805.58,744.49c-1.46-2.07-3.64-1.21-5.51-1.22-10.95-.07-21.91-.03-32.86-.03,2.25-1.47,4.63-2.67,7.2-3.47,1.46,1.98,3.6,1.18,5.45,1.2,9.83.1,19.65.07,29.48.09-1.04,1.37-2.04,2.79-3.76,3.42Z"/>
      <path class="cls-5" d="M421.85,588.59c4.03-4.91,9.33-8.27,14.42-11.89-.03,3.84,2.87,1.96,4.6,2.35-4.4,4.01-9.11,7.64-14.03,11-1.18-2.13-3.36-.86-4.99-1.46Z"/>
      <path class="cls-5" d="M720.41,637.96c7.53-.1,15.06-.27,22.59-.29,15.27-.04,30.54.03,45.81-.03,2.09,0,4.41.74,6.2-1.13,1.47.38,2.12,1.72,3.11,2.65-25.91-.05-51.82-.09-77.73-.14-.34-.36-.33-.72.02-1.07Z"/>
      <path class="cls-5" d="M427.94,643.86c1.64,1.68,3.75,1.02,5.67,1.02,21.52.04,43.04.01,64.56,0,2.19,0,4.4.2,6.38-1.04-.05.85-.1,1.69-.16,2.54-23.68,0-47.36.01-71.04-.01-2.37,0-4.78.35-7.09-.54.2-.96.55-1.79,1.67-1.97Z"/>
      <path class="cls-5" d="M347.61,698.88c3.37-4.91,8.51-7.38,14.15-10.38,0,3.82,0,7.22,0,10.61-4.72-.08-9.43-.15-14.15-.23Z"/>
      <path class="cls-2" d="M372.8,686.99c.3-1.5.81-2.89,2.18-3.76,4.43,1.18,9.2-.85,13.51,1.41.14,1.62.61,3.23.09,4.86-4.14-.06-8.28-.16-12.41-.15-1.77,0-3.12-.33-3.37-2.36Z"/>
      <path class="cls-6" d="M392,698.99c.42.8.84,1.6,1.26,2.4-.18,2.1-1.56,2.43-3.35,2.4-4.78-.08-9.57-.07-14.35-.1-.46-1.23-.92-2.45-1.38-3.68,1.17-1.46,2.82-1.09,4.34-1.1,4.49-.01,8.98.04,13.47.07Z"/>
      <path class="cls-2" d="M821.21,713.3c3.5.78,7.25-.96,10.63,1.07-1.7,1.62-3.41,3.23-5.11,4.85-5.02.05-10.03.1-15.05.16,1.77-2.56,4.68-3.41,7.23-4.81,1.08.24,1.68-.39,2.18-1.2l.13-.06Z"/>
      <path class="cls-5" d="M750.48,537.13c-8.12-.01-16.24-.06-24.35,0-1.89.02-4.01-.73-5.56,1.13-2.5-.23-4.98-.5-6.97-2.29,1.9-1.48,4.15-1.06,6.29-1.09,5.74-.07,11.48-.01,17.23-.1,1.7-.03,3.62.61,4.97-1.11,3,.66,5.74,1.94,8.39,3.44Z"/>
      <path class="cls-5" d="M436.47,636.88c2.19,1.49,4.66.77,6.99.78,20.36.09,40.72.11,61.08.14-.02.45-.03.91-.05,1.36-21.12,0-42.23.03-63.35.01-2.17,0-4.39.36-6.49-.56.29-.9.73-1.65,1.81-1.73Z"/>
      <path class="cls-5" d="M777.09,566.87c-6.97.11-13.93.18-20.9.37-1.9.05-4.02-.75-5.64,1.02-3.18-1.18-6.35-2.35-9.53-3.53,8.49.07,16.98.19,25.48.18,1.88,0,4.01.71,5.54-1.15,2.03.48,3.53,1.8,5.05,3.11Z"/>
      <path class="cls-2" d="M347.61,698.88c4.72.08,9.43.15,14.15.23.51,1.17,1.02,2.34,1.52,3.5-1.41,1.54-3.29.99-4.99,1.03-4.71.11-9.42.1-14.13.14.04-1.66,1.2-2.63,2.25-3.66.68-.09,1.06-.47,1.12-1.16,0,0,.08-.08.08-.08Z"/>
      <path class="cls-5" d="M808.21,608.94c-.57.08-1.15.29-1.7.23-2.62-.29-2.96.84-1.92,2.92-4.5-3.69-9.33-7-13.18-11.44,1.9.03,3.81.05,5.71.08,4.42,1.75,8.18,4.4,11.08,8.2Z"/>
      <path class="cls-5" d="M775.8,580.3c7.07-1.8,14.31-.41,21.44-1.2,3.37-.17,7.04,1.65,9.98-1.48,1.64.82,2.28,2.47,3.19,3.88-8.45.04-16.9.04-25.36.14-1.9.02-3.96-.59-5.65.9-1.51-.24-2.58-1.2-3.59-2.24Z"/>
      <path class="cls-4" d="M775.88,483.8c-.18,3.38-2.71,4.95-4.27,7.17-2.61,3.71-5.83,7.01-8.88,10.4-.81.9-2.02,1.44-3.15.41-.9-.82-.67-1.95,0-2.68,5.07-5.47,10.36-10.72,16.3-15.29Z"/>
      <path class="cls-2" d="M797.13,600.74c-1.9-.03-3.81-.05-5.71-.08-4.84-3.6-9.69-7.19-14.53-10.79.43-.42.85-.85,1.28-1.27,6.61,3.59,13.42,6.88,18.96,12.14Z"/>
      <path class="cls-5" d="M757.61,758.81c-1.59-1.78-3.7-1-5.58-1.03-7.7-.11-15.4-.08-23.1-.1,3.08-1.49,6.31-2.54,9.64-3.31,1.39,1.57,3.27,1.04,4.97,1.06,4.9.06,9.81,0,14.71.06,1.49.02,3.21-.46,4.21,1.28-1.2,1.69-2.94,2.08-4.86,2.05Z"/>
      <path class="cls-5" d="M381.1,676.04c2.91-5.38,8.7-7.73,13.15-11.86-1.62,4.44-3.23,8.87-4.85,13.31-2.47-2.16-5.59-.67-8.3-1.45Z"/>
      <path class="cls-5" d="M571.14,786.92s.01.37.01.37c-2.11.94-4.33.52-6.51.53-14.58.03-29.16,0-43.74.02-1.76,0-3.62-.43-5.22.77-1.82-.29-3.48-.99-4.97-2.07,19.17-.05,38.34-.11,57.5-.13.97,0,1.94.34,2.91.52Z"/>
      <path class="cls-4" d="M444.78,484.48c.75.23,1.72.24,2.22.73,4.58,4.44,9.1,8.95,13.58,13.49.88.89,1.4,2.19.2,3.12-.93.71-1.85-.15-2.55-.86-5.04-5.03-10.15-10.01-13.46-16.46l.02-.02Z"/>
      <path class="cls-5" d="M435.39,748.09c4.59.03,9.17.05,13.76.08,2.22.47,4.41,1.04,6.31,2.35-5.67-.03-11.34-.09-17.01-.08-1.51,0-3.19-.44-4.33,1.1-3.04-.59-5.32-3.03-8.42-3.44-.28-.7-.56-1.4-.84-2.11,3.38,1.35,6.83,2.37,10.53,2.1Z"/>
      <path class="cls-5" d="M846.37,676.23c-2.8.28-5.79-.7-8.35,1.22v-10.72c4.16,2.21,8.38,3.92,8.35,9.5Z"/>
      <path class="cls-2" d="M380.06,631.84c2.85,0,5.71,0,8.56,0,2.07,0,1.3,1.24.96,2.27-.85.43-1.7.87-2.55,1.3-1-.21-1.8.02-2.23,1.04,0,0-.35.12-.35.12-2.7.11-5.41.26-8.11.31-1.33.02-2.77.13-3.53-1.38,2.42-1.22,4.83-2.44,7.25-3.66Z"/>
      <path class="cls-5" d="M823.14,596.05c-6.08-.03-12.16-.08-18.25-.06-1.5,0-3.22-.41-4.2,1.33-1.86-.88-3.33-2.27-4.8-3.66,6.45,0,12.89.03,19.33-.03,1.67-.02,3.59.56,4.81-1.28,1.53.81,2.15,2.4,3.1,3.69Z"/>
      <path class="cls-5" d="M375.57,703.69c4.78.03,9.57.02,14.35.1,1.79.03,3.16-.3,3.35-2.4,1.22,1.95,2.45,3.9,3.67,5.85-1.96-1.1-4.1-1.17-6.28-1.12-5.68.12-11.36.22-17.05.26-2.29.02-4.72.65-6.71-1.15,2.85-.76,6.3,1.88,8.67-1.54Z"/>
      <path class="cls-4" d="M775.64,827.26c-6.92-3.53-11.34-9.44-15.7-15.66.9-.46,1.4-.86,1.53-.76,5.96,4.39,10.75,9.82,14.19,16.4l-.02.02Z"/>
      <path class="cls-5" d="M492.85,556.67c1.91,1.54,4.17.88,6.28.89,11.03.06,22.07.02,33.1.02-3.97.99-7.96,1.84-12.05,2.18-1.78-1.26-3.83-.78-5.77-.79-8.7-.05-17.4-.03-26.11-.04,1.22-1.36,2.87-1.83,4.54-2.26Z"/>
      <path class="cls-4" d="M446.07,824.77c3.83-4.4,7.13-9.29,11.53-13.27.89-.8,2.06-1.64,3.12-.54,1.17,1.22-.1,2.17-.87,2.96-3.63,3.67-7.3,7.3-10.98,10.91-.71.69-1.56,1.29-2.79-.07Z"/>
      <path class="cls-5" d="M716.05,615c13.28.02,26.56.05,39.83.04,1.75,0,3.59.37,5.19-.76,1.38.36,2.55,1.07,3.52,2.11-15.93-.02-31.86-.04-47.79-.05-.79-.14-.79-.73-.75-1.34Z"/>
      <path class="cls-5" d="M673.89,769.99c1.75,1.34,3.81.89,5.75.91,5.96.08,11.91.01,17.87.1,1.71.02,3.61-.65,5.04.96-3.34,2.09-7.15,2.09-10.88,2.41.96-1.99.96-2.06-.06-2.07-5.67-.02-11.35.05-17.02-.04-1.87-.03-3.95.72-5.55-.97,1.37-1.37,3.04-1.6,4.85-1.3Z"/>
      <path class="cls-5" d="M804.79,600.61c5.68.07,11.36.16,17.04.18,1.53,0,3.2.28,4.26-1.31,1.55.83,2.45,2.25,3.34,3.68-5.24-.01-10.48-.05-15.72-.02-1.51,0-3.15-.39-4.35,1-1.52-1.18-3.04-2.35-4.56-3.53Z"/>
      <path class="cls-5" d="M764.8,544.36c-5.68.03-11.35.02-17.03.12-1.9.03-3.95-.6-5.62.94-1.4.2-2.24-.68-3.05-1.61,4.41-1.26,8.92-1.62,13.49-1.72,2.09-.05,4.42.81,6.21-1.1,2.25.67,4.13,2.01,6,3.36Z"/>
      <path class="cls-5" d="M782.92,759.06c-1.21-1.89-3.15-1.25-4.84-1.3-4.13-.14-8.26-.19-12.39-.27-.3-.39-.6-.78-.91-1.17,1.25-1.46,2.93-2.05,4.7-1.6,5.59,1.43,11.23.49,16.85.59-1.14,1.25-2.27,2.5-3.41,3.75Z"/>
      <path class="cls-5" d="M471.17,614.03c1.45,1.54,3.35.97,5.08.98,10.95.03,21.89-.02,32.84-.04.03.64-.11,1.17-.83,1.35-13.54.42-27.09.35-40.63-.03,1.01-1.02,1.98-2.11,3.55-2.25Z"/>
      <path class="cls-2" d="M437.44,588.58c2.76.84,5.95-1.06,8.48,1.31-1.61,1.21-3.23,2.42-4.84,3.64-2.81-.36-5.96,1.56-8.4-1.26,1.38-1.5,2.88-2.83,4.77-3.68Z"/>
      <path class="cls-5" d="M511.72,772.16c-10.43-.08-20.91,2.09-31.3-1.26,6.74,0,13.47.06,20.21-.03,2.13-.03,4.42.66,6.36-.89,1.8.24,3.38.96,4.74,2.18Z"/>
      <path class="cls-2" d="M432.77,600.74c-2.78-.56-5.91,1.22-8.42-1.21,1.34-1.16,2.68-2.32,4.02-3.48,3.02.24,6.2-1.13,9.07.85-1.55,1.28-3.11,2.56-4.66,3.85Z"/>
      <path class="cls-5" d="M728.89,770.21c2.48,1.13,5.11.67,7.68.68,8.58.03,17.15-.02,25.73-.04-1.87,1.01-3.61,2.3-5.84,2.46-1.64-1.68-3.75-.97-5.66-1.03-8.55-.25-17.1.34-25.65-.38.97-1.17,2.32-1.51,3.74-1.69Z"/>
      <path class="cls-5" d="M709.86,762.83c2.63,1.33,5.42.52,8.14.6,6.88.2,13.76.29,20.64.42-.07.35-.2.68-.37.99-1.73-.53-2.89,1.8-4.68.92-2.87-1.3-5.91-.64-8.87-.7-7.37-.14-14.75-.12-22.12-.17,2.31-1.08,4.75-1.7,7.26-2.06Z"/>
      <path class="cls-5" d="M392,698.99c-4.49-.03-8.98-.08-13.47-.07-1.52,0-3.17-.36-4.34,1.1-.97-.94-1.22-2.15-1.28-3.43,5.93.01,11.87.03,17.8.04.74.62,1.37,1.3,1.29,2.36Z"/>
      <path class="cls-2" d="M381.1,676.04c2.72.78,5.83-.71,8.3,1.45-.23,1.11-.46,2.21-.69,3.32-2.43.92-4.96.45-7.45.49-2.58.04-2.62-1.66-2.35-3.55,0,0,.22-.24.22-.24,1.03.05,1.56-.57,1.9-1.44l.07-.04Z"/>
      <path class="cls-5" d="M378.91,677.75c-.28,1.88-.23,3.58,2.35,3.55,2.49-.04,5.02.43,7.45-.49-.07,1.28-.14,2.55-.22,3.83-4.32-2.26-9.08-.22-13.51-1.41.22-2.61,2.05-4.06,3.93-5.48Z"/>
      <path class="cls-5" d="M714.23,608.23c8.29-1,16.61-.19,24.91-.51,2.14-.08,4.37.53,6.39-.71,1.57.1,2.65,1.09,3.76,2.03-11.6.03-23.19.06-34.79.09l-.43-.36.17-.54Z"/>
      <path class="cls-5" d="M638.89,807.9c-.39-.71-.78-1.43-1.17-2.14.76-.13,1.52-.26,2.28-.39,4.92.26,9.83.52,15.92.84-6.25,2.41-11.65,1.97-17.03,1.69Z"/>
      <path class="cls-5" d="M799.82,725.78c5.82,1.48,11.74.39,17.6.66,2.74.13,3.65-2.83,5.9-3.53-.88,1.87-.24,4.35-2.31,5.75-7.64-1.42-15.46,0-23.11-1.39.38-.82.98-1.37,1.91-1.5Z"/>
      <path class="cls-5" d="M787.69,732.75c1.64,1.65,3.73.96,5.63.98,7.7.08,15.4.06,23.1.07-.59,1-1.01,2.16-2.29,2.53-1.57-1.8-3.68-1.07-5.58-1.11-8.12-.14-16.23-.17-24.35-.25.95-1.09,2.02-1.98,3.5-2.23Z"/>
      <path class="cls-5" d="M461.66,764.41c1.89-1.59,4.14-.68,6.21-.85,6.21-.48,12.5.8,18.67-.71,1.77.33,3.33,1.11,4.81,2.1-7.28.03-14.56.01-21.84.13-1.88.03-3.98-.72-5.56,1.06-1.24.06-2.09-.4-2.3-1.73Z"/>
      <path class="cls-5" d="M873.87,646.26c-9.95,0-19.91,0-29.86,0,.85-1.96,2.63-1.35,4.08-1.37,5.88-.08,11.76-.03,17.64-.1,1.92-.02,3.94.5,5.71-.74,1.28.22,1.73,1.34,2.42,2.21Z"/>
      <path class="cls-2" d="M440.87,579.05c-1.73-.39-4.63,1.5-4.6-2.35.48-.38.95-.76,1.43-1.14,1.05.12,1.63-.47,2.02-1.35,0,0,.14-.09.14-.09,1.99.64,4.52-.98,6.09,1.44-1.69,1.16-3.38,2.32-5.07,3.48Z"/>
      <path class="cls-2" d="M421.85,588.59c1.63.6,3.81-.67,4.99,1.46-.91.74-1.81,1.48-2.72,2.22-.63-.1-1.01.1-1.01.8-.06.23-.21.34-.45.33-1.84-.38-4.08,1.32-5.52-1.08,1.37-1.5,2.8-2.91,4.71-3.73Z"/>
      <path class="cls-6" d="M807.21,577.62c-2.94,3.12-6.6,1.3-9.98,1.48,0-.36,0-.72,0-1.08-.01-.4-.02-.81-.03-1.21,2.38-2.18,5.07-2.38,7.97-1.24.96.4,1.57,1.16,2.03,2.05Z"/>
      <path class="cls-5" d="M816.47,588.66h-24.2c0-.37-.02-.75-.03-1.12,5.59-.07,11.17-.09,16.76-.25,1.81-.05,4.15.91,4.94-1.9,1.3.74,2,1.94,2.52,3.28Z"/>
      <path class="cls-5" d="M751.27,763.46c7.9.37,15.84-.59,23.71.7-.72,1.05-1.52,1.98-2.95,1.96-1.54-1.82-3.63-1.01-5.5-1.09-6.24-.27-12.5.46-18.73-.42.95-1,2.17-1.17,3.46-1.15Z"/>
      <path class="cls-5" d="M437.44,596.89c-2.86-1.98-6.04-.61-9.07-.85,1.23-1.49,2.38-3.07,4.3-3.79,2.44,2.82,5.59.9,8.4,1.26-1.21,1.12-2.42,2.25-3.63,3.37Z"/>
      <path class="cls-5" d="M541.63,772.2c-2.18,1.15-4.93-1.3-6.92,1.09-2.82-.77-5.65-1.54-8.47-2.31-.47-.86,0-1.49.51-2.11,4.86,1.58,10.11,1.38,14.88,3.33Z"/>
      <path class="cls-5" d="M854.11,652.8c9.02-1.33,18.07-.38,27.11-.49l.44.12s.11.44.11.44c-9.21,1.21-18.43,1.47-27.64-.07,0,0-.03,0-.03,0Z"/>
      <path class="cls-5" d="M510.76,609.11c-7.57.04-15.13.11-22.7.11-1.3,0-2.87.46-3.63-1.25,8.9-.22,17.8-.62,26.7.26,0,0,.1.56.1.56,0,0-.46.33-.46.33Z"/>
      <path class="cls-5" d="M828.76,624.32c-2.86,1.02-6.34-1.11-8.85,1.72-1.56-.67-2.41-2.07-3.39-3.33,3.49-.02,6.85-.74,10.14-1.83-.87,2.1,1.63,2.16,2.09,3.45Z"/>
      <path class="cls-5" d="M344.16,703.78c4.71-.04,9.42-.04,14.13-.14,1.7-.04,3.58.51,4.99-1.03,1.07.84,2.14,1.69,3.2,2.53-7.58-.09-15.18.63-22.74-.38.14-.33.28-.65.42-.98Z"/>
      <path class="cls-5" d="M755.97,550.88c3.51-1.13,7.13-.39,10.69-.67,2.15-.17,4.4.51,6.43-.73,1.4.32,2.33,1.36,3.37,2.23-4.57,0-9.14-.01-13.71.01-1.35,0-2.82-.33-3.85.99-1.43.1-2.24-.77-2.93-1.84Z"/>
      <path class="cls-5" d="M372.8,686.99c.25,2.03,1.6,2.37,3.37,2.36,4.14-.02,8.28.09,12.41.15l.33.45-.27.49c-5.58.76-11.19.34-16.78.26-.24-1.38-.29-2.7.94-3.71Z"/>
      <path class="cls-4" d="M640,805.37c-.76.13-1.52.26-2.28.39-1.82-.14-3.64-.29-5.46-.43,3-3.01,6.8-1.81,10.34-1.97-.87.67-1.73,1.34-2.6,2.01Z"/>
      <path class="cls-5" d="M811.68,719.38c5.02-.05,10.03-.1,15.05-.16-.48.65-.85,1.45-1.86,1.39-5.19-.02-10.38-.04-15.57-.06.61-.76,1.34-1.28,2.38-1.18Z"/>
      <path class="cls-5" d="M834.37,609.09c-5.29.36-10.57.57-15.82-.45,4.85-1.13,9.77-.67,14.66-.71.75.03,1.09.46,1.17,1.16Z"/>
      <path class="cls-5" d="M840.8,616c-4.61.92-9.21.7-14.68,0,3.09-1.33,5.48-.66,7.77-.9,1.87-.19,4.01.69,5.45-1.32,1.16.3,1.43,1.18,1.46,2.22Z"/>
      <path class="cls-5" d="M778.16,588.6c-.43.42-.85.85-1.28,1.27-2.05-1.16-4.1-2.31-6.15-3.47-.2-.85-.39-1.7-.59-2.54,2.52,1.84,5.81,2.36,8.01,4.74Z"/>
      <path class="cls-4" d="M883.44,665.6c4.43-.04,8.86-.08,13.29-.12-4.41,2.18-8.84,1.74-13.29.12Z"/>
      <path class="cls-4" d="M526.75,768.87c-.52.62-.98,1.25-.51,2.11-2.05-.34-4.01-.87-5.89-2.65,2.67-1.49,4.47.14,6.4.54Z"/>
      <path class="cls-4" d="M770.15,583.86c.2.85.39,1.69.59,2.54-2.18-1.18-4.37-2.35-7.55-4.07,3.61-.96,5.26.39,6.97,1.53Z"/>
      <path class="cls-5" d="M598.33,550.66c3.86-1.1,7.77-.82,11.68-.35-3.88.53-7.77.91-11.68.35Z"/>
      <path class="cls-4" d="M411.98,733.34c-.35.47-.83.89-.56,1.58-1.9.03-3.42-.66-4.84-2.67,2.24-.58,3.88-.12,5.4,1.09Z"/>
      <path class="cls-5" d="M652.13,801.81c2.66-1.66,5.55-1.16,8.42-.9-2.75.83-5.52,1.44-8.42.9Z"/>
      <path class="cls-5" d="M549.01,773.28c-2.46.39-4.87.42-7.05-1.06,2.47-.42,4.79.09,7.05,1.06Z"/>
      <path class="cls-4" d="M424.85,746c.28.7.56,1.4.84,2.11-.51-.18-1.1-.27-1.52-.58-.51-.37-1.76-.38-1.28-1.37.31-.65,1.25-.6,1.96-.16Z"/>
      <path class="cls-5" d="M666.46,771.75c-1.38,1.15-2.91.88-4.45.46,1.44-.54,2.89-.99,4.45-.46Z"/>
      <path class="cls-2" d="M514.24,538.51c-.87,1.33-2.2,1.12-3.49,1.06.98-.95,2.17-1.24,3.49-1.06Z"/>
      <path class="cls-5" d="M473.71,770.86c1.35-.23,2.67-.37,3.45,1.13-1.39.36-2.43-.34-3.45-1.13Z"/>
      <path class="cls-5" d="M562.19,528.29c-.98,1.15-2.17.97-3.4.55,1.07-.57,2.15-1.1,3.4-.55Z"/>
      <path class="cls-5" d="M640.26,550.38c1.22-.49,2.4-.62,3.47.34-1.23.64-2.36.23-3.47-.34Z"/>
      <path class="cls-5" d="M736.05,603.08c-1.41.39-2.51-.15-3.44-1.17,1.38-.28,2.5.17,3.44,1.17Z"/>
      <path class="cls-2" d="M540.65,540.82c-.08.31-.11.62-.07.94-.75-.01-1.5-.02-2.26-.03.58-.8,1.43-.92,2.33-.91Z"/>
      <path class="cls-5" d="M381.03,676.07c-.34.87-.87,1.49-1.9,1.44.33-.88.84-1.52,1.9-1.44Z"/>
      <path class="cls-5" d="M549.22,763.66c.76-.47,1.48-.49,2.13.21-.78.59-1.47.37-2.13-.21Z"/>
      <path class="cls-5" d="M676.25,763.94c.63-.74,1.36-.71,2.15-.28-.66.54-1.35.84-2.15.28Z"/>
      <path class="cls-5" d="M384.8,636.45c.43-1.02,1.23-1.25,2.23-1.04-.63.6-1.24,1.23-2.23,1.04Z"/>
      <path class="cls-5" d="M512.94,755.49c1.03-.38,1.96-.38,2.61.69-1.04.4-1.89.09-2.61-.69Z"/>
      <path class="cls-5" d="M403.7,683.46c.64.78.6,1.62.23,2.5-.55-.79-1.25-1.56-.23-2.5Z"/>
      <path class="cls-5" d="M460.34,579.88c.38-.99,1.15-1.07,2.04-.87-.56.57-1.14,1.08-2.04.87Z"/>
      <path class="cls-5" d="M821.08,713.36c-.5.81-1.1,1.44-2.18,1.2.5-.8,1.13-1.37,2.18-1.2Z"/>
      <path class="cls-4" d="M670.25,629.58c.68-.61,1.39-1.16,2.39-1.02-.54.93-1.39,1.16-2.39,1.02Z"/>
      <path class="cls-5" d="M439.71,574.21c-.38.88-.97,1.46-2.02,1.35.38-.89,1-1.42,2.02-1.35Z"/>
      <path class="cls-5" d="M511.78,551.32c-.61.76-1.33.72-2.11.31.65-.49,1.33-.77,2.11-.31Z"/>
      <path class="cls-4" d="M870.37,507.27c.26-.49,1.06-1.07,1.14-.84.48,1.31-.78.5-1.17.81,0,0,.03.03.03.03Z"/>
      <path class="cls-4" d="M562.26,592.35c-.16-.08-.48-.2-.47-.25.08-.39.26-.3.46.26,0,0,.01-.01.01-.01Z"/>
      <path class="cls-5" d="M717.8,668.83c.24.71-.09,1.15-.69,1.47-.25-.71-.13-1.25.69-1.47Z"/>
      <path class="cls-4" d="M562.26,714.59c-.09.17-.22.49-.27.47-.4-.1-.31-.28.27-.47h0Z"/>
      <path class="cls-5" d="M509.87,681.04c-.18-.27-.39-.52-.51-.8-.04-.11.12-.3.19-.46.18.27.4.52.52.82.04.1-.13.29-.21.45Z"/>
      <path class="cls-5" d="M399.15,619.99c-.15.63-.49,1.02-1.2.91.09-.71.5-1,1.2-.91Z"/>
      <path class="cls-5" d="M822.59,615.06c.56-.16,1-.09,1.1.6-.6.23-.93-.03-1.1-.6Z"/>
      <path class="cls-5" d="M397.98,708.58c-.65-.18-1.04-.56-.99-1.27.7.14,1.02.57.99,1.27Z"/>
      <path class="cls-5" d="M504.59,637.69c.12-.41.24-.83.35-1.24.4.56.34.99-.35,1.24Z"/>
      <path class="cls-5" d="M720.66,786.66c.24-.51.57-.54.97-.18-.25.45-.56.57-.97.18Z"/>
      <path class="cls-4" d="M443.58,483.29c-.17-.09-.49-.22-.47-.27.1-.4.28-.3.47.28,0,0,0,0,0,0Z"/>
      <path class="cls-5" d="M766.04,574.38c.25.27.3.57.13.9-.73,0-1.17-.26-.94-1.09,0,0,.48-.19.48-.19l.34.39Z"/>
      <polygon class="cls-5" points="481.7 609.04 481.41 609.39 480.99 609.2 481.29 608.85 481.7 609.04"/>
      <path class="cls-5" d="M814.04,607.93c.64-.11,1.15.01,1.27.77-.74.27-1.06-.16-1.27-.77Z"/>
      <polygon class="cls-5" points="484.29 607.95 484.34 608 484.06 607.78 484.3 607.98 484.29 607.95"/>
      <path class="cls-5" d="M423.11,593.06c0-.69.39-.9,1.01-.8-.12.54-.46.8-1.01.8Z"/>
      <path class="cls-5" d="M719.81,636.61c.71.23.93.67.61,1.37-.86-.16-.89-.7-.61-1.37Z"/>
      <path class="cls-5" d="M846.83,677.47c-.58-.25-.66-.68-.44-1.22.24.25.51.48.71.76.04.06-.17.3-.27.46Z"/>
      <path class="cls-5" d="M843.96,646.29c.19.32.22.66.1,1.02-.75-.09-1.18-.39-.83-1.22l.45-.18.29.39Z"/>
      <path class="cls-5" d="M713.24,606.78c.63.26,1.1.64.95,1.42-.85-.12-1.03-.68-.95-1.42Z"/>
      <path class="cls-4" d="M775.66,827.24c.39.4.79.81,1.18,1.21h0c-.4-.4-.81-.8-1.21-1.19,0,0,.02-.02.02-.02Z"/>
      <path class="cls-4" d="M776.84,828.45c.16.09.48.22.47.27-.1.39-.27.3-.46-.28,0,0,0,0,0,0Z"/>
      <path class="cls-5" d="M762.68,573.08c.47-.35.81-.3.97.31-.51.46-.78.21-.97-.31Z"/>
      <path class="cls-4" d="M357.27,509.65c-.17-.09-.48-.21-.47-.25.09-.39.27-.29.45.27,0,0,.02-.02.02-.02Z"/>
      <path class="cls-4" d="M869.17,508.47c.4-.4.8-.8,1.2-1.2,0,0-.03-.03-.03-.03-.4.4-.8.8-1.2,1.2,0,0,.03.03.03.03Z"/>
      <path class="cls-5" d="M347.53,698.96c-.05.69-.43,1.07-1.12,1.16.03-.72.38-1.12,1.12-1.16Z"/>
      <path class="cls-5" d="M389.42,691.87c-.69-.24-1.07-.65-.79-1.43.87.14.94.73.79,1.43Z"/>
      <path class="cls-4" d="M444.76,484.5c-.39-.4-.79-.81-1.18-1.21,0,0,0,0,0,0,.4.39.81.79,1.21,1.18,0,0-.02.02-.02.02Z"/>
      <path class="cls-5" d="M865.6,639.01c-.67.18-1.18.06-1.34-.72.73-.3,1.09.12,1.34.72Z"/>
      <path class="cls-3" d="M631.85,625.86c-.87,6.22.97,10.87,7.43,12.85.76,5.09,1.6,10.19.47,15.34-3.41,15.53-16.08,24.27-32.38,22.33-11.05-1.31-20.96-10.68-23.63-21.66-3.41-14.05,3.46-26.93,12.26-31.68,10.37-5.59,20.84-6.09,31.23.08,1.54.91,3.08,1.82,4.62,2.73Z"/>
      <path class="cls-3" d="M616.06,693.55c-.43,2,.75,5.51-1.77,5.62-2.97.13-2.26-3.4-2.5-5.6-.06-.59,0-1.19-.04-1.79-.09-1.8.37-3.27,2.52-3.17,2.03.1,1.73,1.77,1.78,3.12.02.59,0,1.19,0,1.81Z"/>
      <path d="M755.97,550.88c.69,1.07,1.51,1.94,2.93,1.84,7.38,4.15,14.77,8.3,22.15,12.45,1.54.87,3.23,1.56,4.13,3.24-.31.48-.62.95-.92,1.43-2.57-.55-4.49-2.66-7.16-2.96-1.52-1.31-3.03-2.63-5.05-3.11-2.98-1.68-5.98-3.31-9.34-4.1-2.09-.99-4.18-1.98-6.26-2.97-4.79-2.45-9.64-4.77-14.99-5.78-.76-.96-1.57-1.84-2.98-1.57-4.6-2.17-9.24-4.2-14.3-5.08-3.13-1.37-6.28-2.65-9.68-3.21-5.79-1.88-11.59-3.69-17.71-4.14-1.45-1.38-3.51-.59-5.11-1.46,3.52-1.21,7.16.01,10.71-.51,1.93.06,3.87.12,5.8.18.96,1.01,2.09.99,3.29.56.71.1,1.42.21,2.12.31,1.99,1.79,4.47,2.05,6.97,2.29,6.18,1.85,12.36,3.69,18.54,5.54.81.93,1.64,1.81,3.05,1.61,4.59,1.86,8.96,4.27,13.82,5.46Z"/>
      <path class="cls-4" d="M702.38,534.93c-3.55.52-7.19-.69-10.71.51-.31.14-.49.39-.54.73-.69-.15-1.39-.3-2.08-.45-.54-1.36-2.37-.64-2.99-1.87,5.48-.32,10.96-.49,16.32,1.08Z"/>
      <path class="cls-5" d="M711.47,535.67c-1.2.43-2.33.45-3.29-.56,1.19-.37,2.3-.28,3.29.56Z"/>
      <path class="cls-5" d="M507.46,683.25h-101.26c0-.26,0-.52,0-.79h101.26c0,.26,0,.52,0,.79Z"/>
      <path class="cls-4" d="M828.76,624.32c-.47-1.29-2.97-1.34-2.09-3.45.27-1.76,1.21-1.02,1.95-.46,5.31,4,10.59,8.04,15.91,12.03,2.8,2.1,5.32,4.66,8.88,5.55-.36.42-.73.83-1.09,1.25-1.96-.47-3.58-1.48-5.24-2.66-6.01-4.23-12.19-8.2-18.31-12.27Z"/>
      <path class="cls-5" d="M852.31,639.25c.36-.42.73-.83,1.09-1.25,2.55-.49,5.09-.58,7.68.23-2.95.2-5.13,5.62-8.77,1.02Z"/>
      <path class="cls-5" d="M691.14,536.17c.04-.34.22-.58.54-.73,1.59.87,3.66.08,5.11,1.46-1.99.54-3.89.52-5.64-.73Z"/>
      <path d="M733.59,765.77c1.79.87,2.96-1.45,4.68-.92,1.36.24,2.84-.07,4.02.95-4.47,1.47-8.93,2.94-13.4,4.42-1.42.18-2.77.53-3.74,1.69-7.54,1.74-15.08,3.47-22.62,5.21-2.22-.23-4.14.64-6.03,1.63-1.19.29-2.39.59-3.58.88-.99-.36-1.92-.35-2.69.5-18.09,3.43-36.35,4.97-54.74,5.11-3.39.03-6.78,0-11.29,0,5.75-2.74,11.17-1.78,15.99-3.52,5.35.23,10.56-.5,15.64-2.22,1.57-.18,3.13-.36,4.7-.54,1.04.4,2.02.41,2.88-.42,9.51-.81,18.89-2.55,28.28-4.16,3.73-.33,7.54-.32,10.88-2.41,1.18-.17,2.36-.34,3.53-.51.61.46,1.11.32,1.53-.28,7.5-.65,14.73-2.64,21.99-4.48,1.32-.34,2.66-.62,3.99-.92Z"/>
      <path class="cls-5" d="M590.98,786.7c-1.88.63-3.61.47-5.07-1.02,1.85-.47,3.72-.99,5.07,1.02Z"/>
      <path class="cls-5" d="M690.22,780.12c.77-.85,1.7-.86,2.69-.5-.74,1-1.67,1.04-2.69.5Z"/>
      <path class="cls-5" d="M663.39,778.53c-.86.83-1.84.83-2.88.42.83-1.02,1.82-.99,2.88-.42Z"/>
      <path class="cls-4" d="M784.26,569.84c.31-.48.62-.95.92-1.43,3.07,1.98,6.15,3.95,9.22,5.93-1.05.41-2.12.55-3.22.23-.29-.24-.63-.36-1.01-.36-1.01-1.13-2.12-2.11-3.72-2.31-.73-.69-1.47-1.38-2.2-2.07Z"/>
      <path class="cls-5" d="M791.19,574.58c1.1.32,2.17.18,3.22-.23.94.82,1.87,1.64,2.81,2.46.01.4.02.81.03,1.21-2.55-.21-4.35-1.74-6.05-3.44Z"/>
      <path class="cls-4" d="M742.29,765.8c-1.17-1.02-2.66-.7-4.02-.95.17-.31.29-.64.37-.99,6.64-.49,12.79-2.81,18.97-5.04,1.92.03,3.67-.35,4.86-2.05.77-.15,1.54-.3,2.31-.45.3.39.6.78.91,1.17-5.02,1.48-9.78,3.59-14.42,5.98-1.28-.02-2.51.15-3.46,1.15-1.84.39-3.68.79-5.52,1.18Z"/>
      <path class="cls-5" d="M707.61,771.17c-.42.6-.92.74-1.53.28.42-.61.93-.66,1.53-.28Z"/>
      <path class="cls-5" d="M786.46,571.9c1.6.19,2.71,1.18,3.72,2.31-8.03.05-16.06.1-24.09.14.68-1.7,2.2-1.38,3.52-1.4,3.94-.04,7.87.02,11.81-.03,1.73-.02,3.58.43,5.03-1.02Z"/>
    </g>
  </g>
</svg>