<?xml version="1.0" encoding="UTF-8"?>
<svg id="_Слой_1" data-name="Слой_1" xmlns="http://www.w3.org/2000/svg" viewBox="0 0 3983 3983">
  <defs>
    <style>
      .cls-1 {
        fill: #f5f6f6;
      }

      .cls-2 {
        fill: #f41416;
      }

      .cls-3 {
        fill: #3c0505;
      }

      .cls-4 {
        fill: #b9b4b4;
      }

      .cls-5 {
        fill: #fafafa;
      }
    </style>
  </defs>
  <path d="M1991.5,3983c1099.88,0,1991.5-891.63,1991.5-1991.5S3091.38,0,1991.5,0,0,891.63,0,1991.5s891.63,1991.5,1991.5,1991.5ZM702.43,2388.03c-14.31,2.68-28.64,7.18-44.05,3.51,24.96-6.25,49.87-12.74,74.9-18.7,85.37-20.3,170.79-40.41,256.19-60.6.72-.17,1.4-.55,2.12-.73,5.56-1.38,13.22-4.71,14.93,2.89,1.74,7.76-6.66,7.93-12.36,9.2-66.03,14.74-132.04,29.58-198.08,44.28-31.17,6.94-62.27,14.27-93.64,20.14ZM1062.98,2197.36c4,3.16,8.01,6.33,12.01,9.49,0,0,1.56.35,1.56.35,10.66-2.85,23.58,7.05,32.46-5.77-1.72-4.59-3.45-9.18-5.17-13.77-3.62-3.53-4.58-8.05-4.79-12.85-5.37-6.63-7.58-13.83-3.94-22.07-.91-5.16-1.09-10.13,3.51-13.89,1.14-5.62,3.02-10.81,8.17-14.1.83-9.77,7.67-15.22,14.73-20.52l.84-.88c1.25-3.28,3.14-5.7,7.11-5.39l.26-.14c10.92-20.14,32.6-28.97,49.27-44.42-6.05,16.62-12.11,33.24-18.16,49.85-.87,4.15-1.74,8.29-2.6,12.44-.27,4.78-.54,9.56-.81,14.34.52,6.07,2.28,12.11.32,18.22l1.24,1.69-.99,1.84c3.2.55,3.45,2.74,2.91,5.36,1.53,5.97,5.66,11.23,4.84,17.83,2.76,2.32,5.13,4.85,4.84,8.84,1.57,3,3.15,6,4.72,9.01,4.59,7.3,9.18,14.6,13.77,21.91,0,0,.18.25.18.25,2.61.52,3.82,2.13,3.7,4.77,11.86,18.79,32.31,29.58,46.36,49.63-32.52-14.42-64.22-24.62-96.16-33.75-34.6-9.89-70.12-12.62-105.98-7.12-5.09.78-8.94,2.2-13.13,6.47-13.13,13.39-28.24,17.41-34.66,11.24-8.49-8.16-8.32-25.77.4-40.77.52-1.23,1.04-2.45,1.56-3.68.13-6.22,4.48-9.86,8.44-13.73.1-2.69,1.42-4.21,4.18-4.35l.31-.3c12.61-18.38,31.89-27.64,53-38.9v39.75c1.9,4.38,3.81,8.75,5.71,13.13ZM1211.73,2076.25c0-5.89,2.96-10.19,7.38-13.7,3.82-9.61,10.08-17.16,18.97-22.5.15-2.65,1.32-4.32,4.19-4.37,6.8-9.85,14.85-18.3,25.96-23.36.41-3.68,1.25-7.06,5.6-7.97,7.38-7.85,14.92-15.49,25.15-19.69.74-3.6,2.06-6.7,6.25-7.39,6.95-8.4,14.85-15.59,25.18-19.66,1.1-3.38,2.74-6.19,6.79-6.49,7.78-7.6,15.72-15.01,25.87-19.47,3.99-4.99,8.97-8.69,14.76-11.35,7.35-4.99,14.71-9.99,22.06-14.98,5.36-5.13,11.4-9.28,18.12-12.42,11.42-7.34,22.65-15.05,35.91-18.91,3.79-3.81,7.41-7.91,13.29-8.43,11.69-7.2,23.4-14.36,36.79-18.1l1.11-1.34,1.52.72c3.3-1.3,6.6-2.59,9.9-3.89,0,0-.06-.05-.14-.11,1.62-1.41,3.03-3.27,4.9-4.18,38.12-18.63,78.05-32.6,121.92-47.95-9.86,19.88-18.09,36.49-26.32,53.09l.36,2.08-1.72,1.22c1.06,8.22-3.23,14.91-6.28,21.96.11,2.39-.42,4.38-3.11,5.05,1.32,8.02-.85,15.33-4.59,22.31-.62,3.25-1.24,6.51-1.86,9.76-.98,5.69-1.95,11.38-2.93,17.06-.36,3.25-.72,6.5-1.08,9.75,1.16,5.73-.21,11.15-1.95,16.54,1.51,2.11,1.27,3.71-1.32,4.65l-.17.4c-.06,1.7-.12,3.41-.18,5.11,1.56,5.83,1.16,11.69.21,17.55-.19,3.17-.39,6.33-.58,9.5,1.88,7.23,1.87,14.49.36,21.77-.02,1.7-.05,3.39-.07,5.09,2.4,6.95,3.79,14.02,2.81,21.41,1.52,3.14,2.57,6.35,1.68,9.89.65,5.89,1.3,11.77,1.95,17.66,2.84,2.63,2.82,5.99,2.37,9.44.86,3.91,1.72,7.82,2.58,11.73,4.31,4.28,2.95,9.68,2.92,14.81,3.66,3.7,4.45,8.41,4.73,13.31.68,1.01,1.48,1.96,1.96,3.06.16.37-.5,1.1-.78,1.67,2.52,10.85,10.79,19.6,11.36,31.16.42,1.45.84,2.89,1.26,4.34,5.4,4.58,7.48,10.95,9.42,17.41,4.57,3.67,6.24,8.99,8.08,14.21,4.25,3.84,6.6,8.86,8.81,13.98,4.39,3.44,6.39,8.4,8.5,13.29,3.27,4.4,6.54,8.81,9.82,13.22,5.19,2.85,7.13,8.02,9.31,13.03,7.3,4.78,12.5,11.57,17.58,18.47,4.05.9,5.33,4,6.03,7.56,9.84,6.48,18.83,13.86,25.33,23.88,2.86-.22,4.29,1.39,4.99,3.92,10.3,4.12,17.87,12.11,26.48,18.62,3.86.12,5.88,1.85,5.2,5.94,14.58,4.48,26.86,13.25,39.55,21.24,8.84,4.38,17.67,8.77,26.51,13.15,13.53,4.73,27.06,9.46,40.59,14.19,14.92,4.26,29.85,8.51,44.77,12.77,52.63,9.66,105.26,7.21,157.88-.14,14.92-4.31,29.83-8.63,44.75-12.94,13.29-4.85,26.58-9.7,39.87-14.55,7.75-3.98,15.49-7.96,23.24-11.94,8.8-4.93,17.61-9.85,26.41-14.78,6.14-4.12,12.28-8.23,18.43-12.35,9.39-7.29,17.99-15.71,29.21-20.37.97-3.47,2.54-6.35,6.62-6.78,7.87-7.27,14.83-15.61,24.5-20.75l.41-1.57,1.57-.39c4.75-9.99,12.45-17.43,20.92-24.21.68-4.63,2.99-8.21,6.91-10.76,3.53-5.54,6.55-11.49,12.37-15.15,2.02-5.14,3.48-10.64,8.7-13.75,1.68-2.82,3.37-5.63,5.05-8.45.79-5.86,4.21-9.95,8.89-13.19,2.67-8.61,5.64-17.06,12.46-23.47-.82-1.72-.32-2.88,1.49-3.47.79-8.4,4-15.77,9.38-22.24-.42-5.06.09-9.85,3.89-13.71.26-4.95,1.51-9.53,4.89-13.33-.03-5.05-.84-10.3,3.52-14.27.47-2.7.95-5.4,1.42-8.11-.92-2.67-.48-4.69,2.58-5.49l.19-.19c-1.1-2.91-.62-5.57,1.21-8.04-.31-5.9-.1-11.71,2.8-17.08-1.08-3.67.67-6.77,2.02-9.96.39-7.73-3.49-15.99,2.92-22.95-.65-1.41-.4-2.64.76-3.69-2.51-7.55-1.79-15.05.37-22.52.02-1.53.04-3.07.06-4.6-2.32-7.47-3.07-14.99-.62-22.59-1.25-1.35-1.22-2.66.06-3.95-3.14-.63-3.25-2.61-2.22-5.1-2.02-5.7-2.38-11.51-1.17-17.43-1.28-3.21-2.47-6.43-1.42-9.97-.93-4.17-1.87-8.33-2.8-12.5-2.63-4.56-1.66-9.63-2.05-14.5-3.98-6.71-4.52-14.04-3.81-21.58-2.97-.53-2.95-2.74-2.83-5.01-3.05-7.04-6.72-13.91-5.8-21.99l-1.62-1.35.62-2.01-.16-.11c-3.19-.43-3.85-2.56-3.56-5.32-1.39-3.09-2.78-6.18-4.17-9.27-6.35-12.82-15.04-24.57-19.46-40.9,34.43,7.13,65.72,17.07,95.48,31.77l.68.13c5.15-1.05,9.37.65,12.89,4.39,12.42,3.51,24.45,7.95,35.52,14.71,5.87.37,9.93,4.07,14.08,7.61,15.79,4.13,30.13,11.53,44.16,19.64,5.18,1.33,9.57,4,13.21,7.91,12.13,3.54,22.71,10.03,32.86,17.34,8.42,2.66,14.72,8.65,21.58,13.75,7.14,3.15,13.52,7.42,19.02,12.98,7.48,2.42,12.65,7.9,17.78,13.43,9,4.13,16.47,10.2,22.66,17.9,5.51,1.41,7.94,6.43,11.67,9.94,7.41,4.78,14.49,9.94,19.32,17.55,4.19.83,5.41,4,6.05,7.64,10.44,4.1,17.1,12.81,24.76,20.3,3.72,1.21,4.75,4.29,5.37,7.67,9.6,3.64,15.97,10.96,21.7,19.02,4.73,3.19,6.43,8.09,7.51,13.33,2.38,5.63,2.76,11.47,1.79,17.45,1.44,2.88,1.6,5.81.33,8.79,2.64,6.1,1.52,12.15-.21,18.2.17,6.49.42,12.99-4.34,18.31-.13,6.04-3.01,10.78-7.11,14.93l-.76,1.83c.1,9.36-4.58,16.57-10.41,23.28-.11,2.1,0,4.33-2.92,4.69-1.04,8.81-6.35,15.31-11.76,21.76-1.79,3.64-2.69,7.97-7.21,9.55-2.67,7.47-7.58,13.25-13.65,18.18-1.34,4.2-3.75,7.42-8.1,8.87-4.4,7.79-10.89,13.56-18.04,18.69-4.13,5.04-8.06,10.3-14.37,12.93-6.89,6.89-14.19,13.24-23.13,17.42-2.41,3.42-5.14,6.46-9.3,7.8-23.96,17.38-47.87,34.85-75.35,46.53-7.16,5.19-14.38,10.26-23.15,12.47-10.1,5.37-20.04,11.09-31.17,14.2-8.78,4.9-17.31,10.31-27.28,12.64-11.9,4.74-23.81,9.49-35.71,14.23-11.33,6.01-22.96,11.25-35.72,13.46-14.54,5.88-29.44,10.61-44.84,13.67-15.06,4.32-30.12,8.63-45.18,12.95-27.99,8.66-56.5,14.85-85.64,18.05-2.47,2.01-5.04,3.16-8.05,1.06-4.48,2.15-9.22,2.69-14.12,2.24-6.93,4.52-14.39,6.66-22.69,5.08-132.89,20.79-265.78,22.16-398.67-.01-8.55,1.52-16.13-.94-23.15-5.68-3.1-.63-6.2-1.26-9.3-1.89-2.9,2.2-5.5,1.38-7.97-.8-30.67-2.81-60.43-10.17-90.07-18.12-10-.08-18.95-3.44-27.29-8.7-2.93-.39-5.85-.79-8.78-1.19-3.88,1.48-7.07.32-9.79-2.58-18.21-2.77-35.69-8.22-52.97-14.43-13.82-3.05-27.27-7.18-40.06-13.33-13.49-4.69-26.99-9.38-40.48-14.07-11.19-2.7-21.5-7.61-31.75-12.66-11.84-4.82-23.68-9.64-35.52-14.46-8.86-1.95-15.6-7.84-23.08-12.36-13.09-3.81-24.9-10.18-35.96-18.04-7.26-.31-11.92-5.53-17.4-9.21-24.76-11.68-46.68-27.67-67.83-44.83-5.86-3.05-9.78-8.05-13.46-13.29-6.38-4.63-11.25-10.45-14.01-17.91-4.69-1.41-5.92-5.61-7.59-9.45-1.81-2.89-3.62-5.78-5.44-8.67-5.81-4.62-6.77-11.55-8.59-18.07-3.23-3.55-5.11-7.68-5.49-12.48-4.93-3.76-3.95-9.13-3.91-14.25-4.23-3.36-4.59-8.16-4.85-13-2.07-2.96-4.67-5.86-.86-9.36-3.75-8.68-5.04-17.64-3.1-26.97-1.09-2.91-1.89-5.84-.51-8.89-1.18-4.61-.37-9.08.95-13.51ZM1733.33,1992.54c-13.42-5.04-29.03.26-43.2-5.83,16.63-8.95,35.51-1.51,52.03-6.6,1.92-9.64-8.6-4.56-9.6-10.71,12.05-3.62,25.64,1.99,41.55-5.71-19.97-6.77-37.48-8.8-55.56-19.21,21.75-7.07,38.76.83,55.53,3.53,15.4,2.48,31.43.46,46.33,6.4,2.72,1.08,6.34.24,7.96-2.48,2.24-3.76-.21-7.23-2.36-10.21-4.11-5.7-10.72-7.97-16.63-10.99-19.3-9.88-38.84-19.29-58.09-29.26-4.74-2.46-11.75-3.04-12.61-13.73,14.15,5.74,26.93,10.9,39.68,16.11,17.26,7.05,34.54,14.07,51.75,21.26,10.54,4.4,18.13,2.71,24.39-7.96,5.21-8.9,10.46-18.17,18.69-25,7.6-6.31,5.79-11.63-.17-18.69-19.7-23.31-38.45-47.42-57.9-70.95-4.54-5.5-7.54-10.97-6.69-18.16,17.19,10.19,26.33,27.94,38.78,42.44,8.73,10.17,17.78,19.96,27.27,29.31,11.49,11.32,17.3,11.51,31.41,3.65,35.58-19.82,72.82-26.28,113.52-18.71,20.09,3.73,38.73,9.56,56.49,18.76,9.78,5.06,19.91,10.9,19.22,24.61,6.72-.6,13.64-.24,10.16-11.07-4.14-12.86-5.03-26.13-3.67-39.81,4.59-45.97,46.94-72.59,78.64-75.15,37.13-2.99,73.69,20.8,86.47,57.92,12.71,36.92-1.76,75.36-37.21,98.81-2.49,1.65-5.01,3.24-7.52,4.85-2.04,3.5-5.22,4.34-8.98,3.83l-.07.02q-16.17,10.59-11.16,28.07c1.03,3.59,1.98,7.22,3.37,10.67,2.71,6.76-.01,9.43-6.64,10.55-12.15,2.05-24.57,3.54-37.41,10.73,41.21,9.79,81.17,4.94,120.47,10.72-17.93,7.82-36.98,3.29-56.49,6.35,17.75,13.91,38.84,3.24,59.93,11.95-21.43,10.03-41.81,1-63.1,7.6,14.54,11.54,27.05,21.27,44.11,24.52,15.7,3,31.06,7.75,46.17,13.81-23.79,7.82-46.55-5.55-70.22-2.15,17.6,15.55,42.89,12.75,63.81,27.34-27.2,3.63-48.79-10.28-72.08-11.26-3.78,13.16,14.21,11.31,12.43,23.37-8.51.35-16.78-1.76-24.95-4.28-3.22-.99-5.9-.86-7.4,2.38-1.47,3.2.02,6.18,2.61,7.75,5.75,3.47,11.96,6.18,17.75,9.57,7.34,4.3,16.34,6.23,22.79,14.47-14.4,2.08-23.54-8.08-35.14-9.81-5.49-.82-11.28-7.31-16.3-.83-4.97,6.41,5.23,9.74,4.81,17.3-22.06,2.46-31.91-23.42-54.84-22.86,17.84,34.21,57.2,45.72,78.41,78.15-16.48.62-21.72-17.07-37.13-15.48.45,15.11,17.6,18.72,22.11,32.04-14.6,4.33-17.47-14.74-30.78-14.34-.95,14.44,16.86,17.66,18.61,33.26-28.88-14.2-47.23-39.09-72.08-59.43-2.36,11.52,2.22,16.6,5.9,21.87,2.97,4.26,6.79,8.02,9.29,12.52,6.67,12,5.04,14.08-11.93,15.1,1.86,21.58,24.69,35.01,23.92,61.03-28.26-25.27-32.21-64.51-64.3-88.8,2.5,26.55,22.26,43.96,18.94,67.7-11.91-1.67-8.17-14.69-16.19-17.71-11.35,7.94,4.17,18.1-3.63,27.59-11.96-10.97-15.75-25.27-20.37-39.92-4.28-13.59-10.45-27.12-20.35-39.12-8.9,10.29,4.13,18.81-2.02,27.1-6.65,2.15-6.37-7.51-14.98-6.71-5.06,30.16,11.39,59.9,6.72,92.2-6.42-3.4-7.15-8.72-8.18-14.07-3.11-16.05-6.44-32.05-9.61-48.08-.78-3.94-2.59-7.68-6.49-8.24-4.83-.7-5.95,3.45-6.03,7.37-.22,11.68-10.65,18.17-12.55,31.66-10.58-14.14-12.46-27.92-13.74-40.43-1.59-15.52-6.81-30.66-5.43-46.55.37-4.2.65-10.15-5.57-10.18-5.11-.02-6.73,4.89-7.58,9.54-6.02,32.9-12.16,65.78-18.1,98.69-.78,4.35-.76,8.81-7.82,13.37-3.43-31.04,9.77-59.07,6.46-91.11-10.71,14.66-8.5,31.28-17.34,43.28-3.05,1.22-3.28-1.12-3.8-3.08-.54-2.04-1.07-4.09-2.04-7.78-13.8,17.67-14.34,39.68-27.2,61.8-1.61-19.56,5.55-32.26,8.39-45.75,3-14.24,9.92-27.65,10.69-45.77-12.5,8.36-14.2,19.34-18.3,29.11-3.84,9.16-3.67,20.74-15.54,27.59-.43-21.65,13.14-38.53,15.36-59.11-10.65.06-13.38,7.32-17.14,13.45-9.96,16.25-9.98,16.12-29.01,13.35-2.6-.38-5.54,2.61-8.3-.75-1.65-5.5,2.96-9.37,4.41-14.17.9-2.97,1.63-6.07-1.61-7.83-2.72-1.48-5.79-1.08-8.43.78-4.33,3.07-8.09,6.64-9.7,11.93-3.73,12.2-13,19.59-22.95,26.4-2.54-13.13,12.3-20.12,11.81-32.08-1.66-3.06-3.97-2.88-6.11-2.21-9.41,2.93-10.92-1.33-7.94-8.95,2.3-5.86,10.26-8.77,9.49-17.39-23.45-1.03-32.44,24.3-55.26,29.79,5.4-11.8,13.53-17.15,19.83-23.91,6.11-6.56,12.84-12.55,18.96-19.11,4.35-4.67,13.03-10.05,7.42-16.39-6.61-7.47-10.53,3.76-15.92,6.15-9.73,4.32-16.56,14.82-30.29,14.66,3.37-14.98,23.88-15.05,23.79-33.33-17.75,4.29-31.66,16.19-52.31,22.23,16.1-21.23,41.09-25.25,54.42-46.35-27.98-3.17-49.35,12.68-73.88,15.79,13.37-13.92,30.85-20.05,49.61-26.71-9.13-15.98-22.7-8.26-34.88-6.04-.62-8.7,5.84-8.99,9.85-10.96,9.36-4.59,19.16-8.27,28.6-12.72,5.18-2.44,10.69-4.16,9.7-12.68-1.22-10.57,12.26-6.26,16.82-15.7-16.53-2.82-29.72,7.43-44.26,8.46-14.45,1.02-28.45,7.09-48.5,7.31,18.58-13.84,36.47-15.7,53.02-18.67,8.78-1.57,11.02-4.95,13.13-11.49,4.73-14.65,3.33-15.57-11.93-15.12-26.89.8-53.81.4-80.72.41-2.21,0-4.24-.88-5.34-6.09,17.28-5.36,35.85-1.52,53.46-5.49,16.94-3.82,35.23-1.69,53.08-4.02-11.82-11.48-27.46-4.13-40.76-9.12ZM1806.71,1783.36c.29-1.44.94-1.11,1.68.89-.63-.31-1.72-.71-1.68-.89ZM1808.43,2242.28c-.34.62-.82,1.82-1,1.77-1.5-.37-1.14-1.06,1-1.77ZM977.59,2441.85c19.96-8.42,41.18-12.84,61.3-20.95,19.51-7.86,39.24-16.99,61.27-15.3-13.09,13.88-155.65,59.35-182.13,60.27,19.53-12.39,40.48-15.97,59.57-24.03ZM1188.13,2496.43c-2.75,2.46-5.84,4.78-9.17,6.33-42.55,19.79-85.17,39.44-127.82,59.01-1.01.46-2.61-.37-4.11-.63.05-7.91,7.12-8.69,11.93-11.22,38.95-20.47,78.02-40.7,117.07-60.98,1.99-1.03,4-2.1,6.11-2.82,2.85-.98,6.06-1.71,8.31.9,3.38,3.92.39,6.98-2.32,9.42ZM1424.75,2614.41c-13.59,13.75-27.33,27.35-41.15,40.88-2.65,2.59-5.83,4.83-10.46-.25,14.35-16.47,26.73-34.8,43.2-49.71,3.33-3.01,7.71-6.14,11.68-2,4.38,4.56-.36,8.14-3.27,11.09ZM2607.84,2664.38c-25.94-13.24-42.5-35.37-58.83-58.66,3.36-1.73,5.24-3.23,5.74-2.87,22.35,16.46,40.27,36.79,53.17,61.44,1.06,1.09,2.13,2.18,3.19,3.28-1.09-1.06-2.19-2.13-3.28-3.19ZM2612.41,2668.86c.63.34,1.74.79,1.69.97-.35,1.46-1.01,1.1-1.69-.97ZM2777.83,2294.98c-4.54,7.48-9.62,14.48-17.2,19.23-2.21,3.75-3.77,8.09-8.59,9.47-4.71,7.2-10.45,13.36-17.94,17.75-3.91,5.14-7.66,10.46-14.09,12.83-5.91,4.63-11.83,9.25-17.74,13.88-5.21,5.5-10.72,10.62-17.9,13.53-6.52,4.78-13.6,8.98-19.42,14.5-6.79,6.44-11.55,1.08-17.04-1.37-4.26,4.68-8.52,9.37-12.78,14.05-6.7,11.37-18.42,14.94-29.75,19.11-2.68,3.95-5.68,7.42-11.04,7.33-11.49,7.3-23.39,13.77-36.48,17.77-7,3.78-13.54,8.64-21.89,9.21-12.85,7.78-26.83,12.94-40.97,17.74-11.3,5.83-22.6,11.64-35.36,13.67-17.52,7.55-35.22,14.57-54.14,17.87-.94,1.67-2.1,2.15-3.63.69-3.28.85-6.56,1.69-9.84,2.54-2.94,5.41-7.69,6.6-13.32,5.72-21.95,8.08-44.48,14.02-67.52,18.05-16.2,5.67-32.71,10.09-49.7,12.62-28.06,6.08-55.98,12.96-84.82,14.45-10.3,3.1-20.7,5.4-31.55,3.39-2.97.2-5.93.4-8.9.6-8.94,1.74-17.89,3.48-26.83,5.21-3.24,2.51-6.49,5.02-9.73,7.53,18.42.97,36.83,1.95,59.64,3.15-23.42,9.03-43.64,7.4-63.8,6.32-78.05,3.33-155.86,2.51-232.8-13.37-21.28-2.62-42.03-7.74-62.73-13.15-21.33-2.88-41.96-8.85-62.72-14.23-14.27-2.24-27.75-7.13-41.13-12.35-21.41-4.17-41.85-11.49-62.17-19.22-6.83-1.09-13.03-3.7-18.62-7.77-17.17-4.07-33.11-11.41-49.17-18.43-10.84-3.34-21.32-7.52-31.11-13.31-15.61-6.65-31.94-11.88-45.47-22.72-5.21,1.36-9.11-1.29-12.91-4.24-12.9-4.4-25.11-10.22-36.52-17.69-4.65.21-7.85-1.51-8.6-6.47-8.89-1.15-16.8-5.08-24.66-8.96-26.23-12.97-52.37-26.14-78.54-39.23-11.38-2.21-19.91-11.36-31.56-12.9-1.92-.69-4.11-1.01-5.69-2.16-1.92-1.4-6.58-1.43-4.79-5.13,1.17-2.43,4.7-2.25,7.34-.59,12.67,5.07,25.58,8.88,39.46,7.85-27.26-21.32-58.99-34.5-89.81-49.35-7.12.13-12.8-2.49-18.14-10.01,8.39-2.18,14.52-.44,20.24,4.08,41.51,13.27,81.36,30.9,121.95,46.61,6.02,2.33,12.98,3.23,17.3,8.97,8.33,1.75,16.51,3.9,23.66,8.81,38.82,15.39,77.65,30.78,116.48,46.18,6.62,1.22,12.49,4.15,18.02,7.87,20.24,3.98,39.19,12,58.52,18.83,6.76.89,12.67,3.61,17.75,8.16,23.93,6.37,47.87,12.74,71.8,19.11,15.16,4.01,30.32,8.01,45.48,12.02,13.17,1.55,26.33,3.11,39.5,4.66,3.61-.97,8.12.05,10.11-4.54-7.39-2.99-14.78-5.99-22.18-8.98-19.98-4.54-39.74-9.78-58.57-18.03-10.58-2.89-21.17-5.77-31.75-8.66-7.69-1.27-15.02-3.26-22.06-9.93,10-5.56,16.76.51,23.97,2.04,18.2,5.9,37.87,5.19,55.76,12.47l1.22.08c9.24-1.57,17.96.32,26.41,3.98,36.34,2.88,72.36,8.63,108.94,9.82,100.74,3.28,201.03-1.77,301.07-13.29,4.42-.51,8.92-.39,13.38-.57,5.4-2.01,10.84-3.72,16.65-1.72,3.21-.57,6.43-1.14,9.64-1.7,5.12-5.14,11.39-5.99,18.18-4.89,35.86-6.35,71.71-12.71,107.57-19.06,8.66-4.03,17.79-6.37,27.21-7.73,23.59-7.29,47.18-14.59,71.46-19.31,11.55-5.56,23.64-9.53,36.11-12.41,14.82-4.9,29.65-9.81,44.47-14.71,8.53-5.37,17.44-9.91,27.31-12.34,11.83-4.88,23.66-9.77,35.49-14.65,8.42-5.49,17.33-9.98,26.96-12.99,11.92-6.61,23.71-13.5,36.68-17.97,3.54-4.07,7.56-7.4,13.1-8.35,12.21-7.84,24.13-16.23,38.27-20.49,1.43-3.08,3.67-5.14,7.15-5.6,11.38-7.36,22.56-15.09,35.53-19.58,2.28-2.86,5.02-4.8,8.91-4.42,6.64-9.59,17.55-12.79,27.08-18.03,1.88-3.01,4.25-5.15,8.15-4.51l.49-.22c25.7-20.49,55.85-30.61,87.45-38.07-17.76,12.26-30.57,29.6-47.63,42.08-6.39,6.06-12.77,12.12-19.16,18.17-1.8,2.44-3.18,5.45-6.98,5.21-.05,4.14-3.15,6.23-5.79,8.65-3.28,7.01-.91,16.3-8.65,21.52ZM2859.43,2148.06c-2.93,9.74-9.63,16.78-17.83,21.89-15.45,9.64-29.09,22.3-51.1,31,14.16-21.58,25.86-39.4,37.55-57.22,4.51-13.54,9.02-27.09,13.52-40.63v-40.18c15.58,8.27,31.39,14.7,31.27,35.6l.06.1c.91.93,1.92,1.79,2.65,2.84.16.23-.65,1.14-1.01,1.73,1.82,17.26-1.65,32.74-15.11,44.85ZM2928.31,2564.52c-11.73-4.53-23.36-8.31-34.38-13.42-34.36-15.95-67.24-34.99-102.42-49.28-2.68-1.09-5.14-2.99-7.31-4.96-2.72-2.47-5.59-5.46-2.82-9.43,2.02-2.89,5.34-2.17,8.16-1.22,2.8.95,5.49,2.3,8.12,3.67,42.11,21.89,84.22,43.81,126.31,65.74,2.62,1.36,5.22,2.83,4.35,8.89ZM3016.14,2456.42c-42.29-11.76-84.07-25.39-125.92-38.67-7.04-2.24-19.91-2.98-15.63-13.6,3.28-8.16,13.29-.22,19.68,1.84,52.44,16.95,104.66,34.54,155.82,55.11,2.42.97,5.75.63,7.03,5.18-14.86.72-27.79-6.19-40.97-9.86ZM3247,2379.29c-82.42-16.99-164.68-34.72-246.98-52.25-3.64-.78-7.19-2-10.76-3.12-5.17-1.62-14.29-.34-11.29-9.5,2.48-7.56,9.8-4.12,15.5-2.77,81.96,19.34,163.91,38.72,245.9,57.94,17.25,4.05,34.62,7.56,52.8,14.91-16.89,3.87-31.02-2.29-45.17-5.21ZM3459.33,1803.96c17.64-2.45,35.41-5.43,53.13-5.52,15.65-.09,30.42-8.72,51.07-2.43-65.05,11.03-125.75,20.77-186.71,29.11-52.24,7.15-104.12,16.97-156.25,25-36.73,5.66-73.64,10.15-110.42,15.44-13.97,2.01-27.83,4.82-41.75,7.21-3.67.63-7.37,1.49-11.05,1.44-4.83-.07-11.9,1.81-11.86-6.03.03-4.85,5.35-7.09,9.99-7.1,21.07-.03,41.18-6.25,61.79-9.21,51.49-7.38,103-14.56,154.53-21.6,36.81-5.03,73.69-9.52,110.49-14.64,25.73-3.58,51.32-8.1,77.04-11.68ZM3276.25,1525.08c2.72-.82,5.76-.58,11.88-1.11-6.96,9.02-15.09,9.17-21.9,11.46-113.22,38.05-226.54,75.81-339.85,113.59-5.65,1.88-11.36,3.8-17.2,4.86-4.14.75-10.11,2.05-11.63-3.29-1.9-6.71,4.23-8.38,9.22-10.04,7.08-2.36,14.14-4.81,21.27-7.05,80.42-25.29,160.83-50.64,241.3-75.79,35.56-11.12,71.24-21.86,106.91-32.65ZM2967.04,1462.39c1.72,4.71-2.5,2.16-4.16,2.96,1.08-1.8,3.85-3.79,4.16-2.96ZM2785.11,1552.39c3.16-1.97,6.48-3.68,9.82-5.34,47.38-23.65,94.76-47.28,142.15-70.92,6.63-3.3,13.18-6.85,20.98-6.08-16.43,16.84-38.85,24.01-58.54,35.46-32.82,19.08-66.85,36.09-100.37,53.97-2.61,1.39-5.09,3.16-7.85,4.09-3.65,1.23-8.1,1.39-10.17-2.08-2.26-3.79.66-7.02,3.99-9.1ZM2547.67,1434.92c18.98-20.51,38.8-40.15,61.08-57.3-.67,12.66-10.16,18.54-16.01,26.86-9.79,13.91-21.83,26.25-33.27,38.95-3.04,3.37-7.56,5.4-11.81,1.54-3.37-3.06-2.53-7.32,0-10.06ZM1368.32,1380.15c2.81.86,6.43.9,8.31,2.72,17.15,16.65,34.08,33.53,50.87,50.55,3.29,3.33,5.26,8.21.74,11.68-3.48,2.68-6.93-.58-9.57-3.21-18.89-18.84-38.02-37.51-50.42-61.67-1.02-1.04-2.04-2.08-3.06-3.12,1.04,1.02,2.08,2.04,3.13,3.05ZM1363.76,1375.66c-.63-.34-1.76-.81-1.72-.99.37-1.49,1.04-1.12,1.72.99ZM1282.42,1770.2c15.09-18.38,34.95-30.99,54.02-44.55,1.78-1.43,3.56-2.86,5.35-4.29,1.41-3.33,3.73-5.3,7.55-5.04l.52-.32c17.72-15.86,37.14-29.2,58.46-39.77,28.71-16.76,57.65-32.77,88.02-46.71,30.45-13.98,62.27-23.51,93.22-35.67,6.82-2.68,13.47-6.21,21.09-6.31,1.6-.32,3.2-.64,4.8-.96,3.68-3.57,8.11-4.65,13.08-3.98,5.61-3.51,11.79-4.96,18.34-5.08,16.22-5.31,32.51-10.36,49.51-12.61,32.71-7.81,65.35-16.03,99.06-18.54,4.02-2.12,8.06-4.11,12.75-2.06,74.6-17.14,150.53-23.51,226.7-28.02,43.31-2.56,86.53-6.77,130-5.48,78.61,2.33,156.72,8.89,233.48,27.06,2.06.49,4.66.26,5.25,3.22,6.94-.15,13.34,1.56,19.08,5.53,20.98,2.08,40.05,10.51,59.42,17.91,11.23,2.47,21.51,7.27,31.45,12.89,11.39,2.68,21.23,8.7,31.2,14.46,8.44,2.51,15.48,7.53,22.48,12.6,11.3,4.86,21.78,11.05,31.06,19.18,5.25,1.22,8.74,5.09,12.64,8.36,34.97,20.37,64.09,48.1,93.86,74.99,4.91,4.43,9.16,9.58,13.72,14.4,3.6,1.51,5.87,4.33,7.6,7.69,6.16,3.07,8.54,9.24,11.96,14.55,6.2,3.22,9.53,9.06,13.27,14.53,4.88,2.77,7.5,7.27,9.46,12.28,5.84,3.29,9.75,8.44,13.38,13.86,5.74,3.04,8.04,8.98,11.63,13.83,3.68,4.28,7.35,8.56,11.03,12.84,5.81,3.1,9.16,8.44,12.52,13.78,5.71,5.16,11.48,10.29,14.15,17.87,2.8.1,4.09,1.72,4.38,4.35,7.79,4.19,13.35,10.74,18.63,17.58,4.36,1.11,5.37,4.42,5.46,8.33,30.02,27.08,60.38,53.81,87.9,83.53,2.75-1.11,4.07.43,5.02,2.68,8.9,4.44,16,10.95,21.91,18.86,4.8.81,6.49,5.02,9.07,8.26,10.28,6.22,20.96,11.96,27.52,22.68l1.66.44.41,1.66c17.68,7.86,31.62,20.93,46.14,33.18,254.25,1.5,508.54-2.79,764.34,6.76-6.44,4.39-12.69,2.4-18.23,2.42-89.07.32-178.23-2.01-267.2,1.07-156.3,5.42-312.59,2.54-468.88,3.75l-.14.06c-16.52,8.15-33.13,6.51-49.78.44-33.65-5.74-64.84-18.47-94.83-34.21-5.87-3.08-14.7-4.1-14.97-13.74h-.09c-15.95-.64-25.71-12.58-37.63-20.58-2.8-.33-4.42-1.46-3.13-4.58-18.54-7.42-30.7-23.17-45.46-35.41-14.78-12.25-28-26.4-41.9-39.71-5.84-2.52-9.03-7.75-12.69-12.49-14.89-13.24-29.78-26.49-44.67-39.73-16.86-13.83-34.94-26.24-49.38-42.85-18.15-13.47-36.29-26.94-54.44-40.41-7.68-4.33-15.35-8.66-23.02-12.99-8.18-4.41-16.36-8.81-28.29-15.24,13.51-3.59,19.7,1.47,26.09,5.72,9.42,6.9,21.76,8.86,30.01,17.75,24.78,13.45,50.27,25.79,71.05,45.48,16.56,6.57,30.65,16.48,41.53,30.74,12.11,4.2,20.77,13.33,30.42,21.09,6.24,5.02,12.95,9.46,19.46,14.16,3.46,2.5,7.17,6.1,11.05,1.26,3.66-4.57-.64-7.89-2.94-11.36-2.25.87-3.49-.1-4.11-2.23-10.18-6.7-19.56-14.32-27.28-23.83-2.79,1.03-3.96-.6-4.75-2.87l-17.58-14.21c-5.7-4.41-11.39-8.82-17.09-13.23-5.11-4.1-10.22-8.2-15.33-12.3-6.96-3.3-12.46-8.52-17.99-13.7-20.61-13.89-41.22-27.79-61.83-41.68-5.66-.91-9.66-4.49-13.45-8.4-13.1-4.21-24.36-11.94-36.07-18.81-2.75-.01-4.38-.98-3.51-4.1-1.98-.99-3.96-1.98-5.94-2.97-1.89,1.71-2.92.77-3.63-1.18-16.02-3.81-30.56-11.31-45.41-18.07l-35.7-13.23c-18.01-4.6-36.03-9.19-54.05-13.79-22.51-4.33-45.02-8.66-67.53-12.99-65.73-6.29-131.46-12.59-197.19-18.88-12.8,1.99-24.77-1.74-36.76-5.31-3-.51-6-1.02-9-1.53-4.6,2.38-8.83.87-13-1.26-37.77-.1-75.54-.19-113.31-.28-14.54,1.99-29.09,3.4-43.75,1.32-7.46,1.96-15.04,2.54-22.71,1.81-17.94,4.23-36.07,6.46-54.54,5.42-57.02,4.32-113.73,11.51-170.43,18.71-14.86,3.72-29.82,6.89-45.13,8.16-16.68,3.69-33.28,7.75-50.05,10.98-43.26,8.34-83.57,25.76-124.76,40.37-14.54,5.16-27.85,13.76-41.73,20.79-2.09,2.13-4.27,4.06-7.62,3.26-.5.85-1.23,1.18-2.2.96-17.29,12.17-34.57,24.35-51.86,36.52-6.05,4.54-12.1,9.08-18.14,13.62-4.54,4.21-9.08,8.43-13.61,12.64-5.82,4.8-11.64,9.61-17.47,14.41-10.04,13.89-21.98,25.83-36.2,35.46-17.43,15.84-33.53,33.28-54.33,45.07-21.07,19.16-46.91,30.65-71.31,44.48-3.18,1.62-6.37,3.25-9.55,4.87-2.34,2.26-4.63,4.62-8.36,3.9l-1.3.44c-41.38,21.54-84.83,36.18-132.24,38.5,28.1-17.17,59-28.56,88.63-42.53,9.05-4.57,18.11-9.13,27.16-13.7,22.14-13.51,44.28-27.02,66.42-40.53l.61-.42c.34-2.67,1.88-3.75,4.5-3.42,18.81-14.27,37.62-28.54,56.43-42.8,9.19-15.18,24.15-23.89,38-33.86,5.02-4.35,10.04-8.7,15.05-13.05,4.6-5.6,8.92-11.52,16.11-14.18,5.16-5.61,10.8-10.62,17.86-13.78,12.33-15.36,29.03-24.98,45.64-34.72,44.82-32.06,92.7-58.33,144.92-76.37,4.55-5.08,10.74-6.86,17.02-8.46,20.39-8.37,41.02-15.95,63.04-18.86,2.42-1.83,4.96-2.89,7.91-1.17,3.28-.58,6.57-1.16,9.85-1.74,2.48-6.32,7.64-6.53,13.22-5.77,31.12-8.93,62.76-15.18,95.02-18.14,10.52-4.83,22.71-2.89,36.22-7.52-17.39-4.96-32.09.3-46.42-2.63-2.82-.04-5.64-.08-8.45-.11-2.62.14-5.24.28-7.86.42-54.95,2.97-107.13,19.69-159.17,35.09-30.35,8.98-60.03,22.14-88.31,37.42-9.15,4.94-18.86,8.87-28.31,13.25-19.48,15.57-41.34,27.48-62.44,40.56-6.34,4.35-12.67,8.7-19.01,13.05-16.5,15.03-34.15,28.61-52.56,41.2-3.4,2.77-6.79,5.55-10.19,8.32-.44,2.04-1.73,3.01-3.8,2.99-.23.87-.79,1.28-1.69,1.24-42.56,38.13-89.79,69.12-141.8,93.01,42.26-30.15,81-64.46,121.12-97.04,5.12-5.62,10.5-10.92,17.66-13.97ZM1072.87,1487.81c37.97,18.95,75.74,38.28,113.52,57.61,4.62,2.36,8.82,5.55,13.22,8.34,3.86,2.44,8.43,5.23,5.9,10.37-2.85,5.79-7.73,2.45-11.46.46-17.1-9.12-34.21-18.23-51.06-27.79-30.44-17.27-60.66-34.93-91.08-52.25-4.59-2.61-9.19-4.88-11.41-10.03,13.15-1.4,21.95,8.09,32.36,13.29ZM1040.34,1474.39c-.64-.32-1.68-.72-1.64-.89.32-1.42.96-1.08,1.64.89ZM742.89,1534.82c61.3,18.56,122.73,36.72,183.89,55.74,52.67,16.37,105.04,33.7,157.53,50.64,4.31,1.39,9.34,3.28,8.03,8.81-1.4,5.94-7.13,4.75-11.09,3.48-21.32-6.83-42.46-14.2-63.73-21.18-87.86-28.85-175.78-57.53-263.57-86.61-8.2-2.72-17.7-3.29-24.2-10.66,4.63-3.13,8.85-1.51,13.13-.21ZM492.23,1799.35c44.21,5,88.2,11.96,132.46,16.9,33.2,3.7,66.14,9.63,99.2,14.53,36.74,5.45,73.46,11.05,110.24,16.24,34.59,4.88,69.24,9.3,103.87,13.94,1.47.2,2.99.42,4.33,1,3.48,1.52,6.83,3.4,5.99,8.04-.68,3.73-4.06,4.34-6.86,4.25-8.18-.26-16.43-.45-24.49-1.73-52.11-8.26-104.16-16.9-156.26-25.23-37.4-5.98-74.69-13.02-112.3-17.15-54.67-6-108.53-17.04-163.03-24.06-16.72-2.16-33.9-3.66-50.22-11.21,19.04-1.56,38.12,2.34,57.06,4.48ZM163.6,2053.35c-4.84-.1-10.57,2.05-17.23-8.36,18.15,0,32.76,0,47.37,0,234.81-.16,469.61-.39,704.42-.38,29.11,0,57.85-6.78,87.06-4.11,5.15.47,10.66-1.19,15.37,1.75,3.92,2.45,6.61,6.33,5.9,11.13-.72,4.83-5.2,4.62-8.81,4.79-5.22.24-10.47.14-15.7.14-170.5-.12-341.06,2.65-511.46-1.47-102.34-2.47-204.62-1.33-306.91-3.48Z"/>
  <g>
    <path class="cls-3" d="M1808.44,2242.27c-2.55-13.14,12.3-20.13,11.8-32.08-1.66-3.06-3.97-2.88-6.11-2.21-9.41,2.93-10.92-1.33-7.94-8.95,2.3-5.86,10.26-8.77,9.49-17.38-23.45-1.03-32.44,24.3-55.26,29.79,5.4-11.8,13.53-17.15,19.83-23.91,6.11-6.56,12.84-12.55,18.96-19.11,4.35-4.67,13.03-10.05,7.42-16.39-6.61-7.47-10.53,3.76-15.92,6.16-9.73,4.32-16.56,14.82-30.29,14.66,3.37-14.98,23.88-15.05,23.79-33.33-17.75,4.29-31.66,16.19-52.31,22.23,16.1-21.23,41.09-25.25,54.42-46.35-27.98-3.17-49.35,12.68-73.88,15.79,13.37-13.92,30.85-20.05,49.61-26.71-9.13-15.98-22.7-8.26-34.88-6.04-.62-8.7,5.84-8.99,9.85-10.96,9.36-4.59,19.16-8.27,28.6-12.72,5.18-2.44,10.69-4.16,9.7-12.68-1.22-10.57,12.26-6.26,16.82-15.7-16.53-2.82-29.72,7.43-44.26,8.46-14.45,1.02-28.45,7.09-48.5,7.31,18.58-13.84,36.47-15.7,53.02-18.67,8.78-1.57,11.02-4.95,13.13-11.49,4.73-14.65,3.33-15.57-11.93-15.12-26.89.8-53.81.4-80.72.41-2.21,0-4.24-.88-5.34-6.09,17.28-5.36,35.85-1.52,53.46-5.49,16.94-3.82,35.23-1.69,53.08-4.02-11.82-11.48-27.46-4.13-40.76-9.12-13.42-5.04-29.03.26-43.2-5.83,16.63-8.95,35.51-1.51,52.03-6.6,1.92-9.64-8.6-4.56-9.6-10.71,12.05-3.62,25.64,1.99,41.55-5.71-19.97-6.77-37.48-8.8-55.56-19.21,21.75-7.07,38.76.83,55.53,3.53,15.4,2.48,31.43.46,46.33,6.4,2.72,1.08,6.34.24,7.96-2.48,2.24-3.76-.21-7.23-2.36-10.21-4.11-5.7-10.72-7.97-16.63-10.99-19.3-9.88-38.84-19.29-58.09-29.26-4.74-2.46-11.75-3.04-12.61-13.73,14.15,5.74,26.93,10.9,39.68,16.11,17.26,7.05,34.54,14.07,51.75,21.26,10.54,4.4,18.13,2.71,24.38-7.96,5.21-8.9,10.46-18.17,18.69-25,7.6-6.31,5.79-11.63-.17-18.69-19.7-23.31-38.45-47.42-57.9-70.95-4.56-5.51-7.56-11-6.68-18.22l-.04.04c17.21,10.19,26.36,27.95,38.81,42.46,8.73,10.17,17.78,19.96,27.27,29.31,11.49,11.32,17.3,11.51,31.4,3.65,35.58-19.82,72.82-26.28,113.52-18.71,20.09,3.73,38.73,9.56,56.49,18.76,9.78,5.06,19.91,10.9,19.23,24.61-10.98,6.11-20.77,13.44-25.98,25.45-5.77-3.41-11.55-6.82-17.31-10.24-38.94-23.13-78.14-21.27-116.99-.31-32.94,17.77-58.71,66.04-45.92,118.68,10,41.13,47.14,76.22,88.52,81.14,61.07,7.26,108.54-25.46,121.31-83.65,4.23-19.29,1.06-38.38-1.76-57.46,30.06-2.49,36.07-7.78,46.66-41.62,22.19,10.75,45.48,11.85,69.29,7.43q-16.17,10.59-11.16,28.07c1.03,3.59,1.98,7.22,3.37,10.67,2.71,6.76-.01,9.43-6.64,10.55-12.15,2.05-24.57,3.54-37.41,10.73,41.21,9.79,81.17,4.94,120.47,10.72-17.93,7.82-36.98,3.29-56.49,6.35,17.74,13.91,38.84,3.24,59.93,11.95-21.43,10.03-41.81,1-63.1,7.6,14.54,11.54,27.05,21.27,44.11,24.52,15.7,3,31.06,7.75,46.17,13.81-23.79,7.82-46.55-5.55-70.22-2.15,17.6,15.55,42.89,12.75,63.81,27.34-27.2,3.63-48.79-10.28-72.08-11.26-3.78,13.16,14.21,11.31,12.43,23.37-8.51.35-16.78-1.76-24.95-4.28-3.22-.99-5.9-.86-7.4,2.38-1.47,3.2.02,6.18,2.61,7.75,5.75,3.47,11.96,6.18,17.75,9.57,7.34,4.3,16.34,6.23,22.79,14.47-14.4,2.08-23.54-8.08-35.14-9.81-5.49-.82-11.28-7.31-16.3-.83-4.97,6.41,5.23,9.74,4.81,17.3-22.06,2.46-31.91-23.42-54.84-22.86,17.84,34.21,57.2,45.72,78.41,78.15-16.48.62-21.72-17.07-37.13-15.48.45,15.11,17.6,18.72,22.11,32.04-14.6,4.33-17.47-14.74-30.78-14.34-.95,14.44,16.86,17.66,18.61,33.26-28.88-14.2-47.23-39.09-72.08-59.43-2.36,11.52,2.22,16.6,5.9,21.87,2.97,4.26,6.79,8.02,9.29,12.52,6.67,12,5.04,14.08-11.93,15.1,1.86,21.58,24.69,35.01,23.92,61.03-28.26-25.27-32.21-64.51-64.3-88.8,2.5,26.55,22.26,43.96,18.94,67.7-11.91-1.67-8.17-14.69-16.19-17.71-11.35,7.94,4.17,18.1-3.63,27.59-11.96-10.97-15.75-25.27-20.37-39.92-4.28-13.59-10.45-27.12-20.35-39.12-8.9,10.29,4.13,18.81-2.02,27.1-6.65,2.15-6.37-7.51-14.98-6.71-5.06,30.16,11.39,59.9,6.72,92.2-6.42-3.4-7.15-8.72-8.18-14.07-3.11-16.05-6.44-32.05-9.61-48.08-.78-3.94-2.59-7.68-6.49-8.24-4.83-.7-5.95,3.45-6.03,7.37-.22,11.68-10.65,18.17-12.55,31.66-10.58-14.14-12.46-27.92-13.74-40.43-1.59-15.52-6.81-30.66-5.43-46.55.37-4.2.65-10.15-5.57-10.18-5.11-.02-6.73,4.89-7.58,9.54-6.02,32.9-12.16,65.78-18.1,98.69-.78,4.35-.76,8.81-7.82,13.37-3.43-31.04,9.77-59.07,6.46-91.11-10.71,14.66-8.5,31.28-17.34,43.28-3.05,1.22-3.28-1.12-3.8-3.08-.54-2.04-1.07-4.09-2.04-7.78-13.8,17.67-14.34,39.68-27.2,61.8-1.61-19.56,5.55-32.26,8.39-45.75,3-14.24,9.92-27.65,10.69-45.77-12.5,8.36-14.2,19.34-18.3,29.11-3.84,9.16-3.67,20.74-15.54,27.59-.43-21.65,13.14-38.53,15.36-59.11-10.65.06-13.38,7.32-17.14,13.45-9.96,16.25-9.98,16.12-29.01,13.35-2.6-.38-5.54,2.61-8.3-.75-1.65-5.5,2.96-9.37,4.41-14.17.89-2.97,1.63-6.07-1.61-7.83-2.72-1.48-5.79-1.08-8.43.78-4.33,3.07-8.09,6.64-9.7,11.93-3.73,12.21-13.01,19.6-22.95,26.41h.01ZM2010.01,2163.44c0-2.33.07-4.56-.01-6.79-.19-5.06.95-11.33-6.67-11.7-8.04-.39-9.77,5.11-9.43,11.87.11,2.23-.1,4.48.14,6.69.9,8.27-1.8,21.48,9.35,20.99,9.44-.42,5.02-13.57,6.63-21.06Z"/>
    <path class="cls-1" d="M1696.38,1564.91c32.71-7.81,65.35-16.03,99.06-18.54,4.61,1.57,9.08,2.23,12.75-2.06,74.6-17.14,150.53-23.51,226.7-28.02,43.31-2.56,86.53-6.77,130-5.48,78.61,2.33,156.72,8.89,233.48,27.06,2.06.49,4.66.26,5.25,3.22-37.29.23-74.58.62-111.87.64-144.4.06-288.81-.1-433.21.15-11.27.02-22.8-3.17-36.26.53,10.33,6.46,19.51,4.2,28.15,4.22,151.14.29,302.28.39,453.42.44,39.62.01,79.24-.29,118.85-.46,20.98,2.08,40.05,10.51,59.42,17.91-5.06,6.43-12.24,4.05-18.61,4.14-21.51.32-43.03.11-64.54.36-8.02.09-16.45-1.47-23.58,4.07-2.65-.39-5.3-.77-7.96-1.16-3.69-3.15-7.86-3.48-12.32-2.1-7.25-.23-14.49-.46-21.74-.69-20.08-5.87-40.59-5.23-61.13-4.03-8.56,2.42-17.11,4-26.18,3.99-176.17-.17-352.33-.1-528.5-.23-7.17,0-15.09,2.4-21.19-3.98Z"/>
    <path class="cls-5" d="M2212.95,1923.8c-23.81,4.41-47.1,3.32-69.29-7.43-10.59,33.84-16.6,39.13-46.67,41.62-24.21-7.43-31.09-24.86-27.83-48.15,5.21-12,15-19.34,25.98-25.45,6.71-.59,13.64-.23,10.15-11.07-4.14-12.86-5.03-26.13-3.67-39.81,4.59-45.97,46.94-72.59,78.64-75.15,37.13-2.99,73.69,20.8,86.47,57.92,12.71,36.92-1.76,75.36-37.21,98.81-2.49,1.65-5.01,3.24-7.53,4.85-3.77-.54-6.41,1.55-8.97,3.83l-.07.02Z"/>
    <path class="cls-1" d="M1214.39,2125.62c-3.75-8.68-5.04-17.64-3.1-26.97,131.66-.04,263.32-.08,394.98-.12,3.66,3.7,4.45,8.42,4.73,13.31-.26.58-.89,1.32-.72,1.72.45,1.08,1.24,2.02,1.9,3.01,2.52,10.85,10.79,19.6,11.36,31.16-134.48.08-268.96.17-403.44.25-4.23-3.36-4.59-8.16-4.85-13,1.37-3.27,1.53-6.44-.86-9.36ZM1603.13,2124.84c0-.98,0-1.97,0-2.95h-379.38c0,.98,0,1.97,0,2.95h379.38Z"/>
    <path class="cls-1" d="M1346.43,2286.94c-24.77-11.68-46.69-27.67-67.83-44.83,6.66-7.4,15.47-3.99,23.24-4.04,59.83-.34,119.66-.16,179.49-.27,65.8-.12,131.6-.39,197.41-.59,7.3,4.78,12.5,11.57,17.58,18.47-6.81,7.04-15.54,3.92-23.39,3.94-109.16.16-218.32,0-327.48.15-7.84.01-16.18-2.17-23.93,2.61,5.65,4.53,11.87,2.82,17.65,2.82,114.4.04,228.79-.03,343.19-.21,6.67-.01,13.33-1.14,20-1.74,9.84,6.48,18.83,13.86,25.33,23.88-127.08-.06-254.17-.12-381.25-.18Z"/>
    <path class="cls-1" d="M2100.64,1627.04c-37.77-.09-75.54-.19-113.31-.28-14.65-1.74-29.28-2.81-43.75,1.32-7.46,1.96-15.04,2.54-22.71,1.81-6.48-5.73-14.31-3.05-21.5-3.06-77.77-.19-155.54-.04-233.31-.25-7.93-.02-16.54,2.75-23.66-3.5,31.12-8.93,62.76-15.18,95.02-18.14,14.91-.1,29.82-.29,44.74-.28,153.38.09,306.76.29,460.14.27,57.58,0,115.15-.52,172.73-.8,18.94,3.31,36.35,10.91,53.58,19.03-7.34,5.65-15.9,3.01-23.85,3.03-99.42.34-198.85.35-298.28.68-7.95.03-16.49-2.72-23.83,2.97-3-.51-6-1.02-9-1.53-4.03-3.57-8.45-3.11-13-1.26Z"/>
    <path class="cls-1" d="M2647.58,2267.88c-23.96,17.38-47.87,34.85-75.35,46.53-106.69-.15-213.39-.23-320.09-.6-8.62-.03-17.96,3.01-25.79-3.56,9.39-7.29,17.99-15.71,29.21-20.37,4.38.74,8.77,2.11,13.15,2.12,107.61.16,215.21.19,322.82.12,2.79,0,6.89,1.39,8.13-5.37-7.72,0-15.07,0-22.42,0-97.14-.04-194.29,0-291.43-.25-7.91-.02-16.52,2.9-23.63-3.41,7.86-7.27,14.83-15.61,24.5-20.75,9.2,4.38,19.05,2.67,28.61,2.69,102.75.2,205.5.16,308.24.36,8.03.02,16.42-2.13,24.03,2.48Z"/>
    <path class="cls-1" d="M2809.35,1824.77c5.72,5.17,11.49,10.29,14.16,17.87-18.32.18-36.73-1.57-54.91,2.67,19.69,3.82,39.48,3.03,59.28,1.68,7.79,4.19,13.35,10.74,18.63,17.58-5.38,7.5-13.41,4.2-20.41,4.93-8.6.9-17.54-1.59-29.13,3.38,20.5,2.63,37.72,3.48,55,.02,30.02,27.08,60.38,53.81,87.89,83.52.59,2.91,2.5,3.37,5.02,2.69,8.9,4.44,16,10.95,21.91,18.86-6.64,4.64-14.22,2.67-21.41,2.77-22.03.28-44.07.07-66.1.39-5.45.08-12.12-2.2-15.3,5.14l-.17.1-1.08-1.45-1.68.68c-18.54-7.42-30.7-23.17-45.46-35.41-14.78-12.25-28-26.4-41.9-39.71,9.41-10.58,22.43-2.62,33.15-6.44,22.92,15.25,46.09,30.14,68.59,45.98,6.25,4.4,12.29,8.2,19.64,9.96,13.64,17.25,21.83-3.08,32.87-3.82-9.7-3.04-19.24-2.69-28.77-.87-13.34-3.33-22.78-12.93-33.26-20.8-19.92-14.95-39.69-30.1-59.59-45.08-2.8-2.11-6.31-4.89-7.32,1.71-12.33,4.1-24.92,6.79-37.99,6.87-14.89-13.25-29.78-26.49-44.68-39.74-3.92-7.79-2.62-12.03,7.18-10.95,2.06.23,4.24-.55,6.36-.86,12.11,4.2,20.77,13.33,30.42,21.09,6.24,5.02,12.95,9.46,19.46,14.16,3.46,2.5,7.17,6.1,11.05,1.26,3.66-4.57-.64-7.89-2.94-11.36-.38-2.57-2.02-2.82-4.12-2.23-10.18-6.7-19.56-14.32-27.28-23.83-.46-2.82-2.35-3.27-4.76-2.87-5.86-4.74-11.72-9.47-17.58-14.21,4.51-5.22,10.67-3.73,16.31-3.76,19.63-.11,39.27.03,58.9.07Z"/>
    <path class="cls-1" d="M1696.14,2538.74c-21.42-4.17-41.86-11.49-62.17-19.22,5.99-4.47,12.94-2.86,19.55-2.87,54.62-.08,109.24.03,163.86-.07,8.14-.02,16.49,1.56,24.38-1.97,14.77.24,29.41,2.1,44.1,3.4,21.74,1.92,43.05,9.55,65.28,5.33,7.66,5.13,9.68,5.35,10,2.33.43-4,1.4-5.15,4.73-4.85,19.52,1.76,38.6-3.54,57.96-3.59,111.99-.32,223.99-.46,335.98-.5,6.42,0,13.6-2.29,18.92,3.79-21.95,8.08-44.48,14.02-67.52,18.05-15.68.06-31.37.18-47.05.18-189.34,0-378.67,0-568.01,0Z"/>
    <path class="cls-5" d="M1642.23,2399.25c-2.93-.4-5.85-.79-8.78-1.19-2.44-4-5.93-4.01-9.8-2.58-18.21-2.77-35.69-8.22-52.97-14.43,6.67-7.29,15.44-4,23.19-4.01,107.29-.22,214.59-.12,321.88-.09,52.64,9.66,105.27,7.21,157.89-.14,1.46.29,2.92.82,4.39.82,108.33-.26,216.66-.59,324.99-.78,5.66,0,12.21-1.97,16.18,4.55-14.54,5.88-29.44,10.61-44.84,13.67-16.4.12-32.81.36-49.22.36-219.02.03-438.04,0-657.06.21-8.62,0-18.03-3.06-25.86,3.61Z"/>
    <path class="cls-1" d="M1776.87,2428.76c-3.1-.63-6.2-1.26-9.3-1.89-2.42-2.63-5.11-2.56-7.97-.8-30.67-2.81-60.43-10.17-90.08-18.12,5.19-6.32,12.4-3.98,18.8-3.98,207.39-.13,414.79-.15,622.18-.05,6.37,0,13.62-2.48,18.68,4.11-27.99,8.66-56.5,14.85-85.64,18.05-2.94-1.59-5.69-1.72-8.05,1.06-4.48,2.15-9.22,2.69-14.12,2.24-6.3-6.06-14.21-3.46-21.36-3.47-134.6-.24-269.19-.28-403.79-.23-6.51,0-13.56-1.99-19.35,3.08Z"/>
    <path class="cls-5" d="M1610.65,1587.54c1.6-.32,3.2-.64,4.8-.96,4.82.2,9.83.98,13.08-3.98,5.61-3.51,11.79-4.96,18.33-5.08,27.57-.08,55.15-.23,82.72-.22,174.65.06,349.31.21,523.96.11,10.11,0,21.1,2.89,29.91-5.28,2.6.56,5.2,1.12,7.8,1.67,6.56,4.7,13.71,4.79,21.14,2.75,22.93,1.71,44.68,8.48,66.37,15.52-6.94,6.66-15.63,3.89-23.54,3.9-177.33.16-354.67,1.13-531.98-.82-31.73-.35-63.73-4.78-95.77-3.91-3.37-.04-6.53.43-8.71,3.42-2.62.14-5.24.28-7.86.42-32.75.2-65.51.36-98.26.64-12.77.11-3.81-4.85-2.01-8.18Z"/>
    <path class="cls-1" d="M2401.88,2512.25c-3.28.85-6.56,1.69-9.84,2.54-7.07-6.42-15.72-3.34-23.56-3.35-139.65-.22-279.3-.17-418.96-.15-5.93,0-11.99-.84-17.58,2.12-5.39,1.04-10.72,1.07-15.91-.98-5.06-7.55-12.04-5.57-18.98-3.82-30.08-1.71-59.46-7.52-88.5-15.25,4.8-6.97,12.12-4.46,18.46-4.47,84.98-.06,169.97.03,254.95.27,6.32.02,13.67-2.54,18.38,4.58-18.04,6.55-38.36,2.95-59.9,13.2,16.88,0,29.58.08,42.29-.01,68.91-.53,137.34-6.3,205.1-19.16,3.85,2.01,7.3,1.86,10.09-1.87,4.48-1.1,8.95-2.2,13.43-3.3,4.03,9.41,12.55,6.1,19.29,6.16,36.23.32,72.46-.05,108.68.26,6.9.06,15.03-3.16,20.33,4.68-17.52,7.55-35.22,14.57-54.14,17.87-1.51-1.33-2.74-1.23-3.63.69Z"/>
    <path class="cls-3" d="M146.38,2044.98c18.15,0,32.76,0,47.37,0,234.81-.16,469.61-.39,704.42-.38,29.11,0,57.85-6.78,87.06-4.11,5.15.47,10.66-1.19,15.37,1.75,3.92,2.45,6.61,6.33,5.9,11.13-.72,4.83-5.2,4.62-8.81,4.79-5.22.24-10.47.14-15.7.14-170.5-.12-341.06,2.65-511.46-1.47-102.34-2.47-204.62-1.33-306.91-3.48-4.84-.1-10.57,2.05-17.23-8.36Z"/>
    <path class="cls-1" d="M1624.8,2152.07c5.4,4.58,7.48,10.95,9.42,17.41-4.45,7.19-11.73,5.31-18.16,5.31-128.85.04-257.71-.03-386.56-.08-3.23-3.55-5.11-7.68-5.49-12.48,3.24-13.17,14.02-8.73,22.09-8.75,112.06-.25,224.13-.15,336.19-.26,14.17-.01,28.34-.75,42.51-1.15Z"/>
    <path class="cls-1" d="M2365.46,2147.95c.79-8.4,4-15.78,9.37-22.24,126.1.12,252.2.24,378.3.29,4.44,0,8.89-.83,13.33-1.28.1,9.36-4.58,16.57-10.42,23.27-130.2-.01-260.39-.03-390.59-.04Z"/>
    <path class="cls-1" d="M2774.33,2107.96c-.13,6.04-3.01,10.78-7.11,14.93-8.56-3.74-17.64-2.39-26.5-2.4-111.84-.08-223.68-.02-335.52,0-5.96,0-11.93-.18-17.89-.08-5.83.1-7.28-4.02-8.57-8.41.26-4.95,1.51-9.53,4.89-13.33,122.35.03,244.7.06,367.05.1,5.22,0,10.44.15,15.66.21,5.98.06,6.68,4.79,8.01,8.99Z"/>
    <path class="cls-1" d="M2753.14,2152.68c-1.04,8.81-6.35,15.31-11.76,21.76-5.97.2-11.93.58-17.9.58-123.99-.02-247.97-.08-371.96-.13,2.67-8.61,5.64-17.06,12.46-23.47,4.42.54,8.84,1.55,13.26,1.55,125.3-.03,250.6-.17,375.9-.28Z"/>
    <path class="cls-1" d="M2145.13,2569.02c-2.97.2-5.93.4-8.9.6-3.58-3.41-8.09-3.26-12.56-3.27-107.89-.34-215.79-.68-323.68-1.02-21.33-2.89-41.96-8.85-62.73-14.23,6.93-6.59,15.6-3.95,23.52-3.96,159.86-.18,319.72-.2,479.58-.12,7.19,0,15.12-2.4,21.13,4.16-28.06,6.08-55.98,12.96-84.82,14.45-10.74-.96-21.58-2.84-31.55,3.39Z"/>
    <path class="cls-1" d="M2680.01,2242.66c-6.89,6.89-14.19,13.24-23.13,17.42-9.66-.16-19.32-.48-28.98-.46-113.08.23-226.15.5-339.23.77,4.75-9.99,12.45-17.43,20.92-24.21,8.78,2.72,17.81,1.66,26.74,1.66,106.18.06,212.36-.08,318.53.19,8.41.02,18.07-3.79,25.14,4.63Z"/>
    <path class="cls-1" d="M1732.67,2291.04c10.3,4.12,17.87,12.11,26.48,18.62-7.51,7.4-16.99,4.02-25.51,4.05-111.28.36-222.57.37-333.85.47-13.09-3.81-24.9-10.18-35.96-18.04,7.05-6.4,15.69-3.61,23.6-3.63,106.14-.24,212.28-.2,318.43-.33,8.94-.01,17.87-.74,26.81-1.14Z"/>
    <path class="cls-1" d="M1758.78,2462.14c36.34,2.88,72.36,8.63,108.94,9.82,100.74,3.28,201.03-1.77,301.07-13.29,4.42-.51,8.92-.39,13.37-.57,5.77,1.59,11.49,2.58,16.66-1.72,3.21-.57,6.43-1.14,9.64-1.7,6.01,6.33,13.8,3.51,20.8,3.63,21.25.37,42.51.08,63.77.17,3.82.02,3.81.28.23,7.74-35.19,6.03-70.31,12.54-105.94,15.59-3.98-2.13-7.67-2.24-10.78,1.57-5.87.68-11.74,1.35-17.61,2.03-6.2-8.39-15.17-4.51-22.83-4.54-124.1-.42-248.19-.52-372.29-.69-19.98-4.54-39.74-9.78-58.57-18.03,7.44-8.97,17.74.22,25.92-4.08,0,0,1.22.08,1.22.08,8.16,5.55,17.19,5.43,26.41,3.98Z"/>
    <path class="cls-1" d="M2747.55,2012.85c9.61,3.64,15.98,10.97,21.71,19.02-6.24,6.13-14.1,3.55-21.25,3.56-116.88.15-233.77.11-350.65.1.39-7.73-3.49-15.99,2.92-22.95,5.93.49,11.87,1.41,17.8,1.41,105.38.11,210.77.12,316.15.08,4.44,0,8.88-.8,13.32-1.22Z"/>
    <path class="cls-3" d="M3051.6,2044.21c254.25,1.5,508.54-2.79,764.34,6.76-6.44,4.39-12.69,2.4-18.23,2.42-89.07.32-178.23-2.01-267.2,1.07-156.3,5.42-312.59,2.54-468.88,3.75-.51-3.66-3.34-4.44-6.28-4.9-6.35-.99-6.72-4.33-3.74-9.1Z"/>
    <path class="cls-1" d="M1242.26,2035.67c6.8-9.85,14.85-18.3,25.96-23.36,4.4.58,8.81,1.67,13.21,1.67,103.51-.06,207.02-.24,310.53-.4,2.4,6.95,3.79,14.03,2.81,21.42-8.23.19-16.45.54-24.68.54-109.28.07-218.56.1-327.84.13Z"/>
    <path class="cls-1" d="M2401.03,2008.89c-2.51-7.55-1.79-15.05.37-22.52,100.18.14,200.36.31,300.54.34,5.16,0,10.32-1.19,15.48-1.82,10.44,4.1,17.1,12.81,24.77,20.3-8.06,5.89-17.32,3.1-25.99,3.13-105.05.35-210.11.43-315.16.58Z"/>
    <path class="cls-5" d="M1265.13,2228.81c-6.38-4.63-11.25-10.45-14.01-17.91,136.16.02,272.33.04,408.49.06,3.27,4.41,6.55,8.81,9.82,13.22-3.79,6.5-10.23,5.17-16.03,5.16-129.42-.13-258.85-.34-388.27-.53Z"/>
    <path class="cls-5" d="M1243.53,2201.45c-1.81-2.89-3.62-5.78-5.44-8.67.88-11.4,9.45-9.31,16.62-9.3,129.2.04,258.39.13,387.59.21,4.25,3.84,6.6,8.86,8.81,13.98-3.63,5.11-9.12,4.28-14.23,4.27-131.12-.14-262.23-.32-393.35-.49Z"/>
    <path class="cls-1" d="M1591.68,1986.71c1.88,7.23,1.87,14.49.36,21.77-98.33,0-196.67.08-295-.16-7.77-.02-16.52,3.23-23.21-3.99,7.38-7.85,14.92-15.49,25.15-19.69,8.65,3.35,17.69,2.01,26.57,2.02,88.71.1,177.42.05,266.13.05Z"/>
    <path class="cls-5" d="M2337.57,2196.53c1.68-2.82,3.37-5.63,5.05-8.45,5.91-3.6,12.25-4.85,19.22-4.83,124.11.34,248.22.52,372.33.74-2.67,7.47-7.58,13.25-13.65,18.17-119.4-.02-238.79.05-358.19-.23-8.35-.02-18.2,3.95-24.76-5.4Z"/>
    <path class="cls-5" d="M1600.78,2071.99c.86,3.91,1.72,7.82,2.58,11.73-4.25,7-11.22,6.33-17.94,6.33-124.88-.09-249.76-.19-374.64-.29-1.18-4.61-.37-9.08.95-13.51,5.8-4.14,12.4-4.44,19.23-4.43,123.27.11,246.55.13,369.82.17Z"/>
    <path class="cls-5" d="M2387.14,2084.4c.47-2.7.95-5.4,1.42-8.11,2.26-1.17,3.48-2.84,2.58-5.49,0,0,.19-.19.19-.19,4.46.36,8.92,1.04,13.38,1.04,124.73-.03,249.45-.12,374.18-.2,2.64,6.1,1.52,12.15-.21,18.2-125.27.21-250.54.41-375.81.62-5.96,0-12.13.51-15.72-5.87Z"/>
    <path class="cls-1" d="M1192.96,2219.73c11.86,18.79,32.31,29.58,46.36,49.63-32.52-14.42-64.22-24.62-96.16-33.75-34.6-9.89-70.12-12.62-105.98-7.12-5.09.78-8.94,2.2-13.13,6.47-13.13,13.39-28.24,17.41-34.66,11.24-8.49-8.16-8.32-25.77.4-40.77,28.34,3.77,56.79,1.06,85.19,1.41,0,0,1.57.35,1.57.35,7.47,6.72,16.57,4.36,25.15,4.29,21.29-.16,42.58-.55,63.86-.99,8.15-.17,16.16.09,23.51,4.21,0,0,.19.25.18.25-.18,2.68,1.27,4.11,3.7,4.77Z"/>
    <path class="cls-1" d="M1386.44,1735.45c44.82-32.06,92.7-58.33,144.92-76.37,32.6.02,65.2-.05,97.81.13,7.27.04,14.92-1.76,21.6,2.96-16.68,3.69-33.28,7.75-50.05,10.98-43.26,8.34-83.57,25.76-124.76,40.37-14.54,5.16-27.85,13.76-41.73,20.79-3.33-.75-6.21-.46-7.62,3.26-.5.85-1.23,1.18-2.2.96-12.55-2.33-25.85,4.5-37.97-3.09Z"/>
    <path class="cls-5" d="M2392.54,2062.58c-.31-5.9-.1-11.71,2.8-17.08,7.44-.46,14.88-1.32,22.32-1.32,105.5-.03,211,.02,316.51.15,14.2.02,28.4.58,42.6.89,2.38,5.63,2.76,11.47,1.79,17.45-128.67-.03-257.34-.06-386.02-.09Z"/>
    <path class="cls-5" d="M2316.5,2225.42c3.53-5.54,6.55-11.49,12.37-15.15,8.21.19,16.43.53,24.65.53,119.63.1,239.27.16,358.9.23-4.39,7.79-10.89,13.56-18.04,18.69-118.15-.1-236.31-.15-354.46-.44-7.86-.02-16.59,3.17-23.42-3.87Z"/>
    <path class="cls-1" d="M1219.11,2062.54c3.82-9.61,10.08-17.16,18.97-22.5,28.75,5.05,57.79,4.2,86.79,4.18,33.52-.02,67.04.45,100.55-.2,53.53-1.05,107.14,3.21,160.62-2.45,3.32-.35,6.95,2.15,10.43,3.32.65,5.89,1.3,11.77,1.95,17.66-126.43,0-252.87,0-379.3,0Z"/>
    <path class="cls-1" d="M2401.46,1981.76c-2.32-7.47-3.07-14.99-.62-22.59,97.07.17,194.13.35,291.2.52,7.42,4.78,14.49,9.94,19.33,17.56-7.76,6.75-17.15,3.7-25.77,3.74-94.71.45-189.43.57-284.14.78Z"/>
    <path class="cls-1" d="M1764.36,2315.6c14.58,4.48,26.86,13.25,39.55,21.24-6.01,6.64-13.98,3.94-21.09,3.95-108.14.2-216.28.18-324.43.2-11.84-4.82-23.68-9.64-35.53-14.46,6.86-6.96,15.59-3.8,23.45-3.82,97.99-.27,195.97-.14,293.96-.5,8.25-.03,18.4,3.95,24.08-6.62Z"/>
    <path class="cls-4" d="M2329.18,2408.03c-5.06-6.59-12.31-4.1-18.68-4.11-207.39-.1-414.79-.08-622.18.05-6.4,0-13.61-2.33-18.8,3.98-9.99-.08-18.95-3.44-27.29-8.7,7.83-6.67,17.24-3.6,25.86-3.61,219.02-.22,438.04-.17,657.06-.21,16.41,0,32.81-.23,49.22-.36-15.06,4.32-30.12,8.64-45.18,12.95Z"/>
    <path class="cls-1" d="M2198.68,2434.46c-132.89,20.79-265.78,22.16-398.67-.01,8.29-4.94,17.46-2.94,26.23-2.95,116.91-.17,233.82-.17,350.74-.11,7.32,0,14.98-1.52,21.7,3.08Z"/>
    <path class="cls-1" d="M1619.09,2457.92c23.93,6.37,47.87,12.74,71.81,19.11-5.04,4.33-11.19,3.53-17.09,3.51-46.25-.13-92.49-.34-138.74-.52-15.62-6.65-31.95-11.88-45.47-22.72-2.93-5.61-7.86-5.1-12.91-4.24-12.9-4.4-25.11-10.22-36.52-17.69,5.91-6.64,13.79-3.84,20.83-3.95,27.27-.44,54.55-.36,81.82-.48,20.25,3.98,39.2,12,58.53,18.83-7.27,5.8-15.84,3.21-23.83,3.32-25.23.34-50.46.12-75.7.12,38.93,12.55,78.19,4.4,117.27,4.71Z"/>
    <path class="cls-1" d="M2356.6,1654.03c-65.73-6.29-131.46-12.59-197.2-18.88,9.75-5.36,20.4-3.24,30.65-3.24,87.09-.06,174.17.21,261.26.17,9.52,0,19.42,1.98,28.47-3.06,20.04,3.78,38.18,12.5,56.14,21.67-7.24,5.7-15.72,3.19-23.65,3.22-51.89.21-103.78.12-155.67.12Z"/>
    <path class="cls-5" d="M1530.63,2367.73c-13.49-4.69-26.99-9.38-40.48-14.07,3.92-4.62,9.32-3.9,14.47-3.9,108.6.06,217.2.15,325.8.23,13.53,4.73,27.06,9.46,40.59,14.19-4.65,5.25-10.93,3.88-16.71,3.87-107.89-.06-215.77-.2-323.66-.33Z"/>
    <path class="cls-1" d="M1592.05,1959.67c1.56,5.83,1.16,11.69.21,17.55-7.43,4.65-15.73,3.89-23.92,3.89-80.63.02-161.26.12-241.88-.02-7.17-.01-15.08,2.46-21.23-3.83,6.95-8.4,14.85-15.59,25.18-19.66,7.86,3.45,16.19,2.11,24.32,2.12,79.11.07,158.22,0,237.33-.04Z"/>
    <path class="cls-1" d="M2181.51,2337.38c8.8-4.93,17.61-9.86,26.41-14.78,106.73,0,213.46-.07,320.19.09,7.09.01,15.12-2.78,20.96,4.2-10.1,5.37-20.04,11.09-31.16,14.2-103.56.05-207.11.19-310.67,0-8.59-.02-17.98,3.08-25.73-3.71Z"/>
    <path class="cls-5" d="M2490.63,2353.72c-11.9,4.74-23.81,9.49-35.71,14.23-105.96.13-211.92.29-317.89.28-6.4,0-13.66,2.26-18.64-4.37,13.29-4.85,26.58-9.7,39.87-14.55,103.03.06,206.07.05,309.11.33,7.8.02,16.58-3.29,23.25,4.07Z"/>
    <path class="cls-1" d="M1610.65,1587.54c-1.8,3.32-10.77,8.29,2.01,8.18,32.76-.28,65.51-.43,98.26-.64-54.96,2.97-107.14,19.69-159.17,35.09-30.35,8.98-60.03,22.14-88.31,37.42-9.15,4.94-18.86,8.87-28.31,13.25-8.87-1.94-19.19,4.56-26.82-4.61,28.71-16.76,57.65-32.77,88.02-46.71,30.45-13.98,62.27-23.51,93.22-35.67,6.82-2.68,13.47-6.21,21.1-6.31Z"/>
    <path class="cls-1" d="M2657.71,1931.85c9.01,4.13,16.48,10.21,22.67,17.91-6.7,7-15.37,4.21-23.21,4.24-57.2.2-114.41-.05-171.61.1-28.21.07-56.41.71-84.62,1.09,0,0,.04.06.04.06,1.22-2.59.38-4.26-2.29-5.12-2.02-5.7-2.37-11.51-1.17-17.43,9.72-.08,19.44-.21,29.16-.24,77.01-.21,154.03-.41,231.04-.61Z"/>
    <path class="cls-4" d="M1727.49,1591.25c32.05-.87,64.05,3.56,95.77,3.91,177.31,1.94,354.65.98,531.98.82,7.91,0,16.6,2.77,23.54-3.9,12.71,2.11,24.54,6.9,36.25,12.04-57.58.28-115.15.79-172.73.8-153.38.02-306.76-.18-460.14-.27-14.91,0-29.83.18-44.74.28,10.52-4.83,22.71-2.89,36.23-7.52-17.39-4.96-32.09.3-46.42-2.63-.14-1.19-.06-2.37.26-3.53Z"/>
    <path class="cls-4" d="M2283.46,1572.12c-8.82,8.18-19.81,5.28-29.92,5.29-174.65.1-349.31-.05-523.96-.11-27.58,0-55.15.14-82.72.22,16.23-5.31,32.51-10.36,49.52-12.61,6.1,6.38,14.02,3.97,21.19,3.98,176.17.13,352.33.06,528.5.23,9.07,0,17.62-1.58,26.18-3.99,2.31,4.61,9.19,1.91,11.21,7Z"/>
    <path class="cls-1" d="M1595.67,1932.97c1.16,5.73-.21,11.15-1.95,16.54-.44,1.55-.88,3.1-1.32,4.65,0,0-.17.4-.17.4-76.28-.14-152.56-.2-228.84-.54-8.75-.04-17.99,2.65-26.2-2.92,7.79-7.6,15.72-15.01,25.86-19.47,8.93.24,17.87.64,26.8.68,68.6.26,137.21.45,205.81.66Z"/>
    <path class="cls-4" d="M2261.5,2551.17c-6.01-6.56-13.95-4.16-21.13-4.16-159.86-.09-319.72-.06-479.58.12-7.92,0-16.59-2.63-23.52,3.96-14.27-2.24-27.75-7.13-41.12-12.35,189.34,0,378.67.01,568.01,0,15.69,0,31.37-.12,47.05-.18-16.2,5.67-32.71,10.09-49.7,12.62Z"/>
    <path class="cls-3" d="M435.17,1794.87c19.04-1.56,38.12,2.34,57.06,4.48,44.21,5,88.2,11.96,132.46,16.89,33.2,3.7,66.14,9.63,99.2,14.53,36.74,5.45,73.46,11.05,110.24,16.24,34.59,4.88,69.24,9.3,103.87,13.94,1.47.2,2.99.42,4.33,1,3.48,1.52,6.83,3.4,5.99,8.04-.68,3.73-4.06,4.34-6.86,4.25-8.18-.26-16.43-.45-24.49-1.73-52.11-8.26-104.16-16.9-156.26-25.23-37.4-5.98-74.69-13.02-112.3-17.15-54.67-6-108.53-17.04-163.03-24.06-16.72-2.16-33.9-3.66-50.22-11.21Z"/>
    <path class="cls-1" d="M1431.56,2428.89c-8.89-1.15-16.8-5.08-24.65-8.96-26.23-12.97-52.37-26.14-78.54-39.23,4.28-5.76,10.56-4.1,16.21-4.11,21.25-.05,42.49.17,63.74.29,38.83,15.39,77.66,30.79,116.49,46.18-23.14,5.65-46.68.85-69.96,2.66-7.79.61-16.21-2.79-23.28,3.17Z"/>
    <path class="cls-3" d="M3563.53,1796c-65.05,11.03-125.75,20.77-186.71,29.11-52.24,7.15-104.12,16.97-156.25,25-36.73,5.66-73.64,10.15-110.42,15.44-13.97,2.01-27.83,4.82-41.75,7.21-3.67.63-7.37,1.49-11.05,1.44-4.83-.07-11.9,1.81-11.86-6.03.03-4.85,5.35-7.09,9.99-7.1,21.07-.03,41.18-6.25,61.79-9.2,51.49-7.38,103-14.56,154.53-21.6,36.81-5.03,73.69-9.52,110.49-14.64,25.72-3.58,51.32-8.1,77.04-11.68,17.64-2.45,35.41-5.43,53.13-5.52,15.65-.09,30.42-8.72,51.07-2.43Z"/>
    <path class="cls-1" d="M1548.38,1650.62c20.39-8.37,41.02-15.95,63.04-18.86,2.92,1.52,5.64,1.66,7.91-1.17,3.28-.58,6.57-1.16,9.85-1.74,6.44,5.66,14.24,3.04,21.38,3.05,62.5.12,124.99-.19,187.49-.07,9.47.02,19.42-2.22,28.27,3.48-57.02,4.32-113.73,11.51-170.43,18.71-41.33.02-82.67.16-124-.07-7.88-.04-16.35,2.43-23.51-3.33Z"/>
    <path class="cls-1" d="M2610.94,1632.03c34.98,20.38,64.1,48.1,93.87,74.99,4.91,4.43,9.16,9.58,13.72,14.4-10.86-4.29-20.94-3.54-29.86,4.63-3.5-3.08-7.01-6.15-10.51-9.23-11.52-7.41-23.03-14.82-34.55-22.22-3.37-6.32-9.7-8.89-15.47-12.14-27.65-15.56-55.32-31.1-82.98-46.65,3.85-4.95,9.36-3.69,14.43-3.72,17.12-.11,34.24-.05,51.35-.06Z"/>
    <path class="cls-1" d="M1615.35,2511.75c-17.17-4.07-33.11-11.41-49.17-18.43,6.53-7.52,15.32-4.16,23.05-4.21,49.05-.31,98.1-.11,147.15-.08,13.17,1.55,26.33,3.11,39.47,4.66,7.54,3.75,15.87,3.6,23.95,4.94,17.64,2.92,35.7,4.29,54.34,11.28-5.21,3.56-8.8,3.53-12.43,3.3-3.64-.68-7.28-1.97-10.92-1.96-71.81.07-143.62.3-215.43.49Z"/>
    <path class="cls-1" d="M3051.6,2044.21c-2.98,4.77-2.6,8.11,3.74,9.1,2.94.46,5.77,1.25,6.28,4.9,0,0-.14.06-.14.06-16.59.15-33.18.29-49.78.44-33.65-5.74-64.84-18.47-94.83-34.21-5.87-3.08-14.7-4.1-14.97-13.74,34.5,5.76,69.02,4.78,103.54.26,17.68,7.86,31.62,20.94,46.14,33.19Z"/>
    <path class="cls-1" d="M2738.07,1743.66c6.2,3.22,9.53,9.07,13.27,14.53-2.98,10.55-11.75,6.94-18.52,7.13-20.92.6-41.85.66-62.78.93.03,1.4.07,2.81.1,4.21h90.65c5.84,3.29,9.75,8.44,13.38,13.86-4.58,6.9-11.75,4.72-18.02,4.78-24.14.23-48.29.11-72.43.12-20.61-13.89-41.22-27.79-61.83-41.68,6.34-5.57,14.05-3.29,21.19-3.38,31.66-.37,63.33-.38,94.99-.52Z"/>
    <path class="cls-1" d="M2391.23,1895.73c-3.98-6.71-4.52-14.04-3.81-21.58,59.68.07,119.37.13,179.05.2,12.14,3.54,22.72,10.03,32.87,17.34-2.44,4.83-6.99,5.03-11.48,5-65.54-.3-131.09-.64-196.63-.97Z"/>
    <path class="cls-3" d="M3288.13,1523.98c-6.96,9.02-15.09,9.17-21.9,11.46-113.22,38.05-226.54,75.81-339.85,113.59-5.65,1.88-11.36,3.8-17.2,4.86-4.14.75-10.11,2.05-11.62-3.29-1.9-6.71,4.23-8.38,9.22-10.04,7.08-2.36,14.14-4.81,21.27-7.05,80.42-25.29,160.83-50.64,241.3-75.79,35.56-11.12,71.24-21.86,106.91-32.65,2.72-.82,5.76-.58,11.88-1.11Z"/>
    <path class="cls-5" d="M2620.92,1905.44c7.14,3.15,13.52,7.41,19.02,12.98-4.33,7.51-11.73,5.13-18.07,5.22-19.38.26-38.76.15-58.14.06-55.88-.29-111.76-.64-167.64-.96-.93-4.17-1.87-8.33-2.8-12.5,5.33-5.2,11.99-5.2,18.84-5.18,69.6.2,139.2.28,208.79.4Z"/>
    <path class="cls-1" d="M1418,1892.87c11.42-7.34,22.65-15.05,35.91-18.91,50.74,1.43,101.48,1.69,152.22.13,1.32,8.02-.85,15.33-4.59,22.31-55.62.09-111.24.21-166.86.22-5.77,0-12.02,1.45-16.69-3.74Z"/>
    <path class="cls-3" d="M729.76,1535.03c4.63-3.13,8.85-1.51,13.13-.21,61.3,18.56,122.73,36.72,183.89,55.74,52.67,16.37,105.04,33.7,157.53,50.64,4.31,1.39,9.34,3.28,8.03,8.81-1.4,5.94-7.13,4.75-11.09,3.48-21.32-6.83-42.46-14.2-63.73-21.18-87.86-28.85-175.78-57.53-263.57-86.61-8.2-2.72-17.7-3.29-24.2-10.66Z"/>
    <path class="cls-5" d="M1377.82,1920.28c7.35-4.99,14.71-9.99,22.05-14.98,66.6.29,133.2.57,199.8.86-.98,5.69-1.95,11.38-2.93,17.07-68.78.14-137.55.29-206.33.43-4.51,0-9.01.02-12.6-3.38Z"/>
    <path class="cls-4" d="M1642.3,2183.69c-129.2-.08-258.39-.17-387.59-.21-7.17,0-15.74-2.1-16.62,9.3-5.81-4.62-6.77-11.55-8.59-18.07,128.85.05,257.71.12,386.56.08,6.43,0,13.7,1.88,18.16-5.31,4.57,3.67,6.24,8.99,8.08,14.21Z"/>
    <path class="cls-4" d="M1265.13,2228.81c129.42.19,258.85.4,388.27.53,5.8,0,12.23,1.34,16.03-5.16,5.19,2.85,7.13,8.02,9.31,13.03-65.8.2-131.61.47-197.41.59-59.83.11-119.66-.07-179.49.27-7.77.04-16.58-3.36-23.24,4.04-5.86-3.05-9.78-8.05-13.46-13.29Z"/>
    <path class="cls-4" d="M1243.53,2201.45c131.12.17,262.23.36,393.35.49,5.11,0,10.6.83,14.23-4.27,4.39,3.44,6.4,8.4,8.5,13.29-136.17-.02-272.33-.04-408.5-.06-4.69-1.41-5.92-5.61-7.59-9.45Z"/>
    <path class="cls-3" d="M658.38,2391.54c24.96-6.25,49.87-12.74,74.9-18.7,85.37-20.3,170.79-40.41,256.19-60.6.72-.17,1.4-.55,2.12-.73,5.56-1.38,13.23-4.71,14.93,2.89,1.74,7.76-6.66,7.93-12.36,9.2-66.03,14.74-132.04,29.58-198.08,44.28-31.17,6.94-62.27,14.27-93.64,20.14-14.31,2.68-28.64,7.18-44.05,3.51Z"/>
    <path class="cls-5" d="M2684.38,2381.68c-6.52,4.78-13.6,8.98-19.42,14.5-6.79,6.44-11.55,1.08-17.03-1.37-21.05-.39-42.19,3.16-63.14-2.21-6.62-1.7-12.91.51-17.59,5.98-2.89.57-5.78,1.13-8.66,1.7-3.75-6.52-10.18-4.73-15.78-4.8-18.37-.22-36.75.02-55.12-.21-6.39-.08-13.4,1.9-18.63-3.98,14.82-4.9,29.65-9.81,44.47-14.71,49.29.15,98.59.13,147.88.63,7.72.08,16.62-3.34,23.03,4.47Z"/>
    <path class="cls-4" d="M1763.81,2480.18c124.1.17,248.19.28,372.29.69,7.66.03,16.63-3.84,22.83,4.54-19.01,6.43-38.54,9.2-58.59,8.32-4.71-7.12-12.06-4.56-18.38-4.58-84.98-.25-169.97-.34-254.95-.27-6.34,0-13.66-2.5-18.46,4.47-8.14,1.92-14.57-5.36-22.57-4.18-7.39-2.99-14.78-5.99-22.18-8.98Z"/>
    <path class="cls-4" d="M2387.14,2084.4c3.59,6.38,9.76,5.88,15.72,5.87,125.27-.2,250.54-.41,375.81-.62.17,6.49.42,12.99-4.34,18.31-1.32-4.19-2.03-8.92-8.01-8.99-5.22-.05-10.44-.2-15.66-.21-122.35-.04-244.7-.07-367.05-.1-.03-5.05-.84-10.3,3.52-14.27Z"/>
    <path class="cls-1" d="M2384.59,1869.14c-3.05-7.04-6.72-13.91-5.8-21.99,43.44-.12,86.88-.23,130.32-.35,15.8,4.13,30.13,11.54,44.16,19.64-6,4.21-12.89,2.83-19.45,2.84-49.74.04-99.49-.07-149.23-.14Z"/>
    <path class="cls-4" d="M2734.17,2183.99c-124.11-.22-248.22-.4-372.33-.74-6.97-.02-13.31,1.24-19.22,4.83.79-5.86,4.21-9.95,8.89-13.19,123.99.05,247.97.11,371.96.13,5.97,0,11.93-.37,17.9-.58-1.79,3.64-2.69,7.97-7.21,9.55Z"/>
    <path class="cls-4" d="M1210.78,2089.76c124.88.1,249.76.2,374.64.29,6.71,0,13.69.68,17.94-6.33,4.31,4.28,2.95,9.68,2.92,14.81-131.66.04-263.32.08-394.98.12-1.09-2.91-1.89-5.84-.51-8.89Z"/>
    <path class="cls-1" d="M2095.51,2591.84c-78.05,3.33-155.86,2.51-232.8-13.37,6.78-6.88,15.45-3.98,23.28-4.03,43.86-.3,87.72-.22,131.57-.13,18.06.04,36.54-2.36,53.11,7.89,6.82.54,13.64,1.07,20.46,1.61,1.46,2.67,2.92,5.35,4.38,8.02Z"/>
    <path class="cls-1" d="M2535.98,2462.27c-12.85,7.78-26.83,12.94-40.97,17.74-45.94.23-91.88.59-137.83.56-7.84,0-16.47,2.72-23.24-4.08,28.25-6.5,56.49-13.01,84.74-19.51,31.99,2.71,64.06.49,96.07,1.43,7.18.21,15.07-2.43,21.22,3.86Z"/>
    <path class="cls-4" d="M2712.42,2211.04c-119.63-.07-239.27-.13-358.9-.23-8.22,0-16.43-.35-24.65-.53,2.02-5.14,3.48-10.64,8.7-13.75,6.56,9.36,16.4,5.38,24.76,5.4,119.4.29,238.79.22,358.19.23-1.34,4.2-3.75,7.42-8.1,8.87Z"/>
    <path class="cls-4" d="M1219.11,2062.54c126.43,0,252.87,0,379.3,0,2.84,2.63,2.82,5.99,2.37,9.44-123.27-.04-246.55-.07-369.82-.17-6.83,0-13.43.3-19.23,4.43,0-5.89,2.96-10.19,7.39-13.7Z"/>
    <path class="cls-4" d="M2392.54,2062.58c128.67.03,257.34.06,386.02.09,1.44,2.88,1.6,5.81.33,8.79-124.73.08-249.45.18-374.18.2-4.46,0-8.92-.68-13.38-1.04-1.1-2.91-.62-5.57,1.21-8.04Z"/>
    <path class="cls-4" d="M2776.76,2045.21c-14.2-.31-28.4-.87-42.6-.89-105.5-.13-211-.18-316.51-.15-7.44,0-14.88.86-22.32,1.32-1.08-3.68.67-6.77,2.02-9.96,116.88,0,233.77.05,350.65-.1,7.15,0,15.01,2.57,21.25-3.56,4.73,3.19,6.43,8.09,7.51,13.34Z"/>
    <path class="cls-4" d="M2316.5,2225.42c6.83,7.04,15.55,3.85,23.42,3.87,118.15.29,236.31.34,354.46.44-4.13,5.04-8.06,10.3-14.37,12.93-7.07-8.42-16.72-4.61-25.14-4.63-106.18-.27-212.36-.13-318.53-.19-8.93,0-17.97,1.06-26.74-1.66.68-4.63,2.99-8.21,6.91-10.76Z"/>
    <path class="cls-3" d="M3292.17,2384.5c-16.89,3.87-31.02-2.29-45.17-5.21-82.42-16.99-164.68-34.72-246.98-52.25-3.64-.78-7.19-2-10.76-3.12-5.17-1.62-14.29-.34-11.29-9.5,2.48-7.56,9.8-4.12,15.5-2.77,81.96,19.34,163.91,38.72,245.9,57.94,17.25,4.04,34.62,7.56,52.8,14.91Z"/>
    <path class="cls-1" d="M2226.65,2449.79c35.86-6.35,71.71-12.71,107.56-19.06,27.63.18,55.26.14,82.89.65,11.09.2,22.47-2.27,33.22,2.62-4.98,1.14-9.99,2.19-14.94,3.45-27.19,6.9-54.28,14.33-82.38,16.78-2.24-1.44-4.17-1.23-5.73,1.04-4.41.64-8.82,1.28-13.24,1.92-5.36-6.01-12.49-3.49-18.89-3.59-22.31-.32-44.63-.06-66.94-.37-7.27-.1-15,1.59-21.55-3.43Z"/>
    <path class="cls-4" d="M1530.63,2367.73c107.89.13,215.77.27,323.66.33,5.79,0,12.07,1.38,16.71-3.87,14.92,4.26,29.85,8.51,44.76,12.77-107.3-.02-214.59-.13-321.89.09-7.76.02-16.53-3.28-23.19,4.01-13.82-3.05-27.27-7.18-40.06-13.33Z"/>
    <path class="cls-4" d="M2118.4,2363.87c4.98,6.63,12.24,4.37,18.64,4.37,105.96,0,211.92-.16,317.89-.28-11.33,6.01-22.96,11.25-35.72,13.46-3.97-6.52-10.52-4.56-16.18-4.55-108.33.19-216.66.52-324.99.78-1.46,0-2.93-.53-4.39-.82,14.92-4.32,29.84-8.63,44.75-12.94Z"/>
    <path class="cls-4" d="M1830.41,2349.99c-108.6-.08-217.2-.17-325.8-.23-5.14,0-10.54-.73-14.47,3.9-11.19-2.7-21.5-7.61-31.75-12.66,108.14-.03,216.29,0,324.43-.2,7.11-.01,15.08,2.69,21.09-3.95,8.84,4.38,17.67,8.77,26.51,13.15Z"/>
    <path class="cls-1" d="M1516.36,1842.85c1.63-1.43,3.04-3.3,4.92-4.22,38.12-18.63,78.05-32.6,121.92-47.95-9.86,19.88-18.09,36.49-26.32,53.09-33.31-3.3-66.66-1.79-100.01-.97l-.53-.08s.02.12.02.12Z"/>
    <path class="cls-4" d="M1764.36,2315.6c-5.68,10.57-15.83,6.59-24.08,6.62-97.98.36-195.97.23-293.96.5-7.86.02-16.59-3.14-23.45,3.82-8.85-1.95-15.6-7.84-23.08-12.36,111.29-.1,222.57-.11,333.85-.47,8.52-.03,18,3.35,25.51-4.05,3.86.12,5.88,1.85,5.2,5.94Z"/>
    <path class="cls-4" d="M2549.08,2326.89c-5.85-6.98-13.87-4.19-20.96-4.2-106.73-.16-213.46-.1-320.19-.09,6.15-4.12,12.29-8.23,18.43-12.35,7.83,6.57,17.17,3.53,25.79,3.56,106.7.37,213.39.44,320.09.6-7.16,5.19-14.38,10.26-23.15,12.47Z"/>
    <path class="cls-4" d="M2490.63,2353.72c-6.67-7.36-15.44-4.05-23.25-4.07-103.04-.28-206.08-.26-309.11-.33,7.75-3.98,15.5-7.96,23.25-11.94,7.75,6.79,17.13,3.69,25.73,3.71,103.56.18,207.12.05,310.67,0-8.78,4.9-17.32,10.31-27.28,12.64Z"/>
    <path class="cls-4" d="M2070.67,2582.21c-16.57-10.25-35.05-7.86-53.11-7.89-43.86-.09-87.72-.17-131.57.13-7.83.05-16.51-2.84-23.28,4.03-21.28-2.62-42.03-7.74-62.73-13.15,107.9.34,215.79.68,323.68,1.02,4.47.01,8.98-.14,12.56,3.27-8.94,1.74-17.89,3.48-26.83,5.21-13.26.6-27.5-3.89-38.73,7.38Z"/>
    <path class="cls-4" d="M1596.46,2044.88c-3.48-1.17-7.11-3.67-10.43-3.32-53.48,5.66-107.09,1.41-160.62,2.45-33.5.65-67.03.18-100.55.2-29,.02-58.03.88-86.79-4.18.15-2.65,1.33-4.32,4.19-4.38,109.28-.04,218.56-.06,327.84-.13,8.23,0,16.45-.35,24.68-.54,1.52,3.14,2.57,6.35,1.68,9.89Z"/>
    <path class="cls-1" d="M1506.62,1846.81c3.3-1.3,6.6-2.59,9.89-3.89,0,0-.17-.19-.17-.19,0,0,.53.08.53.08,2.85,6.4,8.71,4.68,13.6,4.68,28.35,0,56.7-.25,85.05-.41,1.06,8.22-3.23,14.91-6.28,21.96-41.01.08-82.01.25-123.02.14-6.45-.02-13.57,2.1-19.02-3.66,11.69-7.2,23.4-14.36,36.79-18.1,0,0,1.56.69,1.56.69l1.08-1.31Z"/>
    <path class="cls-1" d="M2752.04,2323.69c-4.71,7.2-10.45,13.36-17.94,17.75-36.82-.07-73.64.01-110.45-.35-6.94-.07-14.95,2.91-20.43-4.5,11.93-6.61,23.71-13.5,36.68-17.97,30.41.28,60.82.42,91.22.92,7.11.12,15.03-2.62,20.91,4.14Z"/>
    <path class="cls-1" d="M2361.43,2423c23.59-7.29,47.18-14.59,71.46-19.31,28.84.08,57.69-.02,86.53.38,7.04.1,14.96-2.8,20.9,3.86-23.15,8.35-46.21,17.04-71.08,18.89-25.77-.5-51.55-.82-77.32-1.58-10.17-.3-20.65,2.74-30.49-2.25Z"/>
    <path class="cls-5" d="M2720.01,2354.26c-5.91,4.63-11.83,9.25-17.74,13.88-47.6.11-95.2.29-142.8.24-6.41,0-13.59,2.18-18.7-4.16,11.83-4.88,23.66-9.77,35.49-14.65,41.04,0,82.08-.16,123.12.11,7,.05,15.16-3.17,20.62,4.57Z"/>
    <path class="cls-1" d="M2594.35,2435.29c-11.49,7.3-23.38,13.77-36.48,17.77-32.13.07-64.26.25-96.4.13-9.63-.03-19.49,1.67-28.77-2.56,16.74-5.52,33.47-11.03,50.21-16.54,6.9-1.48,13.79-2.96,20.69-4.44,23.33,3.29,46.79.56,70.16,1.56,6.97.3,14.83-2.73,20.59,4.08Z"/>
    <path class="cls-4" d="M2422.71,1546.62c-39.62.16-79.24.47-118.85.46-151.14-.05-302.28-.16-453.42-.44-8.64-.02-17.82,2.24-28.15-4.22,13.46-3.69,24.99-.51,36.26-.53,144.4-.25,288.81-.1,433.21-.15,37.29-.01,74.58-.41,111.87-.64,6.93-.16,13.33,1.56,19.08,5.53Z"/>
    <path class="cls-1" d="M2975.87,1986.24c10.28,6.22,20.96,11.96,27.52,22.68-33.86.42-67.79-3.12-101.57,1.85-15.95-.65-25.71-12.58-37.63-20.59.45-1.33.33-2.6-.36-3.81,0,0,.17-.1.17-.1,37.29-.01,74.58-.02,111.88-.04Z"/>
    <path class="cls-1" d="M2478.18,1680.8c-18.02-4.6-36.04-9.19-54.06-13.79,5.8-7.13,13.85-4.13,20.95-4.23,38.1-.54,76.2-.7,114.31-.98,12.61,2.98,23.85,9.08,35,15.37-5.74,6.98-13.7,4.3-20.76,4.31-31.82.02-63.63-.41-95.45-.68Z"/>
    <path class="cls-4" d="M1931.95,2513.4c5.59-2.96,11.65-2.12,17.58-2.12,139.65-.02,279.3-.07,418.96.15,7.85.01,16.49-3.07,23.56,3.35-2.94,5.41-7.68,6.6-13.32,5.72-5.32-6.08-12.5-3.79-18.92-3.79-111.99.04-223.99.18-335.98.5-19.36.06-38.44,5.35-57.96,3.59-3.33-.3-4.3.85-4.73,4.85-.32,3.02-2.35,2.8-10-2.33-5.67-.42-11.43-.35-16.98-1.4-5.64-1.07-6.94-4.27-2.2-8.53Z"/>
    <path class="cls-1" d="M2559.29,1712.1c-16.02-3.81-30.56-11.31-45.41-18.07,6.06-6.62,14-3.62,21.13-3.82,26.09-.71,52.19-.96,78.29-1.38,10.01,1.15,17.22,9.03,26.84,11.11,2.75,2.58,5.49,5.16,8.24,7.74-5.43,5.43-12.39,3.76-18.86,3.84-14.75.18-29.5-.06-44.25.11-4.93.06-10.64-1.13-13.18,5.24l-.19.11-1.26-1.45s-1.78.71-1.78.71c-1.98-.99-3.96-1.98-5.94-2.97-.59-2.3-1.86-2.49-3.63-1.18Z"/>
    <path class="cls-1" d="M1287.13,1851.18c-17.43,15.84-33.53,33.28-54.32,45.07-13.47-1.99-28.02,5.65-40.56-4.57,0,0,.61-.42.61-.42,2.65.38,3.94-1.05,4.5-3.42,18.81-14.27,37.62-28.54,56.43-42.8,10.43,5.75,23.3-1.69,33.34,6.14Z"/>
    <path class="cls-4" d="M1285.44,1788.19c-42.56,38.13-89.79,69.12-141.8,93.01,42.26-30.15,81-64.46,121.12-97.04,5.41,8.97,13.8,2.61,20.68,4.03Z"/>
    <path class="cls-1" d="M2777.83,2294.98c-4.54,7.48-9.61,14.48-17.2,19.23-28.85-.05-57.7.04-86.55-.27-7.11-.08-14.93,2.51-21.08-3.67,12.21-7.84,24.13-16.23,38.26-20.48,28.64,5.21,57.92-.12,86.56,5.2Z"/>
    <path class="cls-4" d="M2396.09,1922.72c55.88.33,111.76.68,167.64.96,19.38.1,38.76.21,58.14-.06,6.34-.09,13.74,2.3,18.07-5.22,7.48,2.42,12.65,7.9,17.78,13.43-77.02.2-154.03.39-231.04.61-9.72.03-19.44.16-29.16.24-1.28-3.21-2.47-6.43-1.42-9.97Z"/>
    <path class="cls-1" d="M2374.08,1838.36c-1.39-3.09-2.78-6.18-4.17-9.27,1.24-9.3,8.24-8.44,14.83-8.49,20.4-.17,40.8-.42,61.2-.63,0,0,.68.13.68.13,3.5,3.82,7.6,5.85,12.9,4.39,12.42,3.51,24.45,7.95,35.53,14.71-7.55,4.67-15.92,2.35-23.93,2.66-31.09,1.21-62.27-1.82-93.31,1.93,0,0-.16-.11-.16-.11.55-2.93-1.2-4.33-3.56-5.32Z"/>
    <path class="cls-1" d="M2513.57,1577.42c11.39,2.68,21.23,8.7,31.19,14.46-6.69,7.14-15.42,3.95-23.25,4.12-17.11.37-34.01,1.72-50.53,6.43-23.16-6.92-46.32-13.84-69.48-20.76,5.78-6.98,13.75-4.19,20.82-4.24,30.41-.25,60.83-.05,91.24,0Z"/>
    <path class="cls-1" d="M1333.12,2367.76c-27.26-21.32-58.99-34.5-89.81-49.35-1.02-2.59.78-4.18,2.11-5.93,41.51,13.27,81.36,30.9,121.95,46.61,6.02,2.33,12.98,3.23,17.3,8.98-17.18-.1-34.36-.2-51.54-.3Z"/>
    <path class="cls-4" d="M1142.28,1949.95c-41.38,21.54-84.82,36.18-132.24,38.5,28.1-17.17,59-28.56,88.63-42.53,2.85,5.68,8.25,5.27,13.24,5.18,10.13-.18,20.25-.74,30.38-1.15Z"/>
    <path class="cls-4" d="M1192.25,1891.68c12.54,10.22,27.09,2.58,40.56,4.57-21.07,19.16-46.91,30.65-71.31,44.48,1.26-3.87,4.16-8.48-3.6-8.5-10.69-.03-21.38-.01-32.08-.01,22.14-13.51,44.28-27.02,66.42-40.53Z"/>
    <path class="cls-4" d="M2198.68,2434.46c-6.72-4.6-14.38-3.08-21.7-3.08-116.91-.06-233.82-.06-350.74.11-8.77.01-17.94-1.98-26.23,2.95-8.55,1.52-16.13-.94-23.14-5.68,5.79-5.07,12.83-3.08,19.35-3.08,134.6-.05,269.19-.01,403.79.23,7.15.01,15.06-2.59,21.36,3.47-6.93,4.52-14.39,6.65-22.69,5.08Z"/>
    <path class="cls-4" d="M1377.82,1920.28c3.59,3.4,8.09,3.39,12.6,3.38,68.78-.15,137.55-.29,206.33-.43-.36,3.25-.72,6.5-1.08,9.75-68.6-.21-137.21-.4-205.81-.66-8.94-.03-17.87-.44-26.8-.68,4-4.99,8.98-8.69,14.76-11.35Z"/>
    <path class="cls-4" d="M2620.92,1905.44c-69.6-.12-139.2-.2-208.79-.4-6.85-.02-13.51-.02-18.84,5.18-2.63-4.56-1.66-9.63-2.05-14.5,65.54.33,131.09.67,196.63.97,4.49.02,9.04-.17,11.48-5,8.42,2.66,14.72,8.65,21.58,13.75Z"/>
    <path class="cls-3" d="M2958.14,1469.95c-16.44,16.91-38.91,24.08-58.63,35.55-32.82,19.08-66.85,36.09-100.37,53.97-2.61,1.39-5.09,3.16-7.85,4.09-3.65,1.23-8.1,1.39-10.17-2.08-2.26-3.79.66-7.02,3.99-9.09,3.16-1.97,6.48-3.68,9.82-5.34,47.37-23.65,94.76-47.28,142.15-70.92,6.68-3.33,13.29-6.92,21.17-6.08l-.1-.1Z"/>
    <path class="cls-3" d="M3057.11,2466.28c-14.86.72-27.79-6.19-40.97-9.86-42.29-11.76-84.07-25.39-125.92-38.67-7.04-2.24-19.91-2.98-15.63-13.6,3.28-8.16,13.29-.22,19.68,1.84,52.44,16.95,104.66,34.54,155.82,55.11,2.42.97,5.75.63,7.03,5.18Z"/>
    <path class="cls-3" d="M1100.15,2405.61c-13.09,13.88-155.65,59.35-182.13,60.27,19.53-12.39,40.48-15.97,59.57-24.03,19.96-8.42,41.18-12.84,61.3-20.95,19.51-7.86,39.24-16.99,61.27-15.3Z"/>
    <path class="cls-1" d="M2635.14,2408.85c-6.7,11.37-18.42,14.94-29.75,19.11-29.5-4.82-59.24-1.26-88.84-2.62,17.39-8.96,35.23-16.83,54.03-22.39,15.48.31,30.97.47,46.44,1.01,6.33.22,13.57-2.2,18.12,4.89Z"/>
    <path class="cls-1" d="M2828.05,2143.73c4.51-13.54,9.02-27.09,13.52-40.63,9.59-7.19,20.77-3.53,31.27-4.57,0,0,.06.1.06.1-.85,2.02-.54,3.64,1.64,4.58,1.82,17.26-1.65,32.74-15.11,44.85-10.29-2.66-21.85,3.86-31.38-4.33Z"/>
    <path class="cls-1" d="M2567.25,1604.49c11.3,4.86,21.78,11.05,31.06,19.18-7.6,4.65-16.04,2.12-24.1,2.74-13.33,1.03-26.9-1.73-40.04,2.5-18.18-4.47-34.57-13.48-51.76-20.46,6.23-5.75,13.93-3.38,21.04-3.51,21.26-.38,42.53-.33,63.8-.45Z"/>
    <path class="cls-3" d="M1040.39,1474.53c13.22-1.47,22.03,8.07,32.47,13.28,37.97,18.95,75.74,38.28,113.52,57.61,4.62,2.36,8.82,5.55,13.22,8.34,3.86,2.44,8.43,5.23,5.9,10.37-2.85,5.79-7.74,2.45-11.46.46-17.1-9.12-34.21-18.23-51.06-27.79-30.44-17.27-60.66-34.93-91.08-52.25-4.61-2.63-9.24-4.9-11.44-10.1l-.08.08Z"/>
    <path class="cls-4" d="M1624.8,2152.07c-14.17.4-28.34,1.13-42.51,1.15-112.06.11-224.13,0-336.19.26-8.06.02-18.84-4.42-22.09,8.75-4.93-3.76-3.95-9.13-3.91-14.25,134.48-.08,268.96-.17,403.44-.25.42,1.45.84,2.89,1.26,4.34Z"/>
    <path class="cls-1" d="M2608.44,1739.15c-13.1-4.21-24.36-11.94-36.07-18.81.64-1.23.48-2.35-.48-3.36,0,0,.19-.11.19-.12,30.08-.18,60.16-.36,90.24-.54,1.42.02,2.68.48,3.78,1.37,6.38,6.38,13.11,12.12,22.68,12.89,0,1.35-.02,2.7-.04,4.05-26.69,2.97-53.83-2.23-80.31,4.51Z"/>
    <path class="cls-3" d="M2928.31,2564.52c-11.72-4.53-23.37-8.31-34.38-13.42-34.36-15.95-67.24-34.99-102.42-49.28-2.68-1.09-5.14-2.99-7.31-4.96-2.72-2.47-5.59-5.46-2.82-9.43,2.02-2.89,5.34-2.17,8.15-1.22,2.8.95,5.49,2.3,8.12,3.67,42.11,21.89,84.22,43.81,126.31,65.74,2.62,1.36,5.22,2.83,4.35,8.89Z"/>
    <path class="cls-4" d="M1599.68,1906.16c-66.6-.29-133.21-.57-199.8-.86,5.36-5.14,11.4-9.28,18.13-12.42,4.67,5.19,10.92,3.74,16.69,3.74,55.62,0,111.24-.13,166.86-.22-.62,3.25-1.24,6.51-1.86,9.76Z"/>
    <path class="cls-4" d="M2378.73,2112c1.3,4.39,2.75,8.51,8.57,8.41,5.96-.1,11.93.08,17.89.08,111.84-.01,223.68-.07,335.52,0,8.86,0,17.94-1.34,26.5,2.4,0,0-.75,1.83-.75,1.83-4.44.44-8.89,1.28-13.33,1.28-126.1-.04-252.2-.17-378.3-.29-.42-5.06.09-9.85,3.89-13.71Z"/>
    <path class="cls-4" d="M1732.67,2291.04c-8.94.4-17.87,1.13-26.81,1.14-106.14.13-212.28.09-318.43.33-7.91.02-16.56-2.77-23.6,3.63-7.26-.3-11.92-5.53-17.4-9.21,127.09.06,254.17.12,381.25.19,2.86-.22,4.29,1.39,4.99,3.92Z"/>
    <path class="cls-4" d="M2753.14,2152.68c-125.3.12-250.6.25-375.9.28-4.42,0-8.84-1.01-13.26-1.55-.82-1.72-.32-2.88,1.49-3.47,130.2.01,260.39.03,390.59.04-.11,2.1,0,4.33-2.92,4.69Z"/>
    <path class="cls-4" d="M2479.78,1629.02c-9.05,5.03-18.94,3.05-28.47,3.06-87.09.04-174.17-.24-261.26-.17-10.25,0-20.9-2.12-30.65,3.24-12.8,1.99-24.77-1.74-36.76-5.31,7.34-5.69,15.88-2.94,23.83-2.97,99.42-.34,198.85-.34,298.28-.68,7.96-.03,16.51,2.62,23.85-3.03,5.29-1.03,8.32,2.26,11.18,5.87Z"/>
    <path class="cls-4" d="M2559.38,1661.8c-38.1.29-76.21.44-114.31.99-7.1.1-15.15-2.91-20.95,4.23-22.51-4.33-45.02-8.66-67.52-12.99,51.89,0,103.78.08,155.67-.12,7.93-.03,16.41,2.48,23.65-3.22,7.82,3.7,15.64,7.41,23.46,11.11Z"/>
    <path class="cls-3" d="M1931.95,2513.4c-4.74,4.26-3.44,7.47,2.2,8.53,5.55,1.05,11.31.98,16.98,1.4-22.22,4.23-43.54-3.41-65.28-5.33-14.69-1.3-29.32-3.16-44.1-3.4,0,0-.05-1.38-.05-1.38,3.63.23,7.22.26,12.43-3.3-18.64-6.99-36.7-8.36-54.34-11.28-8.08-1.34-16.41-1.19-23.95-4.94,3.64-.97,8.15.05,10.14-4.54,8-1.18,14.43,6.1,22.57,4.18,29.04,7.73,58.42,13.54,88.49,15.25,5.45,5.6,11.92,6.17,18.98,3.82,5.2,2.06,10.53,2.02,15.91.98Z"/>
    <path class="cls-4" d="M2445.93,1819.96c-20.4.22-40.8.46-61.2.63-6.59.06-13.59-.81-14.83,8.49-6.35-12.82-15.04-24.57-19.46-40.9,34.43,7.13,65.72,17.07,95.48,31.77Z"/>
    <path class="cls-4" d="M1736.38,2489.04c-49.05-.03-98.11-.23-147.15.08-7.72.05-16.52-3.32-23.05,4.21-10.84-3.34-21.32-7.52-31.11-13.31,46.25.18,92.49.39,138.74.52,5.9.02,12.05.82,17.09-3.51,15.16,4.01,30.32,8.01,45.48,12.02Z"/>
    <path class="cls-4" d="M1702.35,2263.24c-6.67.61-13.33,1.73-20,1.74-114.39.18-228.79.25-343.19.21-5.78,0-12,1.71-17.65-2.82,7.75-4.77,16.09-2.59,23.93-2.61,109.16-.15,218.32.01,327.48-.15,7.85-.01,16.58,3.1,23.39-3.94,4.05.9,5.33,4,6.03,7.56Z"/>
    <path class="cls-3" d="M1047.04,2561.14c.05-7.91,7.12-8.69,11.93-11.22,38.95-20.47,78.02-40.7,117.07-60.98,1.99-1.03,4-2.1,6.11-2.82,2.85-.98,6.06-1.71,8.31.9,3.38,3.92.39,6.98-2.32,9.42-2.75,2.46-5.84,4.78-9.17,6.33-42.55,19.79-85.17,39.44-127.82,59.01-1.01.46-2.61-.37-4.11-.63Z"/>
    <path class="cls-4" d="M2540.77,2364.23c5.12,6.34,12.29,4.15,18.7,4.16,47.6.05,95.2-.13,142.8-.24-5.21,5.5-10.72,10.62-17.9,13.53-6.41-7.82-15.31-4.39-23.03-4.47-49.29-.51-98.59-.48-147.88-.63,8.54-5.37,17.45-9.91,27.31-12.34Z"/>
    <path class="cls-4" d="M2333.94,2476.49c6.77,6.8,15.4,4.08,23.24,4.08,45.94.03,91.89-.33,137.83-.56-11.3,5.83-22.6,11.64-35.36,13.67-5.3-7.84-13.43-4.62-20.33-4.68-36.23-.3-72.46.07-108.68-.26-6.74-.06-15.25,3.25-19.29-6.16,7.08-3.72,14.29-6.95,22.6-6.1Z"/>
    <path class="cls-4" d="M2288.67,2260.39c113.08-.26,226.15-.54,339.23-.77,9.66-.02,19.32.3,28.98.46-2.41,3.42-5.14,6.46-9.3,7.8-7.61-4.61-16.01-2.47-24.03-2.48-102.75-.2-205.5-.16-308.24-.36-9.56-.02-19.41,1.7-28.61-2.69,0,0,.41-1.57.41-1.57l1.57-.39Z"/>
    <path class="cls-1" d="M2792.26,2264.81c-.05,4.14-3.15,6.23-5.78,8.64-8.46,2.59-11.84,13.7-22.12,13.21-21.97-1.04-44.14,3.05-65.94-2.48,11.38-7.36,22.56-15.09,35.52-19.58,19.44.07,38.88.14,58.32.21Z"/>
    <path class="cls-4" d="M1866.33,1635.31c-8.85-5.7-18.8-3.46-28.27-3.48-62.5-.12-124.99.19-187.49.07-7.14-.01-14.94,2.6-21.38-3.05,2.48-6.32,7.64-6.53,13.22-5.77,7.11,6.24,15.73,3.48,23.66,3.5,77.77.21,155.54.06,233.31.25,7.19.02,15.03-2.66,21.5,3.06-17.94,4.23-36.07,6.46-54.54,5.42Z"/>
    <path class="cls-4" d="M1386.44,1735.45c12.12,7.59,25.42.75,37.97,3.09-17.29,12.18-34.57,24.35-51.86,36.52-9.47-8.87-21.4-1.75-31.75-4.89,12.33-15.36,29.03-24.98,45.64-34.72Z"/>
    <path class="cls-1" d="M2785.81,1798.16c3.68,4.28,7.35,8.56,11.03,12.84-3.97,5.98-10.23,4.94-15.95,4.92-21.28-.1-42.56-.44-63.85-.69-5.11-4.1-10.22-8.2-15.33-12.3,3.69-6.52,10.11-4.97,15.74-4.99,22.79-.08,45.57.12,68.36.22Z"/>
    <path class="cls-4" d="M2401.03,2008.89c105.05-.15,210.11-.22,315.16-.58,8.67-.03,17.93,2.76,25.99-3.13,3.72,1.21,4.75,4.29,5.37,7.67-4.44.42-8.88,1.22-13.32,1.22-105.38.05-210.77.03-316.15-.08-5.94,0-11.87-.92-17.8-1.41-.65-1.41-.4-2.64.76-3.69Z"/>
    <path class="cls-4" d="M2262.19,2283.1c7.11,6.31,15.72,3.39,23.63,3.41,97.14.24,194.29.21,291.43.25,7.35,0,14.7,0,22.42,0-1.24,6.76-5.34,5.36-8.13,5.37-107.61.07-215.21.04-322.82-.12-4.39,0-8.77-1.38-13.15-2.12.97-3.47,2.54-6.35,6.62-6.78Z"/>
    <path class="cls-1" d="M1099.06,2174.81c-5.37-6.63-7.58-13.83-3.94-22.07,20.97.3,41.95,1.9,62.87-.96,0,0-.06-.02-.06-.02-1.05,2.92.4,4.45,2.97,5.37,1.53,5.97,5.66,11.23,4.84,17.83-22.23-.05-44.46-.1-66.69-.15Z"/>
    <path class="cls-4" d="M1408.31,1676.23c7.63,9.16,17.95,2.67,26.82,4.61-19.48,15.57-41.34,27.48-62.44,40.56-5.89-9.06-15.36-3-22.82-5.4,17.71-15.86,37.13-29.2,58.45-39.77Z"/>
    <path class="cls-4" d="M2828.05,2143.73c9.53,8.18,21.09,1.67,31.38,4.33-2.93,9.75-9.63,16.78-17.83,21.89-15.45,9.64-29.09,22.3-51.1,31,14.16-21.58,25.86-39.4,37.55-57.22Z"/>
    <path class="cls-4" d="M2778.58,2237.43c25.69-20.49,55.85-30.61,87.45-38.07-17.76,12.26-30.57,29.6-47.63,42.07-12.64-7.59-26.71-1.07-39.82-4Z"/>
    <path class="cls-4" d="M1273.82,2004.33c6.69,7.22,15.44,3.97,23.21,3.99,98.33.24,196.67.16,295,.16-.02,1.7-.05,3.39-.07,5.09-103.51.16-207.02.34-310.53.4-4.4,0-8.81-1.09-13.21-1.67.41-3.68,1.25-7.06,5.6-7.97Z"/>
    <path class="cls-4" d="M1287.13,1851.18c-10.05-7.83-22.91-.39-33.34-6.14,9.2-15.18,24.16-23.89,38-33.86,9.42,9.11,21.11,2.46,31.54,4.55-10.04,13.89-21.98,25.83-36.2,35.46Z"/>
    <path class="cls-4" d="M2401.46,1981.76c94.71-.21,189.43-.33,284.14-.78,8.61-.04,18,3.01,25.77-3.74,4.19.83,5.41,4,6.05,7.64-5.16.63-10.32,1.82-15.48,1.82-100.18-.03-200.36-.2-300.54-.34.02-1.53.04-3.07.06-4.6Z"/>
    <path class="cls-4" d="M2720.01,2354.26c-5.46-7.74-13.62-4.53-20.62-4.57-41.04-.27-82.09-.12-123.12-.11,8.43-5.5,17.34-9.99,26.96-12.99,5.47,7.42,13.49,4.44,20.43,4.5,36.81.36,73.63.27,110.45.35-3.91,5.14-7.66,10.46-14.09,12.83Z"/>
    <path class="cls-4" d="M1282.42,1770.2c15.09-18.38,34.95-30.99,54.02-44.55-.12,14.4,10.74,7.34,17.24,8.8-16.5,15.03-34.15,28.61-52.56,41.2-4.44-7.96-12.59-3.21-18.7-5.45Z"/>
    <path class="cls-4" d="M2400.93,1955.18c28.21-.38,56.41-1.01,84.62-1.09,57.2-.15,114.41.1,171.61-.1,7.84-.03,16.52,2.76,23.21-4.24,5.51,1.41,7.94,6.43,11.66,9.94-97.07-.18-194.13-.35-291.2-.52-1.26-1.36-1.23-2.69.09-3.99Z"/>
    <path class="cls-4" d="M1305.22,1977.25c6.15,6.3,14.06,3.82,21.23,3.83,80.63.14,161.26.04,241.88.02,8.19,0,16.49.77,23.92-3.89-.19,3.17-.39,6.33-.58,9.5-88.71,0-177.42.05-266.13-.05-8.88,0-17.92,1.32-26.57-2.02.74-3.6,2.06-6.7,6.25-7.39Z"/>
    <path class="cls-4" d="M1004.28,2183.38c12.61-18.38,31.89-27.64,53-38.9,0,14.31,0,27.03,0,39.76-17.67-.28-35.33-.57-53-.85Z"/>
    <path class="cls-1" d="M1098.63,2138.85c1.14-5.62,3.02-10.81,8.17-14.1,16.6,4.43,34.45-3.2,50.63,5.28.52,6.07,2.28,12.11.32,18.22-15.5-.21-31.01-.61-46.51-.55-6.62.03-11.67-1.23-12.62-8.84Z"/>
    <path class="cls-5" d="M1170.59,2183.8c1.57,3,3.15,6,4.72,9.01-.69,7.88-5.85,9.1-12.54,8.99-17.92-.3-35.84-.26-53.76-.36-1.72-4.59-3.45-9.18-5.17-13.77,4.38-5.47,10.57-4.1,16.26-4.11,16.83-.04,33.65.15,50.48.25Z"/>
    <path class="cls-1" d="M2778.58,2237.43c13.11,2.93,27.18-3.59,39.82,4-6.39,6.06-12.77,12.12-19.16,18.17-18.79.2-37.59.39-56.38.59,6.64-9.59,17.55-12.79,27.08-18.03,4.03.88,6.29-1.46,8.15-4.51l.49-.22Z"/>
    <path class="cls-4" d="M2513.57,1577.42c-30.41-.04-60.83-.24-91.24,0-7.07.06-15.04-2.74-20.82,4.24-9.36-.87-18.67-1.86-26.11-8.57,7.13-5.54,15.56-3.98,23.58-4.07,21.51-.25,43.03-.04,64.54-.36,6.37-.09,13.55,2.28,18.61-4.14,11.23,2.47,21.51,7.27,31.45,12.89Z"/>
    <path class="cls-4" d="M1337.19,1951.1c8.2,5.57,17.45,2.88,26.2,2.92,76.28.34,152.56.4,228.84.54-.06,1.7-.12,3.41-.18,5.11-79.11.03-158.22.1-237.33.04-8.13,0-16.46,1.34-24.32-2.12,1.1-3.38,2.75-6.19,6.79-6.49Z"/>
    <path class="cls-4" d="M2613.3,1688.84c-26.1.42-52.2.67-78.29,1.38-7.13.19-15.08-2.8-21.13,3.82-11.9-4.41-23.8-8.82-35.7-13.23,31.82.27,63.63.7,95.45.68,7.05,0,15.01,2.68,20.76-4.31,7.59,1.8,13.24,6.76,18.92,11.66Z"/>
    <path class="cls-1" d="M1004.28,2183.38c17.67.28,35.33.57,53,.85,1.9,4.38,3.81,8.75,5.71,13.13-5.3,5.75-12.32,3.71-18.71,3.85-17.64.4-35.29.39-52.93.54.13-6.22,4.48-9.86,8.44-13.72,2.56-.33,3.98-1.76,4.18-4.35,0,0,.31-.3.31-.3Z"/>
    <path class="cls-4" d="M2729.88,1846.45c-2.12.31-4.3,1.09-6.36.86-9.81-1.08-11.11,3.16-7.18,10.95-16.86-13.83-34.94-26.24-49.38-42.85,7.13.1,14.27.2,21.4.3,16.56,6.57,30.65,16.48,41.53,30.74Z"/>
    <path class="cls-4" d="M2608.44,1739.15c26.47-6.75,53.62-1.54,80.3-4.51,12.63-.65,26.38,6.16,37.38-5.53,6.16,3.07,8.54,9.23,11.95,14.55-31.67.14-63.33.15-95,.51-7.14.08-14.85-2.2-21.19,3.38-5.66-.91-9.66-4.49-13.45-8.4Z"/>
    <path class="cls-3" d="M2608.75,1377.62c-.67,12.66-10.16,18.54-16.01,26.86-9.79,13.91-21.83,26.25-33.27,38.95-3.04,3.37-7.56,5.4-11.81,1.54-3.37-3.06-2.53-7.32,0-10.06,18.98-20.51,38.8-40.15,61.08-57.3Z"/>
    <path class="cls-1" d="M2688.36,1815.71c-7.13-.1-14.27-.2-21.4-.3-18.15-13.47-36.29-26.94-54.44-40.41,1.6-1.59,3.19-3.18,4.79-4.77,24.78,13.45,50.27,25.79,71.05,45.48Z"/>
    <path class="cls-4" d="M2540.31,2407.93c-5.95-6.67-13.86-3.76-20.9-3.86-28.84-.41-57.69-.3-86.53-.38,11.55-5.56,23.65-9.53,36.12-12.41,5.23,5.87,12.24,3.9,18.63,3.98,18.37.23,36.75,0,55.12.21,5.6.07,12.03-1.72,15.78,4.8-4.48,6.34-11.02,7.78-18.22,7.67Z"/>
    <path class="cls-4" d="M1129.74,2097.81c10.92-20.14,32.6-28.97,49.27-44.42-6.05,16.62-12.11,33.24-18.16,49.85-9.27-8.1-20.93-2.52-31.1-5.43Z"/>
    <path class="cls-4" d="M1841.7,2513.22s.05,1.38.05,1.38c-7.89,3.54-16.23,1.96-24.38,1.97-54.62.11-109.24,0-163.86.07-6.6,0-13.55-1.6-19.55,2.87-6.83-1.09-13.03-3.7-18.62-7.77,71.81-.19,143.62-.42,215.43-.49,3.64,0,7.28,1.28,10.92,1.96Z"/>
    <path class="cls-3" d="M1368.32,1380.15c2.81.86,6.43.9,8.31,2.72,17.15,16.65,34.08,33.53,50.87,50.55,3.29,3.33,5.26,8.21.74,11.68-3.48,2.68-6.93-.58-9.57-3.21-18.9-18.84-38.02-37.51-50.42-61.67l.07-.07Z"/>
    <path class="cls-4" d="M1333.12,2367.76c17.18.1,34.36.2,51.54.3,8.33,1.75,16.51,3.9,23.66,8.81-21.25-.12-42.5-.33-63.74-.29-5.65.01-11.93-1.65-16.21,4.11-11.37-2.21-19.91-11.36-31.56-12.9-1.05-2.63-2.09-5.26-3.14-7.89,12.67,5.07,25.58,8.88,39.46,7.85Z"/>
    <path class="cls-4" d="M2872.85,2098.53c-10.49,1.05-21.67-2.62-31.27,4.57v-40.18c15.58,8.27,31.39,14.7,31.27,35.6Z"/>
    <path class="cls-1" d="M1125.83,1932.22c10.69,0,21.38-.02,32.08.01,7.76.02,4.85,4.63,3.6,8.5-3.18,1.62-6.37,3.25-9.55,4.87-3.75-.77-6.76.07-8.36,3.9,0,0-1.3.44-1.3.44-10.13.4-20.25.96-30.38,1.15-4.98.09-10.38.5-13.24-5.18,9.05-4.57,18.11-9.13,27.16-13.7Z"/>
    <path class="cls-4" d="M2785.81,1798.16c-22.79-.1-45.57-.3-68.36-.22-5.62.02-12.05-1.53-15.74,4.99-6.96-3.3-12.46-8.52-17.99-13.7,24.15,0,48.29.12,72.43-.12,6.27-.06,13.44,2.12,18.02-4.78,5.74,3.04,8.04,8.98,11.63,13.83Z"/>
    <path class="cls-4" d="M1109.02,2201.43c17.92.1,35.84.06,53.76.36,6.69.11,11.85-1.12,12.54-8.99,4.59,7.3,9.18,14.61,13.76,21.91-7.35-4.12-15.36-4.38-23.51-4.21-21.29.44-42.58.83-63.86.99-8.58.06-17.68,2.43-25.15-4.29,10.66-2.84,23.59,7.06,32.47-5.77Z"/>
    <path class="cls-3" d="M2607.84,2664.38c-25.94-13.24-42.5-35.37-58.83-58.66,3.36-1.72,5.24-3.23,5.74-2.87,22.35,16.46,40.27,36.79,53.17,61.44l-.09.09Z"/>
    <path class="cls-4" d="M1548.38,1650.62c7.16,5.76,15.63,3.28,23.51,3.33,41.33.24,82.67.09,124,.07-14.86,3.72-29.82,6.89-45.13,8.16-6.68-4.72-14.33-2.92-21.6-2.96-32.6-.19-65.21-.11-97.81-.13,4.55-5.08,10.74-6.86,17.02-8.46Z"/>
    <path class="cls-3" d="M1373.15,2655.04c14.35-16.47,26.73-34.8,43.2-49.71,3.33-3.01,7.71-6.14,11.68-2,4.38,4.56-.36,8.14-3.27,11.09-13.59,13.75-27.33,27.35-41.15,40.88-2.65,2.59-5.83,4.83-10.46-.25Z"/>
    <path class="cls-4" d="M2384.59,1869.14c49.74.06,99.49.18,149.23.14,6.57,0,13.45,1.38,19.45-2.84,5.18,1.33,9.57,4,13.2,7.91-59.69-.07-119.37-.13-179.06-.2-2.97-.53-2.95-2.74-2.83-5.01Z"/>
    <path class="cls-4" d="M2226.65,2449.79c6.56,5.02,14.28,3.33,21.55,3.43,22.31.31,44.63.05,66.94.37,6.4.09,13.53-2.43,18.88,3.59-12.52,7.83-26.78,7.81-40.76,9.04,3.58-7.46,3.58-7.72-.23-7.74-21.26-.09-42.52.2-63.77-.17-7-.12-14.79,2.7-20.8-3.63,5.12-5.14,11.39-5.99,18.18-4.89Z"/>
    <path class="cls-4" d="M2717.04,1815.23c21.28.25,42.56.59,63.85.69,5.71.03,11.98,1.06,15.95-4.92,5.82,3.1,9.16,8.44,12.52,13.77-19.64-.05-39.27-.18-58.91-.07-5.64.03-11.8-1.46-16.31,3.76-5.7-4.41-11.39-8.82-17.09-13.23Z"/>
    <path class="cls-4" d="M2567.25,1604.49c-21.27.12-42.54.07-63.8.45-7.11.13-14.8-2.24-21.04,3.51-5.26.76-8.39-2.54-11.42-6.01,16.52-4.7,33.42-6.06,50.53-6.43,7.82-.17,16.55,3.02,23.25-4.12,8.44,2.51,15.48,7.53,22.48,12.6Z"/>
    <path class="cls-4" d="M2635.14,2408.85c-4.55-7.09-11.79-4.67-18.12-4.89-15.47-.53-30.96-.69-46.44-1.01-1.13-1.46-2.26-2.92-3.39-4.39,4.68-5.47,10.97-7.68,17.59-5.98,20.95,5.38,42.09,1.82,63.14,2.21-4.26,4.68-8.52,9.37-12.78,14.05Z"/>
    <path class="cls-4" d="M1467.19,1865.53c5.45,5.76,12.57,3.64,19.02,3.66,41.01.11,82.01-.06,123.02-.14.11,2.39-.42,4.38-3.11,5.05-50.74,1.56-101.49,1.31-152.22-.12,3.8-3.81,7.41-7.91,13.29-8.43Z"/>
    <path class="cls-1" d="M1340.8,1770.16c10.35,3.14,22.28-3.98,31.75,4.89-6.05,4.54-12.1,9.08-18.14,13.62-10.52-1.35-22.33,5.84-31.47-4.73,5.16-5.62,10.8-10.62,17.86-13.78Z"/>
    <path class="cls-4" d="M1619.09,2457.92c-39.08-.32-78.34,7.83-117.27-4.71,25.23,0,50.47.21,75.7-.12,7.99-.11,16.56,2.48,23.83-3.32,6.76.89,12.67,3.61,17.75,8.16Z"/>
    <path class="cls-1" d="M1323.33,1815.72c-10.43-2.09-22.12,4.56-31.54-4.55,5.02-4.35,10.04-8.7,15.05-13.05,11.33.91,23.24-4.24,33.96,3.19-5.82,4.8-11.64,9.61-17.47,14.41Z"/>
    <path class="cls-4" d="M2432.7,2450.63c9.28,4.24,19.15,2.53,28.78,2.56,32.13.12,64.27-.07,96.4-.13-7,3.78-13.54,8.64-21.89,9.21-6.15-6.28-14.04-3.65-21.22-3.86-32.02-.94-64.08,1.28-96.08-1.43,3.64-4.38,8.69-5.67,14.01-6.35Z"/>
    <path class="cls-4" d="M2361.43,2423c9.84,4.98,20.31,1.95,30.49,2.25,25.77.76,51.55,1.08,77.32,1.58-.28,1.3-.74,2.54-1.38,3.71-6.46-1.98-10.82,6.73-17.54,3.46-10.74-4.89-22.13-2.41-33.22-2.62-27.63-.51-55.26-.47-82.89-.65,8.66-4.03,17.8-6.37,27.22-7.73Z"/>
    <path class="cls-4" d="M1170.59,2183.8c-16.83-.1-33.65-.29-50.48-.25-5.69.01-11.89-1.36-16.26,4.11-3.62-3.53-4.58-8.05-4.79-12.85,22.23.05,44.46.1,66.69.15,2.76,2.32,5.13,4.85,4.84,8.84Z"/>
    <path class="cls-1" d="M1129.74,2097.81c10.17,2.92,21.83-2.67,31.1,5.43-.87,4.15-1.74,8.29-2.6,12.44-9.12,3.43-18.59,1.69-27.92,1.83-9.67.14-9.83-6.23-8.79-13.29,0,0,.84-.88.84-.88,3.86.17,5.84-2.14,7.11-5.39l.26-.14Z"/>
    <path class="cls-4" d="M1121.54,2104.23c-1.04,7.06-.88,13.43,8.79,13.29,9.33-.14,18.8,1.6,27.92-1.83-.27,4.78-.54,9.56-.81,14.34-16.18-8.48-34.03-.84-50.63-5.28.83-9.77,7.67-15.22,14.73-20.52Z"/>
    <path class="cls-4" d="M2377.8,1843.79c31.04-3.75,62.22-.72,93.31-1.93,8.01-.31,16.38,2,23.93-2.66,5.87.37,9.93,4.07,14.08,7.61-43.44.11-86.88.23-130.32.34l-1.62-1.35.62-2.01Z"/>
    <path class="cls-4" d="M2095.51,2591.84c-1.46-2.67-2.92-5.35-4.38-8.02,2.85-.49,5.69-.97,8.53-1.46,18.41.97,36.83,1.95,59.64,3.15-23.42,9.03-43.64,7.4-63.8,6.32Z"/>
    <path class="cls-4" d="M2698.42,2284.18c21.8,5.53,43.97,1.44,65.94,2.48,10.27.49,13.66-10.62,22.12-13.21-3.29,7.01-.91,16.3-8.65,21.53-28.64-5.31-57.92.02-86.56-5.2,1.44-3.08,3.67-5.14,7.15-5.6Z"/>
    <path class="cls-4" d="M2653,2310.27c6.14,6.18,13.96,3.59,21.08,3.67,28.85.31,57.7.22,86.55.27-2.21,3.75-3.77,8.09-8.59,9.47-5.89-6.76-13.8-4.02-20.91-4.14-30.41-.51-60.82-.65-91.22-.92,3.55-4.07,7.56-7.4,13.1-8.35Z"/>
    <path class="cls-4" d="M1431.56,2428.89c7.07-5.97,15.49-2.56,23.28-3.17,23.28-1.81,46.81,2.99,69.96-2.66,6.62,1.22,12.49,4.15,18.01,7.87-27.28.12-54.56.04-81.83.48-7.03.11-14.92-2.68-20.83,3.95-4.65.21-7.85-1.51-8.6-6.47Z"/>
    <path class="cls-4" d="M2975.87,1986.24c-37.29.01-74.58.02-111.88.04,3.18-7.34,9.85-5.07,15.3-5.14,22.03-.32,44.07-.1,66.1-.39,7.19-.09,14.76,1.87,21.41-2.77,4.8.81,6.49,5.02,9.07,8.26Z"/>
    <path class="cls-1" d="M1353.67,1734.45c-6.49-1.47-17.35,5.6-17.24-8.8,1.78-1.43,3.56-2.86,5.34-4.28,3.93.44,6.11-1.75,7.55-5.04,0,0,.52-.32.53-.32,7.47,2.39,16.94-3.66,22.83,5.4-6.34,4.35-12.68,8.7-19.01,13.05Z"/>
    <path class="cls-1" d="M1282.42,1770.2c6.11,2.24,14.26-2.51,18.7,5.45-3.4,2.77-6.79,5.55-10.19,8.32-2.35-.39-3.79.38-3.8,2.99-.23.87-.79,1.28-1.69,1.24-6.88-1.42-15.27,4.94-20.68-4.03,5.12-5.62,10.5-10.92,17.66-13.97Z"/>
    <path class="cls-5" d="M2726.12,1729.11c-11,11.69-24.74,4.88-37.38,5.53.02-1.35.03-2.7.04-4.05-.04-1.51-.08-3.03-.12-4.54,8.93-8.17,19-8.92,29.86-4.63,3.6,1.51,5.87,4.33,7.6,7.69Z"/>
    <path class="cls-4" d="M2760.8,1770.47h-90.65c-.03-1.4-.07-2.81-.1-4.21,20.93-.27,41.86-.34,62.78-.93,6.77-.19,15.54,3.42,18.52-7.13,4.88,2.77,7.5,7.27,9.46,12.28Z"/>
    <path class="cls-4" d="M2516.56,2425.34c29.6,1.37,59.34-2.2,88.83,2.62-2.68,3.95-5.68,7.42-11.05,7.33-5.76-6.81-13.62-3.78-20.59-4.08-23.37-1-46.83,1.73-70.16-1.56,3.55-3.74,8.15-4.36,12.96-4.32Z"/>
    <path class="cls-4" d="M1340.8,1801.32c-10.72-7.43-22.63-2.28-33.96-3.19,4.61-5.6,8.92-11.52,16.11-14.18,9.14,10.57,20.94,3.38,31.47,4.73-4.54,4.21-9.08,8.43-13.61,12.64Z"/>
    <path class="cls-4" d="M1731.16,2458.07c-8.18,4.3-18.48-4.89-25.92,4.08-10.58-2.89-21.16-5.77-31.75-8.66-1.74-3.21-.02-5.57,1.91-7.89,18.2,5.9,37.87,5.19,55.76,12.47Z"/>
    <path class="cls-4" d="M2901.82,2010.78c33.78-4.97,67.71-1.43,101.57-1.85l1.66.44s.41,1.66.41,1.66c-34.52,4.53-69.04,5.5-103.54-.26,0,0-.1,0-.1,0Z"/>
    <path class="cls-4" d="M1615.51,1847.08c-28.35.16-56.7.42-85.05.41-4.88,0-10.75,1.72-13.6-4.68,33.35-.83,66.7-2.34,100.01.96,0,0,.36,2.08.36,2.08,0,0-1.72,1.22-1.72,1.22Z"/>
    <path class="cls-4" d="M2806.85,1904.04c-10.72,3.82-23.74-4.14-33.15,6.44-5.84-2.52-9.03-7.75-12.68-12.48,13.07-.07,25.65-2.77,37.99-6.87-3.27,7.88,6.09,8.08,7.84,12.91Z"/>
    <path class="cls-4" d="M991.35,2201.76c17.65-.15,35.29-.14,52.93-.54,6.38-.14,13.41,1.9,18.71-3.85,4,3.16,8.01,6.33,12,9.49-28.4-.36-56.86,2.36-85.2-1.41.52-1.23,1.04-2.45,1.56-3.68Z"/>
    <path class="cls-4" d="M2534.17,1628.91c13.14-4.23,26.71-1.46,40.04-2.5,8.06-.62,16.5,1.91,24.1-2.74,5.25,1.22,8.75,5.09,12.63,8.36-17.12,0-34.24-.05-51.36.05-5.06.03-10.58-1.23-14.43,3.72-5.34.38-8.4-2.89-10.99-6.9Z"/>
    <path class="cls-4" d="M1098.63,2138.85c.94,7.62,5.99,8.87,12.62,8.84,15.5-.06,31,.34,46.51.55l1.24,1.69-1,1.84c-20.92,2.86-41.91,1.26-62.87.96-.91-5.16-1.09-10.13,3.51-13.89Z"/>
    <path class="cls-3" d="M2099.67,2582.37c-2.84.49-5.69.97-8.53,1.46-6.82-.54-13.65-1.08-20.46-1.61,11.23-11.27,25.47-6.78,38.73-7.38-3.24,2.51-6.49,5.02-9.73,7.53Z"/>
    <path class="cls-4" d="M2742.86,2260.19c18.79-.2,37.59-.39,56.38-.59-1.8,2.44-3.18,5.45-6.98,5.21-19.44-.07-38.88-.14-58.32-.21,2.29-2.86,5.02-4.8,8.92-4.42Z"/>
    <path class="cls-4" d="M2827.88,1847c-19.8,1.35-39.59,2.13-59.28-1.68,18.18-4.24,36.59-2.49,54.91-2.67,2.8.1,4.09,1.72,4.38,4.35Z"/>
    <path class="cls-4" d="M2851.98,1872.9c-17.28,3.45-34.5,2.61-55-.02,11.59-4.97,20.53-2.48,29.13-3.38,7-.73,15.03,2.57,20.41-4.93,4.36,1.12,5.37,4.42,5.47,8.33Z"/>
    <path class="cls-4" d="M2617.31,1770.24c-1.6,1.59-3.19,3.18-4.79,4.77-7.67-4.33-15.35-8.66-23.03-12.99-.73-3.18-1.47-6.35-2.2-9.53,9.42,6.9,21.77,8.86,30.01,17.75Z"/>
    <path class="cls-3" d="M3011.72,2058.72c16.59-.15,33.18-.29,49.78-.44-16.52,8.15-33.13,6.51-49.78.44Z"/>
    <path class="cls-3" d="M1675.4,2445.61c-1.94,2.31-3.65,4.68-1.91,7.89-7.69-1.27-15.02-3.25-22.06-9.93,10-5.56,16.76.51,23.97,2.04Z"/>
    <path class="cls-3" d="M2587.3,1752.49c.73,3.17,1.46,6.35,2.2,9.53-8.18-4.41-16.36-8.81-28.29-15.24,13.51-3.59,19.69,1.47,26.09,5.72Z"/>
    <path class="cls-4" d="M1943.58,1628.08c14.47-4.13,29.1-3.07,43.75-1.32-14.54,1.99-29.09,3.4-43.75,1.32Z"/>
    <path class="cls-3" d="M1245.41,2312.48c-1.33,1.75-3.13,3.34-2.11,5.93-7.11.13-12.8-2.49-18.13-10.01,8.39-2.18,14.52-.44,20.24,4.08Z"/>
    <path class="cls-4" d="M2145.13,2569.02c9.97-6.23,20.81-4.35,31.55-3.39-10.31,3.1-20.7,5.4-31.55,3.39Z"/>
    <path class="cls-4" d="M1758.78,2462.14c-9.22,1.45-18.25,1.57-26.41-3.98,9.24-1.57,17.96.32,26.41,3.98Z"/>
    <path class="cls-3" d="M1293.66,2359.91c1.05,2.63,2.09,5.26,3.14,7.89-1.92-.69-4.11-1.01-5.69-2.16-1.92-1.4-6.58-1.43-4.79-5.13,1.17-2.43,4.7-2.25,7.34-.59Z"/>
    <path class="cls-4" d="M2198.83,2456.39c-5.17,4.3-10.89,3.31-16.66,1.72,5.41-2.01,10.84-3.72,16.66-1.72Z"/>
    <path class="cls-1" d="M1628.53,1582.6c-3.25,4.97-8.26,4.19-13.08,3.98,3.68-3.57,8.12-4.65,13.08-3.98Z"/>
    <path class="cls-4" d="M1476.69,2453.06c5.05-.87,9.98-1.37,12.91,4.24-5.21,1.36-9.11-1.29-12.91-4.24Z"/>
    <path class="cls-4" d="M1808.19,1544.31c-3.67,4.29-8.14,3.63-12.75,2.06,4.02-2.12,8.06-4.11,12.75-2.06Z"/>
    <path class="cls-4" d="M2100.64,1627.04c4.55-1.85,8.97-2.32,13,1.26-4.61,2.38-8.83.87-13-1.26Z"/>
    <path class="cls-4" d="M2459.51,1824.48c-5.29,1.46-9.4-.57-12.9-4.39,5.16-1.05,9.37.65,12.9,4.39Z"/>
    <path class="cls-1" d="M1727.49,1591.25c-.32,1.16-.4,2.34-.26,3.53-2.82-.04-5.64-.08-8.45-.11,2.18-2.99,5.34-3.46,8.71-3.42Z"/>
    <path class="cls-4" d="M1129.48,2097.95c-1.26,3.26-3.25,5.56-7.11,5.39,1.25-3.28,3.14-5.71,7.11-5.39Z"/>
    <path class="cls-4" d="M1759.59,2426.07c2.86-1.76,5.55-1.84,7.97.8-2.9,2.2-5.51,1.38-7.97-.8Z"/>
    <path class="cls-4" d="M2235.49,2427.14c2.37-2.78,5.11-2.65,8.05-1.06-2.47,2.01-5.04,3.16-8.05,1.06Z"/>
    <path class="cls-4" d="M1143.59,1949.51c1.61-3.83,4.61-4.67,8.36-3.9-2.34,2.26-4.63,4.62-8.36,3.9Z"/>
    <path class="cls-4" d="M1623.65,2395.49c3.87-1.43,7.36-1.42,9.8,2.58-3.88,1.48-7.07.32-9.8-2.58Z"/>
    <path class="cls-4" d="M1214.39,2125.62c2.39,2.93,2.24,6.09.86,9.36-2.07-2.96-4.67-5.86-.86-9.36Z"/>
    <path class="cls-4" d="M1426.61,1737.57c1.42-3.72,4.3-4.01,7.62-3.26-2.1,2.13-4.28,4.06-7.62,3.26Z"/>
    <path class="cls-4" d="M2778.09,2237.65c-1.86,3.05-4.12,5.39-8.15,4.51,1.89-3.01,4.25-5.15,8.15-4.51Z"/>
    <path class="cls-3" d="M2213.02,1923.78c2.56-2.27,5.2-4.36,8.97-3.83-2.04,3.49-5.22,4.33-8.97,3.83Z"/>
    <path class="cls-4" d="M1349.33,1716.32c-1.44,3.29-3.62,5.48-7.55,5.04,1.42-3.33,3.74-5.31,7.55-5.04Z"/>
    <path class="cls-4" d="M1619.34,1630.59c-2.28,2.83-5,2.69-7.91,1.17,2.43-1.83,4.97-2.89,7.91-1.17Z"/>
    <path class="cls-3" d="M2962.75,1465.55c.99-1.84,3.97-4.02,4.29-3.16,1.8,4.92-2.92,1.87-4.39,3.05,0,0,.11.11.11.11Z"/>
    <path class="cls-3" d="M1808.46,1784.28c-.61-.31-1.79-.74-1.75-.92.29-1.46.96-1.12,1.71.96,0,0,.04-.04.04-.04Z"/>
    <path class="cls-4" d="M2391.14,2070.8c.9,2.66-.32,4.32-2.58,5.49-.92-2.67-.48-4.7,2.58-5.49Z"/>
    <path class="cls-3" d="M1808.43,2242.27c-.34.62-.83,1.82-1,1.78-1.51-.37-1.14-1.06,1.01-1.78h-.01Z"/>
    <path class="cls-4" d="M1612.18,2116.58c-.66-.99-1.45-1.93-1.9-3.01-.17-.4.46-1.14.72-1.72.68,1.01,1.48,1.96,1.96,3.06.16.37-.5,1.1-.78,1.67Z"/>
    <path class="cls-4" d="M1197.36,1887.84c-.57,2.37-1.85,3.8-4.5,3.42.34-2.67,1.88-3.75,4.5-3.42Z"/>
    <path class="cls-4" d="M2783.75,1869.37c2.1-.59,3.73-.33,4.12,2.23-2.25.87-3.5-.1-4.12-2.23Z"/>
    <path class="cls-4" d="M1192.96,2219.73c-2.43-.66-3.88-2.08-3.7-4.77,2.61.53,3.82,2.13,3.7,4.77Z"/>
    <path class="cls-4" d="M1592.39,1954.16c.44-1.55.88-3.1,1.32-4.65,1.51,2.11,1.27,3.71-1.32,4.65Z"/>
    <path class="cls-4" d="M2401.88,2512.25c.89-1.92,2.12-2.02,3.63-.69-.94,1.67-2.1,2.15-3.63.69Z"/>
    <path class="cls-3" d="M1363.81,1375.69c-.62-.35-1.82-.84-1.78-1.02.38-1.5,1.06-1.13,1.74,1.05,0,0,.03-.03.03-.03Z"/>
    <path class="cls-4" d="M2571.89,1716.98c.95,1.01,1.11,2.13.48,3.36-2.75-.01-4.38-.98-3.51-4.09,0,0,1.78-.71,1.78-.71l1.26,1.45Z"/>
    <polygon class="cls-4" points="1506.62 1846.81 1505.54 1848.11 1503.98 1847.43 1505.09 1846.09 1506.62 1846.81"/>
    <path class="cls-4" d="M2751.71,1842.67c2.4-.4,4.3.05,4.76,2.87-2.79,1.03-3.96-.6-4.76-2.87Z"/>
    <path class="cls-4" d="M1516.33,1842.73s.17.19.17.19-1.03-.82-1.03-.82c0,0,.88.74.88.74,0,0-.02-.11-.02-.11Z"/>
    <path class="cls-4" d="M1287.13,1786.96c0-2.6,1.45-3.37,3.8-2.99-.45,2.04-1.73,3.02-3.8,2.99Z"/>
    <path class="cls-4" d="M2398.68,1950.12c2.67.85,3.5,2.53,2.29,5.12-3.21-.61-3.32-2.61-2.29-5.12Z"/>
    <path class="cls-4" d="M2874.54,2103.2c-2.18-.94-2.49-2.55-1.64-4.58.91.93,1.92,1.79,2.65,2.84.16.23-.65,1.14-1.01,1.73Z"/>
    <path class="cls-4" d="M2863.82,1986.38c.7,1.22.82,2.49.36,3.81-2.8-.33-4.42-1.46-3.13-4.58l1.68-.68,1.08,1.45Z"/>
    <path class="cls-4" d="M2374.08,1838.36c2.36.99,4.11,2.39,3.56,5.32-3.19-.43-3.85-2.56-3.56-5.32Z"/>
    <path class="cls-3" d="M2607.93,2664.29c1.47,1.51,2.95,3.03,4.42,4.54l.03-.03c-1.51-1.47-3.03-2.95-4.54-4.42,0,0,.09-.09.09-.09Z"/>
    <path class="cls-3" d="M2612.35,2668.83c.61.34,1.8.82,1.75,1-.36,1.48-1.03,1.11-1.72-1.03,0,0-.03.03-.03.03Z"/>
    <path class="cls-4" d="M2559.29,1712.1c1.76-1.31,3.04-1.12,3.63,1.18-1.89,1.71-2.92.77-3.63-1.18Z"/>
    <path class="cls-3" d="M1040.47,1474.45c-.62-.32-1.81-.78-1.77-.95.33-1.46.99-1.1,1.7,1.03,0,0,.08-.08.08-.08Z"/>
    <path class="cls-3" d="M2958.24,1470.05c1.5-1.5,3.01-3,4.51-4.5,0,0-.11-.11-.11-.11-1.5,1.5-3,3.01-4.5,4.51,0,0,.1.1.1.1Z"/>
    <path class="cls-4" d="M1003.97,2183.68c-.2,2.59-1.62,4.02-4.18,4.35.1-2.69,1.42-4.21,4.18-4.35Z"/>
    <path class="cls-4" d="M1160.91,2157.13c-2.57-.91-4.02-2.45-2.97-5.37,3.27.53,3.51,2.73,2.97,5.37Z"/>
    <path class="cls-3" d="M1368.25,1380.23c-1.48-1.51-2.96-3.03-4.44-4.54,0,0-.03.03-.03.03,1.51,1.48,3.03,2.96,4.54,4.43,0,0-.07.07-.07.07Z"/>
    <path class="cls-4" d="M2944.89,1959.11c-2.52.69-4.43.22-5.02-2.69,2.75-1.11,4.08.43,5.02,2.69Z"/>
    <path class="cls-2" d="M2069.15,1909.84c-3.26,23.29,3.62,40.72,27.83,48.15,2.83,19.09,6,38.17,1.77,57.46-12.77,58.19-60.24,90.91-121.31,83.65-41.38-4.92-78.52-40.02-88.52-81.14-12.79-52.64,12.98-100.91,45.92-118.68,38.85-20.95,78.06-22.82,116.99.31,5.76,3.42,11.54,6.83,17.31,10.24Z"/>
    <path class="cls-2" d="M2010.01,2163.44c-1.61,7.49,2.81,20.64-6.63,21.06-11.14.49-8.45-12.72-9.35-20.99-.24-2.21-.03-4.46-.14-6.69-.34-6.76,1.39-12.26,9.43-11.87,7.62.37,6.48,6.64,6.67,11.7.08,2.23.01,4.46.01,6.79Z"/>
    <path d="M2534.17,1628.91c2.59,4,5.64,7.27,10.99,6.9,27.66,15.55,55.33,31.09,82.98,46.65,5.77,3.25,12.1,5.83,15.47,12.14-1.15,1.78-2.31,3.57-3.46,5.35-9.62-2.07-16.83-9.96-26.84-11.11-5.69-4.9-11.33-9.86-18.92-11.66-11.15-6.3-22.39-12.39-35-15.37-7.82-3.71-15.65-7.41-23.46-11.12-17.96-9.17-36.1-17.88-56.14-21.67-2.86-3.61-5.88-6.9-11.18-5.87-17.22-8.12-34.63-15.72-53.57-19.03-11.71-5.15-23.54-9.93-36.25-12.04-21.68-7.04-43.43-13.81-66.36-15.52-5.42-5.18-13.17-2.22-19.14-5.47,13.19-4.52,26.81.04,40.12-1.93,7.25.23,14.49.46,21.74.69,3.58,3.77,7.82,3.71,12.32,2.1,2.65.39,5.3.77,7.96,1.16,7.44,6.71,16.76,7.69,26.11,8.57,23.16,6.92,46.32,13.84,69.48,20.76,3.03,3.48,6.16,6.77,11.42,6.01,17.19,6.98,33.58,15.99,51.76,20.46Z"/>
    <path class="cls-3" d="M2333.38,1569.15c-13.31,1.97-26.93-2.6-40.11,1.93-1.17.54-1.84,1.44-2.01,2.72-2.6-.55-5.21-1.11-7.8-1.67-2.01-5.09-8.89-2.39-11.2-7,20.54-1.2,41.05-1.84,61.13,4.03Z"/>
    <path class="cls-4" d="M2367.44,1571.94c-4.5,1.61-8.74,1.67-12.32-2.1,4.46-1.38,8.63-1.05,12.32,2.1Z"/>
    <path class="cls-4" d="M1603.13,2124.84h-379.38c0-.98,0-1.97,0-2.95h379.38c0,.98,0,1.97,0,2.95Z"/>
    <path class="cls-3" d="M2806.85,1904.04c-1.75-4.83-11.12-5.03-7.84-12.91,1.01-6.61,4.52-3.82,7.32-1.71,19.9,14.97,39.67,30.13,59.59,45.08,10.49,7.87,19.92,17.47,33.26,20.8-1.37,1.56-2.73,3.13-4.1,4.69-7.35-1.76-13.39-5.56-19.64-9.96-22.5-15.85-45.67-30.73-68.59-45.98Z"/>
    <path class="cls-4" d="M2895.08,1959.99c1.37-1.56,2.73-3.13,4.1-4.69,9.54-1.82,19.08-2.17,28.77.87-11.05.74-19.23,21.07-32.87,3.82Z"/>
    <path class="cls-4" d="M2291.26,1573.8c.17-1.28.84-2.18,2.01-2.72,5.97,3.25,13.72.29,19.14,5.47-7.44,2.04-14.59,1.94-21.15-2.75Z"/>
    <path d="M2450.31,2434c6.72,3.27,11.07-5.44,17.54-3.46,5.08.91,10.66-.26,15.05,3.55-16.74,5.51-33.47,11.03-50.21,16.54-5.33.68-10.38,1.97-14.02,6.35-28.24,6.5-56.49,13-84.74,19.51-8.31-.85-15.52,2.39-22.6,6.1-4.48,1.1-8.95,2.2-13.43,3.29-3.73-1.35-7.2-1.31-10.09,1.87-67.76,12.85-136.19,18.63-205.1,19.16-12.7.1-25.41.01-42.29.01,21.54-10.25,41.86-6.65,59.9-13.2,20.05.88,39.58-1.88,58.59-8.32,5.87-.68,11.74-1.35,17.61-2.03,3.89,1.52,7.57,1.54,10.79-1.57,35.63-3.05,70.75-9.55,105.94-15.59,13.98-1.23,28.24-1.21,40.76-9.04,4.41-.64,8.83-1.28,13.24-1.92,2.29,1.73,4.17,1.21,5.73-1.04,28.1-2.45,55.18-9.88,82.38-16.78,4.95-1.26,9.96-2.31,14.94-3.45Z"/>
    <path class="cls-4" d="M1916.03,2512.42c-7.06,2.35-13.53,1.78-18.98-3.82,6.94-1.75,13.92-3.73,18.98,3.82Z"/>
    <path class="cls-4" d="M2287.82,2487.76c2.89-3.18,6.37-3.22,10.09-1.87-2.79,3.73-6.24,3.88-10.09,1.87Z"/>
    <path class="cls-4" d="M2187.32,2481.81c-3.22,3.12-6.89,3.09-10.79,1.57,3.11-3.82,6.8-3.71,10.79-1.57Z"/>
    <path class="cls-3" d="M2640.14,1699.95c1.16-1.78,2.31-3.56,3.46-5.35,11.52,7.41,23.03,14.81,34.55,22.22-3.93,1.54-7.93,2.07-12.05.88-1.1-.89-2.37-1.35-3.78-1.37-3.8-4.24-7.96-7.92-13.94-8.65-2.75-2.58-5.49-5.16-8.24-7.74Z"/>
    <path class="cls-4" d="M2666.1,1717.7c4.13,1.19,8.13.66,12.05-.88,3.5,3.08,7.01,6.15,10.51,9.23.04,1.51.08,3.03.12,4.54-9.56-.77-16.3-6.51-22.68-12.89Z"/>
    <path class="cls-3" d="M2482.91,2434.09c-4.4-3.81-9.97-2.64-15.05-3.55.64-1.17,1.1-2.41,1.38-3.71,24.88-1.85,47.93-10.54,71.08-18.89,7.2.11,13.74-1.33,18.22-7.67,2.89-.57,5.78-1.13,8.66-1.7,1.13,1.46,2.26,2.92,3.39,4.39-18.8,5.56-36.65,13.43-54.03,22.39-4.81-.06-9.41.57-12.96,4.31-6.89,1.48-13.79,2.96-20.69,4.44Z"/>
    <path class="cls-4" d="M2352.99,2454.22c-1.57,2.25-3.45,2.77-5.73,1.04,1.56-2.27,3.5-2.48,5.73-1.04Z"/>
    <path class="cls-4" d="M2648.38,1707.68c5.99.73,10.14,4.41,13.94,8.65-30.08.18-60.16.36-90.24.54,2.54-6.37,8.25-5.18,13.18-5.24,14.75-.17,29.5.07,44.25-.11,6.47-.08,13.43,1.59,18.86-3.84Z"/>
  </g>
</svg>