<?xml version="1.0" encoding="UTF-8"?>
<svg id="_Слой_1" data-name="Слой_1" xmlns="http://www.w3.org/2000/svg" viewBox="0 0 3983 3983">
  <defs>
    <style>
      .cls-1 {
        fill: #fff;
      }

      .cls-2 {
        fill: red;
      }
    </style>
  </defs>
  <circle cx="1991.5" cy="1991.5" r="1991.5"/>
  <g>
    <polygon class="cls-2" points="2246.24 2060.46 3266.63 1992.14 2246.59 1923.85 3096.11 1354.49 2178.59 1805.37 2629.62 887.53 2060.46 1736.76 1992.14 716.38 1923.85 1736.42 1354.49 886.89 1805.37 1804.42 887.53 1353.39 1736.77 1922.55 716.38 1990.86 1736.42 2059.15 886.89 2628.51 1804.42 2177.63 1353.39 3095.47 1922.55 2246.24 1990.86 3266.62 2059.15 2246.59 2628.51 3096.11 2177.63 2178.59 3095.47 2629.62 2246.24 2060.46"/>
    <g>
      <path d="M1074.48,2006.16c75.23,185.37,369.51,538.57,853.42,559.76,483.9,21.19,858.29-460.87,898.32-555.69-131.86-230.76-543.92-546.46-847.67-546.28-341.21.2-673.43,197.79-904.07,542.21Z"/>
      <path class="cls-1" d="M2713.16,2026.23s-18.84,21.35-52.74,54.5c-83.64,81.75-259.45,234.96-469.55,312.45-76.48,28.26-157.6,46.47-240.36,47.34-2.39.12-4.9.12-7.28.12-268.37,0-519.15-181.97-657.79-304.66-70.58-62.54-112.14-109.76-112.14-109.76,0,0,364.94-414.42,769.94-414.42s769.93,414.42,769.93,414.42Z"/>
      <path d="M2660.42,2080.73c-83.64,81.75-259.45,234.96-469.55,312.45-76.48,28.26-157.6,46.47-240.36,47.34,19.21-16.45,38.55-33.03,57.77-49.48l24.74-42.2,286.95-489.26c61.91,49.1,94.94,132.36,83.39,210.6,44.71-48.35,63.42-119.43,48.35-183.6,25.62,27.75,38.18,65.43,41.82,102.85,3.77,37.55-.5,75.35-4.9,112.77,36.42-53.5,49.73-122.06,36.04-185.23,43.32,42.82,60.66,110.26,43.2,168.66,30.39-30.01,45.71-74.6,40.06-116.92,29.39,30.14,47.85,70.32,52.49,112.02Z"/>
      <path d="M1445.93,2302.51c-8.04-4.65-15.82-9.42-23.48-14.69-2.13-3.64-3.89-7.41-5.15-11.55l28.63,26.25Z"/>
      <path d="M2224.9,2337.92c-5.27,21.6-18.08,39.56-34.03,55.26-76.48,28.26-157.6,46.47-240.36,47.34-2.39.12-4.9.12-7.28.12-268.37,0-519.15-181.97-657.79-304.66-11.8-22.23-21.47-45.34-29.01-69.32,63.29,62.41,135.88,115.28,214.74,156.22-58.65-32.65-98.96-96.32-103.35-163.38,58.02,68.32,126.33,127.72,202.06,175.69-54.38-44.2-92.68-107.62-106.87-176.19,82.51,85.14,177.57,158.99,283.94,211.23,89.29,43.83,186.86,72.08,286.07,78.61,18.96,1.26,38.05,1.63,57.01,1.26,45.08-.88,90.04-6.53,134.87-12.18Z"/>
      <g>
        <g>
          <circle class="cls-2" cx="1943.23" cy="2026.24" r="414.42"/>
          <path d="M2357.64,2026.24h-18.84c0,109.3-44.25,208.07-115.86,279.72-71.65,71.62-170.42,115.85-279.72,115.86-109.3,0-208.07-44.25-279.72-115.86-71.62-71.64-115.85-170.42-115.86-279.72.01-109.3,44.25-208.07,115.86-279.72,71.64-71.61,170.42-115.85,279.72-115.86,109.3,0,208.07,44.25,279.72,115.86,71.61,71.65,115.85,170.42,115.86,279.72h37.67c-.01-239.29-193.97-433.24-433.25-433.25-239.29.01-433.24,193.97-433.25,433.25.01,239.29,193.97,433.24,433.25,433.25,239.29-.01,433.24-193.97,433.25-433.25h-18.84Z"/>
        </g>
        <circle cx="1943.23" cy="2026.24" r="199.42"/>
        <circle class="cls-1" cx="1814.23" cy="1897.24" r="129"/>
        <path d="M2181.17,2299.96c-91.42,87.71-219.61,112.56-342.32,86.56-73.54-15.58-130.6-58.27-188.35-104.55,68.36,44.45,150.13,67.97,231.66,66.62-64.32-13.93-132.98-34.67-171.76-87.84,86.66,33.94,164.03,38.35,254.33,15.79-78.38,10.94-136.31-2.27-189.2-39.12,50.56,3.9,101.9,7.77,151.59-2.33,112.72-22.9,202.58-118.42,236.68-228.26,9.18,60.14-9.84,123.98-50.43,169.3,81.21-62.18,128.36-166.33,121.5-268.39,23.98,83.75,13.23,176.88-29.2,252.97,64.41-69.68,78.87-170.59,90.34-264.79,36.63,142.13-8.93,302.44-114.85,404.05Z"/>
      </g>
      <path class="cls-2" d="M1173.26,2094.6c179.12,190.87,447.21,385.7,714.1,410.36,168.84,15.94,334.91-44.2,478.51-129.04,112.51-66.73,215.52-149.02,308.51-240.87,13.23-13.2,26.29-26.58,38.82-40.46-24.97,27.83-51.58,54.17-78.76,79.83-184.62,171.75-431.03,334.32-691.2,336.09-288.7-.7-580.46-211.23-769.97-415.92h0Z"/>
      <path class="cls-1" d="M1173.26,1953.32c189.35-204.56,481.3-415.25,769.97-415.91,260.11,1.75,506.58,164.32,691.2,336.09,27.19,25.66,53.79,51.99,78.76,79.83-12.53-13.87-25.59-27.25-38.82-40.46-92.99-91.85-196-174.14-308.51-240.87-143.58-84.83-309.67-144.98-478.51-129.03-266.85,24.67-534.89,219.41-714.1,410.36h0Z"/>
    </g>
  </g>
</svg>